<?xml version="1.0" standalone="no"?>
<!DOCTYPE svg PUBLIC "-//W3C//DTD SVG 1.1//EN" "http://www.w3.org/Graphics/SVG/1.1/DTD/svg11.dtd" >
<svg xmlns="http://www.w3.org/2000/svg">
<metadata>
This is a custom SVG webfont generated by Font Squirrel.
Copyright   : v20  Shareware 10 PoBox 1828 Easton MD 21601
Foundry     : v   Shareware   PoBox Easton MD
</metadata>
<defs>
<font id="BODIDLYboldMedium" horiz-adv-x="1732" >
<font-face units-per-em="2048" ascent="1638" descent="-410" />
<missing-glyph horiz-adv-x="409" />
<glyph unicode=" "  horiz-adv-x="409" />
<glyph unicode="&#x09;" horiz-adv-x="409" />
<glyph unicode="&#xa0;" horiz-adv-x="409" />
<glyph unicode="!" horiz-adv-x="456" d="M20 1083q0 90 53.5 159t153.5 69q102 0 155.5 -69t53.5 -159q0 -66 -25.5 -131t-57 -115.5t-60.5 -139.5t-35 -193h-57q-4 104 -33 192t-61.5 138.5t-59.5 115.5t-27 133zM27 180q0 90 61.5 137.5t136.5 47.5q80 0 144.5 -50.5t64.5 -134.5q0 -72 -54 -126t-153 -54 q-86 0 -143 56t-57 124z" />
<glyph unicode="&#x22;" horiz-adv-x="593" d="M27 1403h237l-49 -393h-143zM326 1403h239l-53 -393h-143z" />
<glyph unicode="#" horiz-adv-x="1148" d="M53 381l25 154h205l51 286h-207l27 156h208l58 334h168l-58 -334h170l56 334h166l-58 -334h232l-27 -156h-229l-52 -286h232l-25 -154h-235l-66 -381h-164l64 381h-168l-64 -381h-167l65 381h-207zM453 535h170l49 286h-168z" />
<glyph unicode="$" horiz-adv-x="1200" d="M45 307q0 76 49 122t115 46q80 0 130 -51t50 -123q0 -53 -26.5 -94t-53 -61.5t-26.5 -22.5q0 -16 62.5 -35.5t115.5 -21.5v421q-68 23 -129.5 55.5t-120.5 83t-95 123t-36 158.5q0 92 41 166t105.5 118t123 68.5t111.5 34.5v185h51v-183q10 0 33.5 1t32.5 1h65v181h57 v-183q90 -6 174 -31.5t153 -85t69 -143.5q0 -70 -46 -112.5t-128 -42.5q-66 0 -109 41t-43 104q0 59 37 117l37 57q0 2 -20.5 9.5t-56.5 15.5t-67 8v-367q186 -84 254 -133q180 -131 181 -325q0 -100 -45.5 -179t-115 -125.5t-139 -71t-135.5 -30.5v-227h-57v225 q-16 -4 -57 -4h-74v-221h-51v227q-416 45 -416 305zM340 1102q0 -51 38 -87t83 -54v264q-47 -10 -84 -40t-37 -83zM512 934q106 -43 131 -51v352q-16 2 -68 2q-47 0 -63 -2v-301zM512 63q20 -2 70 -2q33 0 61 9v352l-131 43v-402zM700 82q55 4 99.5 48t44.5 97 q0 88 -144 170v-315z" />
<glyph unicode="%" horiz-adv-x="1716" d="M78 930q0 170 93 275.5t255 105.5t255 -105.5t93 -275.5q0 -176 -92 -280.5t-256 -104.5t-256 104.5t-92 280.5zM362 743q0 -90 14.5 -122.5t49.5 -32.5t49 32.5t14 122.5v359q0 94 -14 128t-51 34q-35 0 -48.5 -34t-13.5 -128v-359zM463 0l655 1311h135l-651 -1311h-139 zM942 385q0 176 95.5 280.5t248.5 104.5q162 0 256 -103.5t94 -281.5q0 -176 -94 -280.5t-256 -104.5q-160 0 -252 109.5t-92 275.5zM1225 188q0 -82 13 -111.5t48 -29.5q37 0 51.5 29.5t14.5 111.5v390q0 84 -14.5 113.5t-51.5 29.5q-35 0 -48 -29.5t-13 -113.5v-390z" />
<glyph unicode="&#x26;" horiz-adv-x="1765" d="M80 369q0 96 43 168.5t131 121t134 65.5t138 42q18 6 27 8q-74 139 -74 242q0 295 383 295q168 0 256 -61.5t88 -176.5q0 -51 -23.5 -88t-44 -50t-73.5 -42q-10 -6 -14 -8q119 -236 225 -389l47 59q41 51 41 94q0 41 -33 62.5t-80 23.5v58h389v-58q-51 -4 -83.5 -18.5 t-50 -31.5t-46.5 -56l-147 -197q8 -10 33.5 -46t44 -58.5t44 -50t49 -42t44.5 -14.5q8 0 17 2t19 9l15 13q6 5 16.5 16l15.5 16.5t15 19.5t14 18l43 -24q-18 -47 -46.5 -91t-78 -93.5t-128 -78t-177.5 -28.5q-86 0 -157.5 26.5t-95 45t-64.5 57.5q-233 -129 -440 -129 q-193 0 -304.5 99.5t-111.5 269.5zM481 606q0 -88 106.5 -270t200.5 -182q51 0 105 30q-174 260 -315 533q-97 -33 -97 -111zM895 1210q0 -49 129 -270q41 23 51 35t10 41q0 41 -51 139t-88 98q-51 0 -51 -43z" />
<glyph unicode="'" horiz-adv-x="258" d="M12 1403h236l-49 -393l-140 2z" />
<glyph unicode="(" horiz-adv-x="657" d="M31 659q0 156 47 285t114.5 206t147.5 131t142.5 74.5t101.5 20.5q41 0 41 -28q0 -10 -11.5 -16.5t-34 -12.5t-34.5 -12q-37 -23 -48.5 -32t-41 -53t-41 -103.5t-22.5 -175.5t-11 -275q0 -299 27.5 -436.5t91.5 -194.5q27 -25 53.5 -38t41.5 -15t24.5 -8.5t9.5 -20.5 q0 -20 -35 -21q-45 0 -109.5 20.5t-145.5 74t-148.5 131.5t-113.5 208.5t-46 290.5z" />
<glyph unicode=")" horiz-adv-x="659" d="M31 -47q0 14 17.5 22.5t51 22.5t60.5 39q35 33 56.5 76t39.5 175t18 349q0 240 -19 381t-38.5 180t-58.5 76q-23 20 -55.5 32.5t-51 21.5t-18.5 26q0 23 24 22q51 0 118 -21.5t149 -76.5t148.5 -136t112.5 -215t46 -296q0 -145 -45 -268t-111.5 -200t-147.5 -130 t-148.5 -76t-117.5 -23q-30 1 -30 19z" />
<glyph unicode="*" horiz-adv-x="651" d="M63 743q0 41 38 63.5t84 26t84 10.5t38 23.5t-38 24.5t-84 12t-84 25.5t-38 62.5q0 35 23 57.5t57 22.5q39 0 74 -40t62.5 -79t48.5 -39q12 0 12 17q0 14 -27.5 84.5t-27.5 99.5q0 35 21.5 57.5t53.5 22.5q35 0 55.5 -22.5t20.5 -57.5q0 -14 -28.5 -91t-28.5 -93.5 t18 -16.5q14 0 43 39t65 79t70 40q37 0 58.5 -22.5t21.5 -59.5q0 -39 -37.5 -61.5t-83 -25.5t-83 -11t-37.5 -25q0 -14 33.5 -21t89 -16.5t86.5 -23.5q33 -16 32 -62q0 -35 -21.5 -57t-53.5 -22q-31 0 -62 24.5t-50 53t-38.5 53t-32.5 24.5q-14 0 -14 -18q0 -25 26.5 -93.5 t26.5 -84.5q0 -35 -18.5 -59.5t-57.5 -24.5q-35 0 -55 22.5t-20 61.5q0 23 27.5 96.5t27.5 81.5q0 23 -14.5 22.5t-42 -40.5t-64.5 -79.5t-76 -39.5q-35 0 -57.5 22t-22.5 57z" />
<glyph unicode="+" horiz-adv-x="1067" d="M47 389v209h379v385h217v-385h377v-209h-377v-389h-217v389h-379z" />
<glyph unicode="," horiz-adv-x="454" d="M18 180q0 80 52.5 132.5t138.5 52.5q98 0 159.5 -70t61.5 -184q0 -168 -122 -285t-222 -117q-23 0 -23 25q0 18 41 35q86 29 164 100.5t78 150.5q0 14 -14 15q-8 0 -47 -14.5t-92 -14.5q-68 0 -121.5 45t-53.5 129z" />
<glyph unicode="-" horiz-adv-x="813" d="M45 438v158h700v-158h-700z" />
<glyph unicode="." horiz-adv-x="456" d="M20 182q0 78 59.5 131.5t147.5 53.5t148.5 -53.5t60.5 -131.5q0 -80 -60.5 -131t-148.5 -51t-147.5 54t-59.5 128z" />
<glyph unicode="/" horiz-adv-x="692" d="M31 0l377 1311h251l-376 -1311h-252z" />
<glyph unicode="0" horiz-adv-x="1218" d="M55 659q0 303 159 477.5t394 174.5q244 0 399.5 -180.5t155.5 -471.5q0 -301 -160.5 -480t-394.5 -179q-229 0 -391 176t-162 483zM516 360q0 -131 10.5 -195.5t28.5 -83t53 -18.5t52.5 18.5t27.5 83t10 195.5v644q0 150 -19.5 197.5t-70.5 47.5t-71.5 -48t-20.5 -197 v-644z" />
<glyph unicode="1" horiz-adv-x="870" d="M39 0v68h172v1157h-164v65q385 0 621 21v-1243h163v-68h-792z" />
<glyph unicode="2" horiz-adv-x="1177" d="M53 0q0 119 39 215t83 146.5t130 132.5l31 28q29 29 97.5 85.5t99 89t60.5 104t30 164.5q0 145 -58.5 211.5t-148.5 66.5q-35 0 -68 -9t-50 -21.5t-17 -20.5q0 -10 27 -22l60 -23q32 -12 59.5 -52t27.5 -102q0 -80 -53.5 -133t-135.5 -53t-137 57.5t-55 145.5 q0 125 114.5 213t395.5 88q231 0 370.5 -100.5t139.5 -266.5q0 -80 -28 -141.5t-64.5 -99t-110.5 -72.5t-125 -50.5t-147 -41.5q-125 -31 -260.5 -101.5t-135.5 -134.5q0 -16 23 -16q4 0 45 20q2 2 21.5 12.5l26.5 14.5t27.5 14t35.5 14l41 12q26 7 50.5 10t58.5 6t71 3 q74 0 186.5 -15.5t132.5 -15.5q53 0 80 23t51 72h51q0 -43 -10 -96.5t-40 -119t-75 -117.5t-123.5 -88t-177.5 -36q-92 0 -258 41t-202 41q-98 0 -136 -82h-49z" />
<glyph unicode="3" horiz-adv-x="1144" d="M53 309q0 80 56.5 134.5t140.5 54.5q76 0 132 -50.5t56 -146.5q0 -57 -32.5 -101t-65.5 -66.5t-33 -31.5q0 -6 13.5 -15t43 -17.5t68.5 -8.5q92 0 139 67t47 249q0 268 -120 268q-14 0 -41 -3t-39 -3q-41 0 -41 33q0 37 41 37q12 0 38.5 -3.5t41.5 -3.5q66 0 87 72 t21 213q0 147 -46 204.5t-130 57.5q-53 0 -84 -15t-31 -36q0 -10 34 -27.5t68 -54.5t34 -96q0 -78 -47.5 -129t-131.5 -51q-88 0 -138 50t-50 138q0 120 114 201q116 82 369 82q215 0 352.5 -88t137.5 -222q0 -244 -307 -315q168 -51 256 -120.5t88 -196.5 q0 -162 -133.5 -265.5t-423.5 -103.5q-484 0 -484 309z" />
<glyph unicode="4" horiz-adv-x="1255" d="M57 346v94l723 871h264v-889h154v-76h-154v-278h140v-68h-764v68h172v278h-535zM133 422h459v563z" />
<glyph unicode="5" horiz-adv-x="1142" d="M53 285q0 96 53.5 151.5t137.5 55.5q88 0 141 -50.5t53 -132.5q0 -57 -22.5 -97t-48.5 -55l-50 -28q-23 -12 -22 -20q0 -6 13.5 -16.5t43 -20t64.5 -9.5q98 0 149 75t51 265q0 168 -50 240t-156 72q-78 0 -144.5 -36t-72.5 -36q-18 0 -26.5 2t-14 14.5t-2.5 36.5l49 430 q10 121 14 148q0 35 47 37q4 0 53 -11.5t140.5 -22.5t197.5 -11q92 0 173 11t126 22.5t47 11.5q35 0 35 -25q0 -121 -147.5 -239.5t-364.5 -118.5q-125 0 -278 24l-25 -176q0 -6 -2 -18.5t-2 -16.5q0 -16 14 -16q4 0 45 18.5t123 37t183 18.5q236 0 374 -108.5t138 -280.5 q0 -180 -144.5 -295t-433.5 -115q-219 0 -339 80t-120 205z" />
<glyph unicode="6" horiz-adv-x="1220" d="M55 647q0 305 175.5 484.5t443.5 179.5q193 0 298 -77t105 -183q0 -82 -55 -134.5t-139 -52.5q-88 0 -138.5 52.5t-50.5 119.5q0 66 32 104t63.5 53t31.5 26q0 25 -80 24q-131 0 -173 -89t-42 -294v-178q117 94 270.5 94t261 -96t107.5 -274q0 -184 -132 -295t-367 -111 q-283 0 -447 175t-164 472zM535 383q0 -219 11 -270.5t70 -51.5q55 0 68.5 70t13.5 246q0 88 -1 127t-7 84t-21.5 61.5t-39.5 16.5q-33 0 -53.5 -19.5t-28.5 -65.5t-10 -85t-2 -113z" />
<glyph unicode="7" horiz-adv-x="1153" d="M53 823l60 475l55 -6l-18 -137q6 4 37.5 29.5t43 33l41 28t51.5 27.5l55 18q34 11 70.5 15.5t79.5 4.5q94 0 227.5 -37t182.5 -37q53 0 90 22.5t49 22.5q25 0 25 -16q0 -23 -11.5 -42.5t-31 -39t-56 -71.5t-73.5 -124q-84 -158 -118 -297t-39 -293.5t-7 -167.5 q-12 -98 -76.5 -164.5t-171.5 -66.5q-115 0 -176 71.5t-61 176.5q0 51 19 105.5t44 94t73 95t79 85.5l91 86l83 77q43 45 93 89t71.5 64.5t21.5 34.5q0 12 -12 12q-10 0 -47 -19.5t-105.5 -39t-154.5 -19.5q-72 0 -218.5 34t-189.5 38l-23 -168z" />
<glyph unicode="8" horiz-adv-x="1218" d="M55 344q0 76 27 134.5t67.5 89t87 53t87.5 31.5t67.5 18.5t26.5 17.5t-51.5 24.5t-111.5 39t-111.5 86t-51.5 155.5q0 137 132 227.5t390 90.5q242 0 376 -88t134 -230q0 -96 -49 -158.5t-107 -81.5l-108 -36q-49 -16 -49 -31q0 -10 36 -20.5t88 -29t104.5 -49t88 -93 t35.5 -146.5q0 -152 -138 -250t-427 -98q-133 0 -250 30.5t-205 111.5t-88 202zM520 369q0 -106 1 -149.5t9.5 -88.5t26.5 -57.5t51 -12.5q61 0 74.5 57.5t13.5 250.5q0 88 -1 127t-9 84t-26.5 60t-51.5 15q-61 0 -74.5 -60t-13.5 -226zM526 987q0 -92 1 -130t9.5 -78 t25 -51t46.5 -11q55 0 68.5 52t13.5 218q0 84 -1 121t-9 77t-24.5 53t-47.5 13q-55 0 -68.5 -54t-13.5 -210z" />
<glyph unicode="9" horiz-adv-x="1218" d="M55 905q0 182 131 294t367 112q274 0 442 -169t168 -462q0 -309 -176 -494.5t-467 -185.5q-180 0 -291.5 73.5t-111.5 190.5q0 72 53 125t145 53q86 0 134.5 -51t48.5 -117q0 -57 -30 -98t-59.5 -58.5t-29.5 -19.5q0 -31 102 -30q129 0 171 93t42 326v43q0 59 -2 77 t-16 18q-2 0 -27.5 -21.5t-83 -42t-141.5 -20.5q-154 0 -261.5 100t-107.5 264zM516 952q0 -195 12.5 -247t73.5 -52q59 0 72.5 64.5t13.5 234.5q0 168 -13 232.5t-72.5 64.5t-73 -64.5t-13.5 -232.5z" />
<glyph unicode=":" horiz-adv-x="456" d="M20 184q0 82 60.5 133.5t144.5 51.5q88 0 149.5 -57.5t61.5 -127.5q0 -82 -58.5 -133t-146.5 -51q-92 0 -151.5 52t-59.5 132zM20 733q0 80 59.5 132.5t145.5 52.5t148.5 -53.5t62.5 -131.5q0 -84 -62.5 -134t-148.5 -50t-145.5 51t-59.5 133z" />
<glyph unicode=";" horiz-adv-x="491" d="M33 180q0 82 55 137.5t148 55.5q102 0 166.5 -73t64.5 -191q0 -82 -30.5 -154t-75 -118t-95.5 -79.5t-91 -49t-62 -15.5q-27 0 -27 24q0 8 3 13.5t11.5 10.5t18.5 9l32 13q22 9 42 20q84 45 136 110.5t52 112.5q0 23 -21 23l-45 -13q-45 -12 -88 -12q-88 0 -141 48 t-53 128zM33 745q0 80 61.5 135.5t149.5 55.5q90 0 151.5 -56.5t61.5 -134.5q0 -82 -60.5 -133t-152.5 -51q-88 0 -149.5 54t-61.5 130z" />
<glyph unicode="&#x3c;" horiz-adv-x="1058" d="M47 588v133l965 393v-147l-787 -314l787 -305v-151z" />
<glyph unicode="=" horiz-adv-x="1128" d="M72 311v217h1026v-217h-1026zM72 750v217h1026v-217h-1026z" />
<glyph unicode="&#x3e;" horiz-adv-x="1058" d="M47 197v151l787 305l-787 314v147l965 -393v-133z" />
<glyph unicode="?" horiz-adv-x="993" d="M45 1038q0 115 110.5 194t346.5 79q446 0 446 -287q0 -117 -69.5 -180.5t-190.5 -110.5q-96 -41 -142 -90t-46 -147h-64q-4 33 -4 49q0 98 61.5 233t61.5 217q0 115 -59.5 177.5t-149.5 62.5q-31 0 -61.5 -8t-30.5 -14.5t1 -10.5t5 -7l8 -6q4 -3 12.5 -6l14.5 -5 t18.5 -5.5t20.5 -7.5q88 -43 88 -137q0 -76 -51.5 -129t-134.5 -53q-80 0 -135.5 53t-55.5 139zM274 180q0 82 59.5 133.5t143.5 51.5q86 0 146.5 -51.5t60.5 -133.5q0 -78 -54.5 -129t-154.5 -51q-88 0 -144.5 53t-56.5 127z" />
<glyph unicode="@" horiz-adv-x="1507" d="M70 557q-1 10 -1 21q0 108 58 255q63 161 180 269q203 190 449 207q30 2 59 1q233 0 397 -116q162 -113 209 -287q18 -65 18.5 -131t-18.5 -134q-37 -136 -110 -224q-86 -102 -194 -155q-69 -34 -134 -34q-36 0 -70 11q-29 8 -43 22t-17 26.5t-4 36t-3 35.5 q-25 -35 -93.5 -74.5t-127.5 -39.5q-123 0 -191 82q-35 41 -39 128v20q0 76 27 145q43 115 106 208q39 68 129 139q79 62 167 61q13 0 26 -1q70 -6 107.5 -36.5t72.5 -94.5l45 102h142l-187 -446q-6 -12 -19 -45l-19 -45q-5 -12 -16 -43t-8 -39t3 -33q14 -33 56 -33t83 29 q88 57 140.5 117.5t80.5 148.5q28 80 28 159q0 94 -40 185q-57 131 -190.5 201t-270.5 72h-21q-184 0 -372 -133q-178 -127 -248 -328q-39 -112 -39 -211q0 -124 62 -227q119 -197 422 -240q49 -6 99 -6q142 0 296 47q104 35 209 129l53 -41q-182 -162 -420 -203 q-75 -14 -151 -14q-132 0 -269 43q-51 12 -142 64.5t-147 117.5q-66 78 -92 149.5t-28 182.5zM592 315q24 -12 50 -12q57 0 117 62q87 88 134 204q82 197 84 273q0 84 -62 112q-23 10 -46 11q-56 0 -115 -60q-84 -84 -144 -209q-81 -170 -80 -267q0 -85 62 -114z" />
<glyph unicode="A" d="M78 0v66q68 0 102.5 32.5t61.5 106.5l413 1106h396l479 -1245h123v-66h-871v66h156l-141 354h-398l-57 -160q-35 -86 -35 -133q0 -61 82 -61h57v-66h-368zM422 485h352l-176 461z" />
<glyph unicode="B" horiz-adv-x="1730" d="M78 0v66h153v1177h-153v68h956q575 0 576 -318q0 -158 -136.5 -231.5t-396.5 -87.5h14q560 0 560 -328q0 -152 -121 -249t-391 -97h-1061zM801 637v-569h121q37 0 60.5 13t36.5 32.5t20.5 62.5t8.5 81t1 108q0 66 -1 97.5t-10.5 73.5t-26 60t-48 32.5t-80.5 14.5 q-39 0 -82 -6zM801 717q14 0 45 -1t47 -1q82 0 106.5 62.5t24.5 218t-22.5 201.5t-108.5 46h-92v-526z" />
<glyph unicode="C" horiz-adv-x="1406" d="M29 647q0 293 213 489.5t503 196.5q39 0 78 -5t65.5 -10t62.5 -17.5l52.5 -18.5t52.5 -21.5t44 -19.5l160 92h71v-465h-57q-47 115 -107.5 193t-120 112.5t-103.5 48t-85 13.5q-98 0 -156.5 -66.5t-58.5 -197.5v-568q0 -176 77 -251.5t185 -75.5q158 0 261.5 119.5 t129.5 250.5h64q-6 -66 -34 -136t-90 -152t-187 -134.5t-293 -52.5q-317 0 -522 190.5t-205 485.5z" />
<glyph unicode="D" d="M78 0v66h160v1177h-160v68h844q201 0 361.5 -63.5t266 -213t105.5 -370.5q0 -172 -58.5 -304.5t-154.5 -208t-207 -113.5t-227 -38h-930zM799 63h86q88 0 130 44.5t42 189.5v633q0 57 -1 88t-9.5 80t-22.5 74.5t-45 46t-74 20.5h-106v-1176z" />
<glyph unicode="E" horiz-adv-x="1499" d="M70 0v66h157v1177h-157v68h1345v-471h-67l-29 73q-20 53 -29.5 75t-32 65t-41 62.5t-52.5 49t-71.5 42t-91 23.5t-118.5 13h-84v-549q133 8 178 58.5t82 193.5h61v-573h-61q-33 135 -81 191.5t-179 68.5v-567q66 -4 98 -5q117 0 199 31t134 105.5t71.5 119.5t54.5 150 q6 18 10 29h66v-496h-1362z" />
<glyph unicode="F" horiz-adv-x="1495" d="M68 0v66h157v1177h-157v68h1359v-490h-61q-31 109 -61.5 176.5t-84 129t-135 89t-200.5 27.5h-86v-547q133 2 184 58.5t84 193.5h57v-575h-57q-31 143 -83 195.5t-185 62.5v-565h164v-66h-895z" />
<glyph unicode="G" horiz-adv-x="1576" d="M72 674q0 270 199.5 453.5t494.5 183.5q76 0 148.5 -17.5t108.5 -33t116 -54.5l178 105h57v-443h-43q-188 344 -432 344q-248 0 -248 -342v-581q0 -78 12.5 -128t36 -70.5t41 -26t41.5 -5.5q113 0 113 177v393h-125v57h733v-57h-94v-486q-147 -8 -283 -67 q-164 -76 -344 -76q-330 0 -520 182.5t-190 491.5z" />
<glyph unicode="H" horiz-adv-x="1843" d="M84 0v66h158v1179h-158v66h813v-66h-98v-536h245v536h-96v66h811v-66h-162v-1179h162v-66h-811v66h96v575h-245v-575h98v-66h-813z" />
<glyph unicode="I" horiz-adv-x="987" d="M45 0v66h162v1179h-162v66h897v-66h-164v-1179h164v-66h-897z" />
<glyph unicode="J" horiz-adv-x="1280" d="M57 303q0 100 58.5 152.5t134.5 52.5q70 0 120 -48t50 -118q0 -111 -109 -160q-8 -4 -29.5 -10t-32.5 -12t-11 -17q0 -6 5 -13t24.5 -15.5t51.5 -8.5q115 0 182.5 63.5t67.5 162.5q0 68 -57 186v729h-160v64h869v-64h-154v-794q0 -453 -557 -453q-123 0 -213 26.5 t-134 61.5t-69.5 83t-31 75.5t-5.5 56.5z" />
<glyph unicode="K" horiz-adv-x="1990" d="M90 0v66h158v1179h-158v66h856v-66h-139v-604l436 416q80 74 80 123q0 10 -4 18t-12.5 14.5t-16.5 10.5t-23.5 7t-27.5 5t-31.5 4t-32 3t-35 2t-34.5 1v66h625v-66q-121 0 -210 -49t-208 -168l-80 -78l541 -884h124v-66h-884v66h131l-338 561v-561h139v-66h-856z" />
<glyph unicode="L" horiz-adv-x="1501" d="M70 0v66h157v1179h-157v66h891v-66h-162v-1177h174q82 0 148.5 34.5t105.5 79.5t72.5 117t47 115t29.5 104h58v-518h-1364z" />
<glyph unicode="M" horiz-adv-x="2035" d="M92 0v66q158 10 158 135v1044h-158v66h715l201 -547l198 547h736v-66h-160v-1179h160v-66h-881v66h158v1085l-412 -1151h-74l-411 1151v-958q0 -33 11 -56.5t24.5 -36t44 -20.5t46 -9t56.5 -5v-66h-412z" />
<glyph unicode="N" horiz-adv-x="1667" d="M76 1245v66h712l545 -717v526q0 51 -31.5 80t-62.5 35t-84 10v66h434v-66q-111 -2 -147.5 -46t-36.5 -130v-1069h-313l-777 1036v-823q0 -86 35 -116.5t148 -30.5v-66h-422v66q25 2 31 3t33.5 5t38.5 11l30 19q18 12 25.5 32t7.5 46v948q-31 43 -49.5 62.5t-48 36 t-68.5 16.5z" />
<glyph unicode="O" horiz-adv-x="1531" d="M41 657q0 281 214 481.5t509 200.5q297 0 511 -200.5t214 -481.5q0 -287 -208 -483.5t-517 -196.5q-305 0 -514 197.5t-209 482.5zM637 303q0 -147 29.5 -206.5t97.5 -59.5q66 0 95.5 59.5t29.5 206.5v688q0 158 -30 224.5t-95 66.5q-70 0 -98.5 -67.5t-28.5 -223.5v-688 z" />
<glyph unicode="P" horiz-adv-x="1687" d="M78 0v66h155v1179h-155v66h1003q231 0 380 -102.5t149 -286.5q0 -166 -137.5 -275.5t-419.5 -109.5h-258v-471h184v-66h-901zM795 602q55 -6 63 -6q115 0 142.5 65.5t27.5 260.5q0 186 -27.5 254.5t-121.5 68.5h-84v-643z" />
<glyph unicode="Q" horiz-adv-x="1523" d="M37 668q0 289 204.5 485.5t516 196.5t516.5 -197t205 -485q0 -240 -156 -418t-340 -234q88 -133 225 -133q145 0 226 131l36 -16q-31 -131 -139 -250t-250 -119q-233 0 -233 244v125q-115 -8 -139 -8q-104 0 -219 47t-217.5 130t-169 215t-66.5 286zM627 475 q0 -199 6 -246q61 47 123 47q72 0 123 -51q6 123 6 258v496q0 178 -30 244.5t-97.5 66.5t-99 -68.5t-31.5 -246.5v-500zM639 139q0 -39 28.5 -70.5t86.5 -31.5q45 0 110 33q0 76 -31.5 115.5t-84.5 39.5q-47 0 -78 -24.5t-31 -61.5z" />
<glyph unicode="R" horiz-adv-x="1824" d="M84 29v65h149v1153h-149v64h924q156 0 278.5 -30t204.5 -100.5t82 -176.5q0 -113 -92 -195t-293 -92q213 -59 288.5 -152.5t75.5 -312.5q0 -109 50 -109q35 0 96 62l43 -27q-39 -51 -74 -84t-111.5 -63.5t-173.5 -30.5q-100 0 -173.5 25.5t-115.5 63.5t-67 97.5 t-32 113.5t-7 124q0 158 -18 203q-20 43 -58.5 52t-140.5 9v-594h164v-65h-850zM770 750h119q33 0 55.5 16t33.5 37.5t16 63.5t6 70t1 83q0 121 -28.5 174t-124.5 53h-78v-497z" />
<glyph unicode="S" horiz-adv-x="1181" d="M53 907q0 170 124 287t319 117q131 0 297 -78l194 78h41v-408h-41q-109 162 -170 221q-133 127 -297 127q-68 0 -120 -26.5t-52 -85.5q0 -29 14.5 -54.5t30 -42t56 -38t63.5 -31.5l82 -35q213 -90 293 -141q240 -154 239 -379q0 -170 -138 -294t-355 -124q-166 0 -316 82 l-215 -82h-43v446h39q209 -385 533 -385q84 0 130 35t46 86q0 31 -16.5 57.5t-39 46t-68.5 43t-81 38.5l-100 41l-105 43q-150 63 -247 181.5t-97 274.5z" />
<glyph unicode="T" horiz-adv-x="1564" d="M70 823v488h1425v-488h-53q-6 14 -27.5 77t-35 96.5t-45 88t-64.5 84t-86.5 53t-116.5 23.5v-1179h162v-66h-891v66h162v1179q-35 0 -69 -8t-59.5 -18.5t-52.5 -34.5l-43 -39q-16 -14 -37.5 -52t-30.5 -51.5t-27.5 -58.5t-22.5 -54t-23 -57l-16 -49h-49z" />
<glyph unicode="U" horiz-adv-x="1644" d="M76 1245v66h862v-66h-156v-915q0 -227 254 -228q125 0 202 83t77 196v727q0 43 -10.5 69.5t-34 39t-48 17.5t-65.5 9q-14 2 -22 2v66h436v-66q-109 -10 -135 -31q-53 -37 -54 -176v-620q0 -63 -10 -115.5t-44 -112t-91 -98.5t-160.5 -65.5t-245.5 -26.5q-297 0 -450.5 95 t-153.5 319v831h-151z" />
<glyph unicode="V" horiz-adv-x="1775" d="M80 1243v68h883v-68h-140l312 -805l264 625q31 70 31 100q0 25 -12.5 41.5t-41 24.5t-49 10t-61.5 4v68h430v-68q-84 -2 -124 -27.5t-79 -121.5l-465 -1094h-309l-514 1243h-125z" />
<glyph unicode="W" horiz-adv-x="2273" d="M102 1243v68h754v-68h-80l211 -743l115 348l-115 395h-78v68h731v-68h-106l188 -723l183 600q0 4 4 18.5t4 20.5q0 14 -4 26.5t-15.5 20.5l-19.5 13.5t-28.5 9.5t-30 6t-35 5t-33.5 3v68h424v-68q-100 -8 -136 -42t-73 -148l-322 -1053h-299l-206 721l-226 -721h-299 l-379 1243h-129z" />
<glyph unicode="X" horiz-adv-x="1847" d="M84 0v68q6 0 36 3t41 5t37.5 8t44.5 15l43 24q26 14 48 36.5t47 51.5l272 344l-452 688h-117v68h905v-68h-133l250 -371l135 181q47 63 47 106q0 47 -47 63.5t-135 20.5v68h528v-68q-92 -8 -155.5 -43t-126.5 -115l-217 -266l499 -751h129v-68h-923v68h155l-299 430 l-170 -215q-80 -109 -80 -140q0 -76 125 -75h82v-68h-569z" />
<glyph unicode="Y" horiz-adv-x="1824" d="M84 1243v68h909v-68h-137l340 -561l201 322q4 6 14 24.5t14.5 24.5t12.5 20t11 22l8 19q5 12 6 20.5t3 19.5t2 22q0 16 -12 28.5t-35.5 19.5t-40 10t-43.5 7l-26 2v68h430v-68q-80 -6 -125 -44t-92 -114l-307 -507v-510h161v-68h-889v68h160v444l-440 731h-125z" />
<glyph unicode="Z" horiz-adv-x="1396" d="M63 0v66l633 1171q-125 -2 -212 -26.5t-147.5 -82t-97 -123t-79.5 -174.5h-58l25 480h1204v-56l-635 -1185h146q78 0 143.5 30.5t105 68.5t79.5 106.5t57 109.5l43 113h63l-18 -498h-1252z" />
<glyph unicode="[" horiz-adv-x="710" d="M23 -131v1573h602v-62h-195v-1450h195v-61h-602z" />
<glyph unicode="\" horiz-adv-x="690" d="M31 1311h252l376 -1311h-249z" />
<glyph unicode="]" horiz-adv-x="710" d="M57 -70h195v1450h-195v62h602v-1573h-602v61z" />
<glyph unicode="^" horiz-adv-x="526" d="M37 905l192 393h105l178 -393h-104l-127 301l-138 -301h-106z" />
<glyph unicode="_" horiz-adv-x="1478" d="M45 4h1354v-131h-1354v131z" />
<glyph unicode="`" horiz-adv-x="630" d="M59 1313h308l112 -320h-114z" />
<glyph unicode="a" horiz-adv-x="1245" d="M55 233q0 80 43 137.5t102.5 86t149.5 46t155.5 20.5t149.5 3v267q0 72 -102 71q-20 0 -51 -7t-31 -17q0 -2 16.5 -14.5t33 -40t16.5 -64.5q0 -72 -65.5 -107.5t-156.5 -35.5q-98 0 -147 40.5t-49 106.5q0 193 483 193q258 0 354.5 -56.5t96.5 -220.5v-358q0 -90 7 -119 t27 -29q39 0 80 41l21 -18q-35 -57 -111 -107.5t-184 -50.5q-156 0 -217 137q-131 -137 -332 -137q-139 0 -214 66.5t-75 166.5zM487 283q0 -100 17.5 -133t64.5 -33q37 0 61.5 34.5t24.5 86.5v245q-109 -6 -138.5 -42.5t-29.5 -157.5z" />
<glyph unicode="b" horiz-adv-x="1269" d="M57 86h105v1147h-105v59q373 0 521 19v-537q127 141 268 141q156 0 261 -128t105 -320q0 -188 -104 -327.5t-277 -139.5q-104 0 -178.5 63.5t-109.5 137.5v-201q-133 29 -486 29v57zM578 471q0 -172 20 -262t76 -90q53 0 66.5 70.5t13.5 281.5q0 227 -11 268 q-14 57 -59 58q-106 0 -106 -326z" />
<glyph unicode="c" horiz-adv-x="1077" d="M49 467q0 190 153.5 320t420.5 130q193 0 299 -83.5t106 -204.5q0 -86 -53 -146.5t-139 -60.5q-88 0 -141.5 50t-53.5 136q0 129 135 193q16 4 17 14q0 6 -9.5 15.5t-32 16.5t-51.5 7q-102 0 -148 -89t-46 -292q0 -55 1 -86t6 -84t16.5 -83t31 -63.5t53 -48t78.5 -14.5 q72 0 136.5 31t88 54.5t60.5 64.5l45 -19q-16 -29 -47 -60.5t-83 -72.5t-132 -66.5t-172 -25.5q-254 0 -396.5 128t-142.5 339z" />
<glyph unicode="d" horiz-adv-x="1275" d="M57 463q0 207 107.5 329.5t253.5 122.5q152 0 268 -127v445h-100v59q381 0 520 19v-1225h111v-57q-279 0 -500 -29v186q-39 -82 -117 -134t-178 -52q-156 0 -260.5 129t-104.5 334zM512 475q0 -205 11.5 -277.5t58.5 -72.5q66 0 88 87t22 265q0 315 -110 316 q-47 0 -58.5 -68t-11.5 -250z" />
<glyph unicode="e" horiz-adv-x="1165" d="M53 457q0 193 142.5 327t379.5 134q147 0 258 -48.5t169.5 -128t84.5 -166.5q25 -80 25 -165v-13h-608q0 -70 3 -108.5t15.5 -86.5t35 -73t64.5 -42t103 -17q94 0 182 59t144 137l41 -24q-35 -51 -64 -83t-84 -74t-139 -63.5t-195 -21.5q-262 0 -409.5 128t-147.5 329z M506 451h176v198q0 57 -2 86t-9 65t-26.5 50t-50.5 14q-41 0 -61.5 -32.5t-23.5 -70.5t-3 -112v-198z" />
<glyph unicode="f" horiz-adv-x="823" d="M37 0v57h102v746h-102v63h102q0 57 8.5 111.5t35 117t67.5 108.5t112.5 77t165.5 31q125 0 190.5 -55.5t65.5 -135.5q0 -68 -42 -108.5t-105 -40.5q-59 0 -104.5 34.5t-45.5 90.5q0 45 22.5 75.5t44 44t21.5 17.5q0 14 -38 14q-57 0 -108.5 -53t-51.5 -119 q0 -209 282 -209h11v-63h-109v-746h109v-57h-633z" />
<glyph unicode="g" horiz-adv-x="1144" d="M53 150q0 178 221 237q-205 84 -204 246q0 117 115.5 199.5t342.5 82.5q10 0 158 -12q29 68 105.5 130.5t154.5 62.5q63 0 105.5 -37t42.5 -88q0 -45 -28 -76t-73 -31q-57 0 -81.5 35t-29.5 68.5t-16 33.5q-37 -2 -55 -17t-57 -71l-17 -22q100 -20 180 -87t80 -173 q0 -143 -120.5 -213t-298.5 -70q-33 0 -119 2t-117 2q-84 0 -84 -47q0 -63 139 -63h267q389 0 389 -267q0 -43 -9.5 -81.5t-43 -88t-89 -84t-159 -59t-240.5 -24.5q-459 0 -459 159q0 78 174 125q-174 83 -174 228zM250 -184q0 -129 262 -129q61 0 125.5 7t129 21.5 t105.5 41t41 63.5q0 72 -114 71q-45 0 -136.5 -2t-138.5 -2q-78 0 -239 19q-35 -53 -35 -90zM438 627q0 -125 20.5 -178.5t78.5 -53.5q55 0 73.5 53.5t18.5 178.5q0 66 -2 98.5t-10.5 69t-28 52t-51.5 15.5q-61 0 -80 -56t-19 -179z" />
<glyph unicode="h" horiz-adv-x="1361" d="M61 0v57h109v1176h-109v57q336 0 541 21v-566q117 160 307 160q150 0 215.5 -74.5t65.5 -197.5v-576h110v-57h-593v57h59v568q0 47 -2 71.5t-16.5 49t-42.5 24.5q-45 0 -74 -61.5t-29 -118.5v-533h57v-57h-598z" />
<glyph unicode="i" horiz-adv-x="706" d="M33 0v57h104v754h-104v55q383 0 526 23v-832h117v-57h-643zM102 1135q0 88 68 132t170 44q106 0 166.5 -48.5t60.5 -115.5q0 -176 -231 -176q-115 0 -174.5 48t-59.5 116z" />
<glyph unicode="j" horiz-adv-x="704" d="M33 -135q0 63 45 97t100 34q59 0 97 -37t38 -90q0 -35 -19.5 -60.5t-37.5 -40t-18 -18.5q0 -16 32 -16q51 0 101.5 44t50.5 124q0 127 -172 176v751h-158v56q354 0 559 18v-792q0 -190 -95 -310t-288 -120q-115 0 -175 51t-60 133zM233 1143q0 78 64.5 121t144.5 43 q115 0 172.5 -43t57.5 -119q0 -82 -61.5 -122t-164.5 -40q-96 0 -154.5 43t-58.5 117z" />
<glyph unicode="k" horiz-adv-x="1533" d="M70 0v55h102v1178h-102v57q315 0 528 21v-901l287 258q49 39 49 77q0 43 -39 56.5t-135 13.5v59h569v-59q-131 -6 -203.5 -36.5t-179.5 -121.5l408 -602h110v-55h-696v55h104l-215 346l-59 -53v-293h109v-55h-637z" />
<glyph unicode="l" horiz-adv-x="708" d="M33 0v55h108v1178h-108v57q319 0 538 21v-1256h105v-55h-643z" />
<glyph unicode="m" horiz-adv-x="1961" d="M90 0v55h105v772h-105v60q414 0 496 18v-178q150 190 334 191q74 0 131 -35t80.5 -69t48.5 -87q111 190 331 191q117 0 185.5 -78t68.5 -160v-625h107v-55h-576v55h60v645q0 76 -62 76q-57 0 -81.5 -74.5t-24.5 -154.5v-492h55v-55h-522v55h57v639q0 82 -65 82 q-49 0 -79 -73.5t-30 -141.5v-506h62v-55h-576z" />
<glyph unicode="n" horiz-adv-x="1366" d="M61 0v55h109v772h-109v60q389 0 529 18v-174q135 186 340 187q125 0 197.5 -67t72.5 -163v-633h105v-55h-603v55h64v660q0 66 -57 65q-55 0 -81 -78.5t-26 -158.5v-488h55v-55h-596z" />
<glyph unicode="o" horiz-adv-x="1198" d="M53 449q0 203 153.5 336t395.5 133q238 0 389.5 -133.5t151.5 -335.5q0 -197 -151.5 -323t-389.5 -126q-242 0 -395.5 126t-153.5 323zM514 256q0 -119 20.5 -161t67.5 -42h4q42 0 60 41q18 43 18 162v436q0 100 -18.5 137t-63.5 37q-47 0 -67.5 -36.5t-20.5 -137.5v-436 z" />
<glyph unicode="p" horiz-adv-x="1261" d="M57 -307h107v1128h-107v58q385 0 488 18v-180q35 55 62.5 89t90 68.5t138.5 34.5q158 0 263 -132t105 -324.5t-104.5 -324.5t-259.5 -132q-90 0 -160 43t-102 98v-444h102v-55h-623v55zM573 481q0 -178 20.5 -269t88.5 -91q47 0 57.5 70.5t10.5 289.5q0 182 -11.5 247 t-60.5 65q-105 -1 -105 -312z" />
<glyph unicode="q" horiz-adv-x="1282" d="M59 444q0 193 102.5 327t256.5 134q106 0 175 -49t122 -139v176q154 -18 487 -19v-57h-106v-1126h106v-58h-620v58h102v436q-41 -41 -63.5 -61.5t-80 -46t-120.5 -25.5q-164 0 -262.5 134t-98.5 316zM508 450.5q0 -194.5 13.5 -265t56.5 -70.5q70 0 90 87t20 253 q0 332 -108 331q-45 0 -58.5 -70.5t-13.5 -265z" />
<glyph unicode="r" horiz-adv-x="1159" d="M53 0v57h107v770h-107v60q418 0 533 18v-219q78 117 143.5 174.5t151.5 57.5q98 0 161.5 -58.5t63.5 -146.5q0 -90 -57.5 -149.5t-145.5 -59.5q-98 0 -144 64.5t-50 127.5q-4 39 -13 41q-2 2 -6 2q-33 0 -68.5 -97t-35.5 -179v-406h112v-57h-645z" />
<glyph unicode="s" horiz-adv-x="882" d="M39 0v334h29q55 -98 171.5 -185.5t256.5 -87.5q123 0 122 89q0 39 -28.5 58t-102.5 46q-14 4 -79.5 24.5t-101.5 34t-94 45t-90 64.5t-57.5 87t-25.5 120q0 119 93 198.5t249 79.5q106 0 227 -55l183 66v-283h-25q-147 229 -371 229q-104 0 -104 -78q0 -25 10 -42 t41 -32.5t56.5 -24.5t85 -27.5t100.5 -32.5q258 -90 258 -303q0 -135 -89 -221.5t-249 -86.5q-137 0 -264 64z" />
<glyph unicode="t" horiz-adv-x="894" d="M41 881v73q195 18 314.5 100.5t219.5 256.5h31v-357h209v-73h-209v-656q0 -94 64 -94q98 0 145 221h39q-23 -127 -57 -186q-96 -166 -342 -166q-98 0 -161 21.5t-90.5 63.5t-35.5 80t-8 95v621h-119z" />
<glyph unicode="u" horiz-adv-x="1323" d="M59 840v59q410 0 514 19v-623q0 -35 1 -55.5t6.5 -50t18.5 -44t36 -14.5q106 0 106 211v498h-90v59q371 0 506 19v-832h109v-57q-342 0 -508 -29v174q-43 -49 -79 -81t-106.5 -62.5t-150.5 -30.5q-262 0 -262 264v576h-101z" />
<glyph unicode="v" horiz-adv-x="1292" d="M59 856v62h672v-62h-121l242 -565l172 414q25 61 25 94q0 47 -105 57v62h289v-62q-51 -10 -83 -49t-60 -109l-299 -698h-263l-381 856h-88z" />
<glyph unicode="w" horiz-adv-x="1900" d="M86 856v62h598v-62h-51l223 -606l86 229l-137 377h-62v62h615v-62h-107l195 -569l170 448q14 43 14 62q0 25 -16.5 38t-31.5 16t-52 5v62h285v-62q-80 0 -142 -156l-280 -700h-285l-139 399l-164 -399h-301l-332 856h-86z" />
<glyph unicode="x" horiz-adv-x="1437" d="M66 0v59q70 6 108.5 26.5t83.5 64.5l246 237l-328 469h-110v62h725v-62h-91l181 -250q12 12 41.5 39l42 39t30 32.5t24.5 37t7 34.5q0 37 -28.5 52.5t-92.5 15.5v62h436v-62q-123 -16 -196 -84l-234 -211l355 -502h106v-59h-721v59h86l-200 281q-158 -150 -158 -213 q0 -31 24.5 -46t52 -18.5t81.5 -3.5v-59h-471z" />
<glyph unicode="y" horiz-adv-x="1380" d="M70 -172q0 70 48 117t118 47q68 0 111.5 -39t43.5 -100q0 -49 -19.5 -75t-38 -37t-18.5 -24q0 -8 27 -8q74 0 168 117t129 201l-485 827h-84v59h663v-59h-98l246 -420l178 311q12 18 12 48q0 61 -102 61v59h317v-59q-51 0 -91 -30.5t-93 -125.5l-451 -759 q-57 -96 -95 -148.5t-113.5 -100.5t-168.5 -48q-96 0 -150 56t-54 130z" />
<glyph unicode="z" horiz-adv-x="1202" d="M55 0l543 860h-61q-127 0 -215.5 -86t-128.5 -207h-46l5 351h997l-551 -865h145q209 0 349 303h49l-39 -356h-1047z" />
<glyph unicode="{" horiz-adv-x="514" d="M23 625v49q45 12 106 63t70 90q3 49 3 72q0 24 -14 95q-12 65 -14 77q-8 55 -8 91q0 18 2 32q6 41 37 96q37 68 138 108q92 36 139 36h10v-37q-113 -35 -158 -148q-8 -23 -11.5 -46t-2 -36.5t4.5 -44t3 -45.5q2 -20 9 -64t8 -64.5t-5 -57.5t-23 -74 q-16 -35 -116.5 -100.5t-128.5 -69.5q76 -12 145.5 -70.5t89.5 -103.5q16 -35 23.5 -70.5t5.5 -57t-7 -61.5t-7 -63q-2 -12 -5 -37l-3 -37q-1 -12 -1 -31.5t3 -36t10 -34.5q45 -106 157 -145v-39q-4 0 -9 -1q-47 0 -140 38q-102 41 -139 108q-29 51 -34 95q-2 17 -2 39 q0 35 5 83q0 8 16 103q11 63 11 102q0 20 -3 35q-8 41 -64 93.5t-101 68.5z" />
<glyph unicode="|" horiz-adv-x="106" d="M4 -137v1573h98v-1573h-98z" />
<glyph unicode="}" horiz-adv-x="518" d="M23 -102q115 37 157 147q8 23 11.5 48.5t3.5 35.5t-4.5 48t-4.5 44q-2 18 -9 62.5t-8 65t5 57t25 73.5q14 31 116.5 98.5t128.5 71.5q-76 10 -146.5 68.5t-88.5 103.5q-18 35 -24.5 71t-5.5 58.5t6 63.5t8 63q0 10 4 43t5 46.5t-2 37t-14 45.5q-39 104 -157 148v37h9 q47 0 141 -36q103 -40 143 -108q31 -53 35 -96q2 -14 2 -33q0 -37 -7 -90q-2 -16 -13 -74.5t-13 -85.5q-1 -9 -1 -20q0 -24 3 -60q8 -41 63 -92t103 -65v-49q-45 -12 -106.5 -65.5t-70.5 -92.5q-2 -63 -2 -81.5t12.5 -85.5t14.5 -77q8 -55 8 -90q0 -18 -2 -32 q-6 -40 -37 -95q-37 -70 -139 -109q-93 -36 -140 -37q-5 0 -9 1v37z" />
<glyph unicode="~" horiz-adv-x="1175" d="M31 561q29 334 252 334q70 0 153.5 -40t148 -89t138.5 -91t123 -44q35 0 59.5 14t36.5 42t17.5 50.5t10.5 57t7 45.5h121q-16 -160 -68.5 -249t-177.5 -89q-80 0 -166 40t-146.5 89t-132.5 89q-69 38 -125 38h-6q-39 0 -62.5 -31t-32.5 -64.5t-19 -87.5q-2 -10 -2 -14 h-129z" />
<glyph unicode="&#xa1;" horiz-adv-x="477" d="M20 788q0 70 57.5 124.5t149.5 54.5q102 0 164 -53.5t62 -125.5q0 -88 -58.5 -143t-158.5 -55q-96 0 -156 57t-60 141zM20 -104q0 84 45.5 168.5t92.5 191t49 240.5h63q0 -104 29 -193.5t63.5 -140.5t63.5 -122t29 -144q0 -104 -61.5 -172t-157.5 -68q-94 0 -155 68 t-61 172z" />
<glyph unicode="&#xa2;" horiz-adv-x="1069" d="M49 682q0 186 123 300t281 140v189h51v-178q25 2 65 2h64v176h51v-178q129 -8 232.5 -80t103.5 -201q0 -88 -54.5 -147.5t-140.5 -59.5t-140 51.5t-54 134.5q0 72 39 116t76.5 63.5t37.5 27.5q0 6 -9 14.5t-32.5 16.5t-54.5 8q-188 0 -188 -342q0 -68 1 -100.5t4 -86.5 t10 -81t21.5 -62.5t36 -52t53 -29t74.5 -12.5q66 0 129.5 36t81.5 55l56 61l47 -19q-47 -78 -138.5 -140t-191.5 -79v-225h-51v221q-33 -4 -58 -4q-27 0 -71 4v-221h-51v229q-180 20 -292 149.5t-112 303.5z" />
<glyph unicode="&#xa3;" horiz-adv-x="1359" d="M61 180q0 88 64.5 144.5t167.5 56.5q27 0 56.5 -5t48 -11.5l40 -14.5t25.5 -10q-37 141 -131 276h-172v68h133q-80 164 -80 258q0 145 127 257t393 112q254 0 373 -81t119 -216q0 -90 -53.5 -146.5t-133.5 -56.5q-70 0 -130 50t-60 134q0 76 49 125t98 62q25 6 25 18 q0 4 -19.5 13.5t-47 17.5t-46.5 8q-225 0 -225 -254q0 -98 61 -301h238v-68h-221q10 -113 10 -120q0 -92 -65 -189q215 -41 337 -41q100 0 142.5 28t75.5 112l38 -13q-66 -393 -303 -393q-174 0 -426 164q-170 -164 -303 -164q-86 0 -145.5 52t-59.5 128zM141 184 q0 -45 34 -79.5t91 -34.5q74 0 128.5 49t66.5 104q-100 84 -182 84q-59 0 -98.5 -33t-39.5 -90z" />
<glyph unicode="&#xa5;" horiz-adv-x="1757" d="M80 1243v68h876v-68h-125l322 -563l236 403q27 43 26 93q0 12 -4 21t-15.5 15.5t-19.5 11.5t-26.5 8t-26.5 4l-30.5 4t-28.5 3v68h415v-68q-84 -10 -122.5 -42t-86.5 -116l-294 -507v-181h153v-67h-153v-76h153v-74h-153v-112h153v-68h-858v68h156v112h-156v74h156v76 h-156v67h156v115l-426 731h-121z" />
<glyph unicode="&#xa7;" horiz-adv-x="1007" d="M45 418q0 63 21.5 112.5t63.5 79t72.5 45t78.5 31.5q-66 43 -106 78t-74.5 98.5t-34.5 136.5q0 156 124.5 234t321.5 78q162 0 278.5 -59.5t116.5 -159.5q0 -49 -28.5 -87t-102.5 -38q-51 0 -85 31.5t-34 80.5q0 37 19.5 72t19.5 39q0 27 -47 45t-129 18 q-102 0 -165.5 -32.5t-63.5 -77.5q0 -39 58.5 -77t170.5 -91q23 -10 35 -17l57 -27l68 -33q23 -11 65.5 -35.5t67.5 -44t57.5 -51.5t50 -61.5t30 -70.5t12.5 -84q0 -70 -36 -124t-71 -77.5t-94 -52.5q4 -2 27.5 -21.5t32.5 -27.5l31 -29q22 -20 32 -33.5t26.5 -38t23.5 -46 t13 -49t6 -58.5q0 -135 -115.5 -228.5t-326.5 -93.5q-190 0 -308 64.5t-118 159.5q0 55 39 92t94 37q47 0 87 -35t40 -90q0 -35 -15.5 -70t-15.5 -37q0 -25 55.5 -45t141.5 -20q102 0 153.5 32.5t51.5 79.5q0 49 -58.5 90t-185.5 105l-51 24q-12 6 -61.5 29l-68 32 t-60.5 32.5t-61 40l-48 43t-42 52t-24.5 59.5t-11.5 71zM258 586q0 -55 189.5 -146.5t259.5 -91.5q29 0 48 14.5t19 30.5q0 57 -187.5 147.5t-256.5 90.5q-72 0 -72 -45z" />
<glyph unicode="&#xa8;" horiz-adv-x="1175" d="M297 1147q0 51 31.5 85t79.5 34q49 0 84.5 -35t35.5 -84t-35.5 -82t-84.5 -33q-47 0 -79 33t-32 82zM635 1147q0 49 36 84t85 35t82.5 -34t33.5 -85q0 -49 -33.5 -82t-82.5 -33t-85 33t-36 82z" />
<glyph unicode="&#xa9;" horiz-adv-x="522" d="M86 1487q66 66 158 65q94 0 161.5 -68.5t67.5 -160.5q0 -96 -65.5 -162.5t-159.5 -66.5q-96 0 -164 68q-66 67 -66 159q0 98 68 166zM39 1327q0 -88 62 -151q61 -62 144 -62h5q84 0 144.5 61.5t60.5 147.5t-61.5 146.5t-145.5 60.5q-86 0 -146.5 -58.5t-62.5 -144.5z M127 1325q0 56 38 100q35 42 81 42q6 0 12 -1q20 -2 40.5 -11t23.5 -9q10 16 10 22h14l2 -104h-14q0 4 -12 41q-23 39 -56 47h-4q-38 0 -61 -40q-23 -39 -23 -85v-8q2 -45 23.5 -81t56.5 -38q61 0 74 57q0 4 1 12.5t1 14.5h20q0 -20 -6 -33q-23 -66 -92 -65q-57 0 -93 39 t-36 100z" />
<glyph unicode="&#xaa;" horiz-adv-x="1245" d="M55 233q0 80 43 137.5t102.5 86t149.5 46t155.5 20.5t149.5 3v267q0 72 -102 71q-20 0 -51 -7t-31 -17q0 -2 16.5 -14.5t33 -40t16.5 -64.5q0 -72 -65.5 -107.5t-156.5 -35.5q-98 0 -147 40.5t-49 106.5q0 193 483 193q258 0 354.5 -56.5t96.5 -220.5v-358q0 -90 7 -119 t27 -29q39 0 80 41l21 -18q-35 -57 -111 -107.5t-184 -50.5q-156 0 -217 137q-131 -137 -332 -137q-139 0 -214 66.5t-75 166.5zM487 283q0 -100 17.5 -133t64.5 -33q37 0 61.5 34.5t24.5 86.5v245q-109 -6 -138.5 -42.5t-29.5 -157.5z" />
<glyph unicode="&#xad;" horiz-adv-x="813" d="M45 438v158h700v-158h-700z" />
<glyph unicode="&#xae;" horiz-adv-x="520" d="M89 1469.5q69 66.5 165 70.5h6q95 0 163 -67q71 -70 71 -173q0 -94 -70 -162.5t-166 -68.5q-98 0 -169 71q-69 69 -69 163q0 100 69 166.5zM43 1307q0 -88 64.5 -151.5t150.5 -63.5q86 2 148.5 63.5t62.5 144.5q0 88 -62.5 150.5t-148.5 62.5q-88 0 -151.5 -61 t-63.5 -145zM135 1180v20q4 -2 19.5 0t19.5 8q2 2 2 33v148q0 27 -8 32q-16 12 -31 9v18h135q98 0 101 -64q0 -33 -28 -53t-56 -16q37 -20 49 -43l6 -19q4 -12 6 -20t8.5 -13.5t14.5 -2.5q14 0 14 28v6h16v-10q0 -61 -53 -63q-29 0 -43 24.5t-20 57t-13 38.5q-10 10 -34 11 h-17v-68q0 -23 10 -35q10 -8 35 -8v-20q-45 4 -63 4q-14 0 -36 -1t-34 -1zM223 1397v-76h43q23 0 39 14q11 13 11 42q0 37 -13 48q-10 8 -35 10h-6q-19 0 -26 -5q-13 -8 -13 -33z" />
<glyph unicode="&#xb1;" horiz-adv-x="974" d="M33 217v193h887v-193h-887zM33 717v190h340v228h202v-228h345v-190h-345v-234h-202v234h-340z" />
<glyph unicode="&#xb2;" horiz-adv-x="1177" d="M53 0q0 119 39 215t83 146.5t130 132.5l31 28q29 29 97.5 85.5t99 89t60.5 104t30 164.5q0 145 -58.5 211.5t-148.5 66.5q-35 0 -68 -9t-50 -21.5t-17 -20.5q0 -10 27 -22l60 -23q32 -12 59.5 -52t27.5 -102q0 -80 -53.5 -133t-135.5 -53t-137 57.5t-55 145.5 q0 125 114.5 213t395.5 88q231 0 370.5 -100.5t139.5 -266.5q0 -80 -28 -141.5t-64.5 -99t-110.5 -72.5t-125 -50.5t-148 -41.5q-125 -31 -260 -101.5t-135 -134.5q0 -16 23 -16q4 0 45 20q2 2 21.5 12.5l26.5 14.5t27.5 14t35.5 14l41 12q26 7 50.5 10t58.5 6t71 3 q74 0 186.5 -15.5t132.5 -15.5q53 0 80 23t51 72h51q0 -43 -10 -96.5t-40 -119t-75 -117.5t-123.5 -88t-177.5 -36q-92 0 -258 41t-202 41q-98 0 -136 -82h-49z" />
<glyph unicode="&#xb3;" horiz-adv-x="1144" d="M53 309q0 80 56.5 134.5t140.5 54.5q76 0 132 -50.5t56 -146.5q0 -57 -32.5 -101t-65.5 -66.5t-33 -31.5q0 -6 13.5 -15t43 -17.5t68.5 -8.5q92 0 139 67t47 249q0 268 -120 268q-14 0 -41 -3t-39 -3q-41 0 -41 33q0 37 41 37q12 0 38.5 -3.5t41.5 -3.5q66 0 87 72 t21 213q0 147 -46 204.5t-130 57.5q-53 0 -84 -15t-31 -36q0 -10 34 -27.5t68 -54.5t34 -96q0 -78 -47.5 -129t-131.5 -51q-88 0 -138 50t-50 138q0 120 114 201q116 82 369 82q215 0 352.5 -88t137.5 -222q0 -244 -307 -315q168 -51 256 -120.5t88 -196.5 q0 -162 -133.5 -265.5t-423.5 -103.5q-484 0 -484 309z" />
<glyph unicode="&#xb4;" horiz-adv-x="1181" d="M463 995l108 318h310l-301 -318h-117z" />
<glyph unicode="&#xb5;" horiz-adv-x="1087" d="M29 -270q6 59 27.5 133t21.5 180v870h158v-518q0 -195 38 -241q49 -54 135 -55q11 0 23 1q57 4 115.5 47t77.5 86v680h157v-639q0 -111 25 -163q22 -50 70 -50q15 0 32 5q33 8 57 53q19 36 18 58q0 6 -1 11h33q-6 -90 -74 -151q-61 -61 -147 -62h-5q-69 0 -115 61 q-48 62 -48 116q-10 -33 -103.5 -101.5t-191.5 -73.5h-6q-53 0 -110 34q-60 36 -89 73v-86q0 -55 37 -138t37 -126q0 -131 -86 -131q-49 0 -71 39q-17 30 -17 66z" />
<glyph unicode="&#xb6;" horiz-adv-x="821" d="M37 874q0 100 52 200t149 153q143 84 405 84h139v-54h-98v-1585h-61v1585h-88q-6 0 -17.5 -1t-15.5 -1v-1583h-64v801q-166 2 -283.5 118.5t-117.5 282.5z" />
<glyph unicode="&#xb9;" horiz-adv-x="870" d="M39 0v68h172v1157h-164v65q385 0 621 21v-1243h163v-68h-792z" />
<glyph unicode="&#xba;" horiz-adv-x="1198" d="M53 449q0 203 153.5 336t395.5 133q238 0 389.5 -133.5t151.5 -335.5q0 -197 -151.5 -323t-389.5 -126q-242 0 -395.5 126t-153.5 323zM514 256q0 -119 20.5 -161t67.5 -42h4q42 0 60 41q18 43 18 162v436q0 100 -18.5 137t-63.5 37q-47 0 -67.5 -36.5t-20.5 -137.5v-436 z" />
<glyph unicode="&#xbf;" horiz-adv-x="1021" d="M45 -53q0 41 7 75.5t32 64.5l39 47q14 17 59 45t59.5 36l73.5 39q123 63 153 94t36 98h59q4 -16 4 -53q0 -59 -58 -189t-58 -227q0 -117 59 -180t158 -63q90 0 90 26q0 10 -5 15.5t-24 11.5l-24 8q-35 14 -56.5 28.5t-42 48.5t-20.5 81q0 76 57 131t137 55 q84 0 140.5 -57t56.5 -143q0 -135 -127 -209t-332 -74q-473 0 -473 291zM315 782q0 70 57.5 127.5t155.5 57.5q90 0 147.5 -58.5t57.5 -126.5q0 -86 -53 -139t-156 -53q-90 0 -149.5 55t-59.5 137z" />
<glyph unicode="&#xc0;" d="M78 0v66q68 0 102.5 32.5t61.5 106.5l413 1106h396l479 -1245h123v-66h-871v66h156l-141 354h-398l-57 -160q-35 -86 -35 -133q0 -61 82 -61h57v-66h-368zM422 485h352l-176 461zM575 1645h308l112 -320h-114z" />
<glyph unicode="&#xc1;" d="M78 0v66q68 0 102.5 32.5t61.5 106.5l413 1106h396l479 -1245h123v-66h-871v66h156l-141 354h-398l-57 -160q-35 -86 -35 -133q0 -61 82 -61h57v-66h-368zM422 485h352l-176 461zM750 1327l108 318h309l-301 -318h-116z" />
<glyph unicode="&#xc2;" d="M78 0v66q68 0 102.5 32.5t61.5 106.5l413 1106h396l479 -1245h123v-66h-871v66h156l-141 354h-398l-57 -160q-35 -86 -35 -133q0 -61 82 -61h57v-66h-368zM422 485h352l-176 461zM528 1327l203 318h189l204 -318h-118l-177 131l-180 -131h-121z" />
<glyph unicode="&#xc3;" d="M78 0v66q68 0 102.5 32.5t61.5 106.5l413 1106h396l479 -1245h123v-66h-871v66h156l-141 354h-398l-57 -160q-35 -86 -35 -133q0 -61 82 -61h57v-66h-368zM422 485h352l-176 461zM561 1327q4 74 46 149.5t128 75.5q45 0 129 -31.5t137 -31.5q25 0 41.5 11t19.5 16.5 l19 35.5h70q2 -74 -41 -148.5t-133 -74.5q-47 0 -133 32t-121 32q-43 0 -57.5 -14.5t-26.5 -51.5h-78z" />
<glyph unicode="&#xc4;" d="M78 0v66q68 0 102.5 32.5t61.5 106.5l413 1106h396l479 -1245h123v-66h-871v66h156l-141 354h-398l-57 -160q-35 -86 -35 -133q0 -61 82 -61h57v-66h-368zM422 485h352l-176 461zM549 1491q0 51 31.5 85t78.5 34q49 0 85 -35t36 -84t-35.5 -82t-85.5 -33q-47 0 -78.5 33 t-31.5 82zM887 1491q0 49 35.5 84t85 35t83 -34t33.5 -85q0 -49 -33.5 -82t-83 -33t-85 33t-35.5 82z" />
<glyph unicode="&#xc5;" d="M78 0v66q68 0 102.5 32.5t61.5 106.5l413 1106h396l479 -1245h123v-66h-871v66h156l-141 354h-398l-57 -160q-35 -86 -35 -133q0 -61 82 -61h57v-66h-368zM422 485h352l-176 461zM627 1503q0 78 56 136.5t134 58.5t132.5 -57.5t54.5 -137.5q0 -78 -54.5 -132t-132.5 -54 t-134 55t-56 131zM737 1503q0 -33 23.5 -55.5t56.5 -22.5t55.5 22.5t22.5 55.5q0 35 -22.5 59.5t-55.5 24.5t-56.5 -24.5t-23.5 -59.5z" />
<glyph unicode="&#xc6;" horiz-adv-x="2105" d="M94 0v68q66 4 99.5 31.5t72.5 101.5l512 960q20 41 20.5 51.5t-6 17.5t-19.5 9t-24.5 3t-35.5 1h-43v68h1325v-471h-64q-119 399 -411 399q-57 0 -115 -4v-537q70 2 114 17.5t69.5 55.5t36.5 73t28 102h61v-571h-61q-14 68 -26.5 102.5t-38 74.5t-70.5 58.5t-113 20.5 v-563q18 -2 92 -2q113 0 190.5 30.5t129 104t72 119t55.5 153.5q6 14 8 23h59v-496h-1319v68h158v358h-371l-123 -231q-25 -37 -24 -76q0 -31 25.5 -39t84.5 -12h13v-68h-361zM510 492h340v636z" />
<glyph unicode="&#xc7;" horiz-adv-x="1406" d="M63 651.5q0 282.5 205 471t486 188.5q33 0 63.5 -3t59 -9.5l49 -11.5t49.5 -16l41 -17l41.5 -18t36.5 -15l155 90h68v-447h-57q-43 109 -100.5 184.5t-115 109.5t-100.5 46.5t-82 12.5q-94 0 -150.5 -65t-56.5 -189v-547q0 -168 74 -241t178 -73q106 0 191.5 63.5 t127.5 140.5t56 153h61q-4 -49 -19 -102.5t-57 -119t-102.5 -116.5t-165 -86t-235.5 -35q-305 0 -503 184.5t-198 467zM426 -307l37 76q96 -35 135 -35q41 0 62.5 22.5t21.5 47t-20.5 37t-43.5 12.5q-29 0 -59 -11l74 189l74 -19l-29 -80q6 0 12 1l53 -8q33 -9 63 -38.5 t30 -76.5q-2 -55 -50.5 -109.5t-150.5 -56.5q-105 0 -209 49z" />
<glyph unicode="&#xc8;" horiz-adv-x="1499" d="M70 0v66h157v1177h-157v68h1345v-471h-67l-29 73q-20 53 -29.5 75t-32 65t-41 62.5t-52.5 49t-71.5 42t-91 23.5t-118.5 13h-84v-549q133 8 178 58.5t82 193.5h61v-573h-61q-33 135 -81 191.5t-179 68.5v-567q66 -4 98 -5q117 0 199 31t134 105.5t71.5 119.5t54.5 150 q6 18 10 29h66v-496h-1362zM496 1645h307l112 -320h-114z" />
<glyph unicode="&#xc9;" horiz-adv-x="1499" d="M70 0v66h157v1177h-157v68h1345v-471h-67l-29 73q-20 53 -29.5 75t-32 65t-41 62.5t-52.5 49t-71.5 42t-91 23.5t-118.5 13h-84v-549q133 8 178 58.5t82 193.5h61v-573h-61q-33 135 -81 191.5t-179 68.5v-567q66 -4 98 -5q117 0 199 31t134 105.5t71.5 119.5t54.5 150 q6 18 10 29h66v-496h-1362zM829 1327l109 318h309l-301 -318h-117z" />
<glyph unicode="&#xca;" horiz-adv-x="1499" d="M70 0v66h157v1177h-157v68h1345v-471h-67l-29 73q-20 53 -29.5 75t-32 65t-41 62.5t-52.5 49t-71.5 42t-91 23.5t-118.5 13h-84v-549q133 8 178 58.5t82 193.5h61v-573h-61q-33 135 -81 191.5t-179 68.5v-567q66 -4 98 -5q117 0 199 31t134 105.5t71.5 119.5t54.5 150 q6 18 10 29h66v-496h-1362zM494 1327l202 318h189l205 -318h-119l-176 131l-181 -131h-120z" />
<glyph unicode="&#xcb;" horiz-adv-x="1499" d="M70 0v66h157v1177h-157v68h1345v-471h-67l-29 73q-20 53 -29.5 75t-32 65t-41 62.5t-52.5 49t-71.5 42t-91 23.5t-118.5 13h-84v-549q133 8 178 58.5t82 193.5h61v-573h-61q-33 135 -81 191.5t-179 68.5v-567q66 -4 98 -5q117 0 199 31t134 105.5t71.5 119.5t54.5 150 q6 18 10 29h66v-496h-1362zM526 1468q0 51 32 85t79 34q49 0 85 -34.5t36 -84t-36 -82t-85 -32.5q-47 0 -79 32.5t-32 81.5zM864 1468.5q0 49.5 36 84t85 34.5t83 -33.5t34 -85.5q0 -49 -34 -81.5t-83 -32.5t-85 32.5t-36 82z" />
<glyph unicode="&#xcc;" horiz-adv-x="987" d="M45 0v66h162v1179h-162v66h897v-66h-164v-1179h164v-66h-897zM311 1645h307l113 -320h-115z" />
<glyph unicode="&#xcd;" horiz-adv-x="987" d="M45 0v66h162v1179h-162v66h897v-66h-164v-1179h164v-66h-897zM393 1327l109 318h309l-301 -318h-117z" />
<glyph unicode="&#xce;" horiz-adv-x="987" d="M45 0v66h162v1179h-162v66h897v-66h-164v-1179h164v-66h-897zM197 1327l202 318h189l205 -318h-119l-176 131l-181 -131h-120z" />
<glyph unicode="&#xcf;" horiz-adv-x="987" d="M45 0v66h162v1179h-162v66h897v-66h-164v-1179h164v-66h-897zM195 1446q0 51 31.5 85t78.5 34q49 0 85 -35t36 -84t-36 -82t-85 -33q-47 0 -78.5 33t-31.5 82zM532 1446q0 49 36 84t85 35t83 -34t34 -85q0 -49 -34 -82t-83 -33t-85 33t-36 82z" />
<glyph unicode="&#xd1;" horiz-adv-x="1667" d="M76 0v66q25 2 31 3t33.5 5t38.5 11l30 19q18 12 25.5 32t7.5 46v948q-31 43 -49.5 62.5t-48 36t-68.5 16.5v66h712l545 -717v526q0 51 -31.5 80t-62.5 35t-84 10v66h434v-66q-111 -2 -147.5 -46t-36.5 -130v-1069h-313l-777 1036v-823q0 -86 35 -116.5t148 -30.5v-66 h-422zM571 1327q4 74 46 149.5t128 75.5q45 0 129 -31.5t138 -31.5q25 0 41 11t19 16.5l20 35.5h69q2 -74 -41 -148.5t-133 -74.5q-49 0 -133 32t-121 32q-43 0 -57 -14.5t-27 -51.5h-78z" />
<glyph unicode="&#xd2;" horiz-adv-x="1531" d="M41 657q0 281 214 481.5t509 200.5q297 0 511 -200.5t214 -481.5q0 -287 -208 -483.5t-517 -196.5q-305 0 -514 197.5t-209 482.5zM483 1634h308l112 -319h-115zM637 303q0 -147 29.5 -206.5t97.5 -59.5q66 0 95.5 59.5t29.5 206.5v688q0 158 -30 224.5t-95 66.5 q-70 0 -98.5 -67.5t-28.5 -223.5v-688z" />
<glyph unicode="&#xd3;" horiz-adv-x="1531" d="M41 657q0 281 214 481.5t509 200.5q297 0 511 -200.5t214 -481.5q0 -287 -208 -483.5t-517 -196.5q-305 0 -514 197.5t-209 482.5zM637 303q0 -147 29.5 -206.5t97.5 -59.5q66 0 95.5 59.5t29.5 206.5v688q0 158 -30 224.5t-95 66.5q-70 0 -98.5 -67.5t-28.5 -223.5v-688 zM705 1339l108 318h309l-301 -318h-116z" />
<glyph unicode="&#xd4;" horiz-adv-x="1531" d="M41 657q0 281 214 481.5t509 200.5q297 0 511 -200.5t214 -481.5q0 -287 -208 -483.5t-517 -196.5q-305 0 -514 197.5t-209 482.5zM483 1327l203 318h188l205 -318h-118l-177 131l-180 -131h-121zM637 303q0 -147 29.5 -206.5t97.5 -59.5q66 0 95.5 59.5t29.5 206.5v688 q0 158 -30 224.5t-95 66.5q-70 0 -98.5 -67.5t-28.5 -223.5v-688z" />
<glyph unicode="&#xd5;" horiz-adv-x="1531" d="M41 657q0 281 214 481.5t509 200.5q297 0 511 -200.5t214 -481.5q0 -287 -208 -483.5t-517 -196.5q-305 0 -514 197.5t-209 482.5zM469 1315q4 74 46 149.5t128 75.5q45 0 129 -31.5t137 -31.5q25 0 41.5 11t19.5 16t19 36h70q2 -74 -41 -148.5t-133 -74.5 q-49 0 -133 31.5t-121 31.5q-43 0 -57.5 -14t-26.5 -51h-78zM637 303q0 -147 29.5 -206.5t97.5 -59.5q66 0 95.5 59.5t29.5 206.5v688q0 158 -30 224.5t-95 66.5q-70 0 -98.5 -67.5t-28.5 -223.5v-688z" />
<glyph unicode="&#xd6;" horiz-adv-x="1531" d="M41 657q0 281 214 481.5t509 200.5q297 0 511 -200.5t214 -481.5q0 -287 -208 -483.5t-517 -196.5q-305 0 -514 197.5t-209 482.5zM492 1446q0 51 31.5 85t78.5 34q49 0 85 -35t36 -84t-36 -82t-85 -33q-47 0 -78.5 33t-31.5 82zM637 303q0 -147 29.5 -206.5t97.5 -59.5 q66 0 95.5 59.5t29.5 206.5v688q0 158 -30 224.5t-95 66.5q-70 0 -98.5 -67.5t-28.5 -223.5v-688zM829 1446q0 49 36 84t85 35t83 -34t34 -85q0 -49 -34 -82t-83 -33t-85 33t-36 82z" />
<glyph unicode="&#xd9;" horiz-adv-x="1644" d="M76 1245v66h862v-66h-156v-915q0 -227 254 -228q125 0 202 83t77 196v727q0 43 -10.5 69.5t-34 39t-48 17.5t-65.5 9q-14 2 -22 2v66h436v-66q-109 -10 -135 -31q-53 -37 -54 -176v-620q0 -63 -10 -115.5t-44 -112t-91 -98.5t-160.5 -65.5t-245.5 -26.5q-297 0 -450.5 95 t-153.5 319v831h-151zM760 1657h307l113 -320h-115z" />
<glyph unicode="&#xda;" horiz-adv-x="1644" d="M76 1245v66h862v-66h-156v-915q0 -227 254 -228q125 0 202 83t77 196v727q0 43 -10.5 69.5t-34 39t-48 17.5t-65.5 9q-14 2 -22 2v66h436v-66q-109 -10 -135 -31q-53 -37 -54 -176v-620q0 -63 -10 -115.5t-44 -112t-91 -98.5t-160.5 -65.5t-245.5 -26.5q-297 0 -450.5 95 t-153.5 319v831h-151zM956 1327l109 318h309l-301 -318h-117z" />
<glyph unicode="&#xdb;" horiz-adv-x="1644" d="M76 1245v66h862v-66h-156v-915q0 -227 254 -228q125 0 202 83t77 196v727q0 43 -10.5 69.5t-34 39t-48 17.5t-65.5 9q-14 2 -22 2v66h436v-66q-109 -10 -135 -31q-53 -37 -54 -176v-620q0 -63 -10 -115.5t-44 -112t-91 -98.5t-160.5 -65.5t-245.5 -26.5q-297 0 -450.5 95 t-153.5 319v831h-151zM655 1339l203 318h189l204 -318h-118l-177 131l-180 -131h-121z" />
<glyph unicode="&#xdc;" horiz-adv-x="1644" d="M76 1245v66h862v-66h-156v-915q0 -227 254 -228q125 0 202 83t77 196v727q0 43 -10.5 69.5t-34 39t-48 17.5t-65.5 9q-14 2 -22 2v66h436v-66q-109 -10 -135 -31q-53 -37 -54 -176v-620q0 -63 -10 -115.5t-44 -112t-91 -98.5t-160.5 -65.5t-245.5 -26.5q-297 0 -450.5 95 t-153.5 319v831h-151zM711 1468q0 51 31.5 85t78.5 34q49 0 85 -34.5t36 -84t-36 -82t-85 -32.5q-47 0 -78.5 32.5t-31.5 81.5zM1049 1468.5q0 49.5 35.5 84t85 34.5t83 -33.5t33.5 -85.5q0 -49 -33.5 -81.5t-83 -32.5t-85 32.5t-35.5 82z" />
<glyph unicode="&#xdd;" horiz-adv-x="1824" d="M84 1243v68h909v-68h-137l340 -561l201 322q4 6 14 24.5t14.5 24.5t12.5 20t11 22l8 19q5 12 6 20.5t3 19.5t2 22q0 16 -12 28.5t-35.5 19.5t-40 10t-43.5 7l-26 2v68h430v-68q-80 -6 -125 -44t-92 -114l-307 -507v-510h161v-68h-889v68h160v444l-440 731h-125zM854 1462 l109 318h309l-301 -318h-117z" />
<glyph unicode="&#xdf;" horiz-adv-x="1490" d="M68 29v65h100v729q0 125 19.5 206t71.5 149.5t156.5 100.5t264.5 32q489 0 489 -277q0 -217 -241 -266q100 -4 179 -20.5t154.5 -57.5t117.5 -121t42 -194q0 -47 -10 -93t-43 -99.5t-85 -92.5t-142 -64.5t-209 -25.5q-121 0 -200 37t-79 113q0 57 33 95t92 38 q47 0 80 -30t33 -69q0 -86 -76 -123q12 -4 33 -4q154 0 153 277q0 96 -19 163.5t-48 103.5t-74 56.5t-80 24.5t-86 4v105q55 4 90 30.5t48.5 73.5t16.5 76.5t3 77.5q0 98 -43 149t-117 51q-18 0 -32.5 -3t-24.5 -7t-18.5 -13l-13.5 -14.5t-9 -20.5t-6 -21.5t-3 -24t-1 -22.5 v-25v-25v-1044h-516z" />
<glyph unicode="&#xe0;" horiz-adv-x="1245" d="M55 231q0 80 43 137.5t102.5 86t149.5 46t155.5 20.5t149.5 3v267q0 72 -102 71q-20 0 -51 -7t-31 -15q0 -2 16.5 -15.5t33 -41t16.5 -64.5q0 -72 -65.5 -106.5t-156.5 -34.5q-98 0 -147 40.5t-49 104.5q0 193 483 192q258 0 354.5 -56t96.5 -220v-356q0 -90 7 -120 t27 -30q39 0 80 41l21 -18q-35 -57 -111 -107.5t-184 -50.5q-156 0 -217 137q-137 -137 -332 -137q-139 0 -214 66.5t-75 166.5zM276 1311h310l112 -320h-116zM487 281q0 -100 17.5 -133t64.5 -33q37 0 61.5 34.5t24.5 86.5v245q-109 -6 -138.5 -42.5t-29.5 -157.5z" />
<glyph unicode="&#xe1;" horiz-adv-x="1245" d="M55 233q0 80 43 137.5t102.5 86t149.5 46t155.5 20.5t149.5 3v267q0 72 -102 71q-20 0 -51 -7t-31 -17q0 -2 16.5 -14.5t33 -40t16.5 -64.5q0 -72 -65.5 -107.5t-156.5 -35.5q-98 0 -147 40.5t-49 106.5q0 193 483 193q258 0 354.5 -56.5t96.5 -220.5v-358q0 -90 7 -119 t27 -29q39 0 80 41l21 -18q-35 -57 -111 -107.5t-184 -50.5q-156 0 -217 137q-131 -137 -332 -137q-139 0 -214 66.5t-75 166.5zM463 995l108 318h310l-301 -318h-117zM487 283q0 -100 17.5 -133t64.5 -33q37 0 61.5 34.5t24.5 86.5v245q-109 -6 -138.5 -42.5t-29.5 -157.5z " />
<glyph unicode="&#xe2;" horiz-adv-x="1245" d="M55 233q0 80 43 137.5t102.5 86t149.5 46t155.5 20.5t149.5 3v267q0 72 -102 71q-20 0 -51 -7t-31 -17q0 -2 16.5 -14.5t33 -40t16.5 -64.5q0 -72 -65.5 -107.5t-156.5 -35.5q-98 0 -147 40.5t-49 106.5q0 193 483 193q258 0 354.5 -56.5t96.5 -220.5v-358q0 -90 7 -119 t27 -29q39 0 80 41l21 -18q-35 -57 -111 -107.5t-184 -50.5q-156 0 -217 137q-131 -137 -332 -137q-139 0 -214 66.5t-75 166.5zM276 995l203 318h189l204 -318h-118l-176 131l-181 -131h-121zM487 283q0 -100 17.5 -133t64.5 -33q37 0 61.5 34.5t24.5 86.5v245 q-109 -6 -138.5 -42.5t-29.5 -157.5z" />
<glyph unicode="&#xe3;" horiz-adv-x="1245" d="M55 233q0 80 43 137.5t102.5 86t149.5 46t155.5 20.5t149.5 3v267q0 72 -102 71q-20 0 -51 -7t-31 -17q0 -2 16.5 -14.5t33 -40t16.5 -64.5q0 -72 -65.5 -107.5t-156.5 -35.5q-98 0 -147 40.5t-49 106.5q0 193 483 193q258 0 354.5 -56.5t96.5 -220.5v-358q0 -90 7 -119 t27 -29q39 0 80 41l21 -18q-35 -57 -111 -107.5t-184 -50.5q-156 0 -217 137q-131 -137 -332 -137q-139 0 -214 66.5t-75 166.5zM297 1040q4 74 46 150t128 76q45 0 129 -32t137 -32q25 0 41.5 11.5t19.5 16.5t19 36h70q2 -74 -41 -149t-133 -75q-49 0 -133 32t-121 32 q-43 0 -57.5 -14.5t-26.5 -51.5h-78zM487 283q0 -100 17.5 -133t64.5 -33q37 0 61.5 34.5t24.5 86.5v245q-109 -6 -138.5 -42.5t-29.5 -157.5z" />
<glyph unicode="&#xe4;" horiz-adv-x="1245" d="M55 233q0 80 43 137.5t102.5 86t149.5 46t155.5 20.5t149.5 3v267q0 72 -102 71q-20 0 -51 -7t-31 -17q0 -2 16.5 -14.5t33 -40t16.5 -64.5q0 -72 -65.5 -107.5t-156.5 -35.5q-98 0 -147 40.5t-49 106.5q0 193 483 193q258 0 354.5 -56.5t96.5 -220.5v-358q0 -90 7 -119 t27 -29q39 0 80 41l21 -18q-35 -57 -111 -107.5t-184 -50.5q-156 0 -217 137q-131 -137 -332 -137q-139 0 -214 66.5t-75 166.5zM297 1147q0 51 31.5 85t79.5 34q49 0 84.5 -35t35.5 -84t-35.5 -82t-84.5 -33q-47 0 -79 33t-32 82zM487 283q0 -100 17.5 -133t64.5 -33 q37 0 61.5 34.5t24.5 86.5v245q-109 -6 -138.5 -42.5t-29.5 -157.5zM635 1147q0 49 36 84t85 35t82.5 -34t33.5 -85q0 -49 -33.5 -82t-82.5 -33t-85 33t-36 82z" />
<glyph unicode="&#xe5;" horiz-adv-x="1245" d="M55 233q0 80 43 137.5t102.5 86t149.5 46t155.5 20.5t149.5 3v267q0 72 -102 71q-20 0 -51 -7t-31 -17q0 -2 16.5 -14.5t33 -40t16.5 -64.5q0 -72 -65.5 -107.5t-156.5 -35.5q-98 0 -147 40.5t-49 106.5q0 193 483 193q258 0 354.5 -56.5t96.5 -220.5v-358q0 -90 7 -119 t27 -29q39 0 80 41l21 -18q-35 -57 -111 -107.5t-184 -50.5q-156 0 -217 137q-131 -137 -332 -137q-139 0 -214 66.5t-75 166.5zM385 1169q0 78 56.5 136.5t134 58.5t132 -57.5t54.5 -137.5q0 -78 -54.5 -132t-132 -54t-134 55t-56.5 131zM487 283q0 -100 17.5 -133 t64.5 -33q37 0 61.5 34.5t24.5 86.5v245q-109 -6 -138.5 -42.5t-29.5 -157.5zM496 1169q0 -33 23.5 -55t56 -22t55 22.5t22.5 54.5q0 35 -22.5 59.5t-55 24.5t-56 -24.5t-23.5 -59.5z" />
<glyph unicode="&#xe6;" horiz-adv-x="1773" d="M80 231q0 61 24.5 108.5t58.5 78.5t93 53.5t102 33.5t117 17t107 7l96 3v259q0 33 -27.5 52t-64.5 19q-55 0 -99 -20q68 -35 68 -117q0 -45 -24.5 -78t-63.5 -46t-68.5 -18t-56.5 -5q-88 0 -143.5 38.5t-55.5 104.5q0 197 455 197q154 0 303 -82q102 82 266 82 q125 0 221.5 -37t152.5 -91.5t92 -128t48.5 -136t12.5 -126.5h-617q6 -168 37 -229q49 -102 178 -102q84 0 175.5 50t162.5 148l45 -24q-70 -111 -176 -176.5t-293 -65.5q-190 0 -283.5 39t-201.5 137q-88 -176 -348 -176q-121 0 -207 60t-86 171zM514 311q0 -57 1 -81.5 t8 -54.5t22.5 -41t42.5 -11q90 0 90 117v245q-102 -6 -133 -37t-31 -137zM1077 586q0 -88 2 -131h176v131q0 88 -1 126t-9 81t-26.5 57t-51.5 14q-59 0 -74.5 -60t-15.5 -218z" />
<glyph unicode="&#xe7;" horiz-adv-x="1077" d="M37 461q-4 199 152.5 330t431.5 131q197 0 304 -85t107 -208q0 -86 -54 -147.5t-140 -61.5q-90 0 -145.5 50t-55.5 138q0 45 14.5 81t41 59.5t42 33t41.5 21.5q16 8 17 18q0 6 -10.5 14.5t-33 15.5t-49.5 7q-104 0 -150 -89t-46 -298v-76q0 -27 4 -74t10 -74.5 t20.5 -63.5t34 -54t50 -31.5t69.5 -13.5q74 0 137.5 30.5t89 55.5t60.5 68l47 -21q-39 -70 -147.5 -145.5t-264.5 -81.5l-32 -76q53 -6 83.5 -14.5t57.5 -37t27 -77.5q0 -59 -53.5 -116.5t-160 -57.5t-214.5 55l38 76q90 -33 142 -33q41 0 63.5 21.5t22.5 48t-21.5 39 t-44.5 12.5q-33 0 -63 -10l80 168q-51 4 -98.5 13t-125 40t-133 78t-99.5 136t-46 206z" />
<glyph unicode="&#xe8;" horiz-adv-x="1165" d="M53 457q0 193 142.5 327t379.5 134q147 0 258 -48.5t169.5 -128t84.5 -166.5q25 -80 25 -165v-13h-608q0 -70 3 -108.5t15.5 -86.5t35 -73t64.5 -42t103 -17q94 0 182 59t144 137l41 -24q-35 -51 -64 -83t-84 -74t-139 -63.5t-195 -21.5q-262 0 -409.5 128t-147.5 329z M244 1313h307l113 -320h-115zM506 451h176v198q0 57 -2 86t-9 65t-26.5 50t-50.5 14q-41 0 -61.5 -32.5t-23.5 -70.5t-3 -112v-198z" />
<glyph unicode="&#xe9;" horiz-adv-x="1165" d="M53 457q0 193 142.5 327t379.5 134q147 0 258 -48.5t169.5 -128t84.5 -166.5q25 -80 25 -165v-13h-608q0 -70 3 -108.5t15.5 -86.5t35 -73t64.5 -42t103 -17q94 0 182 59t144 137l41 -24q-35 -51 -64 -83t-84 -74t-139 -63.5t-195 -21.5q-262 0 -409.5 128t-147.5 329z M463 995l108 318h310l-301 -318h-117zM506 451h176v198q0 57 -2 86t-9 65t-26.5 50t-50.5 14q-41 0 -61.5 -32.5t-23.5 -70.5t-3 -112v-198z" />
<glyph unicode="&#xea;" horiz-adv-x="1165" d="M53 457q0 193 142.5 327t379.5 134q147 0 258 -48.5t169.5 -128t84.5 -166.5q25 -80 25 -165v-13h-608q0 -70 3 -108.5t15.5 -86.5t35 -73t64.5 -42t103 -17q94 0 182 59t144 137l41 -24q-35 -51 -64 -83t-84 -74t-139 -63.5t-195 -21.5q-262 0 -409.5 128t-147.5 329z M276 995l203 318h189l204 -318h-118l-176 131l-181 -131h-121zM506 451h176v198q0 57 -2 86t-9 65t-26.5 50t-50.5 14q-41 0 -61.5 -32.5t-23.5 -70.5t-3 -112v-198z" />
<glyph unicode="&#xeb;" horiz-adv-x="1165" d="M53 461q0 193 142.5 327t379.5 134q147 0 258 -48.5t169.5 -128t84.5 -165.5q25 -80 25 -165v-14h-608q0 -70 3 -108.5t15.5 -86.5t35 -72.5t64.5 -42t103 -17.5q94 0 182 59.5t144 136.5l41 -24q-35 -51 -64 -83t-84 -74t-139 -63.5t-195 -21.5q-262 0 -409.5 128 t-147.5 329zM297 1147q0 51 31.5 85t79.5 34q49 0 84.5 -35t35.5 -84t-35.5 -82t-84.5 -33q-47 0 -79 33t-32 82zM506 455h176v198q0 57 -2 86t-9 65t-26.5 50t-50.5 14q-41 0 -61.5 -32.5t-23.5 -70.5t-3 -112v-198zM635 1147q0 49 36 84t85 35t82.5 -34t33.5 -85 q0 -49 -33.5 -82t-82.5 -33t-85 33t-36 82z" />
<glyph unicode="&#xec;" horiz-adv-x="706" d="M33 1313h321l117 -326h-123zM66 0v57h102v764h-102v60q360 0 520 30v-854h114v-57h-634z" />
<glyph unicode="&#xed;" horiz-adv-x="706" d="M31 0v57h104v766h-104v58q373 4 522 32v-856h115v-57h-637zM233 989l115 324h320l-312 -324h-123z" />
<glyph unicode="&#xee;" horiz-adv-x="706" d="M33 989l211 324h194l211 -324h-121l-184 135l-186 -135h-125zM59 0v57h103v766h-103v58q373 4 523 32v-856h114v-57h-637z" />
<glyph unicode="&#xef;" horiz-adv-x="706" d="M33 1143q0 53 31.5 88t82.5 35q53 0 90 -36t37 -87q0 -49 -36.5 -83t-90.5 -34q-49 0 -81.5 34t-32.5 83zM45 0v59h102v760h-102v58q377 4 520 30v-848h115v-59h-635zM385 1143q0 51 36 87t85 36q53 0 87 -35t34 -88q0 -49 -34 -83t-87 -34q-49 0 -85 34t-36 83z" />
<glyph unicode="&#xf1;" horiz-adv-x="1366" d="M61 0v55h109v772h-109v60q389 0 529 18v-174q135 186 340 187q125 0 197.5 -67t72.5 -163v-633h105v-55h-603v55h64v660q0 66 -57 65q-55 0 -81 -78.5t-26 -158.5v-488h55v-55h-596zM297 1040q4 74 46 150t128 76q45 0 129 -32t137 -32q25 0 41.5 11.5t19.5 16.5t19 36 h70q2 -74 -41 -149t-133 -75q-49 0 -133 32t-121 32q-43 0 -57.5 -14.5t-26.5 -51.5h-78z" />
<glyph unicode="&#xf2;" horiz-adv-x="1198" d="M53 449q0 203 153.5 336t395.5 133q238 0 389.5 -133.5t151.5 -335.5q0 -197 -151.5 -323t-389.5 -126q-242 0 -395.5 126t-153.5 323zM266 1313h307l113 -320h-115zM514 256q0 -119 20.5 -161t67.5 -42h4q42 0 60 41q18 43 18 162v436q0 100 -18.5 137t-63.5 37 q-47 0 -67.5 -36.5t-20.5 -137.5v-436z" />
<glyph unicode="&#xf3;" horiz-adv-x="1198" d="M53 449q0 203 153.5 336t395.5 133q238 0 389.5 -133.5t151.5 -335.5q0 -197 -151.5 -323t-389.5 -126q-242 0 -395.5 126t-153.5 323zM463 995l108 318h310l-301 -318h-117zM514 256q0 -119 20.5 -161t67.5 -42h4q42 0 60 41q18 43 18 162v436q0 100 -18.5 137t-63.5 37 q-47 0 -67.5 -36.5t-20.5 -137.5v-436z" />
<glyph unicode="&#xf4;" horiz-adv-x="1198" d="M53 449q0 203 153.5 336t395.5 133q238 0 389.5 -133.5t151.5 -335.5q0 -197 -151.5 -323t-389.5 -126q-242 0 -395.5 126t-153.5 323zM276 995l203 318h189l204 -318h-118l-176 131l-181 -131h-121zM514 256q0 -119 20.5 -161t67.5 -42h4q42 0 60 41q18 43 18 162v436 q0 100 -18.5 137t-63.5 37q-47 0 -67.5 -36.5t-20.5 -137.5v-436z" />
<glyph unicode="&#xf5;" horiz-adv-x="1198" d="M53 449q0 203 153.5 336t395.5 133q238 0 389.5 -133.5t151.5 -335.5q0 -197 -151.5 -323t-389.5 -126q-242 0 -395.5 126t-153.5 323zM297 1040q4 74 46 150t128 76q45 0 129 -32t137 -32q25 0 41.5 11.5t19.5 16.5t19 36h70q2 -74 -41 -149t-133 -75q-49 0 -133 32 t-121 32q-43 0 -57.5 -14.5t-26.5 -51.5h-78zM514 256q0 -119 20.5 -161t67.5 -42h4q42 0 60 41q18 43 18 162v436q0 100 -18.5 137t-63.5 37q-47 0 -67.5 -36.5t-20.5 -137.5v-436z" />
<glyph unicode="&#xf6;" horiz-adv-x="1198" d="M53 449q0 203 153.5 336t395.5 133q238 0 389.5 -133.5t151.5 -335.5q0 -197 -151.5 -323t-389.5 -126q-242 0 -395.5 126t-153.5 323zM297 1147q0 51 31.5 85t79.5 34q49 0 84.5 -35t35.5 -84t-35.5 -82t-84.5 -33q-47 0 -79 33t-32 82zM514 256q0 -119 20.5 -161 t67.5 -42h4q42 0 60 41q18 43 18 162v436q0 100 -18.5 137t-63.5 37q-47 0 -67.5 -36.5t-20.5 -137.5v-436zM635 1147q0 49 36 84t85 35t82.5 -34t33.5 -85q0 -49 -33.5 -82t-82.5 -33t-85 33t-36 82z" />
<glyph unicode="&#xf7;" horiz-adv-x="1142" d="M51 346v221h1041v-221h-1041zM440 133q0 53 38 90t91.5 37t92 -37t38.5 -90t-38.5 -93t-92 -40t-91.5 40t-38 93zM440 788.5q0 53.5 38 91.5t91.5 38t92 -38t38.5 -91.5t-38.5 -93.5t-92 -40t-91.5 40t-38 93.5z" />
<glyph unicode="&#xf9;" horiz-adv-x="1323" d="M59 840v59q410 0 514 19v-623q0 -35 1 -55.5t6.5 -50t18.5 -44t36 -14.5q106 0 106 211v498h-90v59q371 0 506 19v-832h109v-57q-342 0 -508 -29v174q-43 -49 -79 -81t-106.5 -62.5t-150.5 -30.5q-262 0 -262 264v576h-101zM266 1313h307l113 -320h-115z" />
<glyph unicode="&#xfa;" horiz-adv-x="1323" d="M59 840v59q410 0 514 19v-623q0 -35 1 -55.5t6.5 -50t18.5 -44t36 -14.5q106 0 106 211v498h-90v59q371 0 506 19v-832h109v-57q-342 0 -508 -29v174q-43 -49 -79 -81t-106.5 -62.5t-150.5 -30.5q-262 0 -262 264v576h-101zM463 995l108 318h310l-301 -318h-117z" />
<glyph unicode="&#xfb;" horiz-adv-x="1323" d="M59 840v59q410 0 514 19v-623q0 -35 1 -55.5t6.5 -50t18.5 -44t36 -14.5q106 0 106 211v498h-90v59q371 0 506 19v-832h109v-57q-342 0 -508 -29v174q-43 -49 -79 -81t-106.5 -62.5t-150.5 -30.5q-262 0 -262 264v576h-101zM276 995l203 318h189l204 -318h-118l-176 131 l-181 -131h-121z" />
<glyph unicode="&#xfc;" horiz-adv-x="1323" d="M59 840v59q410 0 514 19v-623q0 -35 1 -55.5t6.5 -50t18.5 -44t36 -14.5q106 0 106 211v498h-90v59q371 0 506 19v-832h109v-57q-342 0 -508 -29v174q-43 -49 -79 -81t-106.5 -62.5t-150.5 -30.5q-262 0 -262 264v576h-101zM367 1147q0 51 31.5 85t78.5 34q49 0 85 -35 t36 -84t-36 -82t-85 -33q-47 0 -78.5 33t-31.5 82zM705 1147q0 49 35.5 84t84.5 35t83 -34t34 -85q0 -49 -34 -82t-83 -33t-84.5 33t-35.5 82z" />
<glyph unicode="&#xfd;" horiz-adv-x="1380" d="M70 -172q0 70 48 117t118 47q68 0 111.5 -39t43.5 -100q0 -49 -19.5 -75t-38 -37t-18.5 -24q0 -8 27 -8q74 0 168 117t129 201l-485 827h-84v59h663v-59h-98l246 -420l178 311q12 18 12 48q0 61 -102 61v59h317v-59q-51 0 -91 -30.5t-93 -125.5l-451 -759 q-57 -96 -95 -148.5t-113.5 -100.5t-168.5 -48q-96 0 -150 56t-54 130zM618 1040l109 318h309l-301 -318h-117z" />
<glyph unicode="&#xff;" horiz-adv-x="1380" d="M70 -172q0 70 48 117t118 47q68 0 111.5 -39t43.5 -100q0 -49 -19.5 -75t-38 -37t-18.5 -24q0 -8 27 -8q74 0 168 117t129 201l-485 827h-84v59h663v-59h-98l246 -420l178 311q12 18 12 48q0 61 -102 61v59h317v-59q-51 0 -91 -30.5t-93 -125.5l-451 -759 q-57 -96 -95 -148.5t-113.5 -100.5t-168.5 -48q-96 0 -150 56t-54 130zM469 1112q0 51 31.5 85t79.5 34q49 0 84.5 -35t35.5 -84t-35.5 -82t-84.5 -33q-47 0 -79 33t-32 82zM807 1112q0 49 36 84t85 35t82.5 -34t33.5 -85q0 -49 -33.5 -82t-82.5 -33t-85 33t-36 82z" />
<glyph unicode="&#x152;" horiz-adv-x="2043" d="M94 659q0 152 59.5 279t154.5 207t210 123t232 43q41 0 77.5 -5.5t72.5 -13.5t54 -10h979v-455h-57q-68 209 -155 298t-263 89q-4 0 -78 -6v-516q121 6 159 49t69 164q4 16 6 27h55v-549h-55q-31 133 -70 181t-164 67v-539q14 0 46 -3t49 -3q45 0 86 8t71.5 18.5t60 33 t49 39t40.5 48.5l32 52q11 18 26 56l21 53l18 57q13 41 15 49h56v-471h-969q-6 0 -52 -9.5t-91 -14.5t-88 -5q-270 0 -463 186t-193 473zM633 449q0 -223 24.5 -305.5t92.5 -82.5q78 0 96 74t18 314v487q0 184 -26.5 249.5t-88 65.5t-89 -64.5t-27.5 -250.5v-487z" />
<glyph unicode="&#x153;" horiz-adv-x="1822" d="M82 440q0 127 51 224.5t137 149.5t179.5 77.5t191.5 25.5q137 0 283 -90q2 2 23.5 15.5t25.5 15.5t23.5 13.5t27.5 13.5t28.5 10t36 10t37 6t46 5.5t53.5 1.5q150 0 257 -53.5t159.5 -139.5t75 -165t24.5 -163h-613q0 -66 2.5 -102.5t13.5 -86.5t33.5 -76t64.5 -45 t104 -19q172 0 333 194l41 -22q-53 -94 -168.5 -167t-275.5 -73q-135 0 -209 19.5t-143 62.5q-154 -82 -295 -82q-205 0 -376 117.5t-171 322.5zM541 301q0 -141 19.5 -194.5t68.5 -53.5q47 0 66.5 54.5t19.5 193.5v328q0 141 -18.5 189t-67.5 48q-51 0 -69.5 -47 t-18.5 -190v-328zM1128 451h181v227q0 100 -18.5 141t-67.5 41q-51 0 -73 -43t-22 -139v-227z" />
<glyph unicode="&#x178;" horiz-adv-x="1824" d="M84 1243v68h909v-68h-137l340 -561l201 322q4 6 14 24.5t14.5 24.5t12.5 20t11 22l8 19q5 12 6 20.5t3 19.5t2 22q0 16 -12 28.5t-35.5 19.5t-40 10t-43.5 7l-26 2v68h430v-68q-80 -6 -125 -44t-92 -114l-307 -507v-510h161v-68h-889v68h160v444l-440 731h-125zM733 1468 q0 51 32 85t79 34q49 0 85 -34.5t36 -84t-36 -82t-85 -32.5q-47 0 -79 32.5t-32 81.5zM1071 1468.5q0 49.5 36 84t85 34.5t83 -33.5t34 -85.5q0 -49 -34 -81.5t-83 -32.5t-85 32.5t-36 82z" />
<glyph unicode="&#x2c6;" horiz-adv-x="1179" d="M276 995l203 318h189l204 -318h-118l-176 131l-181 -131h-121z" />
<glyph unicode="&#x2dc;" horiz-adv-x="1177" d="M297 1040q4 74 46 150t128 76q45 0 129 -32t137 -32q25 0 41.5 11.5t19.5 16.5t19 36h70q2 -74 -41 -149t-133 -75q-49 0 -133 32t-121 32q-43 0 -57.5 -14.5t-26.5 -51.5h-78z" />
<glyph unicode="&#x2013;" horiz-adv-x="1167" d="M51 418v188h1053v-188h-1053z" />
<glyph unicode="&#x2014;" horiz-adv-x="1284" d="M45 426v170h1172v-170h-1172z" />
<glyph unicode="&#x2018;" horiz-adv-x="274" d="M12 1065q0 109 79 177.5t128 68.5q14 0 14 -15q0 -12 -8 -14q-68 -23 -115 -72t-47 -82q0 -12 7 -12q8 0 33.5 8.5t46.5 8.5q51 0 81.5 -29t30.5 -74q0 -49 -31.5 -80.5t-85.5 -31.5q-55 0 -94 42t-39 105z" />
<glyph unicode="&#x2019;" horiz-adv-x="272" d="M12 1200q0 53 33 82t82 29q57 0 94 -43t37 -109q0 -106 -76 -173.5t-127 -67.5q-14 0 -14 12q0 14 20 22q70 23 109 73t39 79q0 10 -10 10q-2 0 -24.5 -8t-43.5 -8q-119 0 -119 102z" />
<glyph unicode="&#x201c;" horiz-adv-x="593" d="M27 1069q0 106 80.5 174t132.5 68q12 0 12 -13q0 -14 -14 -20q-80 -29 -119 -76t-39 -74q0 -10 10 -10l29 8q29 6 51 7q45 0 77 -30t32 -75q0 -51 -32 -80.5t-79 -29.5q-74 0 -107.5 46t-33.5 105zM315 1069q0 106 79 174t132 68q16 0 17 -13q0 -16 -11 -16 q-61 -23 -101 -58.5t-50 -58t-10 -32.5q0 -14 6 -15q2 0 27.5 7.5t54.5 7.5q47 0 77.5 -29t30.5 -76q0 -49 -32.5 -79.5t-79.5 -30.5q-72 0 -106 47t-34 104z" />
<glyph unicode="&#x201d;" horiz-adv-x="591" d="M27 1200q0 51 33.5 81t84.5 30q63 0 98.5 -44t35.5 -108q0 -109 -77 -175t-128 -66q-16 0 -17 12q0 14 17 18q70 25 111.5 75t41.5 79q0 12 -10 12q-2 0 -13 -4t-28.5 -8t-32.5 -4q-49 0 -82.5 26.5t-33.5 75.5zM311 1202q0 45 33 77t86 32q66 0 100.5 -44t34.5 -110 q0 -102 -76.5 -170.5t-126.5 -68.5q-18 0 -18 14q0 10 12 16q78 29 117 77t39 79q0 10 -8 10q-2 0 -28.5 -8t-49.5 -8q-51 0 -83 27.5t-32 76.5z" />
<glyph unicode="&#x2022;" horiz-adv-x="788" d="M37 666q2 147 108.5 250.5t253.5 103.5q150 0 251.5 -107.5t101.5 -259.5q0 -150 -107 -255q-101 -100 -234 -99h-16q-152 4 -257 112q-102 104 -101 244v11z" />
<glyph unicode="&#x2026;" horiz-adv-x="1796" d="M82 186q0 72 56.5 126.5t144.5 54.5q92 0 151.5 -53.5t59.5 -139.5q0 -84 -63.5 -129t-147.5 -45q-88 0 -144.5 55t-56.5 131zM694 180q0 80 57.5 133.5t147.5 53.5t147.5 -53.5t57.5 -137.5q0 -86 -65.5 -131t-139.5 -45q-90 0 -147.5 54t-57.5 126zM1307 178 q0 82 56 135.5t146 53.5q88 0 147.5 -54.5t59.5 -138.5q0 -74 -58.5 -124t-148.5 -50q-94 0 -148 56t-54 122z" />
<glyph unicode="&#x2039;" horiz-adv-x="1058" d="M47 588v133l965 393v-147l-787 -314l787 -305v-151z" />
<glyph unicode="&#x203a;" horiz-adv-x="1058" d="M47 197v151l787 305l-787 314v147l965 -393v-133z" />
<glyph unicode="&#x2122;" horiz-adv-x="905" d="M53 1128l10 148h318l8 -148h-24l-9 29q-6 43 -24 62q-27 39 -78 38v-294q0 -33 10 -41q12 -16 45 -17h15v-22h-213v22h16q31 0 49 17q8 10 8 51v284q-43 -4 -67 -30q-18 -20 -33 -68l-8 -31h-23zM410 883v22q20 -4 51 17q8 6 8 41v254q0 25 -6 28q-4 4 -29 4h-12v27h137 l78 -289l88 289h152v-27h-15q-25 0 -35 -6q-12 -10 -12 -35v-247q0 -35 8 -46q12 -10 31 -10h16v-22h-188v22h23q14 0 30 17q10 8 10 41v297l-120 -375h-15l-110 372v-294q0 -31 14 -45q18 -12 41 -13v-22h-145z" />
<glyph unicode="&#xe000;" horiz-adv-x="920" d="M0 920h920v-920h-920v920z" />
<glyph unicode="&#xfb01;" horiz-adv-x="1447" d="M66 0v57h102v746h-102v65h102q8 442 385 443q123 0 185.5 -51.5t62.5 -137.5q0 -70 -40 -109.5t-104 -39.5q-70 0 -107.5 37t-37.5 96q0 74 55 104q2 2 11.5 6.5t12.5 8.5t3 14t-33 10q-70 0 -116 -57t-46 -125q0 -72 55.5 -135.5t172.5 -63.5h311q98 0 330 21v-832h114 v-57h-618v57h98v746h-282v-746h108v-57h-622zM831 1141q0 78 61.5 124t149.5 46q111 0 173.5 -46t62.5 -126q0 -78 -56.5 -124t-162.5 -46q-113 0 -170.5 48t-57.5 124z" />
<glyph unicode="&#xfb02;" horiz-adv-x="1437" d="M66 0v55h98v748h-98v65h98q4 98 23.5 172t61.5 138.5t118.5 98.5t185.5 34q117 0 183.5 -51.5t66.5 -131t-40 -118.5t-108 -39q-66 0 -105.5 36.5t-39.5 92.5q0 47 21.5 75.5t43 41t21.5 16.5q0 16 -37 16q-66 0 -113 -56t-47 -128q0 -31 10.5 -58.5t37 -62.5t88 -55.5 t151.5 -20.5v-65h-108v-748h108v-55h-620zM754 0v55h104v1227q227 0 416 16v-1243h98v-55h-618z" />
<glyph unicode="&#xfb03;" horiz-adv-x="2353" d="M37 0v57h102v746h-102v63h102q0 57 8.5 111.5t35 117t67.5 108.5t112.5 77t165.5 31q125 0 190.5 -55.5t65.5 -135.5q0 -68 -42 -108.5t-105 -40.5q-59 0 -104.5 34.5t-45.5 90.5q0 45 22.5 75.5t44 44t21.5 17.5q0 14 -38 14q-57 0 -108.5 -53t-51.5 -119 q0 -209 282 -209h11v-63h-109v-746h109v-57h-633zM860 0v57h103v746h-103v63h103q0 57 8 111.5t34.5 117t67.5 108.5t112.5 77t166.5 31q125 0 190.5 -55.5t65.5 -135.5q0 -68 -42 -108.5t-106 -40.5q-59 0 -104 34.5t-45 90.5q0 45 22.5 75.5t44 44t21.5 17.5q0 14 -39 14 q-57 0 -108.5 -53t-51.5 -119q0 -209 282 -209h11v-63h-109v-746h109v-57h-633zM1679 0v57h105v754h-105v55q383 0 527 23v-832h116v-57h-643zM1749 1135q0 88 67.5 132t170.5 44q106 0 166.5 -48.5t60.5 -115.5q0 -176 -232 -176q-115 0 -174 48t-59 116z" />
<glyph unicode="&#xfb04;" horiz-adv-x="2355" d="M37 0v57h102v746h-102v63h102q0 57 8.5 111.5t35 117t67.5 108.5t112.5 77t165.5 31q125 0 190.5 -55.5t65.5 -135.5q0 -68 -42 -108.5t-105 -40.5q-59 0 -104.5 34.5t-45.5 90.5q0 45 22.5 75.5t44 44t21.5 17.5q0 14 -38 14q-57 0 -108.5 -53t-51.5 -119 q0 -209 282 -209h11v-63h-109v-746h109v-57h-633zM860 0v57h103v746h-103v63h103q0 57 8 111.5t34.5 117t67.5 108.5t112.5 77t166.5 31q125 0 190.5 -55.5t65.5 -135.5q0 -68 -42 -108.5t-106 -40.5q-59 0 -104 34.5t-45 90.5q0 45 22.5 75.5t44 44t21.5 17.5q0 14 -39 14 q-57 0 -108.5 -53t-51.5 -119q0 -209 282 -209h11v-63h-109v-746h109v-57h-633zM1679 0v55h109v1178h-109v57q319 0 539 21v-1256h104v-55h-643z" />
</font>
</defs>
</svg>
