<?xml version="1.0" standalone="no"?>
<!DOCTYPE svg PUBLIC "-//W3C//DTD SVG 1.1//EN" "http://www.w3.org/Graphics/SVG/1.1/DTD/svg11.dtd" >
<svg>
<metadata>
Created by FontForge 20090914 at Tue Oct  4 01:50:08 2011
 By www-data
Digitized data copyright The Monotype Corporation 1991-2001. All rights reserved. Gill Sans&#226;&#132;&#162; is a trademark of The Monotype Corporation Registered in the U.S. Patent &#38; Trademark Office and may be registered in certain jurisdictions
</metadata>
<defs>
<font id="GillSans-Light" horiz-adv-x="0" >
  <font-face 
    font-family="Gill Sans"
    font-weight="300"
    font-stretch="normal"
    units-per-em="2048"
    panose-1="2 11 3 2 2 1 4 2 2 3"
    ascent="1638"
    descent="-410"
    x-height="920"
    cap-height="1397"
    bbox="-1112 -477.001 2222 1855"
    underline-thickness="102"
    underline-position="-103"
    unicode-range="U+0008-U+FB02"
  />
<missing-glyph horiz-adv-x="2048" 
d="M256 0v1536h1536v-1536h-1536zM384 128h1280v1280h-1280v-1280z" />
    <glyph glyph-name="fi" unicode="fi" horiz-adv-x="981" 
d="M481 920v-79.999h-190v-840h-98v840h-168v80h168v114c0 123.333 28.167 217.666 84.5 282.999s137.833 98 244.5 98c198.667 0 304 -86 316 -258h-99c-11.333 117.333 -82.333 176 -213 176c-82 0 -141.667 -23.833 -179 -71.5s-56 -123.5 -56 -227.5v-114h190z
M838 920.001v-920h-99v920h99z" />
    <glyph glyph-name="fl" unicode="fl" horiz-adv-x="981" 
d="M485 920v-79.999h-190v-840h-98v840h-170v80h170v159c0 105.333 29.167 187.666 87.5 246.999s132.166 89 221.499 89c46 0 91.667 -10.333 137 -31v-96c-59.333 20.667 -107.666 31 -144.999 31c-64.667 0 -114.667 -20.833 -150 -62.5s-53 -99.5 -53 -173.5v-163h190z
M838 1397v-1397h-99v1397h99z" />
    <glyph glyph-name=".notdef" horiz-adv-x="2048" 
d="M256 0v1536h1536v-1536h-1536zM384 128h1280v1280h-1280v-1280z" />
    <glyph glyph-name=".null" 
 />
    <glyph glyph-name=".null" 
 />
    <glyph glyph-name=".null" 
 />
    <glyph glyph-name="nonmarkingreturn" unicode="&#x9;" horiz-adv-x="569" 
 />
    <glyph glyph-name="nonmarkingreturn" unicode="&#xd;" horiz-adv-x="569" 
 />
    <glyph glyph-name="nonmarkingreturn" unicode="&#xa;" horiz-adv-x="569" 
 />
    <glyph glyph-name="space" unicode=" " horiz-adv-x="569" 
 />
    <glyph glyph-name="exclam" unicode="!" horiz-adv-x="362" 
d="M248 1397l-35 -1004h-63l-35 1004h133zM248 199v-199h-133v199h133z" />
    <glyph glyph-name="quotedbl" unicode="&#x22;" horiz-adv-x="569" 
d="M358 1401h136v-223l-25 -256h-86l-25 256v223zM76 1401h135v-223l-25 -256h-86l-24 256v223z" />
    <glyph glyph-name="numbersign" unicode="#" horiz-adv-x="1352" 
d="M535 1397h94l-86 -420h389l88 420h94l-88 -420h168v-95h-186l-82 -391h268v-94h-289l-86 -416h-94l86 416h-389l-86 -416h-94l86 416h-170v94h190l80 391h-270v95h291zM522 882l-80 -391h389l82 391h-391z" />
    <glyph glyph-name="dollar" unicode="$" horiz-adv-x="1067" 
d="M932 1229v-115c-114 86 -230.667 133.667 -350 143v-534c272.667 -72.667 409 -200.334 409 -383.001c0 -84 -34.333 -162 -103 -234s-170.667 -113.333 -306 -124v-222h-99v222c-161.333 11.333 -298.333 65.666 -411 162.999v113c142 -106 279 -166 411 -180v567
c-267.333 80 -401 203 -401 369c0 84.667 33.833 160.334 101.5 227.001s167.5 104.334 299.5 113.001v61h99v-61c132 -8 248.667 -49.667 350 -125zM483 754l0.000976562 503c-90.667 -2.66699 -162.834 -28.167 -216.501 -76.5s-80.5 -101.833 -80.5 -160.5
c0 -123.333 99 -212 297 -266zM582.001 612v-533.997c90.667 5.33301 164.167 32.666 220.5 81.999s84.5 107.333 84.5 174c0 69.333 -24.667 125.166 -74 167.499s-126.333 79.166 -231 110.499z" />
    <glyph glyph-name="percent" unicode="%" horiz-adv-x="1430" 
d="M369 1415c90 0 167.333 -32.333 232 -97s97 -142.334 97 -233.001c0 -90 -32.333 -167.333 -97 -232s-142 -97 -232 -97c-90.667 0 -168.334 32.167 -233.001 96.5s-97 141.833 -97 232.5s32.333 168.334 97 233.001s142.334 97 233.001 97zM369 844
c66 0 122.667 23.667 170 71s71 104 71 170c0 66.667 -23.667 123.667 -71 171s-104 71 -170 71s-122.833 -23.833 -170.5 -71.5s-71.5 -104.5 -71.5 -170.5c0 -66.667 23.667 -123.5 71 -170.5s104.333 -70.5 171 -70.5zM1321 1409l-1124 -1432h-103l1127 1432h100z
M1061 635c90 0 167.5 -32.334 232.5 -97.001s97.5 -142.334 97.5 -233.001c0 -90 -32.5 -167.5 -97.5 -232.5s-142.5 -97.5 -232.5 -97.5c-90.667 0 -168.334 32.333 -233.001 97s-97 142.334 -97 233.001s32.333 168.334 97 233.001s142.334 97 233.001 97zM1061 62.999
c66 0 122.833 23.833 170.5 71.5s71.5 104.5 71.5 170.5s-23.833 122.833 -71.5 170.5s-104.5 71.5 -170.5 71.5s-122.833 -24 -170.5 -72s-71.5 -104.667 -71.5 -170c0 -66.667 23.667 -123.667 71 -171s104.333 -71 171 -71z" />
    <glyph glyph-name="ampersand" unicode="&#x26;" horiz-adv-x="1260" 
d="M1040 696l115 -0.000976562c-43.333 -136 -107.333 -267.667 -192 -395l284 -301h-137l-211 219c-136.667 -158 -297 -237 -481 -237c-109.333 0 -197.5 30.5 -264.5 91.5s-100.5 140.833 -100.5 239.5c0 183.333 115.333 325.333 346 426
c-116 120.667 -174 229.334 -174 326.001c0 85.333 32 157.5 96 216.5s142.667 88.5 236 88.5c88 0 160.833 -27.5 218.5 -82.5s86.5 -123.833 86.5 -206.5c0 -148 -97.667 -271.333 -293 -370l318 -330c63.333 94.667 114.333 199.667 153 315zM500 785.999
c174.667 72.667 262 167.667 262 285c0 56.667 -20 104 -60 142s-90.333 57 -151 57c-62.667 0 -115.167 -19.167 -157.5 -57.5s-63.5 -85.5 -63.5 -141.5c0 -86.667 56.667 -181.667 170 -285zM825 294.999l-354.001 368.999c-104 -44.667 -180.167 -93 -228.5 -145
s-72.5 -115.667 -72.5 -191c0 -77.333 23.833 -137.666 71.5 -180.999s113.834 -65 198.501 -65c140 0 268.333 71 385 213z" />
    <glyph glyph-name="quotesingle" unicode="'" horiz-adv-x="455" 
d="M160 1401h135v-223l-25 -256h-86l-24 256v223z" />
    <glyph glyph-name="parenleft" unicode="(" horiz-adv-x="682" 
d="M666 1415c-128 -116.667 -226.333 -259.167 -295 -427.5s-103 -339.833 -103 -514.5c0 -174 34.667 -345.5 104 -514.5s168 -312.167 296 -429.5h-103c-267.333 269.333 -401 584 -401 944s133 674 399 942h103z" />
    <glyph glyph-name="parenright" unicode=")" horiz-adv-x="682" 
d="M14 -471c128 117.333 226.667 260.501 296 429.501s104 340.5 104 514.5s-34.667 345.167 -104 513.5s-168 311.166 -296 428.499h103c267.333 -269.333 401 -583.333 401 -942c0 -360 -133.667 -674.667 -401 -944h-103z" />
    <glyph glyph-name="asterisk" unicode="*" horiz-adv-x="961" 
d="M809 1255l-287 -231l4 -10l369 33v-97l-369 41l-6 -12l289 -234l-70 -69l-237 289l-10 -2l34 -379h-94l37 379l-8 2l-236 -289l-71 69l290 234l-4 10l-374 -35v95l372 -37l2 12l-286 231l71 72l234 -285l10 5l-37 368h94l-34 -366l10 -7l237 285z" />
    <glyph glyph-name="plus" unicode="+" horiz-adv-x="1352" 
d="M139 764h492v491h90v-491h491v-90h-491v-492h-90v492h-492v90z" />
    <glyph glyph-name="comma" unicode="," horiz-adv-x="362" 
d="M248 199v-156.001c0 -121.333 -44.333 -215.666 -133 -282.999v72c28.667 40 43 96 43 168h-43v199h133z" />
    <glyph glyph-name="hyphen" unicode="-" horiz-adv-x="641" 
d="M563 510v-96h-485v96h485z" />
    <glyph glyph-name="period" unicode="." horiz-adv-x="362" 
d="M248 199v-199h-133v199h133z" />
    <glyph glyph-name="slash" unicode="/" horiz-adv-x="575" 
d="M457 1415h94l-449 -1433h-96z" />
    <glyph glyph-name="zero" unicode="0" horiz-adv-x="1024" 
d="M512 1415c125.333 0 231 -62.832 317 -188.499s129 -303.834 129 -534.501c0 -214.667 -42.167 -386.667 -126.5 -516s-189.5 -194 -315.5 -194c-132 0 -240 63.5 -324 190.5s-126 294.167 -126 501.5c0 258 45.167 446 135.5 564s193.833 177 310.5 177zM508 80.001
c104 0 187.669 58.668 251.002 176.001s95 266 95 446c0 176 -30.833 322.5 -92.5 439.5s-144.834 175.5 -249.501 175.5c-98.667 0 -180.334 -57.5 -245.001 -172.5s-97 -263.833 -97 -446.5c0 -184.667 31.5 -333.834 94.5 -447.501s144.167 -170.5 243.5 -170.5z" />
    <glyph glyph-name="one" unicode="1" horiz-adv-x="1024" 
d="M563 1397v-1397h-104v1397h104z" />
    <glyph glyph-name="two" unicode="2" horiz-adv-x="1024" 
d="M92 1165l0.000976562 123.001c103.333 84.667 212 127 326 127s210.667 -38.833 290 -116.5s119 -172.5 119 -284.5c0 -222 -171.333 -528 -514 -918h650v-96h-887c431.333 415.333 647 752.666 647 1012c0 86 -30 158.333 -90 217s-134.333 88 -223 88
c-58.667 0 -111.334 -12 -158.001 -36s-100 -62.667 -160 -116z" />
    <glyph glyph-name="three" unicode="3" horiz-adv-x="1024" 
d="M152 1225l0.000976562 99.999c81.333 60 179.333 90 294 90c122 0 221.833 -33 299.5 -99s116.5 -150.333 116.5 -253c0 -73.333 -21.667 -138.666 -65 -195.999s-106.333 -98.666 -189 -123.999v-4c180.667 -60.667 271 -179.334 271 -356.001
c0 -123.333 -41.167 -221 -123.5 -293s-180.5 -108 -294.5 -108c-116 0 -223.333 23 -322 69v96c96 -44.667 199.333 -67 310 -67c96.667 0 175 27.333 235 82s90 126.334 90 215.001c0 95.333 -31.833 171.166 -95.5 227.499s-151.834 83.5 -264.501 81.5v98
c102.667 0 185.667 26.5 249 79.5s95 116.833 95 191.5c0 74 -30.5 136.167 -91.5 186.5s-137.167 75.5 -228.5 75.5c-100 0 -195.333 -30.667 -286 -92z" />
    <glyph glyph-name="four" unicode="4" horiz-adv-x="1024" 
d="M770 1415v-792h195v-84h-195v-539h-104v539h-637v34l702 842h39zM666 623v589l-492 -589h492z" />
    <glyph glyph-name="five" unicode="5" horiz-adv-x="1024" 
d="M791 1397v-97h-494v-442c38 6 75.333 9 112 9c139.333 0 251.333 -39.167 336 -117.5s127 -183.5 127 -315.5c0 -129.333 -43 -237 -129 -323s-193.667 -129 -323 -129c-108 0 -220 30.667 -336 92v119c130 -75.333 243.333 -113 340 -113c100 0 182.333 32.667 247 98
s97 148 97 248c0 109.333 -34.333 194.833 -103 256.5s-160 92.5 -274 92.5c-62 0 -126 -10 -192 -30v652h592z" />
    <glyph glyph-name="six" unicode="6" horiz-adv-x="1024" 
d="M707 1415l60.999 -74.001c-298.667 -211.333 -472 -442.666 -520 -693.999c98 72.667 201 109 309 109c111.333 0 204.333 -36.5 279 -109.5s112 -163.5 112 -271.5c0 -114 -37.333 -208 -112 -282s-169.667 -111 -285 -111c-129.333 0 -232.666 44.5 -309.999 133.5
s-116 208.167 -116 357.5c0 341.333 194 655.333 582 942zM228.999 525.999c-2.66699 -24 -4 -47.668 -4 -71.001c0 -113.333 30 -204.166 90 -272.499s136.667 -102.5 230 -102.5c84.667 0 155.667 26.833 213 80.5s86 120.167 86 199.5c0 84 -29 154.5 -87 211.5
s-129.333 85.5 -214 85.5c-109.333 0 -214 -43.667 -314 -131z" />
    <glyph glyph-name="seven" unicode="7" horiz-adv-x="1024" 
d="M973 1397l-639 -1415l-90 38l577 1280h-762v97h914z" />
    <glyph glyph-name="eight" unicode="8" horiz-adv-x="1024" 
d="M324 727c-122 82.667 -182.999 187.667 -182.999 315c0 100.667 36.667 188 110 262s159.666 111 258.999 111c102 0 189.667 -36.5 263 -109.5s110 -160.167 110 -261.5c0 -131.333 -59.333 -237 -178 -317c137.333 -82.667 206 -198 206 -346
c0 -112 -38.167 -206.5 -114.5 -283.5s-169.833 -115.5 -280.5 -115.5c-112 0 -206.833 38 -284.5 114s-116.5 168.333 -116.5 277c0 152 69.667 270 209 354zM246.001 1044c0 -76 25.832 -140.333 77.499 -193s115.167 -79 190.5 -79c76 0 139 26.333 189 79
s75 118.667 75 198c0 74 -26 137.167 -78 189.5s-115.333 78.5 -190 78.5c-73.333 0 -135.666 -26.5 -186.999 -79.5s-77 -117.5 -77 -193.5zM807 387c0 79.333 -28.8311 146.999 -86.498 202.999s-127.834 84 -210.501 84c-80.667 0 -149.334 -29.167 -206.001 -87.5
s-85 -128.166 -85 -209.499c0 -82 28.667 -152 86 -210s127.666 -87 210.999 -87c84.667 0 154.334 29 209.001 87s82 131.333 82 220z" />
    <glyph glyph-name="nine" unicode="9" horiz-adv-x="1024" 
d="M295 -18l-57.001 74.999c308 222 482.667 452.333 524 691c-108.667 -70 -211 -105 -307 -105c-110 0 -202.333 36.833 -277 110.5s-112 164.5 -112 272.5c0 113.333 36.833 206.5 110.5 279.5s167.834 109.5 282.501 109.5c132.667 0 237.5 -43.667 314.5 -131
s115.5 -206.666 115.5 -357.999c0 -347.333 -198 -662 -594 -944zM779.999 871.999c2 21.333 3.00098 42 3.00098 62c0 120 -27.833 213.833 -83.5 281.5s-133.834 101.5 -234.501 101.5c-82.667 0 -152.5 -27.167 -209.5 -81.5s-85.5 -122.166 -85.5 -203.499
c0 -82.667 27.5 -151.834 82.5 -207.501s123.833 -83.5 206.5 -83.5c117.333 0 224.333 43.667 321 131z" />
    <glyph glyph-name="colon" unicode=":" horiz-adv-x="362" 
d="M248 920v-199h-133v199h133zM248 199v-199h-133v199h133z" />
    <glyph glyph-name="semicolon" unicode=";" horiz-adv-x="362" 
d="M248 920v-199h-133v199h133zM248 199v-156.001c0 -121.333 -44.333 -215.666 -133 -282.999v72c28.667 40 43 96 43 168h-43v199h133z" />
    <glyph glyph-name="less" unicode="&#x3c;" horiz-adv-x="1352" 
d="M139 674v86l1073 450v-100l-950 -393l950 -393v-101z" />
    <glyph glyph-name="equal" unicode="=" horiz-adv-x="1352" 
d="M139 1010h1073v-90h-1073v90zM139 516h1073v-90h-1073v90z" />
    <glyph glyph-name="greater" unicode="&#x3e;" horiz-adv-x="1352" 
d="M1212 674l-1073 -451v101l951 393l-951 393v100l1073 -450v-86z" />
    <glyph glyph-name="question" unicode="?" horiz-adv-x="575" 
d="M51 1219l47 159c48 24.667 94.667 37 140 37c76 0 137.667 -26.667 185 -80s71 -123.666 71 -210.999c0 -48 -8.83301 -99.167 -26.5 -153.5s-55.5 -122.833 -113.5 -205.5s-93.333 -141 -106 -175s-19 -65.333 -19 -94c0 -42 13 -85 39 -129l-37 -29
c-52.667 60.667 -79 123.334 -79 188.001c0 31.333 6.16699 65.666 18.5 102.999s44.5 97.833 96.5 181.5s85.333 148.667 100 195s22 89.5 22 129.5c0 53.333 -15 98.666 -45 135.999s-66 56 -108 56c-66 0 -120.667 -36 -164 -108h-21zM307 199v-199h-133v199h133z" />
    <glyph glyph-name="at" unicode="@" horiz-adv-x="1638" 
d="M1143 1034l125.001 -0.000976562l-170 -803c-8 -34.667 -12 -59.667 -12 -75c0 -30 16.333 -45 49 -45c80 0 165.167 54.833 255.5 164.5s135.5 247.167 135.5 412.5c0 184 -57 337.5 -171 460.5s-279.667 184.5 -497 184.5c-226.667 0 -413 -75 -559 -225
s-219 -342 -219 -576c0 -230.667 72.667 -417.667 218 -561s335.333 -215 570 -215c292.667 0 516.667 104 672 312h102c-75.333 -127.333 -182 -224.833 -320 -292.5s-290 -101.5 -456 -101.5c-259.333 0 -469.166 79.333 -629.499 238s-240.5 366.334 -240.5 623.001
c0 248.667 77.833 457.5 233.5 626.5s369.167 253.5 640.5 253.5c232 0 413.333 -69.833 544 -209.5s196 -312.167 196 -517.5c0 -187.333 -55.833 -345.5 -167.5 -474.5s-227.834 -193.5 -348.501 -193.5c-80.667 0 -121 37.333 -121 112c0 20 2.66699 43 8 69l-4 4
c-102.667 -123.333 -215.334 -185 -338.001 -185c-98.667 0 -181 40 -247 120s-99 180.667 -99 302c0 163.333 50.333 307 151 431s221.667 186 363 186c138 0 237.667 -64.333 299 -193h4zM676.001 116.999c104 0 194.167 63.167 270.5 189.5s114.5 253.5 114.5 381.5
c0 82 -24.167 149.667 -72.5 203s-109.5 80 -183.5 80c-113.333 0 -205.833 -57.333 -277.5 -172s-107.5 -235.667 -107.5 -363c0 -92 24.333 -168.167 73 -228.5s109.667 -90.5 183 -90.5z" />
    <glyph glyph-name="A" unicode="A" horiz-adv-x="1366" 
d="M713 1407l645 -1407h-113l-221 483h-682l-221 -483h-113l645 1407h60zM983 573l-301 658l-299 -658h600z" />
    <glyph glyph-name="B" unicode="B" horiz-adv-x="1087" 
d="M164 1397l290.999 0.000976562c152.667 0 268.334 -32 347.001 -96s118 -152.333 118 -265c0 -134.667 -67 -238.334 -201 -311.001c215.333 -46.667 323 -164.667 323 -354c0 -113.333 -42.167 -203.5 -126.5 -270.5s-198.5 -100.5 -342.5 -100.5h-409v1397z
M271.999 1307v-557h150c254 0 381 92.667 381 278c0 186 -128.333 279 -385 279h-146zM271.999 659.001v-569h289c119.333 0 210 25.667 272 77s93 120 93 206c0 190.667 -137.333 286 -412 286h-242z" />
    <glyph glyph-name="C" unicode="C" horiz-adv-x="1386" 
d="M1325 1298l0.000976562 -117.999c-169.333 90 -335.333 135 -498 135c-173.333 0 -318.333 -59 -435 -177s-175 -265.333 -175 -442c0 -178.667 58.667 -325.667 176 -441s267 -173 449 -173c152 0 317.667 47.667 497 143v-112
c-165.333 -87.333 -330.333 -131 -495 -131c-212.667 0 -389.834 68.167 -531.501 204.5s-212.5 306.166 -212.5 509.499c0 204.667 72.333 375.667 217 513s317 206 517 206c157.333 0 321 -39 491 -117z" />
    <glyph glyph-name="D" unicode="D" horiz-adv-x="1516" 
d="M162 1397h489.001c247.333 0 436.166 -65 566.499 -195s195.5 -298 195.5 -504c0 -202 -64.5 -368.833 -193.5 -500.5s-312.167 -197.5 -549.5 -197.5h-508v1397zM270.001 1307l0.000976562 -1217h394c180.667 0 331.167 55.5 451.5 166.5s180.5 258.167 180.5 441.5
c0 179.333 -59.333 325.666 -178 438.999s-272.334 170 -461.001 170h-387z" />
    <glyph glyph-name="E" unicode="E" horiz-adv-x="1004" 
d="M926 1397v-90h-654v-559h637v-91h-637v-567h670v-90h-778v1397h762z" />
    <glyph glyph-name="F" unicode="F" horiz-adv-x="897" 
d="M879 1397v-90h-611v-531h551v-90h-551v-686h-108v1397h719z" />
    <glyph glyph-name="G" unicode="G" horiz-adv-x="1473" 
d="M1331 1296v-121.999c-165.333 94 -330.333 141 -495 141c-176.667 0 -323.667 -58.667 -441 -176s-176 -264.333 -176 -441s58 -323.5 174 -440.5s273.667 -175.5 473 -175.5c144 0 271.667 28.667 383 86v377h-295v90h404v-535c-164.667 -78.667 -330 -118 -496 -118
c-216.667 0 -397.5 68.667 -542.5 206s-217.5 308.666 -217.5 513.999c0 204 71.167 373.833 213.5 509.5s321.166 203.5 536.499 203.5c146.667 0 306.334 -39.667 479.001 -119z" />
    <glyph glyph-name="H" unicode="H" horiz-adv-x="1473" 
d="M1311 1397v-1397h-109v662h-932v-662h-108v1397h108v-645h932v645h109z" />
    <glyph glyph-name="I" unicode="I" horiz-adv-x="426" 
d="M268 1397v-1397h-108v1397h108z" />
    <glyph glyph-name="J" unicode="J" horiz-adv-x="426" 
d="M276 1397l0.000976562 -1397c0 -154 -29 -260.333 -87 -319s-126.667 -88 -206 -88c-18.667 0 -40.334 1.33301 -65.001 4l-10 102c22.667 -5.33301 44 -8 64 -8c130.667 0 196 93.333 196 280v1426h108z" />
    <glyph glyph-name="K" unicode="K" horiz-adv-x="1087" 
d="M1069 1397l-668 -697l732 -700h-138l-731 698v-698h-108v1397h108v-695l670 695h135z" />
    <glyph glyph-name="L" unicode="L" horiz-adv-x="961" 
d="M270 1397v-1307h691v-90h-799v1397h108z" />
    <glyph glyph-name="M" unicode="M" horiz-adv-x="1599" 
d="M799 748l532 649h109v-1397h-109v1239l-532 -653l-533 653v-1239h-108v1397h108z" />
    <glyph glyph-name="N" unicode="N" horiz-adv-x="1579" 
d="M1419 1397v-1397h-90l-1061 1221v-1221h-108v1397h92l1059 -1221v1221h108z" />
    <glyph glyph-name="O" unicode="O" horiz-adv-x="1686" 
d="M842 1415c206.667 0 381.834 -69.5 525.501 -208.5s215.5 -308.5 215.5 -508.5c0 -199.333 -71.833 -368.5 -215.5 -507.5s-318.834 -208.5 -525.501 -208.5c-206 0 -380.5 69.5 -523.5 208.5s-214.5 308.167 -214.5 507.5c0 200 71.5 369.5 214.5 508.5
s317.5 208.5 523.5 208.5zM846 82c174 0 320.833 59.5 440.5 178.5s179.5 264.833 179.5 437.5c0 173.333 -59.833 319.5 -179.5 438.5s-266.5 178.5 -440.5 178.5c-174.667 0 -322.5 -59.5 -443.5 -178.5s-181.5 -265.167 -181.5 -438.5
c0 -172.667 60.5 -318.5 181.5 -437.5s268.833 -178.5 443.5 -178.5z" />
    <glyph glyph-name="P" unicode="P" horiz-adv-x="1044" 
d="M160 1397l385.001 -0.000976562c147.333 0 260.166 -33 338.499 -99s117.5 -156 117.5 -270c0 -115.333 -39.5 -206.666 -118.5 -273.999s-194.833 -101 -347.5 -101h-267v-653h-108v1397zM268.001 1307l-0.000976562 -564h260c116.667 0 205.334 24.667 266.001 74
s91 119 91 209c0 86 -29.667 154.333 -89 205s-144.333 76 -255 76h-273z" />
    <glyph glyph-name="Q" unicode="Q" horiz-adv-x="1686" 
d="M1522 -152l-121.001 -141c-243.333 30 -455 121.667 -635 275c-198.667 18 -358.667 97 -480 237s-182 299 -182 477c0 203.333 70.833 374 212.5 512s316.834 207 525.501 207c210 0 386 -68.5 528 -205.5s213 -306.833 213 -509.5c0 -166.667 -54.833 -320 -164.5 -460
s-274.5 -226 -494.5 -258c160.667 -109.333 306.667 -164 438 -164c45.333 0 91 17 137 51zM837.999 82c172.667 0 320.5 60.167 443.5 180.5s184.5 265.5 184.5 435.5c0 172.667 -60.167 318.667 -180.5 438s-267.5 179 -441.5 179
c-172.667 0 -319.667 -60.167 -441 -180.5s-182 -265.833 -182 -436.5c0 -170 60 -315.167 180 -435.5s265.667 -180.5 437 -180.5z" />
    <glyph glyph-name="R" unicode="R" horiz-adv-x="1174" 
d="M162 1397l357.998 -0.000976562c150 0 264.667 -32.5 344 -97.5s119 -152.833 119 -263.5c0 -161.333 -88.667 -274.666 -266 -339.999c46 -22 108 -93 186 -213l316 -483h-127l-244 383c-81.333 128 -144.666 207.833 -189.999 239.5s-111.666 47.5 -198.999 47.5h-189
v-670h-108v1397zM269.998 1307v-547h232c118 0 208.167 23.833 270.5 71.5s93.5 115.167 93.5 202.5c0 86 -31.667 153 -95 201s-154.333 72 -273 72h-228z" />
    <glyph glyph-name="S" unicode="S" horiz-adv-x="961" 
d="M819 1327l-0.00292969 -118.997c-121.333 71.333 -225.666 107 -312.999 107c-84 0 -154.167 -25.5 -210.5 -76.5s-84.5 -114.167 -84.5 -189.5c0 -54 16.667 -102.667 50 -146s103 -85 209 -125s183.333 -73.333 232 -100s90 -65.334 124 -116.001
s51 -116.334 51 -197.001c0 -107.333 -39.333 -198 -118 -272s-174.667 -111 -288 -111c-116 0 -235.333 40.667 -358 122v127c135.333 -99.333 252.666 -149 351.999 -149c82.667 0 152.5 26.833 209.5 80.5s85.5 119.5 85.5 197.5c0 59.333 -17.667 112.833 -53 160.5
s-107 92.167 -215 133.5s-185.167 74.666 -231.5 99.999s-85.666 61.5 -117.999 108.5s-48.5 107.5 -48.5 181.5c0 102.667 39.333 190.167 118 262.5s173.334 108.5 284.001 108.5c108.667 0 216.334 -29.333 323.001 -88z" />
    <glyph glyph-name="T" unicode="T" horiz-adv-x="1174" 
d="M1165 1397v-90h-524v-1307h-109v1307h-524v90h1157z" />
    <glyph glyph-name="U" unicode="U" horiz-adv-x="1430" 
d="M1192 1397h108.002v-762c0 -208.667 -54.333 -369.667 -163 -483s-249.334 -170 -422.001 -170c-172 0 -312.333 56 -421 168s-163 265.333 -163 460v787h109v-783c0 -166.667 44.167 -297 132.5 -391s202.5 -141 342.5 -141c141.333 0 256.166 47.5 344.499 142.5
s132.5 229.833 132.5 404.5v768z" />
    <glyph glyph-name="V" unicode="V" horiz-adv-x="1217" 
d="M1210 1397l-585 -1411h-31l-588 1411h109l495 -1182l492 1182h108z" />
    <glyph glyph-name="W" unicode="W" horiz-adv-x="2111" 
d="M1057 1165l-469 -1179h-29l-561 1411h111l462 -1159l469 1159h33l467 -1159l463 1159h111l-562 -1411h-26z" />
    <glyph glyph-name="X" unicode="X" horiz-adv-x="1409" 
d="M705 795l530 602h139l-600 -682l635 -715h-139l-565 639l-566 -639h-139l633 715l-600 682h139z" />
    <glyph glyph-name="Y" unicode="Y" horiz-adv-x="1194" 
d="M1194 1397l-543 -647v-750h-108v750l-543 647h131l467 -553l465 553h131z" />
    <glyph glyph-name="Z" unicode="Z" horiz-adv-x="1300" 
d="M1233 1397l10 -39l-1046 -1268h1054v-90h-1222l-11 31l1047 1276h-999v90h1167z" />
    <glyph glyph-name="bracketleft" unicode="[" horiz-adv-x="618" 
d="M240 1300v-1654h364v-97h-463v1848h463v-97h-364z" />
    <glyph glyph-name="backslash" unicode="\" horiz-adv-x="575" 
d="M475 -18l-450 1433h96l448 -1433h-94z" />
    <glyph glyph-name="bracketright" unicode="]" horiz-adv-x="618" 
d="M379 -354v1654h-365v97h463v-1848h-463v97h365z" />
    <glyph glyph-name="asciicircum" unicode="^" horiz-adv-x="1352" 
d="M676 1415l448 -536l-65 -54l-383 461l-385 -461l-64 54z" />
    <glyph glyph-name="underscore" unicode="_" horiz-adv-x="1024" 
d="M-12 -154h1048v-102h-1048v102z" />
    <glyph glyph-name="grave" unicode="`" horiz-adv-x="682" 
d="M158 1386h166l213 -319h-68z" />
    <glyph glyph-name="a" unicode="a" horiz-adv-x="874" 
d="M862 160l0.000976562 -82.001c-84.667 -64 -146.667 -96 -186 -96c-22.667 0 -38.334 7.5 -47.001 22.5s-15 45.5 -19 91.5c-96.667 -76 -192.667 -114 -288 -114c-69.333 0 -128 22.667 -176 68s-72 100.333 -72 165c0 100 46.333 178.833 139 236.5
s225 90.834 397 99.501v117c0 125.333 -68 188 -204 188c-86.667 0 -180.334 -39 -281.001 -117v101c104 65.333 203 98 297 98c83.333 0 152 -20.5 206 -61.5s81 -100.5 81 -178.5v-573c0 -31.333 7.33301 -47 22 -47c18.667 0 62.334 27.333 131.001 82zM610.001 181.999
v287c-126 4.66699 -230.5 -17.5 -313.5 -66.5s-124.5 -111.5 -124.5 -187.5c0 -42.667 17.333 -78.667 52 -108s78 -44 130 -44c84 0 169.333 39.667 256 119z" />
    <glyph glyph-name="b" unicode="b" horiz-adv-x="1044" 
d="M127 51v1346h98v-609c98 100 208.667 150 332 150c120 0 218.333 -41.833 295 -125.5s115 -191.5 115 -323.5c0 -153.333 -46.833 -276.166 -140.5 -368.499s-218.167 -138.5 -373.5 -138.5c-102 0 -210.667 23 -326 69zM225 677.999l-0.000976562 -556.999
c76 -28.667 151.333 -43 226 -43c118.667 0 216.834 38.167 294.501 114.5s116.5 173.166 116.5 290.499c0 108.667 -30 198 -90 268s-135.667 105 -227 105c-109.333 0 -216 -59.333 -320 -178z" />
    <glyph glyph-name="c" unicode="c" horiz-adv-x="854" 
d="M776 893v-109.001c-88 38.667 -167.667 58 -239 58c-102.667 0 -186.167 -35.667 -250.5 -107s-96.5 -164 -96.5 -278c0 -116 32.167 -208.167 96.5 -276.5s150.5 -102.5 258.5 -102.5c78.667 0 161.334 17.667 248.001 53v-102c-92 -31.333 -177.333 -47 -256 -47
c-134.667 0 -243.5 42.667 -326.5 128s-124.5 197.333 -124.5 336c0 144.667 41.833 262.834 125.5 354.501s190.5 137.5 320.5 137.5c71.333 0 152.666 -15 243.999 -45z" />
    <glyph glyph-name="d" unicode="d" horiz-adv-x="1044" 
d="M920 1397l0.000976562 -1397h-99v72c-84 -60 -174.667 -90 -272 -90c-130.667 0 -240.834 46.167 -330.501 138.5s-134.5 205.833 -134.5 340.5c0 136.667 44.167 250.334 132.5 341.001s199.166 136 332.499 136c84.667 0 175.334 -24.667 272.001 -74v533h99z
M821.001 161.999v593.999c-88 57.333 -177.333 86 -268 86c-106 0 -193.333 -35.167 -262 -105.5s-103 -160.166 -103 -269.499c0 -111.333 36.667 -204 110 -278s165 -111 275 -111c85.333 0 168 28 248 84z" />
    <glyph glyph-name="e" unicode="e" horiz-adv-x="981" 
d="M911 494l-724.999 0.000976562c-2 -16 -3 -32 -3 -48c0 -102.667 36.667 -189.667 110 -261s160 -107 260 -107c116.667 0 230.667 45.667 342 137v-111c-105.333 -81.333 -223.333 -122 -354 -122c-132.667 0 -242.334 46 -329.001 138s-130 209 -130 351
c0 134.667 40 246.167 120 334.5s180.667 132.5 302 132.5c114 0 210.333 -39.833 289 -119.5s118 -187.834 118 -324.501zM199.001 573.001h596c-34.667 179.333 -131.667 269 -291 269c-75.333 0 -140.5 -23.5 -195.5 -70.5s-91.5 -113.167 -109.5 -198.5z" />
    <glyph glyph-name="f" unicode="f" horiz-adv-x="492" 
d="M680 1376v-92c-66 23.333 -121.333 35 -166 35c-148.667 0 -223 -95 -223 -285v-114h178v-80h-178v-840h-98v840h-170v80h170v151c0 106 30.833 189.833 92.5 251.5s137.167 92.5 226.5 92.5c48.667 0 104.667 -13 168 -39z" />
    <glyph glyph-name="g" unicode="g" horiz-adv-x="874" 
d="M854 920l0.00195312 -79.999h-209c84.667 -77.333 127 -158.666 127 -243.999c0 -76.667 -16.5 -137.334 -49.5 -182.001s-72.333 -77.167 -118 -97.5s-106.5 -40.333 -182.5 -60s-123.667 -38.167 -143 -55.5s-29 -37.333 -29 -60c0 -26.667 12.5 -48 37.5 -64
s102.667 -27.667 233 -35s218.166 -32.333 263.499 -75s68 -99.334 68 -170.001c0 -83.333 -36.333 -148.833 -109 -196.5s-173.667 -71.5 -303 -71.5c-128.667 0 -228 22.5 -298 67.5s-105 104.5 -105 178.5c0 120 89.333 194.333 268 223v4
c-99.333 23.333 -149 67 -149 131c0 64.667 61.333 114.667 184 150v4c-80.667 24 -141.834 63.833 -183.501 119.5s-62.5 117.5 -62.5 185.5c0 96.667 33.667 175.5 101 236.5s164 91.5 290 91.5h369zM432.002 348.001c67.333 0 125.167 24.1689 173.5 72.502
s72.5 106.166 72.5 173.499s-24.167 124.833 -72.5 172.5s-106.833 71.5 -175.5 71.5c-68 0 -125.333 -23.333 -172 -70s-70 -103.334 -70 -170.001c0 -69.333 23.667 -128.333 71 -177s105 -73 173 -73zM446.003 -388.997c95.333 0 171.167 16.333 227.5 49
s84.5 75.667 84.5 129c0 108 -97.667 162 -293 162c-222.667 0 -334 -56.667 -334 -170s105 -170 315 -170z" />
    <glyph glyph-name="h" unicode="h" horiz-adv-x="1004" 
d="M225 1397l-0.000976562 -636.999h4c76.667 118.667 177.667 178 303 178c104 0 187 -33.333 249 -100s93 -158.334 93 -275.001v-563h-98v524c0 212 -83.333 318 -250 318c-119.333 0 -219.666 -65.667 -300.999 -197v-645h-98v1397h98z" />
    <glyph glyph-name="i" unicode="i" horiz-adv-x="385" 
d="M242 1397v-168h-99v168h99zM242 920v-920h-99v920h99z" />
    <glyph glyph-name="j" unicode="j" horiz-adv-x="385" 
d="M238 1397v-168h-99v168h99zM238 920l0.000976562 -1022c0 -115.333 -24.333 -205.666 -73 -270.999s-115.334 -98 -200.001 -98l-22 84c70 1.33301 120.167 24.333 150.5 69s45.5 117.334 45.5 218.001v1020h99z" />
    <glyph glyph-name="k" unicode="k" horiz-adv-x="874" 
d="M219 1397v-1397h-98v1397h98zM870 920l-503 -437l581 -483h-135l-580 483l508 437h129z" />
    <glyph glyph-name="l" unicode="l" horiz-adv-x="385" 
d="M242 1397v-1397h-99v1397h99z" />
    <glyph glyph-name="m" unicode="m" horiz-adv-x="1579" 
d="M221 920l-0.00195312 -162h4c74.667 120 172.334 180 293.001 180c140.667 0 239.667 -73.667 297 -221c86.667 147.333 193.334 221 320.001 221c95.333 0 172.333 -34 231 -102s88 -158.333 88 -271v-565h-98v522c0 99.333 -21 177.5 -63 234.5s-101 85.5 -177 85.5
c-56.667 0 -106 -17 -148 -51s-85.333 -88.667 -130 -164v-627h-99v524c0 102 -21.833 180.5 -65.5 235.5s-102.167 82.5 -175.5 82.5c-106.667 0 -199 -65.667 -277 -197v-645h-98v920h98z" />
    <glyph glyph-name="n" unicode="n" horiz-adv-x="1004" 
d="M225 920v-160h4c76.667 118.667 177.667 178 303 178c104 0 187 -33.333 249 -100s93 -159 93 -277v-561h-98v524c0 212 -83.333 318 -250 318c-122 0 -222.333 -65.667 -301 -197v-645h-98v920h98z" />
    <glyph glyph-name="o" unicode="o" horiz-adv-x="1110" 
d="M555 938c133.333 0 244.5 -45.667 333.5 -137s133.5 -205.333 133.5 -342c0 -136 -44.5 -249.5 -133.5 -340.5s-200.167 -136.5 -333.5 -136.5s-244.833 45.5 -334.5 136.5s-134.5 204.5 -134.5 340.5c0 136.667 44.833 250.667 134.5 342s201.167 137 334.5 137zM555 78
c103.333 0 189.668 36.167 259.001 108.5s104 163.166 104 272.499c0 108.667 -34.833 199.667 -104.5 273s-155.834 110 -258.501 110c-104 0 -190.833 -36.333 -260.5 -109s-104.5 -164 -104.5 -274c0 -109.333 34.833 -200.166 104.5 -272.499s156.5 -108.5 260.5 -108.5
z" />
    <glyph glyph-name="p" unicode="p" horiz-adv-x="1044" 
d="M227 920v-52c92.667 46.667 185 70 277 70c130.667 0 239 -45 325 -135s129 -203.333 129 -340c0 -134.667 -44.333 -248.5 -133 -341.5s-197 -139.5 -325 -139.5c-88.667 0 -179.667 23 -273 69v-522h-98v1391h98zM227 774l0.000976562 -627c83.333 -46 168 -69 254 -69
c110 0 199 34.667 267 104s102 160.333 102 273c0 112 -36 204.5 -108 277.5s-163 109.5 -273 109.5c-78.667 0 -159.334 -22.667 -242.001 -68z" />
    <glyph glyph-name="q" unicode="q" horiz-adv-x="1044" 
d="M915 920v-1391h-98v524c-102.667 -47.333 -203 -71 -301 -71c-128.667 0 -234.167 43 -316.5 129s-123.5 196.333 -123.5 331c0 142 43.333 260.167 130 354.5s194.667 141.5 324 141.5c94 0 189.667 -27.333 287 -82v64h98zM817 152l0.000976562 608
c-88 54.667 -176.667 82 -266 82c-105.333 0 -193.5 -39 -264.5 -117s-106.5 -175 -106.5 -291c0 -109.333 32.667 -197 98 -263s151.666 -99 258.999 -99c94 0 187.333 26.667 280 80z" />
    <glyph glyph-name="r" unicode="r" horiz-adv-x="682" 
d="M764 829l-56.999 -92c-76.667 70 -138.334 105 -185.001 105c-92 0 -190.333 -88 -295 -264v-578h-98v920h98v-242h4c110 173.333 217.333 260 322 260c60 0 130.333 -36.333 211 -109z" />
    <glyph glyph-name="s" unicode="s" horiz-adv-x="725" 
d="M633 860l-0.000976562 -106c-93.333 62.667 -177.333 94 -252 94c-55.333 0 -102 -15 -140 -45s-57 -67 -57 -111c0 -31.333 11.5 -60.166 34.5 -86.499s86.667 -59.5 191 -99.5s172.5 -81.667 204.5 -125s48 -91.666 48 -144.999c0 -71.333 -29 -131.5 -87 -180.5
s-129.667 -73.5 -215 -73.5c-92.667 0 -184.667 28 -276 84v96c108.667 -56 205 -84 289 -84c56.667 0 103.167 15 139.5 45s54.5 68.333 54.5 115c0 32 -11.833 61.5 -35.5 88.5s-87.667 61.167 -192 102.5s-172 82.166 -203 122.499s-46.5 85.166 -46.5 134.499
c0 70 28.833 129.5 86.5 178.5s127.834 73.5 210.501 73.5c75.333 0 157.333 -26 246 -78z" />
    <glyph glyph-name="t" unicode="t" horiz-adv-x="618" 
d="M307 1225l0.000976562 -305h258v-80h-258v-547c0 -88 7.16699 -145.833 21.5 -173.5s52.833 -41.5 115.5 -41.5c48 0 104 15 168 45v-94c-64.667 -31.333 -128 -47 -190 -47c-60.667 0 -111.334 17.333 -152.001 52s-61 82.667 -61 144v662h-248v80h248v219l67 86h31z
" />
    <glyph glyph-name="u" unicode="u" horiz-adv-x="1004" 
d="M776 0v152h-4c-42.667 -61.333 -86.5 -105 -131.5 -131s-102.167 -39 -171.5 -39c-98.667 0 -180.334 32 -245.001 96s-97 154.667 -97 272v570h98v-568c0 -85.333 23.333 -152.333 70 -201s107.334 -73 182.001 -73c64 0 118.5 14.667 163.5 44s90.167 80 135.5 152v646
h98v-920h-98z" />
    <glyph glyph-name="v" unicode="v" horiz-adv-x="874" 
d="M874 920l-395 -938h-61l-418 938h100l346 -775l332 775h96z" />
    <glyph glyph-name="w" unicode="w" horiz-adv-x="1450" 
d="M1450 920l-397 -938h-47l-283 747l-285 -747h-45l-393 938h96l314 -750l288 750h54l280 -750l320 750h98z" />
    <glyph glyph-name="x" unicode="x" horiz-adv-x="981" 
d="M500 403l-361 -403h-127l420 471l-420 449h127l361 -381l360 381h127l-422 -449l422 -471h-127z" />
    <glyph glyph-name="y" unicode="y" horiz-adv-x="854" 
d="M866 920l-688 -1391h-100l321 649l-387 742h103l334 -644l317 644h100z" />
    <glyph glyph-name="z" unicode="z" horiz-adv-x="811" 
d="M780 920l8 -31l-604 -799h604v-90h-757l-11 31l609 798h-570v91h721z" />
    <glyph glyph-name="braceleft" unicode="{" horiz-adv-x="682" 
d="M100 397v131.001c68.667 1.33301 118 26.666 148 75.999s45 136 45 260v199c0 234 97.667 345.333 293 334v-111c-79.333 0 -129.166 -16.833 -149.499 -50.5s-30.5 -91.167 -30.5 -172.5v-199c0 -220 -66.333 -353.667 -199 -401c132.667 -47.333 199 -181.333 199 -402
v-198c0 -81.333 10.167 -138.833 30.5 -172.5s70.166 -50.5 149.499 -50.5v-111c-195.333 -11.333 -293 100 -293 334v198c0 124.667 -15 211.667 -45 261s-79.333 74.333 -148 75z" />
    <glyph glyph-name="bar" unicode="|" horiz-adv-x="455" 
d="M176 1397h98v-1868h-98v1868z" />
    <glyph glyph-name="braceright" unicode="}" horiz-adv-x="682" 
d="M582 528v-131.001c-68.667 -0.666992 -118 -25.667 -148 -75s-45 -136.333 -45 -261v-198c0 -234 -97.667 -345.333 -293 -334v111c79.333 0 129.166 16.833 149.499 50.5s30.5 91.167 30.5 172.5v198c0 220.667 66.333 354.667 199 402
c-132.667 47.333 -199 181 -199 401v199c0 81.333 -10.167 138.833 -30.5 172.5s-70.166 50.5 -149.499 50.5v111c195.333 11.333 293 -100 293 -334v-199c0 -124 15 -210.667 45 -260s79.333 -74.666 148 -75.999z" />
    <glyph glyph-name="asciitilde" unicode="~" horiz-adv-x="1352" 
d="M137 596l-0.000976562 111.001c110.667 80 206.334 120 287.001 120c52.667 0 139.667 -26.833 261 -80.5s202.333 -80.5 243 -80.5c42 0 84 11 126 33s94.667 56 158 102v-111c-110 -80.667 -203.333 -121 -280 -121c-54.667 0 -141 27 -259 81s-200.333 81 -247 81
c-42.667 0 -83 -8.83301 -121 -26.5s-94 -53.834 -168 -108.501z" />
    <glyph glyph-name="nonbreakingspace" unicode="&#xa0;" horiz-adv-x="569" 
 />
    <glyph glyph-name="exclamdown" unicode="&#xa1;" horiz-adv-x="362" 
d="M115 745v199h133v-199h-133zM115 -453l35 1004h63l35 -1004h-133z" />
    <glyph glyph-name="cent" unicode="&#xa2;" horiz-adv-x="854" 
d="M840 1307l-137.998 -389.001c29.333 -8.66699 52.666 -17 69.999 -25v-109c-37.333 19.333 -71.333 33 -102 41l-256 -727c40.667 -13.333 85 -20 133 -20c84.667 0 166.667 18.333 246 55v-96c-78.667 -37.333 -161.667 -56 -249 -56
c-51.333 0 -105.666 6.33301 -162.999 19l-139 -387h-90l151 424c-144.667 84 -217 218.333 -217 403c0 154.667 42.167 276.334 126.5 365.001s196.166 133 335.499 133c23.333 0 46.666 -1.33301 69.999 -4l134 373h88zM336.002 136.999l254 705.001h-49
c-104 0 -188.5 -34.833 -253.5 -104.5s-97.5 -163.834 -97.5 -282.501c0 -134.667 48.667 -240.667 146 -318z" />
    <glyph glyph-name="sterling" unicode="&#xa3;" horiz-adv-x="1130" 
d="M1038 1397l48.998 -97c-42 11.333 -78.667 17 -110 17c-108.667 0 -202 -47.5 -280 -142.5s-146.333 -244.833 -205 -449.5h217v-96h-246l-137 -520c99.333 9.33301 170.333 14 213 14c60 0 127.833 -7.16699 203.5 -21.5s127.834 -21.5 156.501 -21.5
c68.667 0 136.334 18.333 203.001 55v-108c-60 -30 -125.667 -45 -197 -45c-25.333 0 -81.833 7.16699 -169.5 21.5s-161.5 21.5 -221.5 21.5c-92 0 -199 -11.667 -321 -35l172 639h-172v96h198c126.667 460 309.667 690 549 690c33.333 0 66 -6 98 -18z" />
    <glyph glyph-name="currency" unicode="&#xa4;" horiz-adv-x="1139" 
d="M291 1042c84.667 66 176.667 99 276 99c100 0 193 -33 279 -99l129 129l65 -65l-129 -129c66 -82.667 99 -175 99 -277c0 -101.333 -33 -194 -99 -278l129 -129l-65 -66l-129 129c-82.667 -65.333 -175.667 -98 -279 -98c-102.667 0 -194.667 32.667 -276 98l-129 -129
l-66 66l129 129c-65.333 86 -98 178.667 -98 278c0 102.667 32.667 195 98 277l-129 129l66 65zM911 700c0 94.667 -33.5 175.332 -100.5 241.999s-148.167 100 -243.5 100c-94.667 0 -175.334 -33.167 -242.001 -99.5s-100 -147.166 -100 -242.499
c0 -94.667 33.333 -175.667 100 -243s147.334 -101 242.001 -101s175.667 33.667 243 101s101 148.333 101 243z" />
    <glyph glyph-name="yen" unicode="&#xa5;" horiz-adv-x="1139" 
d="M4 1466h148l423 -725l418 725h142l-430 -725h366v-96h-434v-156h434v-96h-434v-393h-131v393h-438v96h438v156h-438v96h370z" />
    <glyph glyph-name="brokenbar" unicode="&#xa6;" horiz-adv-x="455" 
d="M176 1397h98v-684h-98v684zM176 346h98v-817h-98v817z" />
    <glyph glyph-name="section" unicode="&#xa7;" horiz-adv-x="811" 
d="M690 1190l-103.996 -0.000976562c-20.667 90 -79.334 135 -176.001 135c-52 0 -96.5 -17 -133.5 -51s-55.5 -75 -55.5 -123c0 -42.667 14.167 -88 42.5 -136s101.166 -123 218.499 -225s192.666 -183 225.999 -243s50 -117.333 50 -172c0 -60 -14 -115 -42 -165
s-71.333 -105.667 -130 -167c66.667 -76 100 -157.333 100 -244c0 -80.667 -26.667 -145.834 -80 -195.501s-123.666 -74.5 -210.999 -74.5c-72 0 -133.167 19.5 -183.5 58.5s-79.833 93.167 -88.5 162.5h102c19.333 -87.333 77.333 -131 174 -131
c55.333 0 101.333 17.167 138 51.5s55 77.166 55 128.499c0 40 -13.833 82.833 -41.5 128.5s-100.334 119.334 -218.001 221.001s-193.667 183.334 -228 245.001s-51.5 120.834 -51.5 177.501c0 104 57.333 212.667 172 326c-68 86 -102 168.667 -102 248
s27 144.166 81 194.499s124 75.5 210 75.5c74 0 136.167 -20.167 186.5 -60.5s80.166 -95.166 89.499 -164.499zM524.004 108.999c93.333 86 140 172.002 140 258.002c0 48.667 -15 96.667 -45 144s-140 155 -330 323c-87.333 -84 -131 -171 -131 -261
c0 -42.667 12.333 -86.834 37 -132.501s78.667 -105.334 162 -179.001s139 -124.5 167 -152.5z" />
    <glyph glyph-name="dieresis" unicode="&#xa8;" horiz-adv-x="682" 
d="M432 1212c0 24.667 9 46 27 64s39 27 63 27c24.667 0 45.834 -9 63.501 -27s26.5 -39.333 26.5 -64c0 -24 -8.83301 -45 -26.5 -63s-38.834 -27 -63.501 -27c-24 0 -45 9 -63 27s-27 39 -27 63zM70 1212c0 24.667 8.83301 46 26.5 64s38.834 27 63.501 27
c24 0 45 -9 63 -27s27 -39.333 27 -64c0 -24 -9 -45 -27 -63s-39 -27 -63 -27c-24.667 0 -45.834 9 -63.501 27s-26.5 39 -26.5 63z" />
    <glyph glyph-name="copyright" unicode="&#xa9;" horiz-adv-x="1638" 
d="M55 727c0 210 74.833 389.833 224.5 539.5s329.5 224.5 539.5 224.5s389.833 -74.833 539.5 -224.5s224.5 -329.5 224.5 -539.5s-74.833 -389.833 -224.5 -539.5s-329.5 -224.5 -539.5 -224.5s-389.833 74.833 -539.5 224.5s-224.5 329.5 -224.5 539.5zM1487 727
c0 183.333 -65.5 340.5 -196.5 471.5s-288.167 196.5 -471.5 196.5s-340.333 -65.5 -471 -196.5s-196 -288.167 -196 -471.5s65.333 -340.5 196 -471.5s287.667 -196.5 471 -196.5s340.5 65.5 471.5 196.5s196.5 288.167 196.5 471.5zM1151 920l-96.001 -25
c-48 110.667 -124 166 -228 166c-81.333 0 -148.666 -29 -201.999 -87s-80 -134.333 -80 -229c0 -109.333 25 -197.333 75 -264s115.667 -100 197 -100c122 0 206 68.333 252 205l90 -33c-22 -80.667 -63.5 -144.5 -124.5 -191.5s-131.5 -70.5 -211.5 -70.5
c-110 0 -201.333 41.5 -274 124.5s-109 187.5 -109 313.5c0 118.667 36 217.667 108 297s165.667 119 281 119c140.667 0 248 -75 322 -225z" />
    <glyph glyph-name="ordfeminine" unicode="&#xaa;" horiz-adv-x="575" 
d="M573 971v-74c-62.667 -39.333 -106.334 -59 -131.001 -59c-31.333 0 -49.666 19.667 -54.999 59c-58.667 -39.333 -116 -59 -172 -59c-48 0 -88.667 14 -122 42s-50 62.333 -50 103c0 58 29.5 104.833 88.5 140.5s144.167 56.5 255.5 62.5v63
c0 68.667 -39.667 103 -119 103c-52.667 0 -116.667 -26 -192 -78v80c69.333 40.667 137 61 203 61c61.333 0 109 -14.167 143 -42.5s51 -66.833 51 -115.5v-303c0 -27.333 6.33301 -41 19 -41c2 0 29 19.333 81 58zM387 1126c-80 0 -142.666 -13 -187.999 -39
s-68 -61.333 -68 -106c0 -24 9.66699 -43.667 29 -59s44.666 -23 75.999 -23c48 0 98.333 22 151 66v161z" />
    <glyph glyph-name="guillemotleft" unicode="&#xab;" horiz-adv-x="1024" 
d="M600 473l385 -459h-123l-387 459l387 459h123zM164 473l385 -459h-123l-387 459l387 459h123z" />
    <glyph glyph-name="logicalnot" unicode="&#xac;" horiz-adv-x="1352" 
d="M139 989h1073v-581h-90v491h-983v90z" />
    <glyph glyph-name="softhyphen" unicode="&#xad;" horiz-adv-x="641" 
d="M563 510v-96h-485v96h485z" />
    <glyph glyph-name="registered" unicode="&#xae;" horiz-adv-x="1638" 
d="M55 727c0 210 74.833 389.833 224.5 539.5s329.5 224.5 539.5 224.5s389.833 -74.833 539.5 -224.5s224.5 -329.5 224.5 -539.5s-74.833 -389.833 -224.5 -539.5s-329.5 -224.5 -539.5 -224.5s-389.833 74.833 -539.5 224.5s-224.5 329.5 -224.5 539.5zM1487 727
c0 183.333 -65.5 340.5 -196.5 471.5s-288.167 196.5 -471.5 196.5s-340.333 -65.5 -471 -196.5s-196 -288.167 -196 -471.5s65.333 -340.5 196 -471.5s287.667 -196.5 471 -196.5s340.5 65.5 471.5 196.5s196.5 288.167 196.5 471.5zM512 1120h331.999
c84.667 0 151.167 -18.833 199.5 -56.5s72.5 -89.834 72.5 -156.501c0 -123.333 -73 -197.666 -219 -222.999c57.333 -34.667 98.833 -70 124.5 -106s67.5 -123 125.5 -261h-121c-71.333 156.667 -127.666 254.667 -168.999 294s-108 59 -200 59h-47v-353h-98v803z
M609.999 750h133c92.667 0 158.5 11 197.5 33s58.5 60.667 58.5 116c0 54 -17.833 91 -53.5 111s-98.167 30 -187.5 30h-148v-290z" />
    <glyph glyph-name="macron" unicode="&#xaf;" horiz-adv-x="1024" 
d="M-11 1612h1047v-103h-1047v103z" />
    <glyph glyph-name="degree" unicode="&#xb0;" horiz-adv-x="819" 
d="M125 1130c0 78.667 27.833 145.834 83.5 201.501s122.834 83.5 201.501 83.5s146 -27.833 202 -83.5s84 -122.834 84 -201.501c0 -78 -28.167 -145.167 -84.5 -201.5s-123.5 -84.5 -201.5 -84.5c-78.667 0 -145.834 28.167 -201.501 84.5s-83.5 123.5 -83.5 201.5z
M614 1128c0 56.667 -20 105 -60 145s-88 60 -144 60s-103.833 -20 -143.5 -60s-59.5 -88.333 -59.5 -145c0 -56 19.833 -103.667 59.5 -143s87.5 -59 143.5 -59s104 19.833 144 59.5s60 87.167 60 142.5z" />
    <glyph glyph-name="plusminus" unicode="&#xb1;" horiz-adv-x="1352" 
d="M139 764h492v491h90v-491h491v-90h-491v-492h-90v492h-492v90zM139 90h1073v-90h-1073v90z" />
    <glyph glyph-name="twosuperior" unicode="&#xb2;" horiz-adv-x="641" 
d="M78 1262l0.00195312 84.002c66 46 134.333 69 205 69c71.333 0 131.5 -20.333 180.5 -61s73.5 -90.667 73.5 -150c0 -110.667 -99 -264.334 -297 -461.001h376v-63h-555c125.333 105.333 221.666 204.166 288.999 296.499s101 168.833 101 229.5
c0 42 -16.833 77.167 -50.5 105.5s-75.167 42.5 -124.5 42.5c-32.667 0 -61.834 -6 -87.501 -18s-62.5 -36.667 -110.5 -74z" />
    <glyph glyph-name="threesuperior" unicode="&#xb3;" horiz-adv-x="641" 
d="M98 1294l0.000976562 69.999c50 34 111.667 51 185 51c75.333 0 137.166 -17.5 185.499 -52.5s72.5 -79.5 72.5 -133.5c0 -79.333 -44.333 -133.333 -133 -162v-4c95.333 -28 143 -88.667 143 -182c0 -60 -24.5 -110.167 -73.5 -150.5s-110.5 -60.5 -184.5 -60.5
c-72 0 -139.667 13 -203 39v65c62.667 -28.667 127.667 -43 195 -43c55.333 0 99.5 13.5 132.5 40.5s49.5 62.833 49.5 107.5c0 100.667 -71.667 151 -215 151v64c63.333 0 113.333 11.833 150 35.5s55 55.5 55 95.5c0 36.667 -16.667 67.334 -50 92.001s-75.333 37 -126 37
c-59.333 0 -120.333 -20 -183 -60z" />
    <glyph glyph-name="acute" unicode="&#xb4;" horiz-adv-x="682" 
d="M692 1386l-311 -319h-68l213 319h166z" />
    <glyph glyph-name="mu" unicode="&#xb5;" horiz-adv-x="1139" 
d="M207 920h98v-478c0 -246.667 90 -370 270 -370c180.667 0 271 114 271 342v506h98v-920h-98v102c-70 -80 -161 -120 -273 -120c-106.667 0 -196 40 -268 120v-464h-98v1282z" />
    <glyph glyph-name="paragraph" unicode="&#xb6;" horiz-adv-x="1331" 
d="M1272 1397l0.000976562 -139.001h-197v-1735h-127v1735h-266v-1735h-131v1033c-135.333 -5.33301 -244.333 32.334 -327 113.001s-124 183.667 -124 309c0 129.333 44.167 231.5 132.5 306.5s204.166 112.5 347.499 112.5h692z" />
    <glyph glyph-name="periodcentered" unicode="&#xb7;" horiz-adv-x="683" 
d="M726 700c0 -24 -8.83301 -44.833 -26.5 -62.5s-38.5 -26.5 -62.5 -26.5c-24.667 0 -45.667 8.83301 -63 26.5s-26 38.5 -26 62.5c0 24.667 8.66699 45.667 26 63s38.333 26 63 26c24 0 44.833 -8.66699 62.5 -26s26.5 -38.333 26.5 -63z" />
    <glyph glyph-name="cedilla" unicode="&#xb8;" horiz-adv-x="682" 
d="M406 16l-24.999 -88c84.667 -14.667 127 -57.667 127 -129c0 -48.667 -18.5 -87.167 -55.5 -115.5s-85.833 -42.5 -146.5 -42.5c-28.667 0 -58.334 3.66699 -89.001 11l10 65c26 -2 48.667 -3 68 -3c88.667 0 133 26.333 133 79c0 51.333 -42.333 78 -127 80l43 143h62z
" />
    <glyph glyph-name="onesuperior" unicode="&#xb9;" horiz-adv-x="641" 
d="M362 1407v-727h-86v727h86z" />
    <glyph glyph-name="ordmasculine" unicode="&#xba;" horiz-adv-x="725" 
d="M362 1415c87.333 0 161.166 -28.168 221.499 -84.501s90.5 -124.5 90.5 -204.5c0 -86 -28.667 -155.5 -86 -208.5s-132.666 -79.5 -225.999 -79.5c-89.333 0 -163.5 27.333 -222.5 82s-88.5 123.334 -88.5 206.001c0 84 29.167 153.167 87.5 207.5
s132.833 81.5 223.5 81.5zM362 904.999c64.667 0 117.498 20.835 158.498 62.502s61.5 94.5 61.5 158.5c0 63.333 -21 116.166 -63 158.499s-94.333 63.5 -157 63.5c-63.333 0 -115.666 -20.833 -156.999 -62.5s-62 -94.834 -62 -159.501c0 -65.333 20.333 -118.5 61 -159.5
s93.334 -61.5 158.001 -61.5z" />
    <glyph glyph-name="guillemotright" unicode="&#xbb;" horiz-adv-x="1024" 
d="M860 473l-385 459h123l387 -459l-387 -459h-123zM424 473l-385 459h123l387 -459l-387 -459h-123z" />
    <glyph glyph-name="onequarter" unicode="&#xbc;" horiz-adv-x="1706" 
d="M374 1407v-727h-86v727h86zM208 -55h-80l1077 1470h80zM1299 335h117v-58h-117v-274h-84v274h-376v25l419 436h41v-403zM1215 603l-260 -268h260v268z" />
    <glyph glyph-name="onehalf" unicode="&#xbd;" horiz-adv-x="1706" 
d="M374 1407v-727h-86v727h86zM208 -55h-80l1077 1470h80zM990 585l0.00195312 84.002c66 46 134.333 69 205 69c71.333 0 131.5 -20.333 180.5 -61s73.5 -90.667 73.5 -150c0 -110.667 -99 -264.334 -297 -461.001h376v-63h-555
c125.333 105.333 221.666 204.166 288.999 296.499s101 168.833 101 229.5c0 42 -16.833 77.167 -50.5 105.5s-75.167 42.5 -124.5 42.5c-32.667 0 -61.834 -6 -87.501 -18s-62.5 -36.667 -110.5 -74z" />
    <glyph glyph-name="threequarters" unicode="&#xbe;" horiz-adv-x="1706" 
d="M142 1294l0.000976562 69.999c50 34 111.667 51 185 51c75.333 0 137.166 -17.5 185.499 -52.5s72.5 -79.5 72.5 -133.5c0 -79.333 -44.333 -133.333 -133 -162v-4c95.333 -28 143 -88.667 143 -182c0 -60 -24.5 -110.167 -73.5 -150.5s-110.5 -60.5 -184.5 -60.5
c-72 0 -139.667 13 -203 39v65c62.667 -28.667 127.667 -43 195 -43c55.333 0 99.5 13.5 132.5 40.5s49.5 62.833 49.5 107.5c0 100.667 -71.667 151 -215 151v64c63.333 0 113.333 11.833 150 35.5s55 55.5 55 95.5c0 36.667 -16.667 67.334 -50 92.001s-75.333 37 -126 37
c-59.333 0 -120.333 -20 -183 -60zM312.001 -55.001h-80l1077 1470h80zM1407 334.999h117v-58h-117v-274h-84v274h-376v25l419 436h41v-403zM1323 602.999l-260 -268h260v268z" />
    <glyph glyph-name="questiondown" unicode="&#xbf;" horiz-adv-x="575" 
d="M231 745v199h134v-199h-134zM487 -274l-47.0039 -159.997c-47.333 -24.667 -93.666 -37 -138.999 -37c-76 0 -137.667 26.667 -185 80s-71 123.666 -71 210.999c0 48 8.83301 99.167 26.5 153.5s55.5 122.833 113.5 205.5s93.167 141 105.5 175s18.5 65.667 18.5 95
c0 41.333 -13 84.333 -39 129l37 28c53.333 -60.667 80 -123.334 80 -188.001c0 -30.667 -6.16699 -64.834 -18.5 -102.501s-44.666 -98.334 -96.999 -182.001s-85.666 -148.667 -99.999 -195s-21.5 -89.166 -21.5 -128.499c0 -54 14.833 -99.667 44.5 -137
s65.834 -56 108.501 -56c65.333 0 120 36.333 164 109h20z" />
    <glyph glyph-name="Agrave" unicode="&#xc0;" horiz-adv-x="1366" 
d="M713 1407l645 -1407h-113l-221 483h-682l-221 -483h-113l645 1407h60zM983 573l-301 658l-299 -658h600zM400 1833h166l213 -319h-68z" />
    <glyph glyph-name="Aacute" unicode="&#xc1;" horiz-adv-x="1366" 
d="M713 1407l645 -1407h-113l-221 483h-682l-221 -483h-113l645 1407h60zM983 573l-301 658l-299 -658h600zM973 1833l-311 -319h-68l213 319h166z" />
    <glyph glyph-name="Acircumflex" unicode="&#xc2;" horiz-adv-x="1366" 
d="M713 1407l645 -1407h-113l-221 483h-682l-221 -483h-113l645 1407h60zM983 573l-301 658l-299 -658h600zM748 1831l217 -335h-78l-203 223l-205 -223h-78l222 335h125z" />
    <glyph glyph-name="Atilde" unicode="&#xc3;" horiz-adv-x="1366" 
d="M713 1407l645 -1407h-113l-221 483h-682l-221 -483h-113l645 1407h60zM983 573l-301 658l-299 -658h600zM1018 1764c3.33301 -56 -11.501 -102.833 -44.501 -140.5s-74.167 -56.5 -123.5 -56.5c-33.333 0 -92.5 16.833 -177.5 50.5s-142.5 50.5 -172.5 50.5
c-49.333 0 -78 -33 -86 -99h-66c0 58 14.833 105 44.5 141s70.834 54 123.501 54c44 0 105.667 -16.667 185 -50s133.666 -50 162.999 -50c52.667 0 83.334 33.333 92.001 100h62z" />
    <glyph glyph-name="Adieresis" unicode="&#xc4;" horiz-adv-x="1366" 
d="M713 1407l645 -1407h-113l-221 483h-682l-221 -483h-113l645 1407h60zM983 573l-301 658l-299 -658h600zM774 1659c0 24.667 9 46 27 64s39 27 63 27c24.667 0 45.834 -9 63.501 -27s26.5 -39.333 26.5 -64c0 -24 -8.83301 -45 -26.5 -63s-38.834 -27 -63.501 -27
c-24 0 -45 9 -63 27s-27 39 -27 63zM412 1659c0 24.667 8.83301 46 26.5 64s38.834 27 63.501 27c24 0 45 -9 63 -27s27 -39.333 27 -64c0 -24 -9 -45 -27 -63s-39 -27 -63 -27c-24.667 0 -45.834 9 -63.501 27s-26.5 39 -26.5 63z" />
    <glyph glyph-name="Aring" unicode="&#xc5;" horiz-adv-x="1366" 
d="M713 1407l645 -1407h-113l-221 483h-682l-221 -483h-113l645 1407h60zM983 573l-301 658l-299 -658h600zM504 1662c0 49.333 17.333 91.166 52 125.499s76.667 51.5 126 51.5c48.667 0 90.167 -17.167 124.5 -51.5s51.5 -76.166 51.5 -125.499
c0 -48.667 -17.167 -90.5 -51.5 -125.5s-75.833 -52.5 -124.5 -52.5s-90.5 17.5 -125.5 52.5s-52.5 76.833 -52.5 125.5zM803 1662c0 34 -11.832 62.667 -35.499 86s-52.167 35 -85.5 35c-34 0 -63 -11.667 -87 -35s-36 -52 -36 -86c0 -33.333 12.167 -62 36.5 -86
s53.166 -36 86.499 -36s61.833 12 85.5 36s35.5 52.667 35.5 86z" />
    <glyph glyph-name="AE" unicode="&#xc6;" horiz-adv-x="1772" 
d="M1675 1397v-90h-657v-557h643v-91h-643v-569h676v-90h-785v659h-409l-410 -659h-119l873 1397h831zM559 750h350v571z" />
    <glyph glyph-name="Ccedilla" unicode="&#xc7;" horiz-adv-x="1386" 
d="M1339 225l0.00195312 -112c-165.333 -87.333 -330.333 -131 -495 -131c-22.667 0 -38.334 1.33301 -47.001 4l-17 -58c84.667 -14.667 127 -57.667 127 -129c0 -48.667 -18.5 -87.167 -55.5 -115.5s-85.5 -42.5 -145.5 -42.5c-29.333 0 -59.333 3.66699 -90 11l11 65
c25.333 -2 47.666 -3 66.999 -3c88.667 0 133 26.333 133 79c0 51.333 -42.333 78 -127 80l35 117c-193.333 26.667 -347.5 106 -462.5 238s-172.5 288 -172.5 468c0 204.667 72.333 375.667 217 513s317 206 517 206c157.333 0 321 -39 491 -117v-118
c-169.333 90 -335.333 135 -498 135c-173.333 0 -318.333 -59 -435 -177s-175 -265.333 -175 -442c0 -178.667 58.667 -325.667 176 -441s267 -173 449 -173c152 0 317.667 47.667 497 143z" />
    <glyph glyph-name="Egrave" unicode="&#xc8;" horiz-adv-x="1004" 
d="M926 1397v-90h-654v-559h637v-91h-637v-567h670v-90h-778v1397h762zM319 1833h166l213 -319h-68z" />
    <glyph glyph-name="Eacute" unicode="&#xc9;" horiz-adv-x="1004" 
d="M926 1397v-90h-654v-559h637v-91h-637v-567h670v-90h-778v1397h762zM854 1833l-311 -319h-68l213 319h166z" />
    <glyph glyph-name="Ecircumflex" unicode="&#xca;" horiz-adv-x="1004" 
d="M926 1397v-90h-654v-559h637v-91h-637v-567h670v-90h-778v1397h762zM568 1831l217 -335h-78l-203 223l-205 -223h-78l222 335h125z" />
    <glyph glyph-name="Edieresis" unicode="&#xcb;" horiz-adv-x="1004" 
d="M926 1397v-90h-654v-559h637v-91h-637v-567h670v-90h-778v1397h762zM594 1659c0 24.667 9 46 27 64s39 27 63 27c24.667 0 45.834 -9 63.501 -27s26.5 -39.333 26.5 -64c0 -24 -8.83301 -45 -26.5 -63s-38.834 -27 -63.501 -27c-24 0 -45 9 -63 27s-27 39 -27 63z
M232 1659c0 24.667 8.83301 46 26.5 64s38.834 27 63.501 27c24 0 45 -9 63 -27s27 -39.333 27 -64c0 -24 -9 -45 -27 -63s-39 -27 -63 -27c-24.667 0 -45.834 9 -63.501 27s-26.5 39 -26.5 63z" />
    <glyph glyph-name="Igrave" unicode="&#xcc;" horiz-adv-x="426" 
d="M268 1397v-1397h-108v1397h108zM-47 1833h166l213 -319h-68z" />
    <glyph glyph-name="Iacute" unicode="&#xcd;" horiz-adv-x="426" 
d="M268 1397v-1397h-108v1397h108zM569 1833l-311 -319h-68l213 319h166z" />
    <glyph glyph-name="Icircumflex" unicode="&#xce;" horiz-adv-x="426" 
d="M268 1397v-1397h-108v1397h108zM283 1831l217 -335h-78l-203 223l-205 -223h-78l222 335h125z" />
    <glyph glyph-name="Idieresis" unicode="&#xcf;" horiz-adv-x="426" 
d="M268 1397v-1397h-108v1397h108zM309 1659c0 24.667 9 46 27 64s39 27 63 27c24.667 0 45.834 -9 63.501 -27s26.5 -39.333 26.5 -64c0 -24 -8.83301 -45 -26.5 -63s-38.834 -27 -63.501 -27c-24 0 -45 9 -63 27s-27 39 -27 63zM-53 1659c0 24.667 8.83301 46 26.5 64
s38.834 27 63.501 27c24 0 45 -9 63 -27s27 -39.333 27 -64c0 -24 -9 -45 -27 -63s-39 -27 -63 -27c-24.667 0 -45.834 9 -63.501 27s-26.5 39 -26.5 63z" />
    <glyph glyph-name="Eth" unicode="&#xd0;" horiz-adv-x="1516" 
d="M162 1397h489.001c247.333 0 436.166 -65 566.499 -195s195.5 -298 195.5 -504c0 -202 -64.5 -368.833 -193.5 -500.5s-312.167 -197.5 -549.5 -197.5h-508v655h-209v90h209v652zM270.001 1307l0.000976562 -561.999h453v-90h-453v-565h394
c180.667 0 331.167 55.5 451.5 166.5s180.5 258.167 180.5 441.5c0 179.333 -59.333 325.666 -178 438.999s-272.334 170 -461.001 170h-387z" />
    <glyph glyph-name="Ntilde" unicode="&#xd1;" horiz-adv-x="1579" 
d="M1419 1397v-1397h-90l-1061 1221v-1221h-108v1397h92l1059 -1221v1221h108zM1125 1764c3.33301 -56 -11.501 -102.833 -44.501 -140.5s-74.167 -56.5 -123.5 -56.5c-33.333 0 -92.5 16.833 -177.5 50.5s-142.5 50.5 -172.5 50.5c-49.333 0 -78 -33 -86 -99h-66
c0 58 14.833 105 44.5 141s70.834 54 123.501 54c44 0 105.667 -16.667 185 -50s133.666 -50 162.999 -50c52.667 0 83.334 33.333 92.001 100h62z" />
    <glyph glyph-name="Ograve" unicode="&#xd2;" horiz-adv-x="1686" 
d="M842 1415c206.667 0 381.834 -69.5 525.501 -208.5s215.5 -308.5 215.5 -508.5c0 -199.333 -71.833 -368.5 -215.5 -507.5s-318.834 -208.5 -525.501 -208.5c-206 0 -380.5 69.5 -523.5 208.5s-214.5 308.167 -214.5 507.5c0 200 71.5 369.5 214.5 508.5
s317.5 208.5 523.5 208.5zM846 82c174 0 320.833 59.5 440.5 178.5s179.5 264.833 179.5 437.5c0 173.333 -59.833 319.5 -179.5 438.5s-266.5 178.5 -440.5 178.5c-174.667 0 -322.5 -59.5 -443.5 -178.5s-181.5 -265.167 -181.5 -438.5
c0 -172.667 60.5 -318.5 181.5 -437.5s268.833 -178.5 443.5 -178.5zM659 1833h166l213 -319h-68z" />
    <glyph glyph-name="Oacute" unicode="&#xd3;" horiz-adv-x="1686" 
d="M842 1415c206.667 0 381.834 -69.5 525.501 -208.5s215.5 -308.5 215.5 -508.5c0 -199.333 -71.833 -368.5 -215.5 -507.5s-318.834 -208.5 -525.501 -208.5c-206 0 -380.5 69.5 -523.5 208.5s-214.5 308.167 -214.5 507.5c0 200 71.5 369.5 214.5 508.5
s317.5 208.5 523.5 208.5zM846 82c174 0 320.833 59.5 440.5 178.5s179.5 264.833 179.5 437.5c0 173.333 -59.833 319.5 -179.5 438.5s-266.5 178.5 -440.5 178.5c-174.667 0 -322.5 -59.5 -443.5 -178.5s-181.5 -265.167 -181.5 -438.5
c0 -172.667 60.5 -318.5 181.5 -437.5s268.833 -178.5 443.5 -178.5zM1194 1833l-311 -319h-68l213 319h166z" />
    <glyph glyph-name="Ocircumflex" unicode="&#xd4;" horiz-adv-x="1686" 
d="M842 1415c206.667 0 381.834 -69.5 525.501 -208.5s215.5 -308.5 215.5 -508.5c0 -199.333 -71.833 -368.5 -215.5 -507.5s-318.834 -208.5 -525.501 -208.5c-206 0 -380.5 69.5 -523.5 208.5s-214.5 308.167 -214.5 507.5c0 200 71.5 369.5 214.5 508.5
s317.5 208.5 523.5 208.5zM846 82c174 0 320.833 59.5 440.5 178.5s179.5 264.833 179.5 437.5c0 173.333 -59.833 319.5 -179.5 438.5s-266.5 178.5 -440.5 178.5c-174.667 0 -322.5 -59.5 -443.5 -178.5s-181.5 -265.167 -181.5 -438.5
c0 -172.667 60.5 -318.5 181.5 -437.5s268.833 -178.5 443.5 -178.5zM908 1831l217 -335h-78l-203 223l-205 -223h-78l222 335h125z" />
    <glyph glyph-name="Otilde" unicode="&#xd5;" horiz-adv-x="1686" 
d="M842 1415c206.667 0 381.834 -69.5 525.501 -208.5s215.5 -308.5 215.5 -508.5c0 -199.333 -71.833 -368.5 -215.5 -507.5s-318.834 -208.5 -525.501 -208.5c-206 0 -380.5 69.5 -523.5 208.5s-214.5 308.167 -214.5 507.5c0 200 71.5 369.5 214.5 508.5
s317.5 208.5 523.5 208.5zM846 82c174 0 320.833 59.5 440.5 178.5s179.5 264.833 179.5 437.5c0 173.333 -59.833 319.5 -179.5 438.5s-266.5 178.5 -440.5 178.5c-174.667 0 -322.5 -59.5 -443.5 -178.5s-181.5 -265.167 -181.5 -438.5
c0 -172.667 60.5 -318.5 181.5 -437.5s268.833 -178.5 443.5 -178.5zM1178 1764c3.33301 -56 -11.501 -102.833 -44.501 -140.5s-74.167 -56.5 -123.5 -56.5c-33.333 0 -92.5 16.833 -177.5 50.5s-142.5 50.5 -172.5 50.5c-49.333 0 -78 -33 -86 -99h-66
c0 58 14.833 105 44.5 141s70.834 54 123.501 54c44 0 105.667 -16.667 185 -50s133.666 -50 162.999 -50c52.667 0 83.334 33.333 92.001 100h62z" />
    <glyph glyph-name="Odieresis" unicode="&#xd6;" horiz-adv-x="1686" 
d="M842 1415c206.667 0 381.834 -69.5 525.501 -208.5s215.5 -308.5 215.5 -508.5c0 -199.333 -71.833 -368.5 -215.5 -507.5s-318.834 -208.5 -525.501 -208.5c-206 0 -380.5 69.5 -523.5 208.5s-214.5 308.167 -214.5 507.5c0 200 71.5 369.5 214.5 508.5
s317.5 208.5 523.5 208.5zM846 82c174 0 320.833 59.5 440.5 178.5s179.5 264.833 179.5 437.5c0 173.333 -59.833 319.5 -179.5 438.5s-266.5 178.5 -440.5 178.5c-174.667 0 -322.5 -59.5 -443.5 -178.5s-181.5 -265.167 -181.5 -438.5
c0 -172.667 60.5 -318.5 181.5 -437.5s268.833 -178.5 443.5 -178.5zM934 1659c0 24.667 9 46 27 64s39 27 63 27c24.667 0 45.834 -9 63.501 -27s26.5 -39.333 26.5 -64c0 -24 -8.83301 -45 -26.5 -63s-38.834 -27 -63.501 -27c-24 0 -45 9 -63 27s-27 39 -27 63zM572 1659
c0 24.667 8.83301 46 26.5 64s38.834 27 63.501 27c24 0 45 -9 63 -27s27 -39.333 27 -64c0 -24 -9 -45 -27 -63s-39 -27 -63 -27c-24.667 0 -45.834 9 -63.501 27s-26.5 39 -26.5 63z" />
    <glyph glyph-name="multiply" unicode="&#xd7;" horiz-adv-x="1352" 
d="M264 1067l66 66l346 -347l346 347l65 -66l-346 -346l346 -346l-65 -66l-346 346l-346 -346l-66 66l346 346z" />
    <glyph glyph-name="Oslash" unicode="&#xd8;" horiz-adv-x="1686" 
d="M399 121l-128.999 -144l-77 60l131 145c-146.667 145.333 -220 317.333 -220 516c0 200 71.5 369.5 214.5 508.5s317.5 208.5 523.5 208.5c170 0 323.667 -50.333 461 -151l129 143l75 -51l-137 -152c142 -139.333 213 -308 213 -506
c0 -199.333 -71.833 -368.5 -215.5 -507.5s-318.834 -208.5 -525.501 -208.5c-158 0 -305.667 46.333 -443 139zM399.001 264l832 922.001c-106.667 86 -235 129 -385 129c-174.667 0 -322.5 -59.5 -443.5 -178.5s-181.5 -265.167 -181.5 -438.5
c0 -168.667 59.333 -313.334 178 -434.001zM1300 1124l-829 -923c110 -79.333 235 -119 375 -119c174 0 320.833 59.5 440.5 178.5s179.5 264.833 179.5 437.5c0 158 -55.333 300 -166 426z" />
    <glyph glyph-name="Ugrave" unicode="&#xd9;" horiz-adv-x="1430" 
d="M1192 1397h108.002v-762c0 -208.667 -54.333 -369.667 -163 -483s-249.334 -170 -422.001 -170c-172 0 -312.333 56 -421 168s-163 265.333 -163 460v787h109v-783c0 -166.667 44.167 -297 132.5 -391s202.5 -141 342.5 -141c141.333 0 256.166 47.5 344.499 142.5
s132.5 229.833 132.5 404.5v768zM532.002 1833h166l213 -319h-68z" />
    <glyph glyph-name="Uacute" unicode="&#xda;" horiz-adv-x="1430" 
d="M1192 1397h108.002v-762c0 -208.667 -54.333 -369.667 -163 -483s-249.334 -170 -422.001 -170c-172 0 -312.333 56 -421 168s-163 265.333 -163 460v787h109v-783c0 -166.667 44.167 -297 132.5 -391s202.5 -141 342.5 -141c141.333 0 256.166 47.5 344.499 142.5
s132.5 229.833 132.5 404.5v768zM1067 1833l-311 -319h-68l213 319h166z" />
    <glyph glyph-name="Ucircumflex" unicode="&#xdb;" horiz-adv-x="1430" 
d="M1192 1397h108.002v-762c0 -208.667 -54.333 -369.667 -163 -483s-249.334 -170 -422.001 -170c-172 0 -312.333 56 -421 168s-163 265.333 -163 460v787h109v-783c0 -166.667 44.167 -297 132.5 -391s202.5 -141 342.5 -141c141.333 0 256.166 47.5 344.499 142.5
s132.5 229.833 132.5 404.5v768zM781.002 1831l217 -335h-78l-203 223l-205 -223h-78l222 335h125z" />
    <glyph glyph-name="Udieresis" unicode="&#xdc;" horiz-adv-x="1430" 
d="M1192 1397h108.002v-762c0 -208.667 -54.333 -369.667 -163 -483s-249.334 -170 -422.001 -170c-172 0 -312.333 56 -421 168s-163 265.333 -163 460v787h109v-783c0 -166.667 44.167 -297 132.5 -391s202.5 -141 342.5 -141c141.333 0 256.166 47.5 344.499 142.5
s132.5 229.833 132.5 404.5v768zM807.002 1659c0 24.667 9 46 27 64s39 27 63 27c24.667 0 45.834 -9 63.501 -27s26.5 -39.333 26.5 -64c0 -24 -8.83301 -45 -26.5 -63s-38.834 -27 -63.501 -27c-24 0 -45 9 -63 27s-27 39 -27 63zM445.002 1659
c0 24.667 8.83301 46 26.5 64s38.834 27 63.501 27c24 0 45 -9 63 -27s27 -39.333 27 -64c0 -24 -9 -45 -27 -63s-39 -27 -63 -27c-24.667 0 -45.834 9 -63.501 27s-26.5 39 -26.5 63z" />
    <glyph glyph-name="Yacute" unicode="&#xdd;" horiz-adv-x="1194" 
d="M1194 1397l-543 -647v-750h-108v750l-543 647h131l467 -553l465 553h131zM948 1833l-311 -319h-68l213 319h166z" />
    <glyph glyph-name="Thorn" unicode="&#xde;" horiz-adv-x="1044" 
d="M160 1397l108.001 0.000976562v-326h277c147.333 0 260.166 -32.833 338.499 -98.5s117.5 -155.834 117.5 -270.501c0 -115.333 -39.5 -206.5 -118.5 -273.5s-194.833 -100.5 -347.5 -100.5h-267v-328h-108v1397zM268.001 981.001l-0.000976562 -563h260
c116.667 0 205.334 24.5 266.001 73.5s91 118.5 91 208.5c0 86.667 -29.667 155.167 -89 205.5s-144.333 75.5 -255 75.5h-273z" />
    <glyph glyph-name="germandbls" unicode="&#xdf;" horiz-adv-x="1024" 
d="M127 0l-0.000976562 996.998c0 132.667 33.167 235.5 99.5 308.5s159.5 109.5 279.5 109.5c108 0 197.167 -31.833 267.5 -95.5s105.5 -144.5 105.5 -242.5c0 -59.333 -15.667 -118.166 -47 -176.499s-77.333 -99.833 -138 -124.5c164 -63.333 246 -186.666 246 -369.999
c0 -124 -34.667 -225.667 -104 -305s-157 -119 -263 -119c-40 0 -82.333 6 -127 18v102c45.333 -16 86.333 -24 123 -24c80.667 0 145.334 29.667 194.001 89s73 138 73 236c0 96 -24 172.667 -72 230s-116.333 89.333 -205 96v92c65.333 -4 117.5 18.667 156.5 68
s58.5 110 58.5 182c0 80 -24.333 143.667 -73 191s-113.667 71 -195 71c-187.333 0 -281 -118 -281 -354v-979h-98z" />
    <glyph glyph-name="agrave" unicode="&#xe0;" horiz-adv-x="874" 
d="M862 160l0.000976562 -82.001c-84.667 -64 -146.667 -96 -186 -96c-22.667 0 -38.334 7.5 -47.001 22.5s-15 45.5 -19 91.5c-96.667 -76 -192.667 -114 -288 -114c-69.333 0 -128 22.667 -176 68s-72 100.333 -72 165c0 100 46.333 178.833 139 236.5
s225 90.834 397 99.501v117c0 125.333 -68 188 -204 188c-86.667 0 -180.334 -39 -281.001 -117v101c104 65.333 203 98 297 98c83.333 0 152 -20.5 206 -61.5s81 -100.5 81 -178.5v-573c0 -31.333 7.33301 -47 22 -47c18.667 0 62.334 27.333 131.001 82zM610.001 181.999
v287c-126 4.66699 -230.5 -17.5 -313.5 -66.5s-124.5 -111.5 -124.5 -187.5c0 -42.667 17.333 -78.667 52 -108s78 -44 130 -44c84 0 169.333 39.667 256 119zM178.001 1386h166l213 -319h-68z" />
    <glyph glyph-name="aacute" unicode="&#xe1;" horiz-adv-x="874" 
d="M862 160l0.000976562 -82.001c-84.667 -64 -146.667 -96 -186 -96c-22.667 0 -38.334 7.5 -47.001 22.5s-15 45.5 -19 91.5c-96.667 -76 -192.667 -114 -288 -114c-69.333 0 -128 22.667 -176 68s-72 100.333 -72 165c0 100 46.333 178.833 139 236.5
s225 90.834 397 99.501v117c0 125.333 -68 188 -204 188c-86.667 0 -180.334 -39 -281.001 -117v101c104 65.333 203 98 297 98c83.333 0 152 -20.5 206 -61.5s81 -100.5 81 -178.5v-573c0 -31.333 7.33301 -47 22 -47c18.667 0 62.334 27.333 131.001 82zM610.001 181.999
v287c-126 4.66699 -230.5 -17.5 -313.5 -66.5s-124.5 -111.5 -124.5 -187.5c0 -42.667 17.333 -78.667 52 -108s78 -44 130 -44c84 0 169.333 39.667 256 119zM776.001 1386l-311 -319h-68l213 319h166z" />
    <glyph glyph-name="acircumflex" unicode="&#xe2;" horiz-adv-x="874" 
d="M862 160l0.000976562 -82.001c-84.667 -64 -146.667 -96 -186 -96c-22.667 0 -38.334 7.5 -47.001 22.5s-15 45.5 -19 91.5c-96.667 -76 -192.667 -114 -288 -114c-69.333 0 -128 22.667 -176 68s-72 100.333 -72 165c0 100 46.333 178.833 139 236.5
s225 90.834 397 99.501v117c0 125.333 -68 188 -204 188c-86.667 0 -180.334 -39 -281.001 -117v101c104 65.333 203 98 297 98c83.333 0 152 -20.5 206 -61.5s81 -100.5 81 -178.5v-573c0 -31.333 7.33301 -47 22 -47c18.667 0 62.334 27.333 131.001 82zM610.001 181.999
v287c-126 4.66699 -230.5 -17.5 -313.5 -66.5s-124.5 -111.5 -124.5 -187.5c0 -42.667 17.333 -78.667 52 -108s78 -44 130 -44c84 0 169.333 39.667 256 119zM503.001 1384l217 -335h-78l-203 223l-205 -223h-78l222 335h125z" />
    <glyph glyph-name="atilde" unicode="&#xe3;" horiz-adv-x="874" 
d="M862 160l0.000976562 -82.001c-84.667 -64 -146.667 -96 -186 -96c-22.667 0 -38.334 7.5 -47.001 22.5s-15 45.5 -19 91.5c-96.667 -76 -192.667 -114 -288 -114c-69.333 0 -128 22.667 -176 68s-72 100.333 -72 165c0 100 46.333 178.833 139 236.5
s225 90.834 397 99.501v117c0 125.333 -68 188 -204 188c-86.667 0 -180.334 -39 -281.001 -117v101c104 65.333 203 98 297 98c83.333 0 152 -20.5 206 -61.5s81 -100.5 81 -178.5v-573c0 -31.333 7.33301 -47 22 -47c18.667 0 62.334 27.333 131.001 82zM610.001 181.999
v287c-126 4.66699 -230.5 -17.5 -313.5 -66.5s-124.5 -111.5 -124.5 -187.5c0 -42.667 17.333 -78.667 52 -108s78 -44 130 -44c84 0 169.333 39.667 256 119zM772.001 1317c3.33301 -56 -11.501 -102.833 -44.501 -140.5s-74.167 -56.5 -123.5 -56.5
c-33.333 0 -92.5 16.833 -177.5 50.5s-142.5 50.5 -172.5 50.5c-49.333 0 -78 -33 -86 -99h-66c0 58 14.833 105 44.5 141s70.834 54 123.501 54c44 0 105.667 -16.667 185 -50s133.666 -50 162.999 -50c52.667 0 83.334 33.333 92.001 100h62z" />
    <glyph glyph-name="adieresis" unicode="&#xe4;" horiz-adv-x="874" 
d="M862 160l0.000976562 -82.001c-84.667 -64 -146.667 -96 -186 -96c-22.667 0 -38.334 7.5 -47.001 22.5s-15 45.5 -19 91.5c-96.667 -76 -192.667 -114 -288 -114c-69.333 0 -128 22.667 -176 68s-72 100.333 -72 165c0 100 46.333 178.833 139 236.5
s225 90.834 397 99.501v117c0 125.333 -68 188 -204 188c-86.667 0 -180.334 -39 -281.001 -117v101c104 65.333 203 98 297 98c83.333 0 152 -20.5 206 -61.5s81 -100.5 81 -178.5v-573c0 -31.333 7.33301 -47 22 -47c18.667 0 62.334 27.333 131.001 82zM610.001 181.999
v287c-126 4.66699 -230.5 -17.5 -313.5 -66.5s-124.5 -111.5 -124.5 -187.5c0 -42.667 17.333 -78.667 52 -108s78 -44 130 -44c84 0 169.333 39.667 256 119zM529.001 1212c0 24.667 9 46 27 64s39 27 63 27c24.667 0 45.834 -9 63.501 -27s26.5 -39.333 26.5 -64
c0 -24 -8.83301 -45 -26.5 -63s-38.834 -27 -63.501 -27c-24 0 -45 9 -63 27s-27 39 -27 63zM167.001 1212c0 24.667 8.83301 46 26.5 64s38.834 27 63.501 27c24 0 45 -9 63 -27s27 -39.333 27 -64c0 -24 -9 -45 -27 -63s-39 -27 -63 -27c-24.667 0 -45.834 9 -63.501 27
s-26.5 39 -26.5 63z" />
    <glyph glyph-name="aring" unicode="&#xe5;" horiz-adv-x="874" 
d="M862 160l0.000976562 -82.001c-84.667 -64 -146.667 -96 -186 -96c-22.667 0 -38.334 7.5 -47.001 22.5s-15 45.5 -19 91.5c-96.667 -76 -192.667 -114 -288 -114c-69.333 0 -128 22.667 -176 68s-72 100.333 -72 165c0 100 46.333 178.833 139 236.5
s225 90.834 397 99.501v117c0 125.333 -68 188 -204 188c-86.667 0 -180.334 -39 -281.001 -117v101c104 65.333 203 98 297 98c83.333 0 152 -20.5 206 -61.5s81 -100.5 81 -178.5v-573c0 -31.333 7.33301 -47 22 -47c18.667 0 62.334 27.333 131.001 82zM610.001 181.999
v287c-126 4.66699 -230.5 -17.5 -313.5 -66.5s-124.5 -111.5 -124.5 -187.5c0 -42.667 17.333 -78.667 52 -108s78 -44 130 -44c84 0 169.333 39.667 256 119zM260.001 1214c0 49.333 17.333 91.166 52 125.499s76.667 51.5 126 51.5c48.667 0 90.167 -17.167 124.5 -51.5
s51.5 -76.166 51.5 -125.499c0 -48.667 -17.167 -90.5 -51.5 -125.5s-75.833 -52.5 -124.5 -52.5s-90.5 17.5 -125.5 52.5s-52.5 76.833 -52.5 125.5zM559.001 1214c0 34 -11.832 62.667 -35.499 86s-52.167 35 -85.5 35c-34 0 -63 -11.667 -87 -35s-36 -52 -36 -86
c0 -33.333 12.167 -62 36.5 -86s53.166 -36 86.499 -36s61.833 12 85.5 36s35.5 52.667 35.5 86z" />
    <glyph glyph-name="ae" unicode="&#xe6;" horiz-adv-x="1366" 
d="M1290 498h-591.998v-121c0 -95.333 24.833 -169 74.5 -221s113.167 -78 190.5 -78c108 0 217 40.333 327 121v-113c-112 -69.333 -224.667 -104 -338 -104c-114.667 0 -212.334 47.667 -293.001 143c-130.667 -95.333 -246 -143 -346 -143c-70 0 -128.333 22.5 -175 67.5
s-70 101.5 -70 169.5c0 86 37.833 154.833 113.5 206.5s215.167 102.5 418.5 152.5v67c0 135.333 -61.333 203 -184 203c-96.667 0 -198.334 -38.333 -305.001 -115v103c99.333 68 205.666 102 318.999 102c112.667 0 196 -47 250 -141c70.667 94 156 141 256 141
c106.667 0 192.334 -40.833 257.001 -122.5s97 -187.5 97 -317.5zM698.002 578l484.001 0.000976562c-4 81.333 -30 145.666 -78 192.999s-104.667 71 -170 71c-64.667 0 -119.334 -24 -164.001 -72s-68.667 -112 -72 -192zM600.003 182.001v316
c-292 -70.667 -438 -165 -438 -283c0 -42.667 16.333 -78.667 49 -108s73.667 -44 123 -44c73.333 0 162 39.667 266 119z" />
    <glyph glyph-name="ccedilla" unicode="&#xe7;" horiz-adv-x="854" 
d="M793 131v-102.001c-92 -31.333 -177.333 -47 -256 -47c-17.333 0 -29.666 1.33301 -36.999 4l-17 -58c84.667 -14.667 127 -57.667 127 -129c0 -48.667 -18.5 -87.167 -55.5 -115.5s-85.5 -42.5 -145.5 -42.5c-29.333 0 -59.333 3.66699 -90 11l11 65
c25.333 -2 47.666 -3 66.999 -3c88.667 0 133 26.333 133 79c0 51.333 -42.333 78 -127 80l35 117c-110.667 20.667 -197 72.167 -259 154.5s-93 182.833 -93 301.5c0 144.667 41.833 262.834 125.5 354.501s190.5 137.5 320.5 137.5c71.333 0 152.666 -15 243.999 -45v-109
c-88 38.667 -167.667 58 -239 58c-102.667 0 -186.167 -35.667 -250.5 -107s-96.5 -164 -96.5 -278c0 -116 32.167 -208.167 96.5 -276.5s150.5 -102.5 258.5 -102.5c78.667 0 161.334 17.667 248.001 53z" />
    <glyph glyph-name="egrave" unicode="&#xe8;" horiz-adv-x="981" 
d="M911 494l-724.999 0.000976562c-2 -16 -3 -32 -3 -48c0 -102.667 36.667 -189.667 110 -261s160 -107 260 -107c116.667 0 230.667 45.667 342 137v-111c-105.333 -81.333 -223.333 -122 -354 -122c-132.667 0 -242.334 46 -329.001 138s-130 209 -130 351
c0 134.667 40 246.167 120 334.5s180.667 132.5 302 132.5c114 0 210.333 -39.833 289 -119.5s118 -187.834 118 -324.501zM199.001 573.001h596c-34.667 179.333 -131.667 269 -291 269c-75.333 0 -140.5 -23.5 -195.5 -70.5s-91.5 -113.167 -109.5 -198.5zM307.001 1386
h166l213 -319h-68z" />
    <glyph glyph-name="eacute" unicode="&#xe9;" horiz-adv-x="981" 
d="M911 494l-724.999 0.000976562c-2 -16 -3 -32 -3 -48c0 -102.667 36.667 -189.667 110 -261s160 -107 260 -107c116.667 0 230.667 45.667 342 137v-111c-105.333 -81.333 -223.333 -122 -354 -122c-132.667 0 -242.334 46 -329.001 138s-130 209 -130 351
c0 134.667 40 246.167 120 334.5s180.667 132.5 302 132.5c114 0 210.333 -39.833 289 -119.5s118 -187.834 118 -324.501zM199.001 573.001h596c-34.667 179.333 -131.667 269 -291 269c-75.333 0 -140.5 -23.5 -195.5 -70.5s-91.5 -113.167 -109.5 -198.5zM842.001 1386
l-311 -319h-68l213 319h166z" />
    <glyph glyph-name="ecircumflex" unicode="&#xea;" horiz-adv-x="981" 
d="M911 494l-724.999 0.000976562c-2 -16 -3 -32 -3 -48c0 -102.667 36.667 -189.667 110 -261s160 -107 260 -107c116.667 0 230.667 45.667 342 137v-111c-105.333 -81.333 -223.333 -122 -354 -122c-132.667 0 -242.334 46 -329.001 138s-130 209 -130 351
c0 134.667 40 246.167 120 334.5s180.667 132.5 302 132.5c114 0 210.333 -39.833 289 -119.5s118 -187.834 118 -324.501zM199.001 573.001h596c-34.667 179.333 -131.667 269 -291 269c-75.333 0 -140.5 -23.5 -195.5 -70.5s-91.5 -113.167 -109.5 -198.5zM556.001 1384
l217 -335h-78l-203 223l-205 -223h-78l222 335h125z" />
    <glyph glyph-name="edieresis" unicode="&#xeb;" horiz-adv-x="981" 
d="M911 494l-724.999 0.000976562c-2 -16 -3 -32 -3 -48c0 -102.667 36.667 -189.667 110 -261s160 -107 260 -107c116.667 0 230.667 45.667 342 137v-111c-105.333 -81.333 -223.333 -122 -354 -122c-132.667 0 -242.334 46 -329.001 138s-130 209 -130 351
c0 134.667 40 246.167 120 334.5s180.667 132.5 302 132.5c114 0 210.333 -39.833 289 -119.5s118 -187.834 118 -324.501zM199.001 573.001h596c-34.667 179.333 -131.667 269 -291 269c-75.333 0 -140.5 -23.5 -195.5 -70.5s-91.5 -113.167 -109.5 -198.5zM582.001 1212
c0 24.667 9 46 27 64s39 27 63 27c24.667 0 45.834 -9 63.501 -27s26.5 -39.333 26.5 -64c0 -24 -8.83301 -45 -26.5 -63s-38.834 -27 -63.501 -27c-24 0 -45 9 -63 27s-27 39 -27 63zM220.001 1212c0 24.667 8.83301 46 26.5 64s38.834 27 63.501 27c24 0 45 -9 63 -27
s27 -39.333 27 -64c0 -24 -9 -45 -27 -63s-39 -27 -63 -27c-24.667 0 -45.834 9 -63.501 27s-26.5 39 -26.5 63z" />
    <glyph glyph-name="igrave" unicode="&#xec;" horiz-adv-x="385" 
d="M242 920v-920h-99v920h99zM-69 1386h166l213 -319h-68z" />
    <glyph glyph-name="iacute" unicode="&#xed;" horiz-adv-x="385" 
d="M242 920v-920h-99v920h99zM548 1386l-311 -319h-68l213 319h166z" />
    <glyph glyph-name="icircumflex" unicode="&#xee;" horiz-adv-x="385" 
d="M242 920v-920h-99v920h99zM261 1384l217 -335h-78l-203 223l-205 -223h-78l222 335h125z" />
    <glyph glyph-name="idieresis" unicode="&#xef;" horiz-adv-x="385" 
d="M242 920v-920h-99v920h99zM287 1212c0 24.667 9 46 27 64s39 27 63 27c24.667 0 45.834 -9 63.501 -27s26.5 -39.333 26.5 -64c0 -24 -8.83301 -45 -26.5 -63s-38.834 -27 -63.501 -27c-24 0 -45 9 -63 27s-27 39 -27 63zM-75 1212c0 24.667 8.83301 46 26.5 64
s38.834 27 63.501 27c24 0 45 -9 63 -27s27 -39.333 27 -64c0 -24 -9 -45 -27 -63s-39 -27 -63 -27c-24.667 0 -45.834 9 -63.501 27s-26.5 39 -26.5 63z" />
    <glyph glyph-name="eth" unicode="&#xf0;" horiz-adv-x="1145" 
d="M989 1329l-237 -108.002c214 -182.667 321 -419 321 -709c0 -161.333 -46 -290 -138 -386s-215.333 -144 -370 -144c-137.333 0 -252.833 45.333 -346.5 136s-140.5 202.334 -140.5 335.001c0 137.333 47.667 252.5 143 345.5s213.333 139.5 354 139.5
c152 0 274.333 -56 367 -168l4 4c-50.667 156.667 -147 291.334 -289 404.001l-292 -138l-31 68l256 119c-50.667 36 -112 68 -184 96l38 74c89.333 -33.333 170 -75 242 -125l272 125zM578 62.998c117.333 0 211.832 36.832 283.499 110.499s107.5 170.834 107.5 291.501
c0 115.333 -36.667 209.333 -110 282s-168.666 109 -285.999 109c-112.667 0 -207.667 -38.833 -285 -116.5s-116 -173.167 -116 -286.5c0 -112 38.333 -205 115 -279s173.667 -111 291 -111z" />
    <glyph glyph-name="ntilde" unicode="&#xf1;" horiz-adv-x="1004" 
d="M225 920v-160h4c76.667 118.667 177.667 178 303 178c104 0 187 -33.333 249 -100s93 -159 93 -277v-561h-98v524c0 212 -83.333 318 -250 318c-122 0 -222.333 -65.667 -301 -197v-645h-98v920h98zM838 1317c3.33301 -56 -11.501 -102.833 -44.501 -140.5
s-74.167 -56.5 -123.5 -56.5c-33.333 0 -92.5 16.833 -177.5 50.5s-142.5 50.5 -172.5 50.5c-49.333 0 -78 -33 -86 -99h-66c0 58 14.833 105 44.5 141s70.834 54 123.501 54c44 0 105.667 -16.667 185 -50s133.666 -50 162.999 -50c52.667 0 83.334 33.333 92.001 100h62z
" />
    <glyph glyph-name="ograve" unicode="&#xf2;" horiz-adv-x="1110" 
d="M555 938c133.333 0 244.5 -45.667 333.5 -137s133.5 -205.333 133.5 -342c0 -136 -44.5 -249.5 -133.5 -340.5s-200.167 -136.5 -333.5 -136.5s-244.833 45.5 -334.5 136.5s-134.5 204.5 -134.5 340.5c0 136.667 44.833 250.667 134.5 342s201.167 137 334.5 137zM555 78
c103.333 0 189.668 36.167 259.001 108.5s104 163.166 104 272.499c0 108.667 -34.833 199.667 -104.5 273s-155.834 110 -258.501 110c-104 0 -190.833 -36.333 -260.5 -109s-104.5 -164 -104.5 -274c0 -109.333 34.833 -200.166 104.5 -272.499s156.5 -108.5 260.5 -108.5
zM373.002 1386h166l213 -319h-68z" />
    <glyph glyph-name="oacute" unicode="&#xf3;" horiz-adv-x="1110" 
d="M555 938c133.333 0 244.5 -45.667 333.5 -137s133.5 -205.333 133.5 -342c0 -136 -44.5 -249.5 -133.5 -340.5s-200.167 -136.5 -333.5 -136.5s-244.833 45.5 -334.5 136.5s-134.5 204.5 -134.5 340.5c0 136.667 44.833 250.667 134.5 342s201.167 137 334.5 137zM555 78
c103.333 0 189.668 36.167 259.001 108.5s104 163.166 104 272.499c0 108.667 -34.833 199.667 -104.5 273s-155.834 110 -258.501 110c-104 0 -190.833 -36.333 -260.5 -109s-104.5 -164 -104.5 -274c0 -109.333 34.833 -200.166 104.5 -272.499s156.5 -108.5 260.5 -108.5
zM907.002 1386l-311 -319h-68l213 319h166z" />
    <glyph glyph-name="ocircumflex" unicode="&#xf4;" horiz-adv-x="1110" 
d="M555 938c133.333 0 244.5 -45.667 333.5 -137s133.5 -205.333 133.5 -342c0 -136 -44.5 -249.5 -133.5 -340.5s-200.167 -136.5 -333.5 -136.5s-244.833 45.5 -334.5 136.5s-134.5 204.5 -134.5 340.5c0 136.667 44.833 250.667 134.5 342s201.167 137 334.5 137zM555 78
c103.333 0 189.668 36.167 259.001 108.5s104 163.166 104 272.499c0 108.667 -34.833 199.667 -104.5 273s-155.834 110 -258.501 110c-104 0 -190.833 -36.333 -260.5 -109s-104.5 -164 -104.5 -274c0 -109.333 34.833 -200.166 104.5 -272.499s156.5 -108.5 260.5 -108.5
zM621.002 1384l217 -335h-78l-203 223l-205 -223h-78l222 335h125z" />
    <glyph glyph-name="otilde" unicode="&#xf5;" horiz-adv-x="1110" 
d="M555 938c133.333 0 244.5 -45.667 333.5 -137s133.5 -205.333 133.5 -342c0 -136 -44.5 -249.5 -133.5 -340.5s-200.167 -136.5 -333.5 -136.5s-244.833 45.5 -334.5 136.5s-134.5 204.5 -134.5 340.5c0 136.667 44.833 250.667 134.5 342s201.167 137 334.5 137zM555 78
c103.333 0 189.668 36.167 259.001 108.5s104 163.166 104 272.499c0 108.667 -34.833 199.667 -104.5 273s-155.834 110 -258.501 110c-104 0 -190.833 -36.333 -260.5 -109s-104.5 -164 -104.5 -274c0 -109.333 34.833 -200.166 104.5 -272.499s156.5 -108.5 260.5 -108.5
zM891.002 1317c3.33301 -56 -11.501 -102.833 -44.501 -140.5s-74.167 -56.5 -123.5 -56.5c-33.333 0 -92.5 16.833 -177.5 50.5s-142.5 50.5 -172.5 50.5c-49.333 0 -78 -33 -86 -99h-66c0 58 14.833 105 44.5 141s70.834 54 123.501 54c44 0 105.667 -16.667 185 -50
s133.666 -50 162.999 -50c52.667 0 83.334 33.333 92.001 100h62z" />
    <glyph glyph-name="odieresis" unicode="&#xf6;" horiz-adv-x="1110" 
d="M555 938c133.333 0 244.5 -45.667 333.5 -137s133.5 -205.333 133.5 -342c0 -136 -44.5 -249.5 -133.5 -340.5s-200.167 -136.5 -333.5 -136.5s-244.833 45.5 -334.5 136.5s-134.5 204.5 -134.5 340.5c0 136.667 44.833 250.667 134.5 342s201.167 137 334.5 137zM555 78
c103.333 0 189.668 36.167 259.001 108.5s104 163.166 104 272.499c0 108.667 -34.833 199.667 -104.5 273s-155.834 110 -258.501 110c-104 0 -190.833 -36.333 -260.5 -109s-104.5 -164 -104.5 -274c0 -109.333 34.833 -200.166 104.5 -272.499s156.5 -108.5 260.5 -108.5
zM647.002 1212c0 24.667 9 46 27 64s39 27 63 27c24.667 0 45.834 -9 63.501 -27s26.5 -39.333 26.5 -64c0 -24 -8.83301 -45 -26.5 -63s-38.834 -27 -63.501 -27c-24 0 -45 9 -63 27s-27 39 -27 63zM285.002 1212c0 24.667 8.83301 46 26.5 64s38.834 27 63.501 27
c24 0 45 -9 63 -27s27 -39.333 27 -64c0 -24 -9 -45 -27 -63s-39 -27 -63 -27c-24.667 0 -45.834 9 -63.501 27s-26.5 39 -26.5 63z" />
    <glyph glyph-name="divide" unicode="&#xf7;" horiz-adv-x="1352" 
d="M756 1059c0 -22.667 -7.83301 -41.667 -23.5 -57s-34.5 -23 -56.5 -23c-22.667 0 -41.667 7.66699 -57 23s-23 34.333 -23 57c0 22 7.66699 40.833 23 56.5s34.333 23.5 57 23.5c22 0 40.833 -7.83301 56.5 -23.5s23.5 -34.5 23.5 -56.5zM139 764h1073v-90h-1073v90z
M756 379c0 -22.667 -7.83301 -41.667 -23.5 -57s-34.5 -23 -56.5 -23c-22.667 0 -41.667 7.66699 -57 23s-23 34.333 -23 57s7.66699 41.667 23 57s34.333 23 57 23c22 0 40.833 -7.66699 56.5 -23s23.5 -34.333 23.5 -57z" />
    <glyph glyph-name="oslash" unicode="&#xf8;" horiz-adv-x="1110" 
d="M270 74l-116.001 -135.001l-68 61l119 135c-79.333 86.667 -119 194.667 -119 324c0 136.667 44.833 250.667 134.5 342s201.167 137 334.5 137c106.667 0 200.334 -30 281.001 -90l108 123l64 -51l-111 -127c83.333 -93.333 125 -204.666 125 -333.999
c0 -136 -44.5 -249.5 -133.5 -340.5s-200.167 -136.5 -333.5 -136.5c-106 0 -201 30.667 -285 92zM271.999 210.999l496 561c-60 46.667 -131 70 -213 70c-104 0 -190.833 -36.333 -260.5 -109s-104.5 -164 -104.5 -274c0 -94 27.333 -176.667 82 -248zM826.999 712.999
l-488.999 -562.999c66.667 -48 139 -72 217 -72c103.333 0 189.666 36.167 258.999 108.5s104 163.166 104 272.499c0 105.333 -30.333 190 -91 254z" />
    <glyph glyph-name="ugrave" unicode="&#xf9;" horiz-adv-x="1004" 
d="M776 0v152h-4c-42.667 -61.333 -86.5 -105 -131.5 -131s-102.167 -39 -171.5 -39c-98.667 0 -180.334 32 -245.001 96s-97 154.667 -97 272v570h98v-568c0 -85.333 23.333 -152.333 70 -201s107.334 -73 182.001 -73c64 0 118.5 14.667 163.5 44s90.167 80 135.5 152v646
h98v-920h-98zM319 1386h166l213 -319h-68z" />
    <glyph glyph-name="uacute" unicode="&#xfa;" horiz-adv-x="1004" 
d="M776 0v152h-4c-42.667 -61.333 -86.5 -105 -131.5 -131s-102.167 -39 -171.5 -39c-98.667 0 -180.334 32 -245.001 96s-97 154.667 -97 272v570h98v-568c0 -85.333 23.333 -152.333 70 -201s107.334 -73 182.001 -73c64 0 118.5 14.667 163.5 44s90.167 80 135.5 152v646
h98v-920h-98zM854 1386l-311 -319h-68l213 319h166z" />
    <glyph glyph-name="ucircumflex" unicode="&#xfb;" horiz-adv-x="1004" 
d="M776 0v152h-4c-42.667 -61.333 -86.5 -105 -131.5 -131s-102.167 -39 -171.5 -39c-98.667 0 -180.334 32 -245.001 96s-97 154.667 -97 272v570h98v-568c0 -85.333 23.333 -152.333 70 -201s107.334 -73 182.001 -73c64 0 118.5 14.667 163.5 44s90.167 80 135.5 152v646
h98v-920h-98zM568 1384l217 -335h-78l-203 223l-205 -223h-78l222 335h125z" />
    <glyph glyph-name="udieresis" unicode="&#xfc;" horiz-adv-x="1004" 
d="M776 0v152h-4c-42.667 -61.333 -86.5 -105 -131.5 -131s-102.167 -39 -171.5 -39c-98.667 0 -180.334 32 -245.001 96s-97 154.667 -97 272v570h98v-568c0 -85.333 23.333 -152.333 70 -201s107.334 -73 182.001 -73c64 0 118.5 14.667 163.5 44s90.167 80 135.5 152v646
h98v-920h-98zM599 1212c0 24.667 9 46 27 64s39 27 63 27c24.667 0 45.834 -9 63.501 -27s26.5 -39.333 26.5 -64c0 -24 -8.83301 -45 -26.5 -63s-38.834 -27 -63.501 -27c-24 0 -45 9 -63 27s-27 39 -27 63zM237 1212c0 24.667 8.83301 46 26.5 64s38.834 27 63.501 27
c24 0 45 -9 63 -27s27 -39.333 27 -64c0 -24 -9 -45 -27 -63s-39 -27 -63 -27c-24.667 0 -45.834 9 -63.501 27s-26.5 39 -26.5 63z" />
    <glyph glyph-name="yacute" unicode="&#xfd;" horiz-adv-x="854" 
d="M866 920l-688 -1391h-100l321 649l-387 742h103l334 -644l317 644h100zM769 1386l-311 -319h-68l213 319h166z" />
    <glyph glyph-name="thorn" unicode="&#xfe;" horiz-adv-x="1044" 
d="M227 1397v-529c92.667 46.667 185 70 277 70c130.667 0 239 -45 325 -135s129 -203.333 129 -340c0 -134.667 -44.333 -248.5 -133 -341.5s-197 -139.5 -325 -139.5c-88.667 0 -179.667 23 -273 69v-522h-98v1868h98zM227 774l0.000976562 -627
c83.333 -46 168 -69 254 -69c110 0 199 34.667 267 104s102 160.333 102 273c0 112 -36 204.5 -108 277.5s-163 109.5 -273 109.5c-78.667 0 -159.334 -22.667 -242.001 -68z" />
    <glyph glyph-name="ydieresis" unicode="&#xff;" horiz-adv-x="854" 
d="M866 920l-688 -1391h-100l321 649l-387 742h103l334 -644l317 644h100zM529 1212c0 24.667 9 46 27 64s39 27 63 27c24.667 0 45.834 -9 63.501 -27s26.5 -39.333 26.5 -64c0 -24 -8.83301 -45 -26.5 -63s-38.834 -27 -63.501 -27c-24 0 -45 9 -63 27s-27 39 -27 63z
M167 1212c0 24.667 8.83301 46 26.5 64s38.834 27 63.501 27c24 0 45 -9 63 -27s27 -39.333 27 -64c0 -24 -9 -45 -27 -63s-39 -27 -63 -27c-24.667 0 -45.834 9 -63.501 27s-26.5 39 -26.5 63z" />
    <glyph glyph-name="Aogonek" unicode="&#x104;" horiz-adv-x="1366" 
d="M1399 -338c-15.333 -4 -30.168 -6.66504 -44.501 -7.99805s-27.5 -2 -39.5 -2c-30.667 0 -58 4.5 -82 13.5s-44.167 21.167 -60.5 36.5s-28.833 33.166 -37.5 53.499s-13 41.833 -13 64.5c0 21.333 3.16699 41.666 9.5 60.999s15 37 26 53s23.667 30.333 38 43
s29.5 23 45.5 31l-217 475h-682l-221 -483h-113l645 1407h60l645 -1407h-49c-31.333 -24 -52.5 -47.5 -63.5 -70.5s-16.5 -48.5 -16.5 -76.5c0 -36 11 -64.167 33 -84.5s56 -30.5 102 -30.5h16.5c5.66699 0 11.834 0.666992 18.501 2v-78zM681.998 1231l-299 -658h600z" />
    <glyph glyph-name="aogonek" unicode="&#x105;" horiz-adv-x="874" 
d="M840 -338c-15.333 -4 -30.1709 -6.66406 -44.5039 -7.99707s-27.5 -2 -39.5 -2c-30.667 0 -58 4.5 -82 13.5s-44.167 21.167 -60.5 36.5s-28.833 33.166 -37.5 53.499s-13 41.833 -13 64.5c0 34.667 8.16699 66.334 24.5 95.001s36.833 52.334 61.5 71.001
c-12 5.33301 -20.667 16 -26 32s-9.66602 42 -12.999 78c-52 -40 -100.5 -69 -145.5 -87s-92.5 -27 -142.5 -27c-34.667 0 -67.167 6.16699 -97.5 18.5s-56.666 29 -78.999 50s-39.833 45.667 -52.5 74s-19 58.5 -19 90.5c0 59.333 13.833 109.5 41.5 150.5
s65.5 74.667 113.5 101s104.667 46.166 170 59.499s135.666 21.666 210.999 24.999v117c0 125.333 -68 188 -204 188c-24.667 0 -48.167 -2.16699 -70.5 -6.5s-44.666 -11.333 -66.999 -21s-45.166 -21.834 -68.499 -36.501s-48.333 -32.334 -75 -53.001v101
c28 17.333 54.667 32.166 80 44.499s49.833 22.5 73.5 30.5s47.334 13.833 71.001 17.5s47.834 5.5 72.501 5.5c29.333 0 60.666 -3.5 93.999 -10.5s64.333 -19.5 93 -37.5s52.5 -42.5 71.5 -73.5s28.5 -70.5 28.5 -118.5v-573c0 -18.667 1.66699 -31.167 5 -37.5
s9 -9.5 17 -9.5c5.33301 0 13 2.5 23 7.5s21 11.333 33 19s24.5 16.334 37.5 26.001s25.5 19.5 37.5 29.5v-82l-16 -12l-48.5 -35.5c-13.667 -10.333 -26.167 -18.5 -37.5 -24.5c-34.667 -25.333 -58.334 -49.833 -71.001 -73.5s-19 -50.167 -19 -79.5
c0 -36 11 -64.167 33 -84.5s56 -30.5 102 -30.5h16.5c5.66699 0 11.834 0.666992 18.501 2v-78zM609.995 469.003c-62.667 0 -120.666 -5.33008 -173.999 -15.9971s-99.5 -26.5 -138.5 -47.5s-69.667 -47.333 -92 -79s-33.5 -68.834 -33.5 -111.501
c0 -21.333 4.66699 -41.333 14 -60s22 -34.834 38 -48.501s35.167 -24.334 57.5 -32.001s46.5 -11.5 72.5 -11.5c22 0 43.167 2.16699 63.5 6.5s40.666 11.333 60.999 21s41.333 22 63 37s44.5 33.167 68.5 54.5v287z" />
    <glyph glyph-name="Cacute" unicode="&#x106;" horiz-adv-x="1386" 
d="M1325 1298l0.000976562 -117.999c-169.333 90 -335.333 135 -498 135c-173.333 0 -318.333 -59 -435 -177s-175 -265.333 -175 -442c0 -178.667 58.667 -325.667 176 -441s267 -173 449 -173c152 0 317.667 47.667 497 143v-112
c-165.333 -87.333 -330.333 -131 -495 -131c-212.667 0 -389.834 68.167 -531.501 204.5s-212.5 306.166 -212.5 509.499c0 204.667 72.333 375.667 217 513s317 206 517 206c157.333 0 321 -39 491 -117zM1087 1832l-311 -319h-68l213 319h166z" />
    <glyph glyph-name="cacute" unicode="&#x107;" horiz-adv-x="854" 
d="M776 893v-109.001c-88 38.667 -167.667 58 -239 58c-102.667 0 -186.167 -35.667 -250.5 -107s-96.5 -164 -96.5 -278c0 -116 32.167 -208.167 96.5 -276.5s150.5 -102.5 258.5 -102.5c78.667 0 161.334 17.667 248.001 53v-102c-92 -31.333 -177.333 -47 -256 -47
c-134.667 0 -243.5 42.667 -326.5 128s-124.5 197.333 -124.5 336c0 144.667 41.833 262.834 125.5 354.501s190.5 137.5 320.5 137.5c71.333 0 152.666 -15 243.999 -45zM780 1386l-311 -319h-68l213 319h166z" />
    <glyph glyph-name="Eogonek" unicode="&#x118;" horiz-adv-x="1004" 
d="M909 -338c-15.333 -4 -30.001 -6.66504 -44.001 -7.99805s-27.333 -2 -40 -2c-30.667 0 -58 4.5 -82 13.5s-44.167 21.167 -60.5 36.5s-28.666 33.166 -36.999 53.499s-12.5 41.833 -12.5 64.5c0 40 10.167 75.667 30.5 107s44.833 55.666 73.5 72.999h-573v1397h762v-90
h-654v-559h637v-91h-637v-567h670v-90h-123c-30.667 -24.667 -51.667 -48.167 -63 -70.5s-17 -47.833 -17 -76.5c0 -36 11 -64.167 33 -84.5s56 -30.5 102 -30.5h17c6 0 12 0.666992 18 2v-78z" />
    <glyph glyph-name="eogonek" unicode="&#x119;" horiz-adv-x="981" 
d="M799 -338c-15.333 -4 -30.1689 -6.66895 -44.502 -8.00195s-27.5 -2 -39.5 -2c-30.667 0 -58 4.5 -82 13.5s-44.167 21.167 -60.5 36.5s-28.833 33.166 -37.5 53.499s-13 41.833 -13 64.5c0 34.667 8.16699 66.334 24.5 95.001s36.833 52.334 61.5 71.001
c-11.333 -1.33301 -22.5 -2.33301 -33.5 -3s-22.167 -1 -33.5 -1c-66.667 0 -128.167 12.167 -184.5 36.5s-104.833 58.166 -145.5 101.499s-72.334 95 -95.001 155s-34 125.333 -34 196c0 67.333 10.5 129.5 31.5 186.5s50.333 106.333 88 148s82.334 74.167 134.001 97.5
s107.834 35 168.501 35c49.333 0 98.166 -8.66699 146.499 -26s91.833 -44.166 130.5 -80.499s70 -82.333 94 -138s36 -122.167 36 -199.5h-725c-1.33301 -8.66699 -2 -16.667 -2 -24v-24c0 -52.667 10 -101.334 30 -146.001s47 -83.5 81 -116.5s73.333 -58.833 118 -77.5
s91.334 -28 140.001 -28c61.333 0 118.833 10.833 172.5 32.5s110.167 56.5 169.5 104.5v-111c-28 -21.333 -56.167 -39.666 -84.5 -54.999s-57.5 -28.333 -87.5 -39c-36.667 -26.667 -61.5 -52.167 -74.5 -76.5s-19.5 -51.166 -19.5 -80.499c0 -36 11 -64.167 33 -84.5
s56 -30.5 102 -30.5h16.5c5.66699 0 11.834 0.666992 18.501 2v-78zM794.997 572.998c-35.333 179.333 -132.333 269 -291 269c-38 0 -73.667 -6.16699 -107 -18.5s-63.166 -30 -89.499 -53s-48.833 -51.167 -67.5 -84.5s-32.334 -71 -41.001 -113h596z" />
    <glyph glyph-name="dotlessi" unicode="&#x131;" horiz-adv-x="385" 
d="M242 920v-920h-99v920h99z" />
    <glyph glyph-name="Lslash" unicode="&#x141;" horiz-adv-x="961" 
d="M270 719l342 280v-102l-342 -281v-526h691v-90h-799v537l-248 -205v102l248 205v758h108v-678z" />
    <glyph glyph-name="lslash" unicode="&#x142;" horiz-adv-x="385" 
d="M242 768l204 176v-102l-204 -172v-670h-99v596l-200 -174v102l200 170v703h99v-629z" />
    <glyph glyph-name="Nacute" unicode="&#x143;" horiz-adv-x="1579" 
d="M1419 1397v-1397h-90l-1061 1221v-1221h-108v1397h92l1059 -1221v1221h108zM1050 1832l-311 -319h-68l213 319h166z" />
    <glyph glyph-name="nacute" unicode="&#x144;" horiz-adv-x="1004" 
d="M225 920v-160h4c76.667 118.667 177.667 178 303 178c104 0 187 -33.333 249 -100s93 -159 93 -277v-561h-98v524c0 212 -83.333 318 -250 318c-122 0 -222.333 -65.667 -301 -197v-645h-98v920h98zM766 1386l-311 -319h-68l213 319h166z" />
    <glyph glyph-name="OE" unicode="&#x152;" horiz-adv-x="1835" 
d="M1743 1397l0.000976562 -90.001h-660v-562h646v-90h-646v-565h674v-90h-921c-232 0 -415.333 68.333 -550 205s-202 300.334 -202 491.001c0 194 67.667 359.333 203 496s316.666 205 543.999 205h912zM975.001 1307l-121.001 -0.000976562
c-204 0 -363.833 -59.5 -479.5 -178.5s-173.5 -263.167 -173.5 -432.5s58.833 -312.666 176.5 -429.999s277.834 -176 480.501 -176h117v1217z" />
    <glyph glyph-name="oe" unicode="&#x153;" horiz-adv-x="1706" 
d="M1624 496h-639.001c-4.66699 -136 18.666 -239.667 69.999 -311s125 -107 221 -107c116 0 225.333 45.667 328 137v-113c-100.667 -80 -214 -120 -340 -120c-158.667 0 -270 71.667 -334 215c-108 -143.333 -239 -215 -393 -215c-131.333 0 -239.666 43.667 -324.999 131
s-128 202.666 -128 345.999c0 140.667 43.167 255.667 129.5 345s197.5 134 333.5 134c158.667 0 286.334 -65 383.001 -195c30.667 60.667 75.167 108.334 133.5 143.001s118.833 52 181.5 52c110 0 202 -41.167 276 -123.5s108.333 -188.5 103 -318.5zM988.999 573
h520.002c-6.66699 86 -33.834 152.333 -81.501 199s-107.834 70 -180.501 70c-68 0 -127.5 -24.333 -178.5 -73s-77.5 -114 -79.5 -196zM543.001 78c100.667 0 182.167 36.668 244.5 110.001s93.5 169.666 93.5 288.999c0 113.333 -29.5 202.5 -88.5 267.5
s-140.167 97.5 -243.5 97.5c-107.333 0 -194.333 -34.833 -261 -104.5s-100 -161.167 -100 -274.5c0 -111.333 33.667 -203.333 101 -276s152 -109 254 -109z" />
    <glyph glyph-name="Sacute" unicode="&#x15a;" horiz-adv-x="961" 
d="M819 1327l-0.00292969 -118.997c-121.333 71.333 -225.666 107 -312.999 107c-84 0 -154.167 -25.5 -210.5 -76.5s-84.5 -114.167 -84.5 -189.5c0 -54 16.667 -102.667 50 -146s103 -85 209 -125s183.333 -73.333 232 -100s90 -65.334 124 -116.001
s51 -116.334 51 -197.001c0 -107.333 -39.333 -198 -118 -272s-174.667 -111 -288 -111c-116 0 -235.333 40.667 -358 122v127c135.333 -99.333 252.666 -149 351.999 -149c82.667 0 152.5 26.833 209.5 80.5s85.5 119.5 85.5 197.5c0 59.333 -17.667 112.833 -53 160.5
s-107 92.167 -215 133.5s-185.167 74.666 -231.5 99.999s-85.666 61.5 -117.999 108.5s-48.5 107.5 -48.5 181.5c0 102.667 39.333 190.167 118 262.5s173.334 108.5 284.001 108.5c108.667 0 216.334 -29.333 323.001 -88zM740.997 1832l-311 -319h-68l213 319h166z" />
    <glyph glyph-name="sacute" unicode="&#x15b;" horiz-adv-x="725" 
d="M633 860l-0.000976562 -106c-93.333 62.667 -177.333 94 -252 94c-55.333 0 -102 -15 -140 -45s-57 -67 -57 -111c0 -31.333 11.5 -60.166 34.5 -86.499s86.667 -59.5 191 -99.5s172.5 -81.667 204.5 -125s48 -91.666 48 -144.999c0 -71.333 -29 -131.5 -87 -180.5
s-129.667 -73.5 -215 -73.5c-92.667 0 -184.667 28 -276 84v96c108.667 -56 205 -84 289 -84c56.667 0 103.167 15 139.5 45s54.5 68.333 54.5 115c0 32 -11.833 61.5 -35.5 88.5s-87.667 61.167 -192 102.5s-172 82.166 -203 122.499s-46.5 85.166 -46.5 134.499
c0 70 28.833 129.5 86.5 178.5s127.834 73.5 210.501 73.5c75.333 0 157.333 -26 246 -78zM625.999 1386l-311 -319h-68l213 319h166z" />
    <glyph glyph-name="Scaron" unicode="&#x160;" horiz-adv-x="961" 
d="M819 1327l-0.00292969 -118.997c-121.333 71.333 -225.666 107 -312.999 107c-84 0 -154.167 -25.5 -210.5 -76.5s-84.5 -114.167 -84.5 -189.5c0 -54 16.667 -102.667 50 -146s103 -85 209 -125s183.333 -73.333 232 -100s90 -65.334 124 -116.001
s51 -116.334 51 -197.001c0 -107.333 -39.333 -198 -118 -272s-174.667 -111 -288 -111c-116 0 -235.333 40.667 -358 122v127c135.333 -99.333 252.666 -149 351.999 -149c82.667 0 152.5 26.833 209.5 80.5s85.5 119.5 85.5 197.5c0 59.333 -17.667 112.833 -53 160.5
s-107 92.167 -215 133.5s-185.167 74.666 -231.5 99.999s-85.666 61.5 -117.999 108.5s-48.5 107.5 -48.5 181.5c0 102.667 39.333 190.167 118 262.5s173.334 108.5 284.001 108.5c108.667 0 216.334 -29.333 323.001 -88zM545.997 1496h-125l-222 335h78l205 -223l203 223
h78z" />
    <glyph glyph-name="scaron" unicode="&#x161;" horiz-adv-x="725" 
d="M633 860l-0.000976562 -106c-93.333 62.667 -177.333 94 -252 94c-55.333 0 -102 -15 -140 -45s-57 -67 -57 -111c0 -31.333 11.5 -60.166 34.5 -86.499s86.667 -59.5 191 -99.5s172.5 -81.667 204.5 -125s48 -91.666 48 -144.999c0 -71.333 -29 -131.5 -87 -180.5
s-129.667 -73.5 -215 -73.5c-92.667 0 -184.667 28 -276 84v96c108.667 -56 205 -84 289 -84c56.667 0 103.167 15 139.5 45s54.5 68.333 54.5 115c0 32 -11.833 61.5 -35.5 88.5s-87.667 61.167 -192 102.5s-172 82.166 -203 122.499s-46.5 85.166 -46.5 134.499
c0 70 28.833 129.5 86.5 178.5s127.834 73.5 210.501 73.5c75.333 0 157.333 -26 246 -78zM428.999 1049h-125l-222 335h78l205 -223l203 223h78z" />
    <glyph glyph-name="Ydieresis" unicode="&#x178;" horiz-adv-x="1194" 
d="M1194 1397l-543 -647v-750h-108v750l-543 647h131l467 -553l465 553h131zM688 1659c0 24.667 9 46 27 64s39 27 63 27c24.667 0 45.834 -9 63.501 -27s26.5 -39.333 26.5 -64c0 -24 -8.83301 -45 -26.5 -63s-38.834 -27 -63.501 -27c-24 0 -45 9 -63 27s-27 39 -27 63z
M326 1659c0 24.667 8.83301 46 26.5 64s38.834 27 63.501 27c24 0 45 -9 63 -27s27 -39.333 27 -64c0 -24 -9 -45 -27 -63s-39 -27 -63 -27c-24.667 0 -45.834 9 -63.501 27s-26.5 39 -26.5 63z" />
    <glyph glyph-name="Zacute" unicode="&#x179;" horiz-adv-x="1300" 
d="M1233 1397l10 -39l-1046 -1268h1054v-90h-1222l-11 31l1047 1276h-999v90h1167zM911 1832l-311 -319h-68l213 319h166z" />
    <glyph glyph-name="zacute" unicode="&#x17a;" horiz-adv-x="811" 
d="M780 920l8 -31l-604 -799h604v-90h-757l-11 31l609 798h-570v91h721zM669 1386l-311 -319h-68l213 319h166z" />
    <glyph glyph-name="Zdotaccent" unicode="&#x17b;" horiz-adv-x="1300" 
d="M1233 1397l10 -39l-1046 -1268h1054v-90h-1222l-11 31l1047 1276h-999v90h1167zM559 1658c0 24.667 8.83301 46 26.5 64s38.834 27 63.501 27s45.834 -9 63.501 -27s26.5 -39.333 26.5 -64c0 -24 -8.83301 -45 -26.5 -63s-38.834 -27 -63.501 -27s-45.834 9 -63.501 27
s-26.5 39 -26.5 63z" />
    <glyph glyph-name="zdotaccent" unicode="&#x17c;" horiz-adv-x="811" 
d="M780 920l8 -31l-604 -799h604v-90h-757l-11 31l609 798h-570v91h721zM316 1212c0 24.667 8.83301 46 26.5 64s38.834 27 63.501 27s45.834 -9 63.501 -27s26.5 -39.333 26.5 -64c0 -24 -8.83301 -45 -26.5 -63s-38.834 -27 -63.501 -27s-45.834 9 -63.501 27
s-26.5 39 -26.5 63z" />
    <glyph glyph-name="Zcaron" unicode="&#x17d;" horiz-adv-x="1300" 
d="M1233 1397l10 -39l-1046 -1268h1054v-90h-1222l-11 31l1047 1276h-999v90h1167zM716 1496h-125l-222 335h78l205 -223l203 223h78z" />
    <glyph glyph-name="zcaron" unicode="&#x17e;" horiz-adv-x="811" 
d="M780 920l8 -31l-604 -799h604v-90h-757l-11 31l609 798h-570v91h721zM472 1049h-125l-222 335h78l205 -223l203 223h78z" />
    <glyph glyph-name="florin" unicode="&#x192;" horiz-adv-x="1139" 
d="M735 1067l223.001 0.000976562l-22 -96h-219l-248 -1141c-20 -94.667 -50.833 -161.667 -92.5 -201s-102.834 -59 -183.501 -59c-54 0 -113.667 10.333 -179 31l23 100c58.667 -15.333 107 -23 145 -23c49.333 0 85.833 11.667 109.5 35s41.167 61.666 52.5 114.999
l246 1143h-168l18 96h168l49 213c34 143.333 122.333 215 265 215c40.667 0 101.334 -11 182.001 -33l-21 -98c-54 13.333 -105 20 -153 20c-40 0 -72.333 -9.5 -97 -28.5s-46.334 -68.833 -65.001 -149.5z" />
    <glyph glyph-name="circumflex" unicode="&#x2c6;" horiz-adv-x="682" 
d="M406 1384l217 -335h-78l-203 223l-205 -223h-78l222 335h125z" />
    <glyph glyph-name="caron" unicode="&#x2c7;" horiz-adv-x="682" 
d="M406 1049h-125l-222 335h78l205 -223l203 223h78z" />
    <glyph glyph-name="firsttonechinese" unicode="&#x2c9;" horiz-adv-x="682" 
d="M614 1276v-105h-546v105h546z" />
    <glyph glyph-name="breve" unicode="&#x2d8;" horiz-adv-x="682" 
d="M541 1325h79.998c-59.333 -155.333 -151.666 -233 -276.999 -233c-119.333 0 -213.666 77.667 -282.999 233h84c44 -91.333 109.667 -137 197 -137c84.667 0 151 45.667 199 137z" />
    <glyph glyph-name="dotaccent" unicode="&#x2d9;" horiz-adv-x="682" 
d="M250 1212c0 24.667 8.83301 46 26.5 64s38.834 27 63.501 27s45.834 -9 63.501 -27s26.5 -39.333 26.5 -64c0 -24 -8.83301 -45 -26.5 -63s-38.834 -27 -63.501 -27s-45.834 9 -63.501 27s-26.5 39 -26.5 63z" />
    <glyph glyph-name="ring" unicode="&#x2da;" horiz-adv-x="682" 
d="M164 1214c0 49.333 17.333 91.166 52 125.499s76.667 51.5 126 51.5c48.667 0 90.167 -17.167 124.5 -51.5s51.5 -76.166 51.5 -125.499c0 -48.667 -17.167 -90.5 -51.5 -125.5s-75.833 -52.5 -124.5 -52.5s-90.5 17.5 -125.5 52.5s-52.5 76.833 -52.5 125.5zM463 1214
c0 34 -11.832 62.667 -35.499 86s-52.167 35 -85.5 35c-34 0 -63 -11.667 -87 -35s-36 -52 -36 -86c0 -33.333 12.167 -62 36.5 -86s53.166 -36 86.499 -36s61.833 12 85.5 36s35.5 52.667 35.5 86z" />
    <glyph glyph-name="ogonek" unicode="&#x2db;" horiz-adv-x="682" 
d="M475 -260v-78c-29.333 -7.33301 -57 -11 -83 -11c-58 0 -104.667 16.167 -140 48.5s-53 72.5 -53 120.5c0 62.667 20.833 111.667 62.5 147s70.5 53 86.5 53h66c-46.667 -44 -76.5 -76.667 -89.5 -98s-19.5 -44.333 -19.5 -69c0 -76.667 45.333 -115 136 -115
c10.667 0 22 0.666992 34 2z" />
    <glyph glyph-name="tilde" unicode="&#x2dc;" horiz-adv-x="682" 
d="M676 1317c3.33301 -56 -11.501 -102.833 -44.501 -140.5s-74.167 -56.5 -123.5 -56.5c-33.333 0 -92.5 16.833 -177.5 50.5s-142.5 50.5 -172.5 50.5c-49.333 0 -78 -33 -86 -99h-66c0 58 14.833 105 44.5 141s70.834 54 123.501 54c44 0 105.667 -16.667 185 -50
s133.666 -50 162.999 -50c52.667 0 83.334 33.333 92.001 100h62z" />
    <glyph glyph-name="hungarumlaut" unicode="&#x2dd;" horiz-adv-x="682" 
d="M788 1386l-311 -319h-67l213 319h165zM516 1386l-311 -319h-68l213 319h166z" />
    <glyph glyph-name="gravecmb" unicode="&#x300;" 
d="M-742 1386h166l213 -319h-68z" />
    <glyph glyph-name="acutecmb" unicode="&#x301;" 
d="M-363 1386l-311 -319h-68l213 319h166z" />
    <glyph glyph-name="circumflexcmb" unicode="&#x302;" 
d="M-218 1317c3.33301 -56 -11.501 -102.833 -44.501 -140.5s-74.167 -56.5 -123.5 -56.5c-33.333 0 -92.5 16.833 -177.5 50.5s-142.5 50.5 -172.5 50.5c-49.333 0 -78 -33 -86 -99h-66c0 58 14.833 105 44.5 141s70.834 54 123.501 54c44 0 105.667 -16.667 185 -50
s133.666 -50 162.999 -50c52.667 0 83.334 33.333 92.001 100h62z" />
    <glyph glyph-name="tildecmb" unicode="&#x303;" 
d="M-355 1325h79.998c-59.333 -155.333 -151.666 -233 -276.999 -233c-119.333 0 -213.666 77.667 -282.999 233h84c44 -91.333 109.667 -137 197 -137c84.667 0 151 45.667 199 137z" />
    <glyph glyph-name="macroncmb" unicode="&#x304;" 
d="M-903 1397h489.001c247.333 0 436.166 -65 566.499 -195s195.5 -298 195.5 -504c0 -202 -64.5 -368.833 -193.5 -500.5s-312.167 -197.5 -549.5 -197.5h-508v655h-209v90h209v652zM-794.999 1307l0.000976562 -561.999h453v-90h-453v-565h394
c180.667 0 331.167 55.5 451.5 166.5s180.5 258.167 180.5 441.5c0 179.333 -59.333 325.666 -178 438.999s-272.334 170 -461.001 170h-387z" />
    <glyph glyph-name="brevecmb" unicode="&#x306;" 
d="M-644 1212c0 24.667 8.83301 46 26.5 64s38.834 27 63.501 27s45.834 -9 63.501 -27s26.5 -39.333 26.5 -64c0 -24 -8.83301 -45 -26.5 -63s-38.834 -27 -63.501 -27s-45.834 9 -63.501 27s-26.5 39 -26.5 63z" />
    <glyph glyph-name="dotaccentcmb" unicode="&#x307;" 
d="M-729 1214c0 49.333 17.333 91.166 52 125.499s76.667 51.5 126 51.5c48.667 0 90.167 -17.167 124.5 -51.5s51.5 -76.166 51.5 -125.499c0 -48.667 -17.167 -90.5 -51.5 -125.5s-75.833 -52.5 -124.5 -52.5s-90.5 17.5 -125.5 52.5s-52.5 76.833 -52.5 125.5zM-430 1214
c0 34 -11.832 62.667 -35.499 86s-52.167 35 -85.5 35c-34 0 -63 -11.667 -87 -35s-36 -52 -36 -86c0 -33.333 12.167 -62 36.5 -86s53.166 -36 86.499 -36s61.833 12 85.5 36s35.5 52.667 35.5 86z" />
    <glyph glyph-name="dieresiscmb" unicode="&#x308;" 
d="M-462 1212c0 24.667 9 46 27 64s39 27 63 27c24.667 0 45.834 -9 63.501 -27s26.5 -39.333 26.5 -64c0 -24 -8.83301 -45 -26.5 -63s-38.834 -27 -63.501 -27c-24 0 -45 9 -63 27s-27 39 -27 63zM-824 1212c0 24.667 8.83301 46 26.5 64s38.834 27 63.501 27
c24 0 45 -9 63 -27s27 -39.333 27 -64c0 -24 -9 -45 -27 -63s-39 -27 -63 -27c-24.667 0 -45.834 9 -63.501 27s-26.5 39 -26.5 63z" />
    <glyph glyph-name="ringcmb" unicode="&#x30a;" 
d="M-488 16l-24.999 -88c84.667 -14.667 127 -57.667 127 -129c0 -48.667 -18.5 -87.167 -55.5 -115.5s-85.833 -42.5 -146.5 -42.5c-28.667 0 -58.334 3.66699 -89.001 11l10 65c26 -2 48.667 -3 68 -3c88.667 0 133 26.333 133 79c0 51.333 -42.333 78 -127 80l43 143h62z
" />
    <glyph glyph-name="hungarumlautcmb" unicode="&#x30b;" 
d="M-540 -260v-78c-29.333 -7.33301 -57 -11 -83 -11c-58 0 -104.667 16.167 -140 48.5s-53 72.5 -53 120.5c0 62.667 20.833 111.667 62.5 147s70.5 53 86.5 53h66c-46.667 -44 -76.5 -76.667 -89.5 -98s-19.5 -44.333 -19.5 -69c0 -76.667 45.333 -115 136 -115
c10.667 0 22 0.666992 34 2z" />
    <glyph glyph-name="caroncmb" unicode="&#x30c;" 
d="M-687 920h98v-478c0 -246.667 90 -370 270 -370c180.667 0 271 114 271 342v506h98v-920h-98v102c-70 -80 -161 -120 -273 -120c-106.667 0 -196 40 -268 120v-464h-98v1282z" />
    <glyph glyph-name="cedillacmb" unicode="&#x327;" 
d="M-127 1386l-311 -319h-67l213 319h165zM-399 1386l-311 -319h-68l213 319h166z" />
    <glyph glyph-name="ogonekcmb" unicode="&#x328;" 
d="M-484 1049h-125l-222 335h78l205 -223l203 223h78z" />
    <glyph glyph-name="soliduslongoverlaycmb" unicode="&#x338;" 
d="M-374 1415h94l-449 -1433h-96z" />
    <glyph glyph-name="afii10023" unicode="&#x401;" horiz-adv-x="1004" 
d="M926 1397v-90h-654v-559h637v-91h-637v-567h670v-90h-778v1397h762zM727 1749c24.667 0 45.834 -8.83301 63.501 -26.5s26.5 -38.834 26.5 -63.501s-8.83301 -45.834 -26.5 -63.501s-38.834 -26.5 -63.501 -26.5s-45.834 8.83301 -63.501 26.5s-26.5 38.834 -26.5 63.501
s8.83301 45.834 26.5 63.501s38.834 26.5 63.501 26.5zM365 1749c24.667 0 45.834 -8.83105 63.501 -26.498s26.5 -38.834 26.5 -63.501s-8.83301 -45.834 -26.5 -63.501s-38.834 -26.5 -63.501 -26.5c-12.667 0 -24.5 2.33301 -35.5 7s-20.667 11.167 -29 19.5
s-14.833 18 -19.5 29s-7 22.5 -7 34.5s2.33301 23.5 7 34.5s11.167 20.667 19.5 29s18 14.833 29 19.5s22.833 7 35.5 7z" />
    <glyph glyph-name="afii10051" unicode="&#x402;" horiz-adv-x="1372" 
d="M473 1307l-463 -0.00488281v90h1096v-90h-524v-492c12 16.667 28.667 32.334 50 47.001s44.833 27.667 70.5 39s52.334 20.333 80.001 27s54.167 10 79.5 10c66 0 125.167 -11.667 177.5 -35s96.5 -55.166 132.5 -95.499s63.667 -88.166 83 -143.499s29 -115 29 -179
c0 -63.333 -9.5 -125.166 -28.5 -185.499s-46.667 -114 -83 -161s-81 -84.833 -134 -113.5s-113.833 -43 -182.5 -43c-8 0 -17.5 0.333008 -28.5 1s-22.333 1.66699 -34 3s-22.834 2.83301 -33.501 4.5s-19.667 3.5 -27 5.5v106c6 -3.33301 14 -6.16602 24 -8.49902
s20.5 -4.33301 31.5 -6s21.833 -3 32.5 -4s19.667 -1.5 27 -1.5c48.667 0 92.667 10 132 30s72.833 48 100.5 84s49 79.333 64 130s22.5 106.667 22.5 168c0 51.333 -7.5 98.166 -22.5 140.499s-36.333 78.5 -64 108.5s-61.167 53.333 -100.5 70s-83.333 25 -132 25
c-22.667 0 -46 -2.83301 -70 -8.5s-47.833 -14.5 -71.5 -26.5s-46.167 -27.167 -67.5 -45.5s-40.333 -40.166 -57 -65.499v-692h-109v1307z" />
    <glyph glyph-name="afii10052" unicode="&#x403;" horiz-adv-x="936" 
d="M920 1397v-90h-652v-1307h-108v1397h760zM815 1855l-311 -319h-68l213 319h166z" />
    <glyph glyph-name="afii10053" unicode="&#x404;" horiz-adv-x="1386" 
d="M1178 733l0.00292969 -90h-959c6 -82.667 25.667 -158.5 59 -227.5s77.333 -128.167 132 -177.5s118.667 -87.666 192 -114.999s153.333 -41 240 -41c39.333 0 78.333 2.66699 117 8s78.334 13.833 119.001 25.5s82.5 26.5 125.5 44.5s88.167 39.667 135.5 65v-112
c-80.667 -44 -162.834 -76.833 -246.501 -98.5s-166.5 -32.5 -248.5 -32.5c-106.667 0 -205.334 18 -296.001 54s-169.167 85.833 -235.5 149.5s-118.333 139.167 -156 226.5s-56.5 182 -56.5 284c0 71.333 9.33301 138.666 28 201.999s44.5 121.666 77.5 174.999
s72.333 101 118 143s95.667 77.833 150 107.5s112 52.334 173 68.001s123.5 23.5 187.5 23.5c78.667 0 158.667 -9.5 240 -28.5s165 -48.5 251 -88.5v-118c-88 46 -172 80 -252 102s-162 33 -246 33s-162 -14.5 -234 -43.5s-134.833 -69.5 -188.5 -121.5
s-96.834 -113.5 -129.501 -184.5s-51.334 -148.5 -56.001 -232.5h959z" />
    <glyph glyph-name="afii10054" unicode="&#x405;" horiz-adv-x="961" 
d="M113 231c38.667 -28 73.667 -51.4922 105 -70.4922s60.666 -34.333 87.999 -46s53.833 -20 79.5 -25s52.167 -7.5 79.5 -7.5c41.333 0 80 7.16699 116 21.5s67.167 34 93.5 59s47.166 54.5 62.499 88.5s23 70.333 23 109c0 50 -9.5 91.667 -28.5 125
s-44.167 61.666 -75.5 84.999s-67 43.333 -107 60l-122 49c-41.333 16 -82 33.167 -122 51.5s-75.667 41.166 -107 68.499s-56.5 60.666 -75.5 99.999s-28.5 87.666 -28.5 144.999c0 52 10.5 100.5 31.5 145.5s49.667 84.167 86 117.5s79 59.666 128 78.999
s101.167 29 156.5 29c108.667 0 216.334 -29.333 323.001 -88v-119c-36 20.667 -68 37.834 -96 51.501s-54 24.667 -78 33s-47.167 14.166 -69.5 17.499s-45.5 5 -69.5 5c-42 0 -81 -6.83301 -117 -20.5s-67.167 -32.334 -93.5 -56.001s-47 -51.667 -62 -84
s-22.5 -67.5 -22.5 -105.5c0 -46.667 9.5 -85.5 28.5 -116.5s44.167 -57.333 75.5 -79s67 -40.334 107 -56.001l122 -47c41.333 -15.667 82 -33.167 122 -52.5s75.667 -43.5 107 -72.5s56.5 -64.333 75.5 -106s28.5 -93.167 28.5 -154.5c0 -54 -10.5 -104.167 -31.5 -150.5
s-49.833 -86.833 -86.5 -121.5s-79.667 -61.834 -129 -81.501s-102.333 -29.5 -159 -29.5c-115.333 0 -234.666 40.667 -357.999 122v127z" />
    <glyph glyph-name="afii10055" unicode="&#x406;" horiz-adv-x="426" 
d="M268 1397v-1397h-108v1397h108z" />
    <glyph glyph-name="afii10056" unicode="&#x407;" horiz-adv-x="426" 
d="M268 1397v-1397h-108v1397h108zM395 1749c24.667 0 45.834 -8.83301 63.501 -26.5s26.5 -38.834 26.5 -63.501s-8.83301 -45.834 -26.5 -63.501s-38.834 -26.5 -63.501 -26.5s-45.834 8.83301 -63.501 26.5s-26.5 38.834 -26.5 63.501s8.83301 45.834 26.5 63.501
s38.834 26.5 63.501 26.5zM33 1749c24.667 0 45.834 -8.83301 63.501 -26.5s26.5 -38.834 26.5 -63.501s-8.83301 -45.834 -26.5 -63.501s-38.834 -26.5 -63.501 -26.5s-45.834 8.83301 -63.501 26.5s-26.5 38.834 -26.5 63.501s8.83301 45.834 26.5 63.501
s38.834 26.5 63.501 26.5z" />
    <glyph glyph-name="afii10057" unicode="&#x408;" horiz-adv-x="426" 
d="M276 1397v-1397c0 -72.667 -5.83301 -135 -17.5 -187s-33.5 -94 -65.5 -126c-20.667 -21.333 -40.5 -38.5 -59.5 -51.5s-39 -23 -60 -30s-44 -11 -69 -12s-53.833 0.166992 -86.5 3.5l-10 102c82 -18.667 145.833 -5 191.5 41s68.5 123 68.5 231v1426h108z" />
    <glyph glyph-name="afii10058" unicode="&#x409;" horiz-adv-x="1774" 
d="M641 1405l256.001 -614.001h334c80.667 0 150.5 -9.66699 209.5 -29s107.667 -46.166 146 -80.499s66.833 -75.333 85.5 -123s28 -100.167 28 -157.5c0 -58 -10.833 -111.5 -32.5 -160.5s-52.834 -91.333 -93.501 -127s-90.5 -63.5 -149.5 -83.5s-125.5 -30 -199.5 -30
h-113l-504 1225l-489 -1225h-113l576 1405h59zM1210 89.999c50.667 -2.66699 95 0.000976562 133 8.00098s70.833 19.5 98.5 34.5s50.5 33.167 68.5 54.5s32.5 43.833 43.5 67.5s18.667 48.167 23 73.5s6.5 49.666 6.5 72.999c0 35.333 -5.16699 70.833 -15.5 106.5
s-29.333 67.667 -57 96s-65.667 51.5 -114 69.5s-110.5 27 -186.5 27h-276l244 -608z" />
    <glyph glyph-name="afii10059" unicode="&#x40a;" horiz-adv-x="2152" 
d="M1202 0l0.000976562 662.001h-932v-662h-108v1397h108v-645h932v645h109v-645h309c72.667 0 137.5 -7.83301 194.5 -23.5s105 -38.834 144 -69.501s68.833 -68 89.5 -112s31 -94.667 31 -152c0 -58 -10.333 -111.167 -31 -159.5s-50.834 -90 -90.501 -125
s-88.5 -62.167 -146.5 -81.5s-124.333 -29 -199 -29h-410zM1311 662.001l0.00292969 -572.001h288c76 0 137.667 9.16699 185 27.5s84.166 42 110.499 71s44.166 61.333 53.499 97s14 70.834 14 105.501c0 35.333 -6.33301 69.333 -19 102s-33.334 61.5 -62.001 86.5
s-66 45 -112 60s-102.667 22.5 -170 22.5h-288z" />
    <glyph glyph-name="afii10060" unicode="&#x40b;" horiz-adv-x="1503" 
d="M582 905c14 3.33301 32.168 6.83203 54.501 10.499s46.833 7.16699 73.5 10.5s54 6.16602 82 8.49902s54.667 3.5 80 3.5c104 0 190.833 -14 260.5 -42s125.667 -66.167 168 -114.5s72.333 -105.166 90 -170.499s26.5 -135.333 26.5 -210v-401h-108v412
c0 140.667 -34.833 246.834 -104.5 318.501s-178.834 107.5 -327.501 107.5c-64.667 0 -122 -3.33301 -172 -10s-91 -13 -123 -19v-809h-109v1307h-463v90h1096v-90h-524v-402z" />
    <glyph glyph-name="afii10061" unicode="&#x40c;" horiz-adv-x="1120" 
d="M270 1397l-0.00488281 -637.001h56c35.333 0 66.833 3.5 94.5 10.5s52.834 18.333 75.501 34s43.334 36.334 62.001 62.001s36.667 57.167 54 94.5l129 276c15.333 32.667 31 59.334 47 80.001s33.167 37 51.5 49s38.5 20.167 60.5 24.5s47 6.5 75 6.5h49v-90h-51
c-23.333 0 -42.5 -2.16699 -57.5 -6.5s-27.833 -11.333 -38.5 -21s-20.167 -22.167 -28.5 -37.5s-17.5 -34 -27.5 -56l-108 -238c-12 -26 -25.667 -51.833 -41 -77.5s-31.166 -49.167 -47.499 -70.5s-32.666 -39.833 -48.999 -55.5s-31.5 -26.167 -45.5 -31.5
c27.333 -5.33301 52.5 -15.833 75.5 -31.5s45.167 -35.334 66.5 -59.001s42.5 -51 63.5 -82l65.5 -100.5l274 -440h-137l-240 410c-27.333 47.333 -54.166 87.333 -80.499 120s-52.833 59.5 -79.5 80.5s-54.167 36.167 -82.5 45.5s-58.5 14 -90.5 14h-95v-670h-108v1397h108
zM828.995 1810l-311 -319h-67l213 319h165z" />
    <glyph glyph-name="afii10062" unicode="&#x40e;" horiz-adv-x="1217" 
d="M1102 1397l108.002 -0.000976562l-493 -1299c-21.333 -54.667 -42.5 -102.167 -63.5 -142.5s-43.333 -73.5 -67 -99.5s-48.834 -45.333 -75.501 -58s-56.334 -19 -89.001 -19c-18.667 0 -37.5 1.16699 -56.5 3.5s-36.5 5.83301 -52.5 10.5s-30.333 10.334 -43 17.001
s-22.667 14 -30 22v117c8.66699 -15.333 19.5 -27.833 32.5 -37.5s27.333 -17.167 43 -22.5s32.334 -9 50.001 -11s35.834 -3 54.501 -3c16.667 0 33.5 3.33301 50.5 10s32.667 16.5 47 29.5s26.666 29 36.999 48s17.166 41.167 20.499 66.5l-569 1368h109l516 -1260z
M436.002 1776c43.333 -92 109.002 -138.002 197.002 -138.002c44 0 81.667 10.833 113 32.5s59.666 56.834 84.999 105.501h80c-28.667 -78 -66.167 -136.5 -112.5 -175.5s-100.833 -58.5 -163.5 -58.5c-32 0 -62.833 6 -92.5 18s-56.834 29.333 -81.501 52
c-10.667 10 -20.5 20.167 -29.5 30.5s-17.667 21.833 -26 34.5s-16.833 26.834 -25.5 42.501s-18 34.5 -28 56.5h84z" />
    <glyph glyph-name="afii10145" unicode="&#x40f;" horiz-adv-x="1475" 
d="M791 -242h-109v242h-520v1397h108v-1307h932v1307h109v-1397h-520v-242z" />
    <glyph glyph-name="afii10017" unicode="&#x410;" horiz-adv-x="1366" 
d="M713 1405l645 -1405h-113l-221 483h-682l-221 -483h-113l645 1405h60zM983 573l-301 656l-299 -656h600z" />
    <glyph glyph-name="afii10018" unicode="&#x411;" horiz-adv-x="1135" 
d="M272 1395l714.999 -0.000976562v-90h-715v-514h310c80.667 0 151 -9.66699 211 -29s109.833 -46.166 149.5 -80.499s69.334 -75.333 89.001 -123s29.5 -100.167 29.5 -157.5c0 -58 -11.333 -111.5 -34 -160.5s-55.167 -91.333 -97.5 -127s-93.5 -63.5 -153.5 -83.5
s-127.667 -30 -203 -30h-409v1397h108v-2zM271.999 699.999v-610h289c76 0 138.667 9.66699 188 29s88.5 44.166 117.5 74.499s49.167 63.833 60.5 100.5s17 72.334 17 107.001c0 35.333 -5.66699 70.833 -17 106.5s-31.5 67.667 -60.5 96s-68.167 51.5 -117.5 69.5
s-112 27 -188 27h-289z" />
    <glyph glyph-name="afii10019" unicode="&#x412;" horiz-adv-x="1116" 
d="M164 1397l291.003 0.00195312c94 0 171.167 -11.167 231.5 -33.5s107.666 -51 141.999 -86s58.166 -73.833 71.499 -116.5s20 -84.334 20 -125.001c0 -70 -16.333 -129.833 -49 -179.5s-83.334 -93.5 -152.001 -131.5c108 -22.667 188.833 -63.834 242.5 -123.501
s80.5 -136.5 80.5 -230.5c0 -57.333 -11 -109 -33 -155s-53.5 -85 -94.5 -117s-90.333 -56.5 -148 -73.5s-122.167 -25.5 -193.5 -25.5h-409v1397zM272.003 1307l0.00195312 -556.998h150c71.333 0 131.166 6.66699 179.499 20s87.5 32.166 117.5 56.499
s51.5 53.666 64.5 87.999s19.5 72.166 19.5 113.499c0 53.333 -9.83301 97.833 -29.5 133.5s-46.834 64.334 -81.501 86.001s-75.5 37 -122.5 46s-97.5 13.5 -151.5 13.5h-146zM272.005 659.004l-0.000976562 -568.999h289c72 0 131.667 8.83301 179 26.5
s84.666 40.167 111.999 67.5s46.5 57.666 57.5 90.999s16.5 66 16.5 98c0 34 -5.66699 68.167 -17 102.5s-32.166 65 -62.499 92s-72.166 49 -125.499 66s-122.333 25.5 -207 25.5h-242z" />
    <glyph glyph-name="afii10020" unicode="&#x413;" horiz-adv-x="930" 
d="M920 1397v-90h-652v-1307h-108v1397h760z" />
    <glyph glyph-name="afii10021" unicode="&#x414;" horiz-adv-x="1391" 
d="M725 1405l565 -1315h80v-401h-108v311h-1133v-311h-109v401h80l566 1315h59zM692 1225l-479 -1135h965z" />
    <glyph glyph-name="afii10022" unicode="&#x415;" horiz-adv-x="1004" 
d="M926 1397v-90h-654v-559h637v-91h-637v-567h670v-90h-778v1397h762z" />
    <glyph glyph-name="afii10024" unicode="&#x416;" horiz-adv-x="1755" 
d="M823 760l-0.00878906 636.999h109v-637h29c35.333 0 66.833 3.5 94.5 10.5s52.834 18.333 75.501 34s43.334 36.334 62.001 62.001s36.667 57.167 54 94.5l129 276c15.333 32.667 31 59.334 47 80.001s33.167 37 51.5 49s38.5 20.167 60.5 24.5s47 6.5 75 6.5h49v-90h-51
c-24 0 -43.5 -2.16699 -58.5 -6.5s-27.667 -11.333 -38 -21s-19.666 -22.167 -27.999 -37.5s-17.5 -34 -27.5 -56l-108 -238c-11.333 -25.333 -24.666 -50.666 -39.999 -75.999s-31.666 -48.833 -48.999 -70.5s-35 -40.334 -53 -56.001s-35 -26.5 -51 -32.5
c32 -8.66699 60.5 -21.167 85.5 -37.5s48.333 -36 70 -59s42.5 -49.333 62.5 -79l63 -97.5l274 -440h-137l-240 410c-27.333 47.333 -55.166 87.333 -83.499 120s-56.833 59.5 -85.5 80.5s-57.834 36.167 -87.501 45.5s-59.5 14 -89.5 14h-55v-670h-109v670h-55
c-30 0 -59.833 -4.66699 -89.5 -14s-58.834 -24.5 -87.501 -45.5s-57.167 -47.833 -85.5 -80.5s-56.166 -72.667 -83.499 -120l-240 -410h-137l274 440l63.5 97.5c20.333 29.667 41.333 56 63 79s45 42.667 70 59s53.167 28.833 84.5 37.5c-16 6 -32.833 17 -50.5 33
s-35.167 34.667 -52.5 56s-33.666 44.833 -48.999 70.5s-28.666 50.834 -39.999 75.501l-109 238c-10 22 -19.167 40.667 -27.5 56s-17.833 27.833 -28.5 37.5s-23.5 16.667 -38.5 21s-34.167 6.5 -57.5 6.5h-51v90h49c28 0 53 -2.16699 75 -6.5s42.333 -12.5 61 -24.5
s35.834 -28.333 51.501 -49s31.167 -47.334 46.5 -80.001l129 -276c17.333 -37.333 35.333 -68.833 54 -94.5s39.334 -46.334 62.001 -62.001s48 -27 76 -34s59.667 -10.5 95 -10.5h28z" />
    <glyph glyph-name="afii10025" unicode="&#x417;" horiz-adv-x="1024" 
d="M223 686l-0.00292969 98.0029h269c52.667 0 99.167 8.33301 139.5 25s74.333 38 102 64s48.5 55.167 62.5 87.5s21 63.833 21 94.5c0 44 -8.16699 82.333 -24.5 115s-39.833 60 -70.5 82s-68 38.333 -112 49s-93.667 16 -149 16c-30 0 -61.5 -1.83301 -94.5 -5.5
s-66.167 -9.16699 -99.5 -16.5s-65.833 -16.833 -97.5 -28.5s-61.5 -25.5 -89.5 -41.5v100c24.667 15.333 53.334 28.666 86.001 39.999s67.167 20.666 103.5 27.999s73.333 12.833 111 16.5s73.834 5.5 108.501 5.5c58.667 0 114.834 -7 168.501 -21s101 -35 142 -63
s73.667 -63.167 98 -105.5s36.5 -91.833 36.5 -148.5c0 -31.333 -5.83301 -64 -17.5 -98s-28 -66.5 -49 -97.5s-46.333 -58.833 -76 -83.5s-62.167 -43 -97.5 -55c28 -9.33301 57.333 -23.5 88 -42.5s58.5 -43.167 83.5 -72.5s45.667 -64.333 62 -105
s24.5 -87.334 24.5 -140.001s-7.33301 -99 -22 -139s-34.667 -75 -60 -105s-54.5 -55 -87.5 -75s-68 -36 -105 -48s-74.5 -20.667 -112.5 -26s-74.667 -8 -110 -8c-34 0 -68.5 1.83301 -103.5 5.5s-69.5 8.66699 -103.5 15s-67 13.833 -99 22.5s-62 18 -90 28v109
c25.333 -13.333 53.333 -25 84 -35s62.5 -18.5 95.5 -25.5s66.833 -12.333 101.5 -16s68.667 -5.5 102 -5.5c48 0 95.667 5.83301 143 17.5s89.5 29.834 126.5 54.501s67 56.167 90 94.5s34.5 83.833 34.5 136.5c0 46.667 -8.66699 88.667 -26 126
s-42.333 69.166 -75 95.499s-72 46.5 -118 60.5s-98 21 -156 21h-238z" />
    <glyph glyph-name="afii10026" unicode="&#x418;" horiz-adv-x="1473" 
d="M1311 1397v-1397h-109v1204l-962 -1204h-78v1397h108v-1217l971 1217h70z" />
    <glyph glyph-name="afii10027" unicode="&#x419;" horiz-adv-x="1473" 
d="M1311 1397v-1397h-109v1204l-962 -1204h-78v1397h108v-1217l971 1217h70zM539 1776c43.333 -92 108.665 -138 195.998 -138c44 0 81.833 10.833 113.5 32.5s60.167 56.834 85.5 105.501h80c-59.333 -156 -151.666 -234 -276.999 -234c-30.667 0 -61.167 6 -91.5 18
s-57.833 29.333 -82.5 52c-10.667 10 -20.5 20.167 -29.5 30.5s-17.667 21.666 -26 33.999s-16.666 26.5 -24.999 42.5s-17.5 35 -27.5 57h84z" />
    <glyph glyph-name="afii10028" unicode="&#x41a;" horiz-adv-x="1120" 
d="M270 1397l-0.00488281 -637.001h56c35.333 0 66.833 3.5 94.5 10.5s52.834 18.333 75.501 34s43.334 36.334 62.001 62.001s36.667 57.167 54 94.5l129 276c15.333 32.667 31 59.334 47 80.001s33.167 37 51.5 49s38.5 20.167 60.5 24.5s47 6.5 75 6.5h49v-90h-51
c-23.333 0 -42.5 -2.16699 -57.5 -6.5s-27.833 -11.333 -38.5 -21s-20.167 -22.167 -28.5 -37.5s-17.5 -34 -27.5 -56l-108 -238c-12 -26 -25.667 -51.833 -41 -77.5s-31.166 -49.167 -47.499 -70.5s-32.666 -39.833 -48.999 -55.5s-31.5 -26.167 -45.5 -31.5
c27.333 -5.33301 52.5 -15.833 75.5 -31.5s45.167 -35.334 66.5 -59.001s42.5 -51 63.5 -82l65.5 -100.5l274 -440h-137l-240 410c-27.333 47.333 -54.166 87.333 -80.499 120s-52.833 59.5 -79.5 80.5s-54.167 36.167 -82.5 45.5s-58.5 14 -90.5 14h-95v-670h-108v1397h108
z" />
    <glyph glyph-name="afii10029" unicode="&#x41b;" horiz-adv-x="1366" 
d="M713 1405l645 -1405h-113l-565 1225l-559 -1225h-113l645 1405h60z" />
    <glyph glyph-name="afii10030" unicode="&#x41c;" horiz-adv-x="1599" 
d="M799 748l532 649h109v-1397h-109v1239h-4l-528 -653l-529 653h-4v-1239h-108v1397h108z" />
    <glyph glyph-name="afii10031" unicode="&#x41d;" horiz-adv-x="1473" 
d="M1311 1397v-1397h-109v662h-932v-662h-108v1397h108v-645h932v645h109z" />
    <glyph glyph-name="afii10032" unicode="&#x41e;" horiz-adv-x="1686" 
d="M1583 698c0 -100 -19.166 -193.502 -57.499 -280.502s-90.833 -162.833 -157.5 -227.5s-145 -115.5 -235 -152.5s-187 -55.5 -291 -55.5c-68.667 0 -134.667 8.5 -198 25.5s-122.333 40.833 -177 71.5s-104.334 67.667 -149.001 111s-82.834 91.5 -114.501 144.5
s-56.167 110.167 -73.5 171.5s-26 125.333 -26 192s8.66699 130.834 26 192.501s41.833 119 73.5 172s69.834 101.167 114.501 144.5s94.334 80.5 149.001 111.5s113.667 54.833 177 71.5s129.333 25 198 25c69.333 0 135.666 -8.33301 198.999 -25s122.5 -40.5 177.5 -71.5
s104.833 -68.167 149.5 -111.5s83 -91.5 115 -144.5s56.667 -110.167 74 -171.5s26 -125.666 26 -192.999zM1466 697.998c0 87.333 -15.833 168.5 -47.5 243.5s-75.334 140.167 -131.001 195.5s-121.334 98.833 -197.001 130.5s-157.167 47.5 -244.5 47.5
s-169 -15.833 -245 -47.5s-142.167 -75.167 -198.5 -130.5s-100.666 -120.5 -132.999 -195.5s-48.5 -156.167 -48.5 -243.5c0 -86.667 16.167 -167.667 48.5 -243s76.666 -140.5 132.999 -195.5s122.5 -98.333 198.5 -130s157.667 -47.5 245 -47.5
s168.833 15.833 244.5 47.5s141.334 75 197.001 130s99.334 120.167 131.001 195.5s47.5 156.333 47.5 243z" />
    <glyph glyph-name="afii10033" unicode="&#x41f;" horiz-adv-x="1473" 
d="M1311 1397v-1397h-109v1307h-932v-1307h-108v1397h1149z" />
    <glyph glyph-name="afii10034" unicode="&#x420;" horiz-adv-x="1044" 
d="M160 1397l385.003 -0.000976562c82 0 151.833 -9.83301 209.5 -29.5s104.667 -46.167 141 -79.5s63 -72.5 80 -117.5s25.5 -92.5 25.5 -142.5c0 -44.667 -7.33301 -89.5 -22 -134.5s-39.834 -85.167 -75.501 -120.5s-83.334 -64.166 -143.001 -86.499
s-134.834 -33.5 -225.501 -33.5h-267v-653h-108v1397zM268.003 1307l-0.00195312 -564h260c65.333 0 120.5 7.33301 165.5 22s81.833 34.834 110.5 60.501s49.334 55.667 62.001 90s19 71.166 19 110.499c0 38 -6.5 74 -19.5 108s-33.333 63.833 -61 89.5
s-63.167 46 -106.5 61s-95.666 22.5 -156.999 22.5h-273z" />
    <glyph glyph-name="afii10035" unicode="&#x421;" horiz-adv-x="1386" 
d="M1339 113c-80.667 -44 -162.833 -76.8311 -246.5 -98.498s-166.5 -32.5 -248.5 -32.5c-106.667 0 -205.334 18 -296.001 54s-169.167 85.833 -235.5 149.5s-118.333 139.167 -156 226.5s-56.5 182 -56.5 284c0 71.333 9.33301 138.666 28 201.999
s44.5 121.666 77.5 174.999s72.333 101 118 143s95.667 77.833 150 107.5s112 52.334 173 68.001s123.5 23.5 187.5 23.5c78.667 0 158.667 -9.5 240 -28.5s165 -48.5 251 -88.5v-118c-88 46 -172 80 -252 102s-162 33 -246 33c-86.667 0 -167.334 -15.667 -242.001 -47
s-139.167 -74.5 -193.5 -129.5s-97 -120.333 -128 -196s-46.5 -157.834 -46.5 -246.501c0 -90 15.5 -172.667 46.5 -248s74.167 -140 129.5 -194s121.333 -96.167 198 -126.5s160.334 -45.5 251.001 -45.5c39.333 0 78.333 2.66699 117 8s78.334 13.833 119.001 25.5
s82.5 26.5 125.5 44.5s88.167 39.667 135.5 65v-112z" />
    <glyph glyph-name="afii10036" unicode="&#x422;" horiz-adv-x="1174" 
d="M1165 1397v-90h-524v-1307h-109v1307h-524v90h1157z" />
    <glyph glyph-name="afii10037" unicode="&#x423;" horiz-adv-x="1217" 
d="M1102 1397l108.002 -0.000976562l-493 -1299c-21.333 -54.667 -42.5 -102.167 -63.5 -142.5s-43.333 -73.5 -67 -99.5s-48.834 -45.333 -75.501 -58s-56.334 -19 -89.001 -19c-18.667 0 -37.5 1.16699 -56.5 3.5s-36.5 5.83301 -52.5 10.5s-30.333 10.334 -43 17.001
s-22.667 14 -30 22v117c8.66699 -15.333 19.5 -27.833 32.5 -37.5s27.333 -17.167 43 -22.5s32.334 -9 50.001 -11s35.834 -3 54.501 -3c16.667 0 33.5 3.33301 50.5 10s32.667 16.5 47 29.5s26.666 29 36.999 48s17.166 41.167 20.499 66.5l-569 1368h109l516 -1260z" />
    <glyph glyph-name="afii10038" unicode="&#x424;" horiz-adv-x="1569" 
d="M838 1415v-135c96.667 0 186.834 -12.333 270.501 -37s156.167 -61.5 217.5 -110.5s109.666 -109.667 144.999 -182s53 -156.5 53 -252.5s-17.5 -179.833 -52.5 -251.5s-83.167 -131.334 -144.5 -179.001s-133.833 -83.334 -217.5 -107.001s-174.167 -35.5 -271.5 -35.5
v-143h-101v143c-97.333 0 -188.166 11.833 -272.499 35.5s-157.5 59.167 -219.5 106.5s-110.833 107 -146.5 179s-53.5 156 -53.5 252s17.833 180.333 53.5 253s84.5 133.334 146.5 182.001s135.167 85.334 219.5 110.001s175.166 37 272.499 37v135h101zM838 221
c80.667 0 155.667 9.5 225 28.5s129.5 48 180.5 87s91 88.5 120 148.5s43.5 131 43.5 213c0 82.667 -14.5 154.5 -43.5 215.5s-69 111.5 -120 151.5s-111.167 69.833 -180.5 89.5s-144.333 29.5 -225 29.5v-963zM737 1184c-81.333 0 -157 -9.83301 -227 -29.5
s-130.833 -49.5 -182.5 -89.5s-92.167 -90.5 -121.5 -151.5s-44 -132.833 -44 -215.5c0 -82 14.667 -153 44 -213s69.833 -109.5 121.5 -148.5s112.5 -68 182.5 -87s145.667 -28.5 227 -28.5v963z" />
    <glyph glyph-name="afii10039" unicode="&#x425;" horiz-adv-x="1409" 
d="M705 795l530 602h139l-600 -682l635 -715h-139l-565 639l-566 -639h-139l633 715l-600 682h139z" />
    <glyph glyph-name="afii10040" unicode="&#x426;" horiz-adv-x="1489" 
d="M1311 1397v-1307h157v-332h-108v242h-1198v1397h108v-1307h932v1307h109z" />
    <glyph glyph-name="afii10041" unicode="&#x427;" horiz-adv-x="1192" 
d="M1030 1397v-1397h-108v580c-14 -3.33301 -32.333 -6.83301 -55 -10.5s-47.334 -7.16699 -74.001 -10.5s-54 -6.16602 -82 -8.49902s-54.667 -3.5 -80 -3.5c-104 0 -190.833 14 -260.5 42s-125.667 66.333 -168 115s-72.333 105.667 -90 171s-26.5 135.333 -26.5 210v312
h109v-322c0 -141.333 34.833 -248 104.5 -320s178.834 -108 327.501 -108c64.667 0 122 3.33301 172 10s91 13 123 19v721h108z" />
    <glyph glyph-name="afii10042" unicode="&#x428;" horiz-adv-x="1960" 
d="M926 90v1307h108v-1307h656v1307h108v-1397h-1636v1397h108v-1307h656z" />
    <glyph glyph-name="afii10043" unicode="&#x429;" horiz-adv-x="1976" 
d="M926 90v1307h108v-1307h656v1307h108v-1307h158v-332h-109v242h-1685v1397h108v-1307h656z" />
    <glyph glyph-name="afii10044" unicode="&#x42a;" horiz-adv-x="1278" 
d="M307 0v1307h-297v90h406v-606h309c81.333 0 152 -9.66699 212 -29s109.667 -46.166 149 -80.499s68.833 -75.333 88.5 -123s29.5 -100.167 29.5 -157.5c0 -58 -11.333 -111.5 -34 -160.5s-55.167 -91.333 -97.5 -127s-93.5 -63.5 -153.5 -83.5s-127.333 -30 -202 -30
h-410zM416 699.999v-610h289c76 0 138.5 9.66699 187.5 29s88 44.166 117 74.499s49.167 63.833 60.5 100.5s17 72.334 17 107.001c0 35.333 -5.66699 70.833 -17 106.5s-31.5 67.667 -60.5 96s-68 51.5 -117 69.5s-111.5 27 -187.5 27h-289z" />
    <glyph glyph-name="afii10045" unicode="&#x42b;" horiz-adv-x="1581" 
d="M164 0l-0.000976562 1397h108v-606h310c80.667 0 151 -9.66699 211 -29s109.833 -46.166 149.5 -80.499s69.334 -75.333 89.001 -123s29.5 -100.167 29.5 -157.5c0 -58 -11.333 -111.5 -34 -160.5s-55.167 -91.333 -97.5 -127s-93.5 -63.5 -153.5 -83.5
s-127.667 -30 -203 -30h-409zM271.999 699.999v-610h289c76 0 138.667 9.66699 188 29s88.5 44.166 117.5 74.499s49.167 63.833 60.5 100.5s17 72.334 17 107.001c0 35.333 -5.66699 70.833 -17 106.5s-31.5 67.667 -60.5 96s-68.167 51.5 -117.5 69.5s-112 27 -188 27
h-289zM1417 1397v-1397h-108v1397h108z" />
    <glyph glyph-name="afii10046" unicode="&#x42c;" horiz-adv-x="1135" 
d="M164 0l-0.000976562 1397h108v-606h310c80.667 0 151 -9.66699 211 -29s109.833 -46.166 149.5 -80.499s69.334 -75.333 89.001 -123s29.5 -100.167 29.5 -157.5c0 -58 -11.333 -111.5 -34 -160.5s-55.167 -91.333 -97.5 -127s-93.5 -63.5 -153.5 -83.5
s-127.667 -30 -203 -30h-409zM271.999 699.999v-610h289c76 0 138.667 9.66699 188 29s88.5 44.166 117.5 74.499s49.167 63.833 60.5 100.5s17 72.334 17 107.001c0 35.333 -5.66699 70.833 -17 106.5s-31.5 67.667 -60.5 96s-68.167 51.5 -117.5 69.5s-112 27 -188 27
h-289z" />
    <glyph glyph-name="afii10047" unicode="&#x42d;" horiz-adv-x="1386" 
d="M260 643l0.000976562 90h895c-4.66699 84 -23.167 161.5 -55.5 232.5s-75.5 132.5 -129.5 184.5s-117 92.5 -189 121.5s-150 43.5 -234 43.5s-166 -11 -246 -33s-164 -56 -252 -102v118c86 40 169.833 69.5 251.5 88.5s161.834 28.5 240.501 28.5
c64 0 126.5 -7.83301 187.5 -23.5s118.667 -38.334 173 -68.001s104.333 -65.5 150 -107.5s85 -89.667 118 -143s58.667 -111.666 77 -174.999s27.5 -130.666 27.5 -201.999c0 -102 -18.833 -196.667 -56.5 -284s-89.667 -162.833 -156 -226.5
s-144.833 -113.5 -235.5 -149.5s-189.334 -54 -296.001 -54c-80.667 0 -162.834 10.833 -246.501 32.5s-166.5 54.5 -248.5 98.5v112c47.333 -25.333 92.5 -47 135.5 -65s84.833 -32.833 125.5 -44.5s80.5 -20.167 119.5 -25.5s77.833 -8 116.5 -8
c86.667 0 166.667 13.667 240 41s137.333 65.666 192 114.999s98.667 108.5 132 177.5s53 144.833 59 227.5h-895z" />
    <glyph glyph-name="afii10048" unicode="&#x42e;" horiz-adv-x="2050" 
d="M270 0l-108.002 -0.00195312v1397h108v-656h199c6 95.333 28.833 184 68.5 266s92.334 153.333 158.001 214s141.834 108.167 228.501 142.5s180 51.5 280 51.5c69.333 0 135.833 -8.33301 199.5 -25s123 -40.5 178 -71.5s104.833 -68.167 149.5 -111.5
s83 -91.5 115 -144.5s56.667 -110.167 74 -171.5s26 -125.666 26 -192.999c0 -100 -19.167 -193.5 -57.5 -280.5s-90.833 -162.833 -157.5 -227.5s-145.167 -115.5 -235.5 -152.5s-187.5 -55.5 -291.5 -55.5c-66 0 -129.5 7.66699 -190.5 23s-118 37.333 -171 66
s-101.5 63 -145.5 103s-82.333 84.833 -115 134.5s-58.667 103.334 -78 161.001s-31 118.167 -35 181.5h-199v-651zM1829 697.998c0 58 -7.16895 113.668 -21.502 167.001s-34.833 102.833 -61.5 148.5s-58.667 87 -96 124s-79 68.667 -125 95s-95.667 46.666 -149 60.999
s-109.333 21.5 -168 21.5c-87.333 0 -169 -15.833 -245 -47.5s-142 -75.167 -198 -130.5s-100.167 -120.5 -132.5 -195.5s-48.5 -156.167 -48.5 -243.5c0 -58 7.33301 -113.5 22 -166.5s35.334 -102.333 62.001 -148s58.834 -87 96.501 -124s79.667 -68.667 126 -95
s96.333 -46.666 150 -60.999s109.5 -21.5 167.5 -21.5c58.667 0 114.667 7.16699 168 21.5s103 34.666 149 60.999s87.667 58 125 95s69.333 78.333 96 124s47.167 95 61.5 148s21.5 108.5 21.5 166.5z" />
    <glyph glyph-name="afii10049" unicode="&#x42f;" horiz-adv-x="1219" 
d="M1057 0l-109.002 0.00195312v616h-170c-43.333 0 -82.166 -1.66699 -116.499 -5s-67 -12.666 -98 -27.999s-61.833 -38.5 -92.5 -69.5s-64 -74.5 -100 -130.5l-244 -383h-127l299 451c34 50 68.667 91.167 104 123.5s71 53.833 107 64.5
c-46.667 8.66699 -88.667 25.167 -126 49.5s-69.166 53.166 -95.499 86.499s-46.5 70 -60.5 110s-21 80.333 -21 121c0 46.667 9.5 93.167 28.5 139.5s48.5 88.166 88.5 125.499s91 67.666 153 90.999s135.667 35 221 35h359v-1397zM947.998 707.002l0.000976562 600h-227
c-64 0 -120.667 -8.33301 -170 -25s-90.833 -38.834 -124.5 -66.501s-59.167 -59.667 -76.5 -96s-26 -74.166 -26 -113.499c0 -42 6.83301 -81.167 20.5 -117.5s34.5 -68 62.5 -95s63.167 -48.167 105.5 -63.5s92.166 -23 149.499 -23h286z" />
    <glyph glyph-name="afii10065" unicode="&#x430;" horiz-adv-x="874" 
d="M610 668c0 125.333 -68.0039 188.003 -204.004 188.003c-24.667 0 -48.167 -2.16699 -70.5 -6.5s-44.666 -11.333 -66.999 -21s-45.166 -21.834 -68.499 -36.501s-48.333 -32.334 -75 -53.001v101c28 17.333 54.667 32.166 80 44.499s49.833 22.5 73.5 30.5
s47.334 13.833 71.001 17.5s47.834 5.5 72.501 5.5c29.333 0 60.666 -3.5 93.999 -10.5s64.333 -19.5 93 -37.5s52.5 -42.5 71.5 -73.5s28.5 -70.5 28.5 -118.5v-573c0 -18.667 1.66699 -31.167 5 -37.5s9 -9.5 17 -9.5c5.33301 0 13 2.5 23 7.5s21 11.333 33 19
s24.5 16.334 37.5 26.001s25.5 19.5 37.5 29.5v-82l-16 -12c-23.333 -17.333 -43.333 -31.5 -60 -42.5s-31.5 -19.5 -44.5 -25.5s-24.667 -10.167 -35 -12.5s-20.5 -3.5 -30.5 -3.5c-10.667 0 -19.834 1.66699 -27.501 5s-14 9.16602 -19 17.499s-9 20 -12 35
s-5.5 33.833 -7.5 56.5c-52 -40 -100.5 -69 -145.5 -87s-92.5 -27 -142.5 -27c-34.667 0 -67.167 6.16699 -97.5 18.5s-56.666 29 -78.999 50s-39.833 45.667 -52.5 74s-19 58.5 -19 90.5c0 40 7 75.833 21 107.5s33.5 59.667 58.5 84s54.333 45 88 62
s70.334 31.333 110.001 43s81.5 20.667 125.5 27s88.333 10.5 133 12.5v117zM609.996 469.003c-60 2.66699 -116.499 -1.49805 -169.499 -12.498s-99.333 -27.833 -139 -50.5s-71.167 -50.167 -94.5 -82.5s-35 -68.5 -35 -108.5c0 -21.333 4.66699 -41.333 14 -60
s22 -34.834 38 -48.501s35.167 -24.334 57.5 -32.001s46.5 -11.5 72.5 -11.5c22 0 43.167 2.16699 63.5 6.5s40.666 11.333 60.999 21s41.333 22 63 37s44.5 33.167 68.5 54.5v287z" />
    <glyph glyph-name="afii10066" unicode="&#x431;" horiz-adv-x="1067" 
d="M86 500c0 150 13.998 278.17 41.998 384.503s70.167 194.666 126.5 264.999s126.833 124.666 211.5 162.999s183.334 64.5 296.001 78.5l194 24l-16 -94l-207 -25c-91.333 -11.333 -169.333 -32.5 -234 -63.5s-118.167 -70.333 -160.5 -118s-74.833 -102.667 -97.5 -165
s-38 -130.5 -46 -204.5c44 64.667 95.5 113 154.5 145s120.833 48 185.5 48c67.333 0 128.333 -12.167 183 -36.5s101.5 -57.833 140.5 -100.5s69.167 -93.167 90.5 -151.5s32 -121.833 32 -190.5c0 -68 -10.667 -131.167 -32 -189.5s-51.5 -108.833 -90.5 -151.5
s-85.833 -76 -140.5 -100s-115.667 -36 -183 -36c-66.667 0 -127.667 11.833 -183 35.5s-102.666 57.667 -141.999 102s-69.833 98.666 -91.5 162.999s-32.5 136.833 -32.5 217.5zM876.998 459.003c0 54.667 -8.16699 105.334 -24.5 152.001s-39.5 87.167 -69.5 121.5
s-66 61.166 -108 80.499s-88.667 29 -140 29c-52 0 -99.333 -9.66699 -142 -29s-79 -46 -109 -80s-53.167 -74.333 -69.5 -121s-24.5 -97.667 -24.5 -153c0 -54.667 8.16699 -105.334 24.5 -152.001s39.5 -87 69.5 -121s66.333 -60.5 109 -79.5s90 -28.5 142 -28.5
c51.333 0 98 9.5 140 28.5s78 45.5 108 79.5s53.167 74.333 69.5 121s24.5 97.334 24.5 152.001z" />
    <glyph glyph-name="afii10067" unicode="&#x432;" horiz-adv-x="868" 
d="M127 0l-0.00195312 920h309c55.333 0 102.833 -6.83301 142.5 -20.5s72.334 -31.167 98.001 -52.5s44.667 -45.5 57 -72.5s18.5 -53.833 18.5 -80.5c0 -22.667 -3.83301 -45.5 -11.5 -68.5s-18.667 -44.5 -33 -64.5s-31.5 -37.667 -51.5 -53s-42.667 -27 -68 -35
c68.667 -8 121.334 -32.667 158.001 -74s55 -93 55 -155c0 -38.667 -8 -73 -24 -103s-38.333 -55.5 -67 -76.5s-62.667 -37 -102 -48s-82.333 -16.5 -129 -16.5h-352zM224.998 840v-333.999h191c40 0 74.5 5 103.5 15s53 23 72 39s33 34.167 42 54.5s13.5 40.833 13.5 61.5
c0 27.333 -6 51.166 -18 71.499s-29 37.333 -51 51s-48 24 -78 31s-63 10.5 -99 10.5h-176zM224.998 426.001l0.000976562 -346h250c43.333 0 79.166 5.5 107.499 16.5s50.833 25.333 67.5 43s28.5 37.5 35.5 59.5s10.5 44.333 10.5 67c0 28.667 -6.5 53.167 -19.5 73.5
s-30.5 36.833 -52.5 49.5s-47.833 22 -77.5 28s-61.5 9 -95.5 9h-226z" />
    <glyph glyph-name="afii10068" unicode="&#x433;" horiz-adv-x="731" 
d="M717 920v-91h-475v-829h-99v920h574z" />
    <glyph glyph-name="afii10069" unicode="&#x434;" horiz-adv-x="991" 
d="M971 80v-322h-90v242h-770v-242h-91v322h72l383 858h62l362 -858h72zM502 774l-309 -694h608z" />
    <glyph glyph-name="afii10070" unicode="&#x435;" horiz-adv-x="981" 
d="M895 104c-54.667 -42 -110.668 -72.832 -168.001 -92.499s-119.333 -29.5 -186 -29.5s-128.167 12.167 -184.5 36.5s-104.833 58.166 -145.5 101.499s-72.334 95 -95.001 155s-34 125.333 -34 196c0 67.333 10.5 129.5 31.5 186.5s50.333 106.333 88 148
s82.334 74.167 134.001 97.5s107.834 35 168.501 35c49.333 0 98.166 -8.66699 146.499 -26s91.833 -44.166 130.5 -80.499s70 -82.333 94 -138s36 -122.167 36 -199.5h-725c-1.33301 -8.66699 -2 -16.667 -2 -24v-24c0 -52.667 10 -101.334 30 -146.001s47 -83.5 81 -116.5
s73.333 -58.833 118 -77.5s91.334 -28 140.001 -28c61.333 0 118.833 10.833 172.5 32.5s110.167 56.5 169.5 104.5v-111zM794.999 573.001c-35.333 179.333 -132.333 269 -291 269c-38 0 -73.667 -6.16699 -107 -18.5s-63.166 -30 -89.499 -53s-48.833 -51.167 -67.5 -84.5
s-32.334 -71 -41.001 -113h596z" />
    <glyph glyph-name="afii10072" unicode="&#x436;" horiz-adv-x="1270" 
d="M590 520l0.000976562 399.997h90v-400h29c18 0 36.167 2.5 54.5 7.5s35.833 13.333 52.5 25s32.334 26.667 47.001 45s27.334 40.5 38.001 66.5l45 114c21.333 52.667 49 89.5 83 110.5s74 31.5 120 31.5h39v-91h-39c-16.667 0 -31 -1.66699 -43 -5
s-22.5 -8.5 -31.5 -15.5s-17 -16 -24 -27s-13.833 -24.5 -20.5 -40.5l-43 -102c-6.66699 -16.667 -15.334 -33.834 -26.001 -51.501s-22.334 -34.167 -35.001 -49.5s-25.834 -28.333 -39.501 -39s-27.167 -17.334 -40.5 -20.001c19.333 -6.66699 37.333 -15 54 -25
s33.334 -23.167 50.001 -39.5s34 -36.833 52 -61.5s37.667 -55 59 -91l158 -262h-109l-160 266c-18 30.667 -36.167 57 -54.5 79s-38.166 40 -59.499 54s-44.666 24.333 -69.999 31s-54 10 -86 10v-440h-90v440c-32 0 -60.667 -3.33301 -86 -10s-48.5 -17 -69.5 -31
s-40.833 -32 -59.5 -54s-37.334 -48.333 -56.001 -79l-159 -266h-109l158 262c21.333 36 40.833 66.333 58.5 91s35 45.334 52 62.001s33.833 29.834 50.5 39.501s34.667 17.834 54 24.501c-12.667 2.66699 -26 9.33398 -40 20.001s-27.333 23.667 -40 39
s-24.334 31.833 -35.001 49.5s-19.334 34.834 -26.001 51.501l-43 102c-12.667 31.333 -27.667 53.833 -45 67.5s-42 20.5 -74 20.5h-39v91h39c46 0 86 -10.5 120 -31.5s61.667 -57.833 83 -110.5l45 -114c10.667 -26 23.167 -48.167 37.5 -66.5s29.833 -33.333 46.5 -45
s34.167 -20 52.5 -25s36.833 -7.5 55.5 -7.5h29z" />
    <glyph glyph-name="afii10073" unicode="&#x437;" horiz-adv-x="811" 
d="M217 442l-0.000976562 80.001h156c42.667 0 80 5.16699 112 15.5s58.667 23.833 80 40.5s37.333 35.334 48 56.001s16 41.334 16 62.001c0 30 -6 55.167 -18 75.5s-29 37 -51 50s-48.667 22.333 -80 28s-66.333 8.5 -105 8.5c-50 0 -100.333 -7.33301 -151 -22
s-98 -33.334 -142 -56.001v84c20.667 10 43.334 19.5 68.001 28.5s50.667 16.833 78 23.5s55.333 12 84 16s57 6 85 6c42.667 0 84.167 -4.5 124.5 -13.5s76.166 -22.5 107.499 -40.5s56.5 -40.833 75.5 -68.5s28.5 -60.5 28.5 -98.5
c0 -25.333 -4.83301 -49.833 -14.5 -73.5s-22.5 -45.334 -38.5 -65.001s-34.5 -37 -55.5 -52s-42.833 -26.5 -65.5 -34.5c14 -4 31.667 -11.667 53 -23s42 -26.833 62 -46.5s37.333 -43.834 52 -72.501s22 -62.667 22 -102c0 -50 -12.167 -92 -36.5 -126
s-55 -61.333 -92 -82s-77 -35.5 -120 -44.5s-83.167 -13.5 -120.5 -13.5c-54.667 0 -108.5 4.16699 -161.5 12.5s-103.5 21.833 -151.5 40.5v88c48 -22.667 96.667 -38.667 146 -48s101 -14 155 -14c33.333 0 66.5 3.83301 99.5 11.5s62.5 19.5 88.5 35.5
s47.167 36.667 63.5 62s24.5 55.333 24.5 90c0 33.333 -7.5 61.5 -22.5 84.5s-35.833 41.833 -62.5 56.5s-58.667 25.167 -96 31.5s-78.666 9.5 -123.999 9.5h-121z" />
    <glyph glyph-name="afii10074" unicode="&#x438;" horiz-adv-x="1020" 
d="M795 750l-613 -758h-55v928h98v-752l613 752h55v-920h-98v750z" />
    <glyph glyph-name="afii10075" unicode="&#x439;" horiz-adv-x="1020" 
d="M311 1325c43.333 -91.333 109.001 -137.001 197.001 -137.001c44 0 81.667 10.833 113 32.5s60 56.5 86 104.5h79c-28.667 -78 -66.167 -136.333 -112.5 -175s-100.833 -58 -163.5 -58c-34.667 0 -66.334 6.33301 -95.001 19s-54.5 29.834 -77.5 51.501
s-43.667 46.5 -62 74.5s-34.5 57.333 -48.5 88h84zM795.001 749.999l-613 -758h-55v928h98v-752l613 752h55v-920h-98v750z" />
    <glyph glyph-name="afii10076" unicode="&#x43a;" horiz-adv-x="821" 
d="M219 440l-0.00195312 -439.998h-90v920h90v-400h41c18.667 0 37.167 2.5 55.5 7.5s35.833 13.333 52.5 25s32.334 26.667 47.001 45s27.334 40.5 38.001 66.5l45 114c21.333 52.667 48.833 89.5 82.5 110.5s73.5 31.5 119.5 31.5h39v-91h-39c-16 0 -30 -1.66699 -42 -5
s-22.5 -8.5 -31.5 -15.5s-17 -16 -24 -27s-13.833 -24.5 -20.5 -40.5l-43 -102c-6.66699 -16.667 -15.5 -33.834 -26.5 -51.501s-22.833 -34.167 -35.5 -49.5s-26 -28.333 -40 -39s-27.333 -17.334 -40 -20.001c19.333 -6.66699 37.333 -15 54 -25
s33.334 -23.167 50.001 -39.5s34 -36.833 52 -61.5s37.667 -55 59 -91l158 -262h-108l-160 266c-18.667 30.667 -37.334 57 -56.001 79s-38.5 40 -59.5 54s-44.167 24.333 -69.5 31s-54 10 -86 10h-12z" />
    <glyph glyph-name="afii10077" unicode="&#x43b;" horiz-adv-x="874" 
d="M479 938l395 -938h-96l-332 774l-346 -774h-100l418 938h61z" />
    <glyph glyph-name="afii10078" unicode="&#x43c;" horiz-adv-x="1237" 
d="M616 174l388 746h57l61 -920h-94l-47 688l-365 -688l-372 688l-39 -688h-94l61 920h57z" />
    <glyph glyph-name="afii10079" unicode="&#x43d;" horiz-adv-x="1020" 
d="M893 920v-920h-98v438h-570v-438h-98v920h98v-402h570v402h98z" />
    <glyph glyph-name="afii10080" unicode="&#x43e;" horiz-adv-x="1110" 
d="M1022 459c0 -68 -11.833 -131.167 -35.5 -189.5s-56.167 -108.833 -97.5 -151.5s-90.5 -76 -147.5 -100s-119.167 -36 -186.5 -36c-66.667 0 -128.667 12 -186 36s-107 57.333 -149 100s-74.833 93.167 -98.5 151.5s-35.5 121.5 -35.5 189.5
c0 68.667 11.833 132.167 35.5 190.5s56.5 108.833 98.5 151.5s91.667 76.167 149 100.5s119.333 36.5 186 36.5c67.333 0 129.5 -12.167 186.5 -36.5s106.167 -57.833 147.5 -100.5s73.833 -93.167 97.5 -151.5s35.5 -121.833 35.5 -190.5zM918 459
c0 54.667 -9.16699 105.334 -27.5 152.001s-43.833 87.167 -76.5 121.5s-71 61.166 -115 80.499s-92 29 -144 29s-100.333 -9.66699 -145 -29s-83.334 -46 -116.001 -80s-58.167 -74.333 -76.5 -121s-27.5 -97.667 -27.5 -153c0 -54.667 9.16699 -105.334 27.5 -152.001
s43.833 -87 76.5 -121s71.334 -60.5 116.001 -79.5s93 -28.5 145 -28.5s100 9.5 144 28.5s82.333 45.5 115 79.5s58.167 74.333 76.5 121s27.5 97.334 27.5 152.001z" />
    <glyph glyph-name="afii10081" unicode="&#x43f;" horiz-adv-x="1020" 
d="M893 920v-920h-98v840h-570v-840h-98v920h766z" />
    <glyph glyph-name="afii10082" unicode="&#x440;" horiz-adv-x="1044" 
d="M227 868c26 12.667 50.6699 23.498 74.0029 32.498s46 16.167 68 21.5s44 9.33301 66 12s45 4 69 4c65.333 0 125.833 -11.833 181.5 -35.5s103.667 -56.667 144 -99s71.833 -92.5 94.5 -150.5s34 -121.333 34 -190c0 -67.333 -11.833 -130.333 -35.5 -189
s-56 -109.667 -97 -153s-89.333 -77.333 -145 -102s-115.834 -37 -180.501 -37c-22.667 0 -44.834 1.16699 -66.501 3.5s-43.334 6.33301 -65.001 12s-44.167 12.834 -67.5 21.501s-48 19.334 -74 32.001v-522h-98v1391h98v-52zM227.003 146.998
c24 -12.667 46.3379 -23.3301 67.0049 -31.9971s41 -15.834 61 -21.501s40.167 -9.66699 60.5 -12s42.166 -3.5 65.499 -3.5c55.333 0 105.666 9 150.999 27s84.166 43.5 116.499 76.5s57.333 72.667 75 119s26.5 97.833 26.5 154.5c0 56 -9.5 107.667 -28.5 155
s-45.333 88.166 -79 122.499s-73.834 61.166 -120.501 80.499s-97.667 29 -153 29c-20.667 0 -40.334 -1.16699 -59.001 -3.5s-37.5 -6.16602 -56.5 -11.499s-38.833 -12.333 -59.5 -21s-43 -19.334 -67 -32.001v-627z" />
    <glyph glyph-name="afii10083" unicode="&#x441;" horiz-adv-x="854" 
d="M793 29c-26 -8.66699 -50.0039 -15.9971 -72.0039 -21.9971s-43 -10.833 -63 -14.5s-39.833 -6.33398 -59.5 -8.00098s-40.167 -2.5 -61.5 -2.5c-68 0 -129.667 11.167 -185 33.5s-102.666 53.833 -141.999 94.5s-69.833 89.5 -91.5 146.5s-32.5 120.167 -32.5 189.5
c0 72 11 138.167 33 198.5s52.667 112.333 92 156s86.333 77.5 141 101.5s114.667 36 180 36c20 0 39.167 -0.833008 57.5 -2.5s37 -4.33398 56 -8.00098s39 -8.33398 60 -14.001s44.5 -12.5 70.5 -20.5v-109c-26.667 11.333 -50.5 20.666 -71.5 27.999
s-40.667 13.333 -59 18s-36.166 7.83398 -53.499 9.50098s-35.666 2.5 -54.999 2.5c-51.333 0 -98.333 -9.33301 -141 -28s-79.167 -44.834 -109.5 -78.501s-54 -74.167 -71 -121.5s-25.5 -99.666 -25.5 -156.999c0 -58 8.33301 -110.333 25 -157
s40.334 -86.5 71.001 -119.5s68 -58.333 112 -76s93 -26.5 147 -26.5c21.333 0 41.333 0.833008 60 2.5s37.667 4.66699 57 9s39.5 9.83301 60.5 16.5s44.5 15 70.5 25v-102z" />
    <glyph glyph-name="afii10084" unicode="&#x442;" horiz-adv-x="952" 
d="M934 920v-91h-410v-829h-98v829h-410v91h918z" />
    <glyph glyph-name="afii10085" unicode="&#x443;" horiz-adv-x="854" 
d="M866 920l-688 -1391h-100l321 649l-387 742h103l334 -644l317 644h100z" />
    <glyph glyph-name="afii10086" unicode="&#x444;" horiz-adv-x="1327" 
d="M618 829c-62 0 -119.167 -8.83398 -171.5 -26.501s-97.5 -42.834 -135.5 -75.501s-67.667 -71.667 -89 -117s-32 -95.666 -32 -150.999c0 -54.667 10.667 -104.667 32 -150s51 -84.166 89 -116.499s83.167 -57.5 135.5 -75.5s109.5 -27 171.5 -27v739zM709 89.999
c62 0 119.167 9 171.5 27s97.5 43.167 135.5 75.5s67.667 71.333 89 117s32 96.167 32 151.5s-10.667 105.5 -32 150.5s-51 83.667 -89 116s-83.167 57.333 -135.5 75s-109.5 26.5 -171.5 26.5v-739zM709 -471.001h-91v471c-77.333 0 -148.5 11.167 -213.5 33.5
s-121.167 53.666 -168.5 93.999s-84.166 88.666 -110.499 144.999s-39.5 118.5 -39.5 186.5c0 68.667 13.167 131.334 39.5 188.001s63.166 105.167 110.499 145.5s103.5 71.666 168.5 93.999s136.167 33.5 213.5 33.5v477h91v-477c77.333 0 148.5 -11.167 213.5 -33.5
s121.167 -53.666 168.5 -93.999s84.166 -88.666 110.499 -144.999s39.5 -118.5 39.5 -186.5c0 -68.667 -13.167 -131.334 -39.5 -188.001s-63.166 -105.167 -110.499 -145.5s-103.5 -71.666 -168.5 -93.999s-136.167 -33.5 -213.5 -33.5v-471z" />
    <glyph glyph-name="afii10087" unicode="&#x445;" horiz-adv-x="981" 
d="M500 403l-361 -403h-127l420 471l-420 449h127l361 -381l360 381h127l-422 -449l422 -471h-127z" />
    <glyph glyph-name="afii10088" unicode="&#x446;" horiz-adv-x="1018" 
d="M874 920v-840h123v-270h-90v190h-780v920h98v-840h551v840h98z" />
    <glyph glyph-name="afii10089" unicode="&#x447;" horiz-adv-x="911" 
d="M784 920l-0.000976562 -920h-98v463c-34 -44 -75 -76.5 -123 -97.5s-103.333 -31.5 -166 -31.5c-40.667 0 -81.167 5.66699 -121.5 17s-76.333 31.333 -108 60s-57.334 67 -77.001 115s-29.5 109 -29.5 183v211h99v-218c0 -44.667 4.5 -84.834 13.5 -120.501
s23.667 -66 44 -91s46.833 -44 79.5 -57s73 -19.5 121 -19.5c29.333 0 58.333 3.33301 87 10s55.334 17.334 80.001 32.001s45.834 33.5 63.501 56.5s30.167 50.833 37.5 83.5v324h98z" />
    <glyph glyph-name="afii10090" unicode="&#x448;" horiz-adv-x="1352" 
d="M127 920h98v-840h402v840h98v-840h401v840h99v-920h-1098v920z" />
    <glyph glyph-name="afii10091" unicode="&#x449;" horiz-adv-x="1368" 
d="M127 0v920h98v-840h402v840h98v-840h401v840h99v-840h123v-270h-91v190h-1130z" />
    <glyph glyph-name="afii10092" unicode="&#x44a;" horiz-adv-x="969" 
d="M336 920v-347h250c70 0 127.333 -8.66699 172 -26s79.667 -39.5 105 -66.5s42.833 -56.833 52.5 -89.5s14.5 -64.667 14.5 -96c0 -50.667 -9 -94.5 -27 -131.5s-42.333 -67.667 -73 -92s-66.167 -42.333 -106.5 -54s-82.833 -17.5 -127.5 -17.5h-358v829h-228v91h326z
M336 494l-0.00195312 -414h270c40 0 73.833 5.83301 101.5 17.5s50.334 27.5 68.001 47.5s30.334 43 38.001 69s11.5 53 11.5 81c0 62.667 -19.667 111.5 -59 146.5s-97.333 52.5 -174 52.5h-256z" />
    <glyph glyph-name="afii10093" unicode="&#x44b;" horiz-adv-x="1194" 
d="M127 0l-0.000976562 920h98v-347h250c70 0 127.333 -8.66699 172 -26s79.834 -39.5 105.501 -66.5s43.167 -56.833 52.5 -89.5s14 -64.667 14 -96c0 -50.667 -9 -94.5 -27 -131.5s-42.333 -67.667 -73 -92s-66.167 -42.333 -106.5 -54s-82.833 -17.5 -127.5 -17.5h-358z
M224.999 494l0.000976562 -414h271c40 0 73.833 5.83301 101.5 17.5s50.167 27.5 67.5 47.5s30 43 38 69s12 53 12 81c0 62.667 -19.833 111.5 -59.5 146.5s-97.834 52.5 -174.501 52.5h-256zM1067 920v-920h-98v920h98z" />
    <glyph glyph-name="afii10094" unicode="&#x44c;" horiz-adv-x="858" 
d="M127 0l-0.000976562 920h98v-347h250c70 0 127.333 -8.66699 172 -26s79.834 -39.5 105.501 -66.5s43.167 -56.833 52.5 -89.5s14 -64.667 14 -96c0 -50.667 -9 -94.5 -27 -131.5s-42.333 -67.667 -73 -92s-66.167 -42.333 -106.5 -54s-82.833 -17.5 -127.5 -17.5h-358z
M224.999 494l0.000976562 -414h271c40 0 73.833 5.83301 101.5 17.5s50.167 27.5 67.5 47.5s30 43 38 69s12 53 12 81c0 62.667 -19.833 111.5 -59.5 146.5s-97.834 52.5 -174.501 52.5h-256z" />
    <glyph glyph-name="afii10095" unicode="&#x44d;" horiz-adv-x="854" 
d="M662 506c-4.66699 50.667 -16.3359 96.665 -35.0029 137.998s-43 76.666 -73 105.999s-65 52 -105 68s-84 24 -132 24c-19.333 0 -37.666 -0.833008 -54.999 -2.5s-35.166 -4.83398 -53.499 -9.50098s-38 -10.667 -59 -18s-44.833 -16.666 -71.5 -27.999v109
c26 8 49.5 14.833 70.5 20.5s41 10.334 60 14.001s37.667 6.33398 56 8.00098s37.5 2.5 57.5 2.5c65.333 0 125.333 -12 180 -36s101.667 -57.833 141 -101.5s70 -95.667 92 -156s33 -126.5 33 -198.5c0 -69.333 -10.833 -132.5 -32.5 -189.5s-52.167 -105.833 -91.5 -146.5
s-86.666 -72.167 -141.999 -94.5s-117 -33.5 -185 -33.5c-21.333 0 -41.833 0.833008 -61.5 2.5s-39.5 4.33398 -59.5 8.00098s-41 8.5 -63 14.5s-46 13.333 -72 22v102c26 -10 49.5 -18.333 70.5 -25s41 -12.167 60 -16.5s38 -7.33301 57 -9s39.167 -2.5 60.5 -2.5
c51.333 0 97.833 7.83301 139.5 23.5s77.667 38 108 67s54.5 64.5 72.5 106.5s29 89 33 141h-467v90h467z" />
    <glyph glyph-name="afii10096" unicode="&#x44e;" horiz-adv-x="1407" 
d="M242 496l144.998 0.000976562c4 64 18.5 123 43.5 177s58.333 100.667 100 140s90 70 145 92s114.5 33 178.5 33c67.333 0 129.5 -12.167 186.5 -36.5s106.167 -57.833 147.5 -100.5s73.833 -93.167 97.5 -151.5s35.5 -121.833 35.5 -190.5
c0 -68 -11.833 -131.167 -35.5 -189.5s-56.167 -108.833 -97.5 -151.5s-90.5 -76 -147.5 -100s-119.167 -36 -186.5 -36c-63.333 0 -122.333 10.833 -177 32.5s-102.667 51.667 -144 90s-74.666 84.166 -99.999 137.499s-40.666 111.333 -45.999 174h-145v-416h-99v920h99
v-424zM1217 459.001c0 54.667 -9.16699 105.334 -27.5 152.001s-43.833 87.167 -76.5 121.5s-71 61.166 -115 80.499s-92 29 -144 29s-100.333 -9.66699 -145 -29s-83.334 -46 -116.001 -80s-58.167 -74.333 -76.5 -121s-27.5 -97.667 -27.5 -153
c0 -54.667 9.16699 -105.334 27.5 -152.001s43.833 -87 76.5 -121s71.334 -60.5 116.001 -79.5s93 -28.5 145 -28.5s100 9.5 144 28.5s82.333 45.5 115 79.5s58.167 74.333 76.5 121s27.5 97.334 27.5 152.001z" />
    <glyph glyph-name="afii10097" unicode="&#x44f;" horiz-adv-x="930" 
d="M803 0h-98.002v381h-154c-34 0 -64 -3.33301 -90 -10s-49.833 -17 -71.5 -31s-42 -31.833 -61 -53.5s-38.5 -47.5 -58.5 -77.5l-139 -209h-119l160 240c10.667 16 22.834 32.333 36.501 49s27.834 32.167 42.501 46.5s29.5 27 44.5 38s29.167 18.833 42.5 23.5
c-72.667 22.667 -126 56.667 -160 102s-51 102.333 -51 171c0 42.667 9.33301 79.667 28 111s44.834 57.333 78.501 78s73.667 36 120 46s97.166 15 152.499 15h297v-920zM704.998 461v379h-179c-42 0 -81 -2.16699 -117 -6.5s-67.167 -13.333 -93.5 -27
s-47 -32.667 -62 -57s-22.5 -56.5 -22.5 -96.5c0 -27.333 4.5 -52.833 13.5 -76.5s22.667 -44 41 -61s41.5 -30.333 69.5 -40s61.333 -14.5 100 -14.5h250z" />
    <glyph glyph-name="afii10071" unicode="&#x451;" horiz-adv-x="981" 
d="M895 104c-54.667 -42 -110.668 -72.832 -168.001 -92.499s-119.333 -29.5 -186 -29.5s-128.167 12.167 -184.5 36.5s-104.833 58.166 -145.5 101.499s-72.334 95 -95.001 155s-34 125.333 -34 196c0 67.333 10.5 129.5 31.5 186.5s50.333 106.333 88 148
s82.334 74.167 134.001 97.5s107.834 35 168.501 35c49.333 0 98.166 -8.66699 146.499 -26s91.833 -44.166 130.5 -80.499s70 -82.333 94 -138s36 -122.167 36 -199.5h-725c-1.33301 -8.66699 -2 -16.667 -2 -24v-24c0 -52.667 10 -101.334 30 -146.001s47 -83.5 81 -116.5
s73.333 -58.833 118 -77.5s91.334 -28 140.001 -28c61.333 0 118.833 10.833 172.5 32.5s110.167 56.5 169.5 104.5v-111zM794.999 573.001c-35.333 179.333 -132.333 269 -291 269c-38 0 -73.667 -6.16699 -107 -18.5s-63.166 -30 -89.499 -53s-48.833 -51.167 -67.5 -84.5
s-32.334 -71 -41.001 -113h596zM671.999 1303c12 0 23.502 -2.33301 34.502 -7s20.667 -11.167 29 -19.5s14.833 -18 19.5 -29s7 -22.833 7 -35.5c0 -24.667 -8.83301 -45.834 -26.5 -63.501s-38.834 -26.5 -63.501 -26.5s-45.834 8.83301 -63.501 26.5
s-26.5 38.834 -26.5 63.501c0 12.667 2.33301 24.5 7 35.5s11.167 20.667 19.5 29s18 14.833 29 19.5s22.5 7 34.5 7zM309.001 1303c12 0 23.502 -2.33301 34.502 -7s20.667 -11.167 29 -19.5s14.833 -18 19.5 -29s7 -22.833 7 -35.5
c0 -24.667 -8.83301 -45.834 -26.5 -63.501s-38.834 -26.5 -63.501 -26.5s-45.834 8.83301 -63.501 26.5s-26.5 38.834 -26.5 63.501c0 12.667 2.33301 24.5 7 35.5s11.167 20.667 19.5 29s18 14.833 29 19.5s22.5 7 34.5 7z" />
    <glyph glyph-name="afii10099" unicode="&#x452;" horiz-adv-x="985" 
d="M629 1266v-90.001h-404v-416h4c21.333 32 43 59.333 65 82s45 41.167 69 55.5s49.833 24.666 77.5 30.999s58.167 9.5 91.5 9.5c45.333 0 87.666 -8.16699 126.999 -24.5s73.666 -40.166 102.999 -71.499s52.333 -70.333 69 -117s25 -100.667 25 -162v-616
c0 -87.333 -8.83301 -158.333 -26.5 -213s-41 -97.167 -70 -127.5s-61.667 -50.833 -98 -61.5s-73.166 -16 -110.499 -16h-119v90h137c31.333 0 58.833 7.16699 82.5 21.5s43.334 34 59.001 59s27.5 54.333 35.5 88s12 69.834 12 108.501v628
c0 47.333 -4.83301 90.5 -14.5 129.5s-24.167 72.5 -43.5 100.5s-43.5 49.667 -72.5 65s-62.833 23 -101.5 23c-34 0 -64.833 -4.16699 -92.5 -12.5s-53.5 -20.666 -77.5 -36.999s-46.667 -36.833 -68 -61.5s-42.333 -53.334 -63 -86.001v-645h-98v1176h-127v90h127v131h98
v-131h404z" />
    <glyph glyph-name="afii10100" unicode="&#x453;" horiz-adv-x="733" 
d="M717 920v-91h-475v-829h-99v920h574zM643 1356l-311 -320h-68l213 320h166z" />
    <glyph glyph-name="afii10101" unicode="&#x454;" horiz-adv-x="854" 
d="M657 502l-0.00390625 -89.9961h-464c4 -50.667 15 -96.667 33 -138s42.167 -76.5 72.5 -105.5s66.333 -51.333 108 -67s87.834 -23.5 138.501 -23.5c21.333 0 41.333 0.833008 60 2.5s37.667 4.66699 57 9s39.5 9.83301 60.5 16.5s44.5 15 70.5 25v-102
c-26 -8.66699 -50 -16 -72 -22s-43 -10.833 -63 -14.5s-39.833 -6.33398 -59.5 -8.00098s-40.167 -2.5 -61.5 -2.5c-68 0 -129.667 11.167 -185 33.5s-102.666 53.833 -141.999 94.5s-69.833 89.5 -91.5 146.5s-32.5 120.167 -32.5 189.5c0 72 11 138.167 33 198.5
s52.667 112.333 92 156s86.333 77.5 141 101.5s114.667 36 180 36c20 0 39.167 -0.833008 57.5 -2.5s37 -4.33398 56 -8.00098s39 -8.33398 60 -14.001s44.5 -12.5 70.5 -20.5v-109c-26.667 11.333 -50.5 20.666 -71.5 27.999s-40.667 13.333 -59 18
s-36.166 7.83398 -53.499 9.50098s-35.666 2.5 -54.999 2.5c-48 0 -92.167 -8.16699 -132.5 -24.5s-75.5 -39.333 -105.5 -69s-54.167 -65.334 -72.5 -107.001s-29.5 -88.167 -33.5 -139.5h464z" />
    <glyph glyph-name="afii10102" unicode="&#x455;" horiz-adv-x="725" 
d="M84 162c30 -15.333 57.8359 -28.333 83.5029 -39s50 -19.334 73 -26.001s45.333 -11.5 67 -14.5s43.5 -4.5 65.5 -4.5c28 0 53.833 3.83301 77.5 11.5s44.167 18.5 61.5 32.5s30.833 30.833 40.5 50.5s14.5 41.5 14.5 65.5c0 27.333 -6.83301 50.666 -20.5 69.999
s-31.667 36.333 -54 51s-47.833 27.834 -76.5 39.501l-87.5 35c-29.667 11.667 -58.834 24.5 -87.501 38.5s-54.167 30.667 -76.5 50s-40.333 42.333 -54 69s-20.5 58.334 -20.5 95.001c0 35.333 7.66699 68.333 23 99s36.333 57.334 63 80.001s58.167 40.5 94.5 53.5
s75.166 19.5 116.499 19.5c40 0 79.5 -6.33301 118.5 -19s81.5 -32.334 127.5 -59.001v-106c-26 16.667 -49.833 31 -71.5 43s-42.5 21.667 -62.5 29s-39.5 12.833 -58.5 16.5s-38.833 5.5 -59.5 5.5c-28 0 -54 -4 -78 -12s-44.833 -19 -62.5 -33s-31.5 -30.5 -41.5 -49.5
s-15 -39.5 -15 -61.5c0 -27.333 6.83301 -50.5 20.5 -69.5s31.667 -35.667 54 -50s47.833 -27 76.5 -38l88 -34c30 -11.667 59.333 -24.5 88 -38.5s54.167 -31.167 76.5 -51.5s40.333 -44.5 54 -72.5s20.5 -62 20.5 -102c0 -36 -7.83301 -69.5 -23.5 -100.5
s-37 -57.833 -64 -80.5s-58.833 -40.5 -95.5 -53.5s-76.334 -19.5 -119.001 -19.5c-48 0 -94 6.5 -138 19.5s-90 34.5 -138 64.5v96z" />
    <glyph glyph-name="afii10103" unicode="&#x456;" horiz-adv-x="385" 
d="M242 920v-920h-99v920h99zM242 1397v-168h-99v168h99z" />
    <glyph glyph-name="afii10104" unicode="&#x457;" horiz-adv-x="385" 
d="M242 920v-920h-99v920h99zM375 1303c12 0 23.502 -2.33301 34.502 -7s20.667 -11.167 29 -19.5s14.833 -18 19.5 -29s7 -22.833 7 -35.5c0 -24.667 -8.83301 -45.834 -26.5 -63.501s-38.834 -26.5 -63.501 -26.5s-45.834 8.83301 -63.501 26.5s-26.5 38.834 -26.5 63.501
c0 12.667 2.33301 24.5 7 35.5s11.167 20.667 19.5 29s18 14.833 29 19.5s22.5 7 34.5 7zM12.002 1303c12 0 23.502 -2.33301 34.502 -7s20.667 -11.167 29 -19.5s14.833 -18 19.5 -29s7 -22.833 7 -35.5c0 -24.667 -8.83301 -45.834 -26.5 -63.501
s-38.834 -26.5 -63.501 -26.5s-45.834 8.83301 -63.501 26.5s-26.5 38.834 -26.5 63.501c0 12.667 2.33301 24.5 7 35.5s11.167 20.667 19.5 29s18 14.833 29 19.5s22.5 7 34.5 7z" />
    <glyph glyph-name="afii10105" unicode="&#x458;" horiz-adv-x="385" 
d="M238 920l0.000976562 -1022c0 -65.333 -7.33301 -121.333 -22 -168s-34.5 -85 -59.5 -115s-54 -52 -87 -66s-67.833 -20.667 -104.5 -20l-22 84c32 0.666992 60.167 5.83398 84.5 15.501s44.666 25.5 60.999 47.5s28.833 51.167 37.5 87.5s13 81.833 13 136.5v1020h99z
M238.001 1397v-168h-99v168h99z" />
    <glyph glyph-name="afii10106" unicode="&#x459;" horiz-adv-x="1241" 
d="M479 938l170.002 -400.999h213c70 0 128.333 -8 175 -24s83.667 -36.5 111 -61.5s46.666 -53.167 57.999 -84.5s17 -62.333 17 -93c0 -48.667 -9.83301 -90.334 -29.5 -125.001s-45.834 -63 -78.501 -85s-70.5 -38.167 -113.5 -48.5s-87.5 -15.5 -133.5 -15.5h-90
l-332 774l-346 -774h-100l418 938h61zM879.002 80.001c40.667 0 75.999 5.16602 105.999 15.499s54.833 24.5 74.5 42.5s34.334 38.667 44.001 62s14.5 48 14.5 74c0 62.667 -23.5 108.834 -70.5 138.501s-113.5 44.5 -199.5 44.5h-166l160 -377h37z" />
    <glyph glyph-name="afii10107" unicode="&#x45a;" horiz-adv-x="1491" 
d="M795 0l0.00195312 438h-570v-438h-98v920h98v-402h570v402h98v-402h221c70 0 128.333 -7.5 175 -22.5s83.667 -34.5 111 -58.5s46.666 -51.167 57.999 -81.5s17 -60.833 17 -91.5c0 -48.667 -9.83301 -89.667 -29.5 -123s-45.834 -60.5 -78.501 -81.5
s-70.5 -36.167 -113.5 -45.5s-87.5 -14 -133.5 -14h-325zM893.002 438l-0.00195312 -358h237c41.333 0 77 4.66699 107 14s54.833 22 74.5 38s34.334 35.167 44.001 57.5s14.5 46.5 14.5 72.5c0 62 -23.667 106.833 -71 134.5s-113.666 41.5 -198.999 41.5h-207z" />
    <glyph glyph-name="afii10108" unicode="&#x45b;" horiz-adv-x="1004" 
d="M709 1276l-0.000976562 -89.9961h-484v-426h4c21.333 32 43 59.333 65 82s45 41.167 69 55.5s49.833 24.666 77.5 30.999s58.167 9.5 91.5 9.5c49.333 0 94.833 -8 136.5 -24s77.834 -39.833 108.501 -71.5s54.5 -70.834 71.5 -117.501s25.5 -100.667 25.5 -162v-563h-98
v524c0 50 -4.83301 94.667 -14.5 134s-24.5 72.666 -44.5 99.999s-45.833 48.166 -77.5 62.499s-69.5 21.5 -113.5 21.5c-34 0 -64.833 -4.16699 -92.5 -12.5s-53.5 -20.666 -77.5 -36.999s-46.667 -36.833 -68 -61.5s-42.333 -53.334 -63 -86.001v-645h-98v1186h-127v90
h127v121h98v-121h484z" />
    <glyph glyph-name="afii10109" unicode="&#x45c;" horiz-adv-x="821" 
d="M219 440l-0.00195312 -439.998h-90v920h90v-400h41c18.667 0 37.167 2.5 55.5 7.5s35.833 13.333 52.5 25s32.334 26.667 47.001 45s27.334 40.5 38.001 66.5l45 114c21.333 52.667 48.833 89.5 82.5 110.5s73.5 31.5 119.5 31.5h39v-91h-39c-16 0 -30 -1.66699 -42 -5
s-22.5 -8.5 -31.5 -15.5s-17 -16 -24 -27s-13.833 -24.5 -20.5 -40.5l-43 -102c-6.66699 -16.667 -15.5 -33.834 -26.5 -51.501s-22.833 -34.167 -35.5 -49.5s-26 -28.333 -40 -39s-27.333 -17.334 -40 -20.001c19.333 -6.66699 37.333 -15 54 -25
s33.334 -23.167 50.001 -39.5s34 -36.833 52 -61.5s37.667 -55 59 -91l158 -262h-108l-160 266c-18.667 30.667 -37.334 57 -56.001 79s-38.5 40 -59.5 54s-44.167 24.333 -69.5 31s-54 10 -86 10h-12zM687.998 1362l-311 -320h-68l213 320h166z" />
    <glyph glyph-name="afii10110" unicode="&#x45e;" horiz-adv-x="854" 
d="M866 920l-688 -1391h-100l321 649l-387 742h103l334 -644l317 644h100zM250 1325c43.333 -91.333 108.669 -137.001 196.002 -137.001c44.667 0 82.667 10.833 114 32.5s59.666 56.5 84.999 104.5h80c-28.667 -78 -66.334 -136.333 -113.001 -175s-101 -58 -163 -58
c-35.333 0 -67.333 6.33301 -96 19s-54.5 29.834 -77.5 51.501s-43.5 46.5 -61.5 74.5s-34 57.333 -48 88h84z" />
    <glyph glyph-name="afii10193" unicode="&#x45f;" horiz-adv-x="1020" 
d="M559 -190h-98v190h-334v920h98v-840h570v840h98v-920h-334v-190z" />
    <glyph glyph-name="afii10146" unicode="&#x462;" horiz-adv-x="1239" 
d="M299 1397l106.999 -0.000976562v-189h299v-90h-299v-327h309c80.667 0 151 -9.66699 211 -29s109.833 -46.166 149.5 -80.499s69.334 -75.333 89.001 -123s29.5 -100.167 29.5 -157.5c0 -58 -11.333 -111.5 -34 -160.5s-55.167 -91.333 -97.5 -127
s-93.5 -63.5 -153.5 -83.5s-127.333 -30 -202 -30h-408v1120h-297v90h297v187zM405.999 699.999v-610h288c76 0 138.667 9.66699 188 29s88.5 44.166 117.5 74.499s49.167 63.833 60.5 100.5s17 72.334 17 107.001c0 35.333 -5.66699 70.833 -17 106.5
s-31.5 67.667 -60.5 96s-68.167 51.5 -117.5 69.5s-112 27 -188 27h-288z" />
    <glyph glyph-name="afii10194" unicode="&#x463;" horiz-adv-x="969" 
d="M336 1399v-369h231v-88h-231v-369h250c70 0 127.333 -8.66699 172 -26s79.667 -39.5 105 -66.5s42.833 -56.833 52.5 -89.5s14.5 -64.667 14.5 -96c0 -50.667 -9 -94.5 -27 -131.5s-42.333 -67.667 -73 -92s-66.167 -42.333 -106.5 -54s-82.833 -17.5 -127.5 -17.5h-358
v942h-228v88h230v369h96zM336 494l-0.00195312 -414h270c40 0 73.833 5.83301 101.5 17.5s50.334 27.5 68.001 47.5s30.334 43 38.001 69s11.5 53 11.5 81c0 62.667 -19.667 111.5 -59 146.5s-97.333 52.5 -174 52.5h-256z" />
    <glyph glyph-name="afii10147" unicode="&#x472;" horiz-adv-x="1686" 
d="M1583 698c0 -100 -19.166 -193.502 -57.499 -280.502s-90.833 -162.833 -157.5 -227.5s-145 -115.5 -235 -152.5s-187 -55.5 -291 -55.5c-68.667 0 -134.667 8.5 -198 25.5s-122.333 40.833 -177 71.5s-104.334 67.667 -149.001 111s-82.834 91.5 -114.501 144.5
s-56.167 110.167 -73.5 171.5s-26 125.333 -26 192s8.66699 130.834 26 192.501s41.833 119 73.5 172s69.834 101.167 114.501 144.5s94.334 80.5 149.001 111.5s113.667 54.833 177 71.5s129.333 25 198 25c69.333 0 135.666 -8.33301 198.999 -25s122.5 -40.5 177.5 -71.5
s104.833 -68.167 149.5 -111.5s83 -91.5 115 -144.5s56.667 -110.167 74 -171.5s26 -125.666 26 -192.999zM225.001 642.998c6.66699 -80 27.167 -154.333 61.5 -223s79.166 -128 134.499 -178s119.333 -89.167 192 -117.5s150.334 -42.5 233.001 -42.5
c83.333 0 161 14.167 233 42.5s135.5 67.5 190.5 117.5s99.5 109.333 133.5 178s54.333 143 61 223h-1239zM1466 732.998c-4.66699 82.667 -23.6709 159.499 -57.0039 230.499s-77.666 132.5 -132.999 184.5s-119.666 92.833 -192.999 122.5s-152.333 44.5 -237 44.5
c-56 0 -110 -6.66699 -162 -20s-100.667 -32.333 -146 -57s-86.666 -54.5 -123.999 -89.5s-69.666 -74 -96.999 -117s-49.333 -89.667 -66 -140s-26.667 -103.166 -30 -158.499h1245z" />
    <glyph glyph-name="afii10195" unicode="&#x473;" horiz-adv-x="1110" 
d="M1022 459c0 -68 -11.833 -131.167 -35.5 -189.5s-56.167 -108.833 -97.5 -151.5s-90.5 -76 -147.5 -100s-119.167 -36 -186.5 -36c-66.667 0 -128.667 12 -186 36s-107 57.333 -149 100s-74.833 93.167 -98.5 151.5s-35.5 121.5 -35.5 189.5
c0 68.667 11.833 132.167 35.5 190.5s56.5 108.833 98.5 151.5s91.667 76.167 149 100.5s119.333 36.5 186 36.5c67.333 0 129.5 -12.167 186.5 -36.5s106.167 -57.833 147.5 -100.5s73.833 -93.167 97.5 -151.5s35.5 -121.833 35.5 -190.5zM915 502
c-4.66699 49.333 -16.998 94.833 -36.998 136.5s-45.833 77.5 -77.5 107.5s-68.5 53.5 -110.5 70.5s-87 25.5 -135 25.5c-48.667 0 -94 -8.5 -136 -25.5s-78.833 -40.5 -110.5 -70.5s-57.334 -65.833 -77.001 -107.5s-31.834 -87.167 -36.501 -136.5h720zM193.002 412
c4.66699 -48.667 16.999 -93.5 36.999 -134.5s46 -76.167 78 -105.5s69 -52.333 111 -69s87.333 -25 136 -25c48 0 92.833 8.33301 134.5 25s78.334 39.667 110.001 69s57.5 64.5 77.5 105.5s32.667 85.833 38 134.5h-722z" />
    <glyph glyph-name="afii10148" unicode="&#x474;" horiz-adv-x="1217" 
d="M565 -14l-30 -0.000976562l-531 1411h117l430 -1166l360 1024c12 32.667 26.333 59.334 43 80.001s34.5 37 53.5 49s38.167 20.167 57.5 24.5s37.666 6.5 54.999 6.5c12.667 0 28.334 -1.33301 47.001 -4s35.334 -6.66699 50.001 -12v-101
c-15.333 5.33301 -30.333 9.83301 -45 13.5s-29.334 5.5 -44.001 5.5c-9.33301 0 -19.5 -1.33301 -30.5 -4s-22.333 -9 -34 -19s-23.667 -24.5 -36 -43.5s-24.5 -44.5 -36.5 -76.5z" />
    <glyph glyph-name="afii10196" unicode="&#x475;" horiz-adv-x="874" 
d="M936 844c-9.33301 7.33301 -22.1689 13.167 -38.502 17.5s-32.166 7.16602 -47.499 8.49902c-27.333 0 -50 -12 -68 -36s-36.333 -60.333 -55 -109l-283 -743h-55l-377 938h90l314 -775l239 623c12.667 32 25.334 59.667 38.001 83s26.5 42.833 41.5 58.5
s31.5 27.334 49.5 35.001s38.667 11.5 62 11.5c22.667 0 40.5 -3 53.5 -9l36.5 -17v-86z" />
    <glyph glyph-name="afii10050" unicode="&#x490;" horiz-adv-x="930" 
d="M920 1509v-202h-652v-1307h-108v1397h661v112h99z" />
    <glyph glyph-name="afii10098" unicode="&#x491;" horiz-adv-x="731" 
d="M717 1001v-172h-475v-829h-99v920h475v81h99z" />
    <glyph glyph-name="uni0492" unicode="&#x492;" horiz-adv-x="930" 
d="M20 752h140v645h760v-90h-652v-555h389v-90h-389v-662h-108v662h-140v90z" />
    <glyph glyph-name="uni0493" unicode="&#x493;" horiz-adv-x="731" 
d="M717 920v-91h-475v-307h313v-90h-313v-432h-99v432h-123v90h123v398h574z" />
    <glyph glyph-name="uni0496" unicode="&#x496;" horiz-adv-x="1755" 
d="M1573 0l-240.009 409.999c-27.333 47.333 -55.166 87.333 -83.499 120s-56.833 59.5 -85.5 80.5s-57.834 36.167 -87.501 45.5s-59.5 14 -89.5 14h-55v-670h-109v670h-55c-30 0 -59.833 -4.66699 -89.5 -14s-58.834 -24.5 -87.501 -45.5s-57.167 -47.833 -85.5 -80.5
s-56.166 -72.667 -83.499 -120l-240 -410h-137l274 440l63.5 97.5c20.333 29.667 41.333 56 63 79s45 42.667 70 59s53.167 28.833 84.5 37.5c-16 6 -32.833 17 -50.5 33s-35.167 34.667 -52.5 56s-33.666 44.833 -48.999 70.5s-28.666 50.834 -39.999 75.501l-109 238
c-10 22 -19.167 40.667 -27.5 56s-17.833 27.833 -28.5 37.5s-23.5 16.667 -38.5 21s-34.167 6.5 -57.5 6.5h-51v90h49c28 0 53 -2.16699 75 -6.5s42.333 -12.5 61 -24.5s35.834 -28.333 51.501 -49s31.167 -47.334 46.5 -80.001l129 -276
c17.333 -37.333 35.333 -68.833 54 -94.5s39.334 -46.334 62.001 -62.001s48 -27 76 -34s59.667 -10.5 95 -10.5h28v637h109v-637h29c35.333 0 66.833 3.5 94.5 10.5s52.834 18.333 75.501 34s43.334 36.334 62.001 62.001s36.667 57.167 54 94.5l129 276
c15.333 32.667 31 59.334 47 80.001s33.167 37 51.5 49s38.5 20.167 60.5 24.5s47 6.5 75 6.5h49v-90h-51c-24 0 -43.5 -2.16699 -58.5 -6.5s-27.667 -11.333 -38 -21s-19.666 -22.167 -27.999 -37.5s-17.5 -34 -27.5 -56l-108 -238
c-11.333 -25.333 -24.666 -50.666 -39.999 -75.999s-31.666 -48.833 -48.999 -70.5s-35 -40.334 -53 -56.001s-35 -26.5 -51 -32.5c32 -8.66699 60.5 -21.167 85.5 -37.5s48.333 -36 70 -59s42.5 -49.333 62.5 -79l63 -97.5l217 -350h84v-332h-109v242h-55z" />
    <glyph glyph-name="uni0497" unicode="&#x497;" horiz-adv-x="1270" 
d="M1243 80l0.000976562 -270.003h-90v190h-43l-160 266c-18 30.667 -36.167 57 -54.5 79s-38.166 40 -59.499 54s-44.666 24.333 -69.999 31s-54 10 -86 10v-440h-90v440c-32 0 -60.667 -3.33301 -86 -10s-48.5 -17 -69.5 -31s-40.833 -32 -59.5 -54
s-37.334 -48.333 -56.001 -79l-159 -266h-109l158 262c21.333 36 40.833 66.333 58.5 91s35 45.334 52 62.001s33.833 29.834 50.5 39.501s34.667 17.834 54 24.501c-12.667 2.66699 -26 9.33398 -40 20.001s-27.333 23.667 -40 39s-24.334 31.833 -35.001 49.5
s-19.334 34.834 -26.001 51.501l-43 102c-12.667 31.333 -27.667 53.833 -45 67.5s-42 20.5 -74 20.5h-39v91h39c46 0 86 -10.5 120 -31.5s61.667 -57.833 83 -110.5l45 -114c10.667 -26 23.167 -48.167 37.5 -66.5s29.833 -33.333 46.5 -45s34.167 -20 52.5 -25
s36.833 -7.5 55.5 -7.5h29v400h90v-400h29c18 0 36.167 2.5 54.5 7.5s35.833 13.333 52.5 25s32.334 26.667 47.001 45s27.334 40.5 38.001 66.5l45 114c21.333 52.667 49 89.5 83 110.5s74 31.5 120 31.5h39v-91h-39c-16.667 0 -31 -1.66699 -43 -5s-22.5 -8.5 -31.5 -15.5
s-17 -16 -24 -27s-13.833 -24.5 -20.5 -40.5l-43 -102c-6.66699 -16.667 -15.334 -33.834 -26.001 -51.501s-22.334 -34.167 -35.001 -49.5s-25.834 -28.333 -39.501 -39s-27.167 -17.334 -40.5 -20.001c19.333 -6.66699 37.333 -15 54 -25s33.334 -23.167 50.001 -39.5
s34 -36.833 52 -61.5s37.667 -55 59 -91l108 -182h74z" />
    <glyph glyph-name="uni049A" unicode="&#x49a;" horiz-adv-x="1120" 
d="M1102 90l-0.00488281 -332.001h-109v242h-55l-240 410c-27.333 47.333 -54.166 87.333 -80.499 120s-52.833 59.5 -79.5 80.5s-54.167 36.167 -82.5 45.5s-58.5 14 -90.5 14h-95v-670h-108v1397h108v-637h56c35.333 0 66.833 3.5 94.5 10.5s52.834 18.333 75.501 34
s43.334 36.334 62.001 62.001s36.667 57.167 54 94.5l129 276c15.333 32.667 31 59.334 47 80.001s33.167 37 51.5 49s38.5 20.167 60.5 24.5s47 6.5 75 6.5h49v-90h-51c-23.333 0 -42.5 -2.16699 -57.5 -6.5s-27.833 -11.333 -38.5 -21s-20.167 -22.167 -28.5 -37.5
s-17.5 -34 -27.5 -56l-108 -238c-12 -26 -25.667 -51.833 -41 -77.5s-31.166 -49.167 -47.499 -70.5s-32.666 -39.833 -48.999 -55.5s-31.5 -26.167 -45.5 -31.5c27.333 -5.33301 52.5 -15.833 75.5 -31.5s45.167 -35.334 66.5 -59.001s42.5 -51 63.5 -82l65.5 -100.5
l217 -350h84z" />
    <glyph glyph-name="uni049B" unicode="&#x49b;" horiz-adv-x="821" 
d="M502 266c-18.667 30.667 -37.3359 57.002 -56.0029 79.002s-38.5 40 -59.5 54s-44.167 24.333 -69.5 31s-54 10 -86 10h-12v-440h-90v920h90v-400h41c18.667 0 37.167 2.5 55.5 7.5s35.833 13.333 52.5 25s32.334 26.667 47.001 45s27.334 40.5 38.001 66.5l45 114
c21.333 52.667 48.833 89.5 82.5 110.5s73.5 31.5 119.5 31.5h39v-91h-39c-16 0 -30 -1.66699 -42 -5s-22.5 -8.5 -31.5 -15.5s-17 -16 -24 -27s-13.833 -24.5 -20.5 -40.5l-43 -102c-6.66699 -16.667 -15.5 -33.834 -26.5 -51.501s-22.833 -34.167 -35.5 -49.5
s-26 -28.333 -40 -39s-27.333 -17.334 -40 -20.001c19.333 -6.66699 37.333 -15 54 -25s33.334 -23.167 50.001 -39.5s34 -36.833 52 -61.5s37.667 -55 59 -91l109 -182h74v-270h-90v190h-43z" />
    <glyph glyph-name="uni04A2" unicode="&#x4a2;" horiz-adv-x="1489" 
d="M1202 0v662h-932v-662h-108v1397h108v-645h932v645h109v-1307h157v-332h-108v242h-158z" />
    <glyph glyph-name="uni04A3" unicode="&#x4a3;" horiz-adv-x="1036" 
d="M795 438h-570v-438h-98v920h98v-402h570v402h98v-840h123v-270h-90v190h-131v438z" />
    <glyph glyph-name="uni04AE" unicode="&#x4ae;" horiz-adv-x="1194" 
d="M651 750v-750h-108v750l-543 647h131l467 -553l465 553h131z" />
    <glyph glyph-name="uni04AF" unicode="&#x4af;" horiz-adv-x="874" 
d="M498 84v-555h-99v553l-399 838h100l346 -734l332 734h96z" />
    <glyph glyph-name="uni04B0" unicode="&#x4b0;" horiz-adv-x="1194" 
d="M651 750v-97h447v-96h-447v-557h-108v557h-447v96h447v97l-543 647h131l467 -553l465 553h131z" />
    <glyph glyph-name="uni04B1" unicode="&#x4b1;" horiz-adv-x="874" 
d="M498 145v-55h315v-90h-315v-471h-99v471h-338v90h338v53l-399 777h100l346 -693l332 693h96z" />
    <glyph glyph-name="uni04B2" unicode="&#x4b2;" horiz-adv-x="1409" 
d="M705 639l-566 -639h-139l633 715l-600 682h139l533 -602l530 602h139l-600 -682l565 -635h70v-322h-109v242h-30z" />
    <glyph glyph-name="uni04B3" unicode="&#x4b3;" horiz-adv-x="981" 
d="M500 403l-361 -403h-127l420 471l-420 449h127l361 -381l360 381h127l-422 -449l350 -391h66v-270h-90v190h-31z" />
    <glyph glyph-name="uni04B6" unicode="&#x4b6;" horiz-adv-x="1208" 
d="M922 580c-14 -3.33301 -32.333 -6.83398 -55 -10.501s-47.334 -7.16699 -74.001 -10.5s-54 -6.16602 -82 -8.49902s-54.667 -3.5 -80 -3.5c-104 0 -190.833 14 -260.5 42s-125.667 66.333 -168 115s-72.333 105.667 -90 171s-26.5 135.333 -26.5 210v312h109v-322
c0 -141.333 34.833 -248 104.5 -320s178.834 -108 327.501 -108c64.667 0 122 3.33301 172 10s91 13 123 19v721h108v-1317h158v-322h-109v242h-157v580z" />
    <glyph glyph-name="uni04B7" unicode="&#x4b7;" horiz-adv-x="928" 
d="M686 463c-34 -44 -75.001 -76.5 -123.001 -97.5s-103.333 -31.5 -166 -31.5c-40.667 0 -81.167 5.66699 -121.5 17s-76.333 31.333 -108 60s-57.334 67 -77.001 115s-29.5 109 -29.5 183v211h99v-218c0 -44.667 4.5 -84.834 13.5 -120.501s23.667 -66 44 -91
s46.833 -44 79.5 -57s73 -19.5 121 -19.5c29.333 0 58.333 3.33301 87 10s55.334 17.334 80.001 32.001s45.834 33.5 63.501 56.5s30.167 50.833 37.5 83.5v324h98v-840h123v-270h-90v190h-131v463z" />
    <glyph glyph-name="uni04BA" unicode="&#x4ba;" horiz-adv-x="1192" 
d="M162 0v1397h108v-492c14 3.33301 32.333 6.83301 55 10.5s47.334 7.16699 74.001 10.5s54 6.16602 82 8.49902s54.667 3.5 80 3.5c104 0 190.833 -14 260.5 -42s125.667 -66.167 168 -114.5s72.333 -105.166 90 -170.499s26.5 -135.333 26.5 -210v-401h-109v412
c0 140.667 -34.833 246.834 -104.5 318.501s-178.834 107.5 -327.501 107.5c-64.667 0 -122 -3.33301 -172 -10s-91 -13 -123 -19v-809h-108z" />
    <glyph glyph-name="uni04BB" unicode="&#x4bb;" horiz-adv-x="979" 
d="M127 0l-0.00195312 1397h98v-580c68.667 80.667 165 121 289 121c41.333 0 82 -5.66699 122 -17s75.833 -31.333 107.5 -60s57.334 -67 77.001 -115s29.5 -109 29.5 -183v-563h-98v580c0 42.667 -5 81.167 -15 115.5s-25.5 63.5 -46.5 87.5s-47.667 42.5 -80 55.5
s-71.166 19.5 -116.499 19.5c-29.333 0 -58.5 -3.33301 -87.5 -10s-55.667 -17.334 -80 -32.001s-45.5 -33.5 -63.5 -56.5s-30.667 -50.833 -38 -83.5v-676h-98z" />
    <glyph glyph-name="uni04C0" unicode="&#x4c0;" horiz-adv-x="426" 
d="M268 0h-108v1397h108v-1397z" />
    <glyph glyph-name="uni04CF" unicode="&#x4cf;" horiz-adv-x="385" 
d="M242 920v-920h-99v920h99z" />
    <glyph glyph-name="uni04D8" unicode="&#x4d8;" horiz-adv-x="1483" 
d="M739 -18c-97.333 0 -183.831 17.834 -259.498 53.501s-139.834 83.667 -192.501 144s-93.667 130.833 -123 211.5s-46.333 166 -51 256h1149c0 8.66699 0.333008 17.334 1 26.001s1 17.667 1 27c0 90 -12.833 172.667 -38.5 248s-63 140.166 -112 194.499
s-109 96.666 -180 126.999s-152.167 45.5 -243.5 45.5c-40 0 -80.5 -3.16699 -121.5 -9.5s-83.333 -16.666 -127 -30.999s-88.667 -33.333 -135 -57s-94.5 -52.834 -144.5 -87.501v113c39.333 30 81.166 55.833 125.499 77.5s89.5 39.5 135.5 53.5s91.5 24.333 136.5 31
s87.833 10 128.5 10c106.667 0 202.667 -18 288 -54s158 -85.833 218 -149.5s106 -139.167 138 -226.5s48 -182.333 48 -285c0 -106.667 -17.667 -204.167 -53 -292.5s-82.5 -164 -141.5 -227s-127.167 -111.833 -204.5 -146.5s-158 -52 -242 -52zM745.002 82.001
c64 0 124.002 11.5 180.002 34.5s106 55.5 150 97.5s81 92.167 111 150.5s51 122.5 63 192.5h-1009c14 -78.667 36 -147.667 66 -207s66.667 -108.833 110 -148.5s92.666 -69.5 147.999 -89.5s115.666 -30 180.999 -30z" />
    <glyph glyph-name="uni04D9" unicode="&#x4d9;" horiz-adv-x="981" 
d="M98 815c54.667 42 110.499 72.999 167.499 92.999s119.5 30 187.5 30c66.667 0 128 -12.167 184 -36.5s104.333 -58.166 145 -101.499s72.334 -94.833 95.001 -154.5s34 -125.167 34 -196.5c0 -68 -10.5 -130.5 -31.5 -187.5s-50.333 -106.167 -88 -147.5
s-82.167 -73.666 -133.5 -96.999s-107.666 -35 -168.999 -35c-48.667 0 -97.334 8.66699 -146.001 26s-92.334 44.166 -131.001 80.499s-70 82.5 -94 138.5s-36 122.333 -36 199h725c1.33301 8 2 15.833 2 23.5v23.5c0 52.667 -10 101.5 -30 146.5s-47 84 -81 117
s-73.167 58.833 -117.5 77.5s-91.166 28 -140.499 28c-61.333 0 -118.833 -10.833 -172.5 -32.5s-110.167 -56.5 -169.5 -104.5v110zM198.999 345.999c17.333 -91.333 50.3301 -158.833 98.9971 -202.5s112.334 -65.5 191.001 -65.5c38 0 73.667 6 107 18
s63.333 29.5 90 52.5s49.334 51.167 68.001 84.5s32.334 71 41.001 113h-596z" />
    <glyph glyph-name="uni04E2" unicode="&#x4e2;" horiz-adv-x="1473" 
d="M1311 1397v-1397h-109v1204l-962 -1204h-78v1397h108v-1217l971 1217h70zM1008 1575h-547v104h547v-104z" />
    <glyph glyph-name="uni04E3" unicode="&#x4e3;" horiz-adv-x="1020" 
d="M795 750l-613 -758h-55v928h98v-752l613 752h55v-920h-98v750zM782 1089h-546v105h546v-105z" />
    <glyph glyph-name="uni04E8" unicode="&#x4e8;" horiz-adv-x="1686" 
d="M1583 698c0 -100 -19.166 -193.502 -57.499 -280.502s-90.833 -162.833 -157.5 -227.5s-145 -115.5 -235 -152.5s-187 -55.5 -291 -55.5c-68.667 0 -134.667 8.5 -198 25.5s-122.333 40.833 -177 71.5s-104.334 67.667 -149.001 111s-82.834 91.5 -114.501 144.5
s-56.167 110.167 -73.5 171.5s-26 125.333 -26 192s8.66699 130.834 26 192.501s41.833 119 73.5 172s69.834 101.167 114.501 144.5s94.334 80.5 149.001 111.5s113.667 54.833 177 71.5s129.333 25 198 25c69.333 0 135.666 -8.33301 198.999 -25s122.5 -40.5 177.5 -71.5
s104.833 -68.167 149.5 -111.5s83 -91.5 115 -144.5s56.667 -110.167 74 -171.5s26 -125.666 26 -192.999zM225.001 642.998c6.66699 -80 27.167 -154.333 61.5 -223s79.166 -128 134.499 -178s119.333 -89.167 192 -117.5s150.334 -42.5 233.001 -42.5
c83.333 0 161 14.167 233 42.5s135.5 67.5 190.5 117.5s99.5 109.333 133.5 178s54.333 143 61 223h-1239zM1466 732.998c-4.66699 82.667 -23.6709 159.499 -57.0039 230.499s-77.666 132.5 -132.999 184.5s-119.666 92.833 -192.999 122.5s-152.333 44.5 -237 44.5
c-56 0 -110 -6.66699 -162 -20s-100.667 -32.333 -146 -57s-86.666 -54.5 -123.999 -89.5s-69.666 -74 -96.999 -117s-49.333 -89.667 -66 -140s-26.667 -103.166 -30 -158.499h1245z" />
    <glyph glyph-name="uni04E9" unicode="&#x4e9;" horiz-adv-x="1110" 
d="M1022 459c0 -68 -11.833 -131.167 -35.5 -189.5s-56.167 -108.833 -97.5 -151.5s-90.5 -76 -147.5 -100s-119.167 -36 -186.5 -36c-66.667 0 -128.667 12 -186 36s-107 57.333 -149 100s-74.833 93.167 -98.5 151.5s-35.5 121.5 -35.5 189.5
c0 68.667 11.833 132.167 35.5 190.5s56.5 108.833 98.5 151.5s91.667 76.167 149 100.5s119.333 36.5 186 36.5c67.333 0 129.5 -12.167 186.5 -36.5s106.167 -57.833 147.5 -100.5s73.833 -93.167 97.5 -151.5s35.5 -121.833 35.5 -190.5zM915 502
c-4.66699 49.333 -16.998 94.833 -36.998 136.5s-45.833 77.5 -77.5 107.5s-68.5 53.5 -110.5 70.5s-87 25.5 -135 25.5c-48.667 0 -94 -8.5 -136 -25.5s-78.833 -40.5 -110.5 -70.5s-57.334 -65.833 -77.001 -107.5s-31.834 -87.167 -36.501 -136.5h720zM193.002 412
c4.66699 -48.667 16.999 -93.5 36.999 -134.5s46 -76.167 78 -105.5s69 -52.333 111 -69s87.333 -25 136 -25c48 0 92.833 8.33301 134.5 25s78.334 39.667 110.001 69s57.5 64.5 77.5 105.5s32.667 85.833 38 134.5h-722z" />
    <glyph glyph-name="uni04EE" unicode="&#x4ee;" horiz-adv-x="1217" 
d="M881 1575h-547v104h547v-104zM1102 1397l108.002 -0.000976562l-493 -1299c-21.333 -54.667 -42.5 -102.167 -63.5 -142.5s-43.333 -73.5 -67 -99.5s-48.834 -45.333 -75.501 -58s-56.334 -19 -89.001 -19c-18.667 0 -37.5 1.16699 -56.5 3.5s-36.5 5.83301 -52.5 10.5
s-30.333 10.334 -43 17.001s-22.667 14 -30 22v117c8.66699 -15.333 19.5 -27.833 32.5 -37.5s27.333 -17.167 43 -22.5s32.334 -9 50.001 -11s35.834 -3 54.501 -3c16.667 0 33.5 3.33301 50.5 10s32.667 16.5 47 29.5s26.666 29 36.999 48s17.166 41.167 20.499 66.5
l-569 1368h109l516 -1260z" />
    <glyph glyph-name="uni04EF" unicode="&#x4ef;" horiz-adv-x="854" 
d="M866 920l-688 -1391h-100l321 649l-387 742h103l334 -644l317 644h100zM720 1089h-546v105h546v-105z" />
    <glyph glyph-name="endash" unicode="&#x2013;" horiz-adv-x="1024" 
d="M-12 545h1048v-66h-1048v66z" />
    <glyph glyph-name="emdash" unicode="&#x2014;" horiz-adv-x="2048" 
d="M-12 545h2072v-66h-2072v66z" />
    <glyph glyph-name="quoteleft" unicode="&#x2018;" horiz-adv-x="362" 
d="M115 963v155.001c0 121.333 44.333 215.666 133 282.999v-72c-28.667 -40 -43 -96 -43 -168h43v-198h-133z" />
    <glyph glyph-name="quoteright" unicode="&#x2019;" horiz-adv-x="362" 
d="M248 1401v-156c0 -121.333 -44.333 -215.333 -133 -282v71c28.667 40.667 43 96.667 43 168h-43v199h133z" />
    <glyph glyph-name="quotesinglbase" unicode="&#x201a;" horiz-adv-x="362" 
d="M248 199v-156.001c0 -121.333 -44.333 -215.666 -133 -282.999v72c28.667 40 43 96 43 168h-43v199h133z" />
    <glyph glyph-name="quotedblleft" unicode="&#x201c;" horiz-adv-x="811" 
d="M563 963v155.001c0 121.333 44.333 215.666 133 282.999v-72c-28.667 -40 -43 -96 -43 -168h43v-198h-133zM115 963.001v155.001c0 121.333 44.333 215.666 133 282.999v-72c-28.667 -40 -43 -96 -43 -168h43v-198h-133z" />
    <glyph glyph-name="quotedblright" unicode="&#x201d;" horiz-adv-x="811" 
d="M696 1401v-156c0 -121.333 -44.333 -215.333 -133 -282v71c28.667 40.667 43 96.667 43 168h-43v199h133zM248 1401v-156c0 -121.333 -44.333 -215.333 -133 -282v71c28.667 40.667 43 96.667 43 168h-43v199h133z" />
    <glyph glyph-name="quotedblbase" unicode="&#x201e;" horiz-adv-x="811" 
d="M692 199v-156.001c0 -121.333 -44.333 -215.666 -133 -282.999v72c28.667 40 43 96 43 168h-43v199h133zM252 198.999v-156.001c0 -121.333 -44.333 -215.666 -133 -282.999v72c28.667 40 43 96 43 168h-43v199h133z" />
    <glyph glyph-name="dagger" unicode="&#x2020;" horiz-adv-x="1004" 
d="M567 1415l-37 -579l420 26v-112l-420 26l37 -1247h-133l39 1247l-422 -26v112l422 -26l-39 579h133z" />
    <glyph glyph-name="daggerdbl" unicode="&#x2021;" horiz-adv-x="981" 
d="M436 473l29 369l-412 -29v113l412 -29l-39 518h129l-37 -518l410 29v-113l-410 29l27 -369l-27 -371l410 29v-113l-410 29l37 -518h-129l39 518l-412 -29v113l412 -29z" />
    <glyph glyph-name="bullet" unicode="&#x2022;" horiz-adv-x="1024" 
d="M262 698c0 68.667 24.667 127.5 74 176.5s108 73.5 176 73.5s126.667 -24.5 176 -73.5s74 -107.833 74 -176.5c0 -68 -24.667 -126.5 -74 -175.5s-108 -73.5 -176 -73.5s-126.667 24.5 -176 73.5s-74 107.5 -74 175.5z" />
    <glyph glyph-name="ellipsis" unicode="&#x2026;" horiz-adv-x="2048" 
d="M1772 199v-199h-134v199h134zM1090 199v-199h-134v199h134zM408 199v-199h-134v199h134z" />
    <glyph glyph-name="perthousand" unicode="&#x2030;" horiz-adv-x="2154" 
d="M362 1415c90 0 167.5 -32.333 232.5 -97s97.5 -142.334 97.5 -233.001c0 -90 -32.5 -167.333 -97.5 -232s-142.5 -97 -232.5 -97c-90.667 0 -168.167 32.167 -232.5 96.5s-96.5 141.833 -96.5 232.5s32.167 168.334 96.5 233.001s141.833 97 232.5 97zM362 844
c66.667 0 123.667 23.667 171 71s71 104 71 170c0 66.667 -23.667 123.667 -71 171s-104.333 71 -171 71c-65.333 0 -121.833 -23.833 -169.5 -71.5s-71.5 -104.5 -71.5 -170.5c0 -66.667 23.667 -123.5 71 -170.5s104 -70.5 170 -70.5zM1292 1409l-1124 -1432h-102
l1126 1432h100zM1032 635c90 0 167.5 -32.334 232.5 -97.001s97.5 -142.334 97.5 -233.001c0 -90 -32.5 -167.5 -97.5 -232.5s-142.5 -97.5 -232.5 -97.5c-90.667 0 -168.334 32.333 -233.001 97s-97 142.334 -97 233.001s32.333 168.334 97 233.001s142.334 97 233.001 97z
M1032 62.999c66.667 0 123.667 23.833 171 71.5s71 104.5 71 170.5s-23.667 122.833 -71 170.5s-104.333 71.5 -171 71.5c-66 0 -122.667 -24 -170 -72s-71 -104.667 -71 -170c0 -66.667 23.5 -123.667 70.5 -171s103.833 -71 170.5 -71zM1792 634.999
c90 0 167.5 -32.334 232.5 -97.001s97.5 -142.334 97.5 -233.001c0 -90 -32.5 -167.5 -97.5 -232.5s-142.5 -97.5 -232.5 -97.5c-90.667 0 -168.334 32.333 -233.001 97s-97 142.334 -97 233.001s32.333 168.334 97 233.001s142.334 97 233.001 97zM1792 62.998
c66 0 122.833 23.833 170.5 71.5s71.5 104.5 71.5 170.5s-23.833 122.833 -71.5 170.5s-104.5 71.5 -170.5 71.5s-122.833 -24 -170.5 -72s-71.5 -104.667 -71.5 -170c0 -66.667 23.667 -123.667 71 -171s104.333 -71 171 -71z" />
    <glyph glyph-name="guilsinglleft" unicode="&#x2039;" horiz-adv-x="575" 
d="M158 473l385 -459h-123l-387 459l387 459h123z" />
    <glyph glyph-name="guilsinglright" unicode="&#x203a;" horiz-adv-x="575" 
d="M418 473l-385 459h123l387 -459l-387 -459h-123z" />
    <glyph glyph-name="fraction" unicode="&#x2044;" horiz-adv-x="277" 
d="M717 1416l-1077 -1471h-80l1078 1471h79z" />
    <glyph glyph-name="Euro" unicode="&#x20ac;" horiz-adv-x="1145" 
d="M301 860l705 -0.000976562l-19 -98h-696c-2 -20 -3 -40.333 -3 -61c0 -19.333 1 -42.666 3 -69.999h674l-19 -99h-645c20 -142.667 68.5 -253 145.5 -331s169.167 -117 276.5 -117c104.667 0 224.667 46.333 360 139v-112c-122.667 -86 -244 -129 -364 -129
c-128.667 0 -243 44.5 -343 133.5s-164 227.833 -192 416.5h-151l18 99h125c-1.33301 18 -2 38.333 -2 61s0.666992 46 2 70h-143l18 98h133c27.333 172.667 89.5 308.334 186.5 407.001s216.5 148 358.5 148c116 0 238.333 -34 367 -102l-21 -105
c-122.667 70 -236.667 105 -342 105c-110.667 0 -204.5 -40.333 -281.5 -121s-127.167 -191.334 -150.5 -332.001z" />
    <glyph glyph-name="uni20B4" unicode="&#x20b4;" horiz-adv-x="1024" 
d="M172 1327c108.667 58.667 216.672 88.0039 324.005 88.0039c55.333 0 107.333 -7.5 156 -22.5s91.167 -36.667 127.5 -65s65 -62.833 86 -103.5s31.5 -87 31.5 -139c0 -87.333 -27.333 -162.333 -82 -225h156v-90h-260c-18.667 -12 -40.834 -24.5 -66.501 -37.5l-79 -39
l-77.5 -37.5c-24.667 -12 -45.334 -23 -62.001 -33h545v-91h-664c-16.667 -16 -30 -32.167 -40 -48.5s-17.667 -33.166 -23 -50.499s-8.83301 -35.333 -10.5 -54s-2.5 -38.667 -2.5 -60c0 -39.333 7.66699 -73.833 23 -103.5s36.166 -54.334 62.499 -74.001
s57.5 -34.5 93.5 -44.5s74.667 -15 116 -15c27.333 0 53.833 2.5 79.5 7.5s52.167 13.333 79.5 25s56.666 27 87.999 46s66.666 42.5 105.999 70.5v-127c-123.333 -81.333 -243 -122 -359 -122c-56.667 0 -109.667 7.66699 -159 23s-92.166 37.666 -128.499 66.999
s-65 65.166 -86 107.499s-31.5 90.5 -31.5 144.5c0 79.333 19.667 148.666 59 207.999h-123v91h205c18.667 16 40.667 30.5 66 43.5s51 25.333 77 37l73.5 33.5c23 10.667 41.5 21.667 55.5 33h-477v90h608c24 17.333 43.667 34.5 59 51.5s27.666 34.667 36.999 53
s15.833 37.666 19.5 57.999s5.5 42.833 5.5 67.5c0 38 -7.5 71 -22.5 99s-35.667 51.333 -62 70s-57.5 32.667 -93.5 42s-75 14 -117 14c-24 0 -47.167 -1.66699 -69.5 -5s-45.5 -9.16602 -69.5 -17.499s-50 -19.333 -78 -33s-60 -30.834 -96 -51.501v119z" />
    <glyph glyph-name="afii61352" unicode="&#x2116;" horiz-adv-x="2277" 
d="M1200 1200c0 28.667 3.5 54.998 10.5 78.998s18.333 44.833 34 62.5s36.5 31.334 62.5 41.001s58 14.5 96 14.5h119v-94h-113c-18 0 -33.333 -1.5 -46 -4.5s-23 -8.66699 -31 -17s-13.833 -19.666 -17.5 -33.999s-5.5 -32.833 -5.5 -55.5v-1192h-90l-951 1204v-1204h-108
v1397h90l950 -1221v1024zM1872 1032c50 0 96.333 -8.83301 139 -26.5s79.667 -41.834 111 -72.501s55.833 -66.667 73.5 -108s26.5 -85.666 26.5 -132.999c0 -46.667 -8.83301 -90.834 -26.5 -132.501s-42.167 -78 -73.5 -109s-68.333 -55.5 -111 -73.5s-89 -27 -139 -27
s-96.167 9 -138.5 27s-79 42.5 -110 73.5s-55.333 67.333 -73 109s-26.5 85.834 -26.5 132.501c0 47.333 8.83301 91.666 26.5 132.999s42 77.333 73 108s67.667 54.834 110 72.501s88.5 26.5 138.5 26.5zM1872 935.998c-36.667 0 -70 -6.5 -100 -19.5
s-55.667 -30.667 -77 -53s-37.833 -48.333 -49.5 -78s-17.5 -61.5 -17.5 -95.5s5.83301 -65.833 17.5 -95.5s28.167 -55.5 49.5 -77.5s47 -39.333 77 -52s63.333 -19 100 -19c36 0 69.167 6.33301 99.5 19s56.333 30 78 52s38.5 47.833 50.5 77.5s18 61.5 18 95.5
s-6 65.833 -18 95.5s-28.833 55.667 -50.5 78s-47.667 40 -78 53s-63.5 19.5 -99.5 19.5zM2208 232.998v-94h-664v94h664z" />
    <glyph glyph-name="trademark" unicode="&#x2122;" horiz-adv-x="1925" 
d="M205 1397h635v-84h-265v-729h-104v729h-266v84zM934 1397h153l206 -647l212 647h156v-813h-92v729l-244 -729h-70l-229 729v-729h-92v813z" />
    <glyph glyph-name="minus" unicode="&#x2212;" horiz-adv-x="1352" 
d="M1212 764v-90h-1073v90h1073z" />
    <glyph glyph-name="apple" unicode="&#xf8ff;" horiz-adv-x="1618" 
d="M1123 1617c0 -42.667 -10.001 -89.3311 -30.001 -139.998s-51.667 -97.667 -95 -141c-30 -30 -60.667 -52 -92 -66s-73 -22.333 -125 -25c1.33301 101.333 27.833 189 79.5 263s137.167 124.667 256.5 152c2.66699 -8.66699 4.33398 -16.334 5.00098 -23.001
s1 -13.334 1 -20.001zM1509 414.003c-12.667 -41.333 -29.5 -83.334 -50.5 -126.001s-46.167 -86.334 -75.5 -131.001c-44 -67.333 -88 -117.666 -132 -150.999s-88 -50 -132 -50c-34.667 0 -82.5 11 -143.5 33s-112.5 33 -154.5 33s-90.833 -11.5 -146.5 -34.5
s-100.834 -34.5 -135.501 -34.5c-52 0 -103.667 22.167 -155 66.5s-102.333 110.833 -153 199.5c-50 87.333 -87.667 174 -113 260s-38 171.333 -38 256c0 156.667 38.5 284.334 115.5 383.001s174.167 148 291.5 148c50 0 110.5 -10.333 181.5 -31s118.167 -31 141.5 -31
c30 0 79 11.667 147 35s127 35 177 35c64.667 0 123.334 -13.5 176.001 -40.5s102.667 -69.833 150 -128.5c-74 -62.667 -123.167 -120.167 -147.5 -172.5s-36.5 -105.833 -36.5 -160.5c0 -84.667 23.667 -161 71 -229s101.333 -111 162 -129z" />
    <glyph glyph-name="glyph4" 
 />
    <glyph glyph-name="notequal" horiz-adv-x="1352" 
d="M592 338l-139 -291h-99l142 291h-265v94h312l159 332h-471v94h517l139 291h98l-141 -291h278v-94h-323l-160 -332h483v-94h-530z" />
    <glyph glyph-name="infinity" horiz-adv-x="1481" 
d="M1370 602c0 -42 -6.82812 -81.5 -20.4951 -118.5s-33.167 -69.333 -58.5 -97s-55.833 -49.5 -91.5 -65.5s-75.167 -24 -118.5 -24c-40 0 -77.333 6.33301 -112 19s-66.167 29.167 -94.5 49.5s-53.833 43.666 -76.5 69.999s-42.334 53.166 -59.001 80.499h-4
c-18 -29.333 -38.833 -57.166 -62.5 -83.499s-49.334 -49.5 -77.001 -69.5s-57 -36 -88 -48s-63.5 -18 -97.5 -18c-48 0 -90.667 7.66699 -128 23s-68.833 36.333 -94.5 63s-45.167 58 -58.5 94s-20 74.333 -20 115c0 43.333 6.66699 83.666 20 120.999
s32.5 69.666 57.5 96.999s55.5 48.666 91.5 63.999s77 23 123 23c43.333 0 82.666 -7 117.999 -21s66.833 -31.667 94.5 -53s51.667 -44.666 72 -69.999s37.5 -49.666 51.5 -72.999h4c15.333 23.333 33.666 47.833 54.999 73.5s45.666 49.167 72.999 70.5
s57.833 38.833 91.5 52.5s70.5 20.5 110.5 20.5c42.667 0 82.167 -7 118.5 -21s67.833 -33.667 94.5 -59s47.667 -56.166 63 -92.499s23 -77.166 23 -122.499zM1270 600c0 28.667 -4.16797 55.6689 -12.501 81.002s-20.666 47.5 -36.999 66.5s-37 34 -62 45
s-54.167 16.5 -87.5 16.5c-30 0 -58.167 -5 -84.5 -15s-51.166 -24.333 -74.499 -43s-45.5 -40.834 -66.5 -66.501s-41.5 -54.5 -61.5 -86.5c39.333 -68.667 83.666 -121.334 132.999 -158.001s100 -55 152 -55c34 0 63.667 5.66699 89 17s46.333 26.833 63 46.5
s29 42.5 37 68.5s12 53.667 12 83zM694.004 598.002c-16.667 30 -36.168 57.998 -58.501 83.998s-46 48.333 -71 67s-50.833 33.334 -77.5 44.001s-53 16 -79 16c-35.333 0 -65.666 -5.66699 -90.999 -17s-46 -26.833 -62 -46.5s-27.667 -42.667 -35 -69
s-11 -54.5 -11 -84.5c0 -31.333 5 -59.666 15 -84.999s23.833 -47 41.5 -65s38.667 -32 63 -42s50.833 -15 79.5 -15c30 0 58.5 5.83301 85.5 17.5s52.5 27.167 76.5 46.5s46.333 42 67 68s39.667 53 57 81z" />
    <glyph glyph-name="lessequal" horiz-adv-x="1352" 
d="M231 0v94h891v-94h-891zM231 688v45l891 422v-106l-723 -336v-4l723 -338v-107z" />
    <glyph glyph-name="greaterequal" horiz-adv-x="1352" 
d="M231 0v94h891v-94h-891zM231 264v107l723 336v4l-723 338v106l891 -422v-45z" />
    <glyph glyph-name="partialdiff" horiz-adv-x="1100" 
d="M997 1034c0 -54 -4.16797 -116.333 -12.501 -187s-21.833 -144 -40.5 -220c-11.333 -48 -25.666 -97.167 -42.999 -147.5s-37.666 -99.5 -60.999 -147.5s-49.666 -93.333 -78.999 -136s-62 -80 -98 -112s-75.667 -57.333 -119 -76s-90.333 -28 -141 -28
c-46.667 0 -89 8.5 -127 25.5s-70.667 41.167 -98 72.5s-48.5 69.166 -63.5 113.499s-22.5 93.833 -22.5 148.5c0 63.333 6.5 124.166 19.5 182.499s31.333 113 55 164s51.667 97.333 84 139s68 77.334 107 107.001s80.333 52.667 124 69s88.5 24.5 134.5 24.5
c35.333 0 67 -4.33301 95 -13s52.833 -20 74.5 -34s40.167 -30.333 55.5 -49s28 -38 38 -58h4c3.33301 23.333 6.16602 48 8.49902 74s3.5 55.333 3.5 88c0 63.333 -6.33301 118 -19 164s-30.834 83.667 -54.501 113s-52.667 51 -87 65s-73.166 21 -116.499 21
c-28 0 -57.667 -4.5 -89 -13.5s-61 -21.5 -89 -37.5l-15.5 40.5c-5 13.667 -10.5 26.5 -16.5 38.5c11.333 7.33301 25.5 14.5 42.5 21.5s35.5 13.333 55.5 19s40.667 10.334 62 14.001s41.666 5.5 60.999 5.5c56.667 0 107.667 -9.33301 153 -28s84 -46.834 116 -84.501
s56.5 -84.667 73.5 -141s25.5 -122.166 25.5 -197.499zM863.999 748c-6.66699 27.333 -17 52.666 -31 75.999s-31.5 43.5 -52.5 60.5s-45.5 30.167 -73.5 39.5s-59.667 14 -95 14c-56 0 -109.333 -16.333 -160 -49s-95 -76.667 -133 -132s-68.167 -119.166 -90.5 -191.499
s-33.5 -148.166 -33.5 -227.499c0 -42.667 5.33301 -80.834 16 -114.501s25.5 -62 44.5 -85s41.667 -40.5 68 -52.5s55.166 -18 86.499 -18c50.667 0 98.834 15.167 144.501 45.5s88 74.5 127 132.5s74 129.167 105 213.5s56.833 180.5 77.5 288.5z" />
    <glyph glyph-name="summation" horiz-adv-x="1206" 
d="M47 -471v39l672 921l-310.5 446.5l-310.5 446.5v52h998v-88h-856l295.5 -428.5l295.5 -425.5l-316.5 -437l-317.5 -438h952v-88h-1102z" />
    <glyph glyph-name="product" horiz-adv-x="1366" 
d="M1090 -471v1814h-811v-1814h-103v1905h1016v-1905h-102z" />
    <glyph glyph-name="pi" horiz-adv-x="1204" 
d="M1128 10c-12 -7.33301 -27.8301 -12.8301 -47.4971 -16.4971s-39.167 -5.5 -58.5 -5.5c-38 0 -70.5 6.5 -97.5 19.5s-49 30.5 -66 52.5s-29.5 47.667 -37.5 77s-12 60.666 -12 93.999v705h-420v-676c0 -51.333 -2.16699 -99.833 -6.5 -145.5
s-10.166 -83.834 -17.499 -114.501h-105c9.33301 37.333 16.166 79.166 20.499 125.499s6.5 91.166 6.5 134.499v676c-14.667 -0.666992 -30.834 -2.16699 -48.501 -4.5s-35.667 -5.5 -54 -9.5s-36 -8.5 -53 -13.5s-32.167 -10.167 -45.5 -15.5l-15.5 42
c-5 13.333 -10.833 27.333 -17.5 42c23.333 10 57 20.333 101 31s96.333 16 157 16h815v-88h-213v-696c0 -24.667 2.33301 -47.167 7 -67.5s12.167 -37.666 22.5 -51.999s23.666 -25.333 39.999 -33s36.166 -11.5 59.499 -11.5c10.667 0 21 1.33301 31 4s20.333 6 31 10
l12 -40.5z" />
    <glyph glyph-name="integral" horiz-adv-x="946" 
d="M782 1425c-8 4.66699 -20.3301 9 -36.9971 13s-33.667 6 -51 6c-56.667 0 -99.167 -18.333 -127.5 -55s-42.5 -88 -42.5 -154v-1387c0 -47.333 -6.33301 -89.333 -19 -126s-30.834 -67.667 -54.501 -93s-52 -44.666 -85 -57.999s-70.167 -20 -111.5 -20
c-10 0 -20.5 0.5 -31.5 1.5s-21.833 2.5 -32.5 4.5s-20.667 4.16699 -30 6.5s-17 5.16602 -23 8.49902l12.5 41c4.33301 14 8.5 28.333 12.5 43c12 -4 24.833 -7.66699 38.5 -11s30.167 -5 49.5 -5c58 0 101.167 17.667 129.5 53s42.5 86.333 42.5 153v1391
c0 45.333 6.16699 86.333 18.5 123s30.166 67.667 53.499 93s51.833 44.833 85.5 58.5s71.834 20.5 114.501 20.5c21.333 0 43.166 -2.16699 65.499 -6.5s38.166 -9.83301 47.499 -16.5l-12 -42c-4 -14.667 -8.33301 -28.667 -13 -42z" />
    <glyph glyph-name="radical" horiz-adv-x="944" 
d="M969 1491l-191.501 -757.5l-191.5 -758.5h-86l-139.5 369l-139.5 367l-52 -28l-54 -30c-6.66699 12.667 -12.667 25.5 -18 38.5s-11.666 25.5 -18.999 37.5l101 52.5l100 52.5l130 -344.5l130 -344.5l167.5 673l167.5 673h95v0z" />
    <glyph glyph-name="approxequal" horiz-adv-x="1352" 
d="M1147 860c-14.667 -21.333 -30.9971 -42 -48.9971 -62s-38 -37.667 -60 -53s-46 -27.666 -72 -36.999s-55 -14 -87 -14c-40 0 -78.5 6.83301 -115.5 20.5s-70.833 30.167 -101.5 49.5c-29.333 17.333 -60 33.333 -92 48s-65 22 -99 22c-38 0 -74.167 -12.667 -108.5 -38
s-64.5 -58 -90.5 -98l-65 66c15.333 22 31.666 43 48.999 63s36.833 37.5 58.5 52.5s45.5 26.833 71.5 35.5s55 13 87 13c42 0 81.5 -6.66699 118.5 -20s69.833 -29.333 98.5 -48c33.333 -20.667 65.166 -37.834 95.499 -51.501s62.166 -20.5 95.499 -20.5
c38 0 74.167 12.667 108.5 38s64.833 58 91.5 98l66 -64v0zM1147 434c-14.667 -20.667 -30.9971 -40.999 -48.9971 -60.999s-38 -37.5 -60 -52.5s-46 -27.167 -72 -36.5s-55 -14 -87 -14c-40 0 -78.5 6.83301 -115.5 20.5s-70.833 30.167 -101.5 49.5
c-29.333 17.333 -60 33.333 -92 48s-65 22 -99 22c-38 0 -74.167 -12.667 -108.5 -38s-64.5 -58.666 -90.5 -99.999l-65 68c15.333 22 31.666 43 48.999 63s36.833 37.5 58.5 52.5s45.5 26.833 71.5 35.5s55 13 87 13c42 0 81.5 -7 118.5 -21s69.833 -30.333 98.5 -49
c33.333 -20.667 65.166 -37.334 95.499 -50.001s62.166 -19 95.499 -19c38 0 74.167 12.167 108.5 36.5s64.833 57.166 91.5 98.499l66 -66v0z" />
    <glyph glyph-name="lozenge" horiz-adv-x="1057" 
d="M940 717l-191.5 -358.5l-191.5 -358.5h-61l-191.5 357.5l-191.5 357.5l191.5 359l191.5 360h61l191.5 -359zM840 717l-157.5 291.5l-156.5 291.5l-156.5 -291.5l-156.5 -291.5l155.5 -292l155.5 -292l157 292z" />
    <glyph glyph-name="Omega" horiz-adv-x="1372" 
d="M846 0l-0.00195312 88.0059c32 28.667 66.333 63 103 103s70.334 87.667 101.001 143s56.167 119.166 76.5 191.499s30.5 155.166 30.5 248.499c0 84.667 -10.167 163.167 -30.5 235.5s-50.166 135 -89.499 188s-88.333 94.667 -147 125s-126 45.5 -202 45.5
c-73.333 0 -139.666 -14.833 -198.999 -44.5s-109.833 -71 -151.5 -124s-73.834 -115.5 -96.501 -187.5s-34 -150.667 -34 -236c0 -90 9.66699 -170.5 29 -241.5s44.333 -134.333 75 -190s64.5 -104.334 101.5 -146.001s73.5 -78.5 109.5 -110.5v-88h-418v88h304
c-30.667 26.667 -63.834 60.667 -99.501 102s-68.834 90.666 -99.501 147.999s-56.167 122.833 -76.5 196.5s-30.5 156.167 -30.5 247.5c0 96 14.167 185.167 42.5 267.5s68.333 153.666 120 213.999s113.5 107.833 185.5 142.5s151.333 52 238 52
c90 0 170.5 -16.333 241.5 -49s131.167 -78.5 180.5 -137.5s87 -129.833 113 -212.5s39 -174.334 39 -275.001c0 -82.667 -9.33301 -159.667 -28 -231s-42.667 -136.333 -72 -195s-62.166 -110.667 -98.499 -156s-72.166 -83.333 -107.499 -114h306v-88h-416z" />
    <glyph glyph-name="Delta" horiz-adv-x="1145" 
d="M43 0v61l240.5 686.5l240.5 686.5h103l238 -686.5l237 -686.5v-61h-1059zM983 90l-189.5 552.998l-189.5 553c-8 22.667 -13.667 42.334 -17 59.001s-7.33301 33.334 -12 50.001h-4l-13.5 -53c-5 -20 -10.5 -38.667 -16.5 -56l-189.5 -553l-189.5 -553h821v0z" />
    <glyph glyph-name="divisionslash" horiz-adv-x="276" 
d="M-360 -55h-80l1077 1470h80z" />
    <glyph glyph-name="bulletoperator" horiz-adv-x="575" 
d="M289 817c14.667 0 28.498 -2.83203 41.498 -8.49902s24.5 -13.334 34.5 -23.001s17.833 -21.167 23.5 -34.5s8.5 -28 8.5 -44c0 -15.333 -3 -29.666 -9 -42.999s-14 -24.833 -24 -34.5s-21.5 -17.334 -34.5 -23.001s-26.5 -8.5 -40.5 -8.5
c-15.333 0 -29.833 2.83301 -43.5 8.5s-25.5 13.5 -35.5 23.5s-17.833 21.667 -23.5 35s-8.5 27.333 -8.5 42s2.83301 28.667 8.5 42s13.334 25 23.001 35s21.334 18 35.001 24s28.5 9 44.5 9z" />
    <glyph glyph-name="uni2074" horiz-adv-x="639" 
d="M483 1012h117v-58h-117v-274h-84v274h-376v25l419 436h41v-403zM399 1280l-260 -268h260v268z" />
    <glyph glyph-name="glyph250" horiz-adv-x="569" 
 />
    <glyph glyph-name="glyph251" horiz-adv-x="569" 
 />
    <glyph glyph-name="glyph252" 
 />
    <glyph glyph-name="glyph253" 
 />
    <glyph glyph-name="Omegagreek" horiz-adv-x="1372" 
d="M846 0l-0.00195312 88.0059c32 28.667 66.333 63 103 103s70.334 87.667 101.001 143s56.167 119.166 76.5 191.499s30.5 155.166 30.5 248.499c0 84.667 -10.167 163.167 -30.5 235.5s-50.166 135 -89.499 188s-88.333 94.667 -147 125s-126 45.5 -202 45.5
c-73.333 0 -139.666 -14.833 -198.999 -44.5s-109.833 -71 -151.5 -124s-73.834 -115.5 -96.501 -187.5s-34 -150.667 -34 -236c0 -90 9.66699 -170.5 29 -241.5s44.333 -134.333 75 -190s64.5 -104.334 101.5 -146.001s73.5 -78.5 109.5 -110.5v-88h-418v88h304
c-30.667 26.667 -63.834 60.667 -99.501 102s-68.834 90.666 -99.501 147.999s-56.167 122.833 -76.5 196.5s-30.5 156.167 -30.5 247.5c0 96 14.167 185.167 42.5 267.5s68.333 153.666 120 213.999s113.5 107.833 185.5 142.5s151.333 52 238 52
c90 0 170.5 -16.333 241.5 -49s131.167 -78.5 180.5 -137.5s87 -129.833 113 -212.5s39 -174.334 39 -275.001c0 -82.667 -9.33301 -159.667 -28 -231s-42.667 -136.333 -72 -195s-62.166 -110.667 -98.499 -156s-72.166 -83.333 -107.499 -114h306v-88h-416z" />
    <glyph glyph-name="glyph270" 
 />
    <glyph glyph-name="afii10066.ital" horiz-adv-x="1110" 
d="M92 1155c0 76.667 30 139.333 90 188c60.667 49.333 159 74 295 74c34 0 75.167 -1.33301 123.5 -4s106.833 -4 175.5 -4c44 0 82.667 2.33301 116 7s61.666 10 84.999 16l-12 -105l-43 -8c-14 -2.66699 -30.167 -5 -48.5 -7s-38.5 -3 -60.5 -3
c-21.333 0 -44.166 0.5 -68.499 1.5s-50.166 2.16699 -77.499 3.5s-53.166 2.5 -77.499 3.5s-47.5 1.5 -69.5 1.5c-71.333 0 -128.333 -4.66699 -171 -14s-75.167 -22 -97.5 -38s-37 -34.333 -44 -55s-10.5 -42.334 -10.5 -65.001c0 -20 7.16699 -42.167 21.5 -66.5
s36.166 -47 65.499 -68s66.5 -38.667 111.5 -53s98.167 -21.5 159.5 -21.5c67.333 0 129.5 -11.167 186.5 -33.5s106.333 -54.166 148 -95.499s74.167 -91.5 97.5 -150.5s35 -125.5 35 -199.5c0 -68.667 -11.667 -132 -35 -190s-55.833 -108.333 -97.5 -151
s-91 -76 -148 -100s-119.167 -36 -186.5 -36c-66.667 0 -128.667 12 -186 36s-107 57.333 -149 100s-74.833 93 -98.5 151s-35.5 121.333 -35.5 190c0 45.333 6.83301 90 20.5 134s32.667 84.833 57 122.5s53.166 71 86.499 100s69.333 50.833 108 65.5
c-22.667 5.33301 -49.167 15 -79.5 29s-59.333 32.5 -87 55.5s-51.167 50.333 -70.5 82s-29 67.5 -29 107.5zM918 458.999c0 59.333 -9.16699 112.667 -27.5 160s-43.833 87.5 -76.5 120.5s-71 58.333 -115 76s-92 26.5 -144 26.5s-100.167 -9.66699 -144.5 -29
s-82.833 -46 -115.5 -80s-58.334 -74.333 -77.001 -121s-28 -97.667 -28 -153c0 -54.667 9.33301 -105.167 28 -151.5s44.334 -86.5 77.001 -120.5s71.167 -60.667 115.5 -80s92.5 -29 144.5 -29s100 9.66699 144 29s82.333 46 115 80s58.167 74.167 76.5 120.5
s27.5 96.833 27.5 151.5z" />
    <glyph glyph-name="glyph419" 
 />
    <glyph glyph-name="glyph420" 
 />
    <glyph glyph-name="glyph421" 
 />
    <glyph glyph-name="glyph422" 
 />
    </font>
</defs>
</svg>
