<?xml version="1.0" standalone="no"?>
<!DOCTYPE svg PUBLIC "-//W3C//DTD SVG 1.1//EN" "http://www.w3.org/Graphics/SVG/1.1/DTD/svg11.dtd" >
<svg>
<metadata>
Created by FontForge 20090914 at Tue Oct  4 01:49:59 2011
 By www-data
Digitized data copyright The Monotype Corporation 1991-2001. All rights reserved. Gill Sans&#226;&#132;&#162; is a trademark of The Monotype Corporation Registered in the U.S. Patent &#38; Trademark Office and may be registered in certain jurisdictions
</metadata>
<defs>
<font id="GillSans-LightItalic" horiz-adv-x="918" >
  <font-face 
    font-family="Gill Sans"
    font-weight="300"
    font-style="italic"
    font-stretch="normal"
    units-per-em="2048"
    panose-1="2 11 3 2 2 1 4 9 2 3"
    ascent="1638"
    descent="-410"
    x-height="920"
    cap-height="1397"
    bbox="-1185 -471.779 2222 1837"
    underline-thickness="102"
    underline-position="-103"
    slope="-8"
    unicode-range="U+0008-U+FB02"
  />
<missing-glyph horiz-adv-x="2048" 
d="M256 0v1536h1536v-1536h-1536zM384 128h1280v1280h-1280v-1280z" />
    <glyph glyph-name="fi" unicode="fi" horiz-adv-x="961" 
d="M610 920l-10.001 -68h-268l-176 -1260h-90l176 1260h-168l8 68h170l18 116c20.667 129.333 63.834 224.833 129.501 286.5s163.5 92.5 293.5 92.5c29.333 0 61 -1.33301 95 -4l-12 -78c-35.333 9.33301 -71 14 -107 14c-80 0 -147 -22 -201 -66
s-91.333 -130.333 -112 -259l-16 -102h270zM876.999 920l-129 -920h-91l129 920h91z" />
    <glyph glyph-name="fl" unicode="fl" horiz-adv-x="961" 
d="M594 920l-10 -68h-244l-176 -1260h-90l176 1260h-170l8 68h166l14 84c17.333 105.333 38.5 183.333 63.5 234s68.5 93 130.5 127s138.333 51 229 51c26 0 52.333 -1.66699 79 -5l-10 -72c-26.667 5.33301 -53.334 8 -80.001 8c-67.333 0 -125.666 -14 -174.999 -42
s-82.833 -64.167 -100.5 -108.5s-33.167 -109.5 -46.5 -195.5l-12 -81h248zM952 1397l-207 -1397h-90l207 1397h90z" />
    <glyph glyph-name=".notdef" horiz-adv-x="2048" 
d="M256 0v1536h1536v-1536h-1536zM384 128h1280v1280h-1280v-1280z" />
    <glyph glyph-name=".null" horiz-adv-x="0" 
 />
    <glyph glyph-name=".null" horiz-adv-x="0" 
 />
    <glyph glyph-name=".null" horiz-adv-x="0" 
 />
    <glyph glyph-name="nonmarkingreturn" unicode="&#x9;" horiz-adv-x="569" 
 />
    <glyph glyph-name="nonmarkingreturn" unicode="&#xd;" horiz-adv-x="569" 
 />
    <glyph glyph-name="nonmarkingreturn" unicode="&#xa;" horiz-adv-x="569" 
 />
    <glyph glyph-name="space" unicode=" " horiz-adv-x="569" 
 />
    <glyph glyph-name="exclam" unicode="!" horiz-adv-x="342" 
d="M113 360l120 1037h115l-192 -1037h-43zM20 0l25 182h121l-25 -182h-121z" />
    <glyph glyph-name="quotedbl" unicode="&#x22;" horiz-adv-x="569" 
d="M399 1397h136v-223l-25 -256h-86l-25 256v223zM117 1397h135v-223l-25 -256h-86l-24 256v223z" />
    <glyph glyph-name="numbersign" unicode="#" horiz-adv-x="1352" 
d="M561 1430h94l-86 -420h389l89 420h94l-88 -420h168v-95h-187l-82 -391h269v-94h-289l-86 -416h-94l86 416h-389l-87 -416h-94l86 416h-170v94h191l80 391h-271v95h291zM549 915l-80 -391h389l82 391h-391z" />
    <glyph glyph-name="dollar" unicode="$" 
d="M631 1415l-13.002 -82.001c112 -14 195.333 -37.667 250 -71l-14 -95c-91.333 43.333 -174.666 67.333 -249.999 72l-76 -545c196.667 -96.667 295 -218 295 -364c0 -90.667 -35.833 -169 -107.5 -235s-167.5 -103.667 -287.5 -113l-31 -215h-92l31 215
c-125.333 11.333 -224.333 42.666 -297 93.999l12 98c94 -61.333 193.667 -94 299 -98l78 557c-107.333 57.333 -183.333 110.833 -228 160.5s-67 112.834 -67 189.501c0 96.667 35.833 178.334 107.5 245.001s166.834 101.667 285.501 105l13 82h92zM443.998 742.999
l69.999 497.999c-88 -8 -157.167 -36 -207.5 -84s-75.5 -106.667 -75.5 -176c0 -51.333 16.833 -94.166 50.5 -128.499s87.834 -70.833 162.501 -109.5zM511.997 581.998l-70.001 -506c86 6 154.667 32.167 206 78.5s77 101.166 77 164.499
c0 51.333 -13.667 94.833 -41 130.5s-84.666 79.834 -171.999 132.501z" />
    <glyph glyph-name="percent" unicode="%" horiz-adv-x="1430" 
d="M389 1415c90 0 167.5 -32.333 232.5 -97s97.5 -142.334 97.5 -233.001c0 -90 -32.5 -167.333 -97.5 -232s-142.5 -97 -232.5 -97c-90.667 0 -168.334 32.167 -233.001 96.5s-97 141.833 -97 232.5s32.333 168.334 97 233.001s142.334 97 233.001 97zM389 844
c66 0 122.833 23.667 170.5 71s71.5 104 71.5 170c0 66.667 -23.833 123.667 -71.5 171s-104.5 71 -170.5 71s-122.833 -23.833 -170.5 -71.5s-71.5 -104.5 -71.5 -170.5c0 -66.667 23.667 -123.5 71 -170.5s104.333 -70.5 171 -70.5zM1341 1409l-1124 -1432h-102l1126 1432
h100zM1081 635c90 0 167.5 -32.334 232.5 -97.001s97.5 -142.334 97.5 -233.001c0 -90 -32.5 -167.5 -97.5 -232.5s-142.5 -97.5 -232.5 -97.5c-90.667 0 -168.167 32.333 -232.5 97s-96.5 142.334 -96.5 233.001s32.167 168.334 96.5 233.001s141.833 97 232.5 97z
M1081 62.999c66.667 0 123.667 23.833 171 71.5s71 104.5 71 170.5s-23.667 122.833 -71 170.5s-104.333 71.5 -171 71.5c-66 0 -122.667 -24 -170 -72s-71 -104.667 -71 -170c0 -66.667 23.5 -123.667 70.5 -171s103.833 -71 170.5 -71z" />
    <glyph glyph-name="ampersand" unicode="&#x26;" horiz-adv-x="1343" 
d="M1163 676l104.998 -0.00195312c-58 -145.333 -165.333 -304.333 -322 -477c97.333 -86.667 198.333 -130 303 -130c18 0 34.333 1.66699 49 5l-49 -90c-13.333 -1.33301 -26.333 -2 -39 -2c-114 0 -226 50.333 -336 151c-118 -100.667 -244 -151 -378 -151
c-116.667 0 -214.5 35.833 -293.5 107.5s-118.5 159.834 -118.5 264.501c0 170 115.333 310.667 346 422c-64 126 -96 231.333 -96 316c0 92.667 29.333 169.667 88 231s132.334 92 221.001 92c76.667 0 142.667 -27.167 198 -81.5s83 -119.166 83 -194.499
c0 -147.333 -120.333 -282 -361 -404c118.667 -200 222.334 -355.667 311.001 -467c114.667 112.667 211 248.667 289 408zM517.998 818.998c200.667 102.667 300.999 212.665 300.999 329.998c0 46.667 -17.667 87 -53 121s-77.666 51 -126.999 51
c-55.333 0 -103.333 -21.167 -144 -63.5s-61 -92.166 -61 -149.499c0 -87.333 28 -183.666 84 -288.999zM804.997 200.996c-86.667 98.667 -196.667 263 -330 493c-188 -100.667 -282 -214 -282 -340c0 -79.333 28.833 -145.5 86.5 -198.5s130.5 -79.5 218.5 -79.5
c104.667 0 207 41.667 307 125z" />
    <glyph glyph-name="quotesingle" unicode="'" horiz-adv-x="455" 
d="M221 1397h135v-223l-24 -256h-86l-25 256v223z" />
    <glyph glyph-name="parenleft" unicode="(" horiz-adv-x="618" 
d="M614 1415l119 -0.000976562c-350.667 -344 -526 -716 -526 -1116c0 -265.333 67 -522 201 -770h-101c-60.667 114.667 -108.5 243.834 -143.5 387.501s-52.5 277.167 -52.5 400.5c0 386.667 167.667 752.667 503 1098z" />
    <glyph glyph-name="parenright" unicode=")" horiz-adv-x="618" 
d="M-55 -471l-119 0.000976562c350.667 344 526 716 526 1116c0 265.333 -66.667 522 -200 770h100c60.667 -114.667 108.667 -243.834 144 -387.501s53 -277.167 53 -400.5c0 -386.667 -168 -752.667 -504 -1098z" />
    <glyph glyph-name="asterisk" unicode="*" horiz-adv-x="961" 
d="M881 1255l-287 -231l4 -10l369 33v-97l-369 41l-6 -12l289 -234l-70 -69l-238 289l-10 -2l35 -379h-94l37 379l-9 2l-235 -289l-72 69l291 234l-4 10l-375 -35v95l373 -37l2 12l-287 231l72 72l233 -285l11 5l-37 368h94l-35 -366l10 -7l238 285z" />
    <glyph glyph-name="plus" unicode="+" horiz-adv-x="1352" 
d="M166 764h491v491h91v-491h491v-90h-491v-492h-91v492h-491v90z" />
    <glyph glyph-name="comma" unicode="," horiz-adv-x="342" 
d="M37 0l24 182.001h121l-22 -162c-8 -54.667 -28.667 -107.334 -62 -158.001s-72 -81.667 -116 -93l8 59c50.667 40.667 80 98 88 172h-41z" />
    <glyph glyph-name="hyphen" unicode="-" horiz-adv-x="555" 
d="M526 487l-12 -79h-485l10 79h487z" />
    <glyph glyph-name="period" unicode="." horiz-adv-x="342" 
d="M55 0l25 182h121l-25 -182h-121z" />
    <glyph glyph-name="slash" unicode="/" horiz-adv-x="575" 
d="M494 1415h94l-449 -1433h-96z" />
    <glyph glyph-name="zero" unicode="0" horiz-adv-x="1067" 
d="M668 1415c110.667 0 195.667 -43.832 255 -131.499s89 -204.834 89 -351.501c0 -257.333 -52.5 -480 -157.5 -668s-236.833 -282 -395.5 -282c-110 0 -195.5 43.5 -256.5 130.5s-91.5 206.5 -91.5 358.5c0 230 50.333 444.833 151 644.5s236 299.5 406 299.5zM461 68.001
c138.667 0 249 94.334 331 283.001s123 379 123 571c0 128.667 -22.333 228.667 -67 300s-106.667 107 -186 107c-134.667 0 -244.167 -94.333 -328.5 -283s-126.5 -384.334 -126.5 -587.001c0 -122.667 22.667 -218.5 68 -287.5s107.333 -103.5 186 -103.5z" />
    <glyph glyph-name="one" unicode="1" horiz-adv-x="1069" 
d="M694 1397l-194 -1397h-92l194 1397h92z" />
    <glyph glyph-name="two" unicode="2" horiz-adv-x="1067" 
d="M885 86l-13 -86h-798c108 101.333 240.5 251 397.5 449s257.667 338.167 302 420.5s66.5 157.166 66.5 224.499c0 70 -21.333 126.667 -64 170s-98.667 65 -168 65c-96 0 -210 -45.667 -342 -137l17 108c124 76.667 238 115 342 115c92.667 0 168 -29.167 226 -87.5
s87 -134.166 87 -227.499c0 -98.667 -41.833 -214.667 -125.5 -348s-260.167 -355.333 -529.5 -666h602z" />
    <glyph glyph-name="three" unicode="3" horiz-adv-x="1067" 
d="M305 1249l12 90.0049c90 50.667 183 76 279 76c108 0 198.833 -34 272.5 -102s110.5 -152 110.5 -252c0 -149.333 -88.667 -264 -266 -344c124 -70.667 186 -172.334 186 -305.001c0 -123.333 -44 -225.833 -132 -307.5s-199 -122.5 -333 -122.5
c-130.667 0 -246.667 34.667 -348 104l12 84c110 -68 219.333 -102 328 -102c110 0 200 33.167 270 99.5s105 151.166 105 254.499c0 81.333 -28 146.666 -84 195.999s-134 74.666 -234 75.999l11 66c127.333 -1.33301 225 26.167 293 82.5s102 127.166 102 212.499
c0 78 -29.667 143.167 -89 195.5s-133.333 78.5 -222 78.5c-88 0 -179 -26.667 -273 -80z" />
    <glyph glyph-name="four" unicode="4" horiz-adv-x="1067" 
d="M977 545l-8 -68h-230l-67 -477h-92l67 477h-571l6 39l758 899h30l-120 -870h227zM741 1190l-540 -645h456l88 641z" />
    <glyph glyph-name="five" unicode="5" horiz-adv-x="1067" 
d="M973 1397l-12 -85.999h-502l-62 -439c35.333 6 67 9 95 9c116 0 211.5 -38.333 286.5 -115s112.5 -174.334 112.5 -293.001c0 -136 -48.333 -251.833 -145 -347.5s-214.334 -143.5 -353.001 -143.5c-130.667 0 -246 38.667 -346 116l39 76
c96 -70.667 197.667 -106 305 -106c110 0 204.5 39.5 283.5 118.5s118.5 173.833 118.5 284.5c0 98 -30.667 176.5 -92 235.5s-142.666 88.5 -243.999 88.5c-54 0 -109.333 -8.33301 -166 -25l88 627h594z" />
    <glyph glyph-name="six" unicode="6" horiz-adv-x="1067" 
d="M795 1397l-435 -624.999l5 -4c86 58.667 176 88 270 88c97.333 0 174.833 -29.833 232.5 -89.5s86.5 -139.834 86.5 -240.501c0 -143.333 -48.167 -269.833 -144.5 -379.5s-207.166 -164.5 -332.499 -164.5c-98.667 0 -181.334 36 -248.001 108s-100 162 -100 270
c0 145.333 70.333 320.333 211 525l352 512h103zM475 68.001c102 0 191 46.335 267 139.002s114 202 114 328c0 70.667 -20.5 127.5 -61.5 170.5s-94.833 64.5 -161.5 64.5c-112 0 -207.667 -40.333 -287 -121s-119 -178.334 -119 -293.001
c0 -88.667 22.5 -158.834 67.5 -210.501s105.167 -77.5 180.5 -77.5z" />
    <glyph glyph-name="seven" unicode="7" horiz-adv-x="1067" 
d="M1036 1397l-717 -1397h-98l672 1311h-684l12 86h815z" />
    <glyph glyph-name="eight" unicode="8" horiz-adv-x="1067" 
d="M741 733l-0.000976562 -2c68 -16 120.5 -50.333 157.5 -103s55.5 -116.667 55.5 -192c0 -123.333 -46 -229.833 -138 -319.5s-201 -134.5 -327 -134.5c-109.333 0 -201.833 36.167 -277.5 108.5s-113.5 162.166 -113.5 269.499c0 92.667 28.333 176 85 250
s137.667 121.333 243 142v4c-117.333 49.333 -176 137.333 -176 264c0 110 39.667 203.333 119 280s176 115 290 115c102.667 0 186.834 -31.5 252.501 -94.5s98.5 -143.5 98.5 -241.5c0 -77.333 -23.333 -148.166 -70 -212.499s-113 -108.833 -199 -133.5zM613.999 786
c89.333 0 161.167 29.167 215.5 87.5s81.5 124.833 81.5 199.5c0 75.333 -23.5 136.833 -70.5 184.5s-107.5 71.5 -181.5 71.5c-85.333 0 -158.5 -30 -219.5 -90s-91.5 -132.333 -91.5 -217c0 -68.667 24.833 -125.167 74.5 -169.5s113.5 -66.5 191.5 -66.5zM489 68
c98.667 0 184.5 34.667 257.5 104s109.5 154 109.5 254c0 81.333 -27.5 147.333 -82.5 198s-127.167 76 -216.5 76c-104 0 -190 -32.667 -258 -98s-102 -148 -102 -248c0 -84 27.333 -152.667 82 -206s124.667 -80 210 -80z" />
    <glyph glyph-name="nine" unicode="9" horiz-adv-x="1067" 
d="M319 0l455 650.998l-4 4c-87.333 -73.333 -180 -110 -278 -110c-95.333 0 -172.833 30.333 -232.5 91s-89.5 139.334 -89.5 236.001c0 130.667 44.667 253.834 134 369.501s204.333 173.5 345 173.5c102.667 0 186 -34.833 250 -104.5s96 -161.167 96 -274.5
c0 -144 -64 -308.333 -192 -493l-377 -543h-107zM492 630.998c110 0 205.001 40.833 285.001 122.5s120 178.5 120 290.5c0 86.667 -22.333 155.834 -67 207.501s-104.334 77.5 -179.001 77.5c-100.667 0 -189.667 -46.167 -267 -138.5s-116 -199.833 -116 -322.5
c0 -72.667 20.167 -130.334 60.5 -173.001s94.833 -64 163.5 -64z" />
    <glyph glyph-name="colon" unicode=":" horiz-adv-x="342" 
d="M139 737l25 183h121l-25 -183h-121zM31 0l24 182h121l-24 -182h-121z" />
    <glyph glyph-name="semicolon" unicode=";" horiz-adv-x="342" 
d="M139 737l25 183h121l-25 -183h-121zM45 0l25 182.001h120l-22 -162c-8 -54.667 -28.667 -107.334 -62 -158.001s-72 -81.667 -116 -93l8 59c50.667 40.667 80 98 88 172h-41z" />
    <glyph glyph-name="less" unicode="&#x3c;" horiz-adv-x="1352" 
d="M166 674v86l1073 450v-100l-950 -393l950 -393v-101z" />
    <glyph glyph-name="equal" unicode="=" horiz-adv-x="1352" 
d="M166 1010h1073v-90h-1073v90zM166 516h1073v-90h-1073v90z" />
    <glyph glyph-name="greater" unicode="&#x3e;" horiz-adv-x="1352" 
d="M1239 674l-1073 -451v101l950 393l-950 393v100l1073 -450v-86z" />
    <glyph glyph-name="question" unicode="?" horiz-adv-x="598" 
d="M98 1214l14.998 103.004c82.667 65.333 169.334 98 260.001 98c81.333 0 150.833 -28.167 208.5 -84.5s86.5 -123.833 86.5 -202.5c0 -59.333 -14.333 -112.333 -43 -159c-28 -44.667 -87.667 -110.334 -179 -197.001
c-99.333 -94.667 -166.666 -171.334 -201.999 -230.001c-33.333 -56 -55.333 -116 -66 -180h-51c4 61.333 22 125.666 54 192.999s96.333 149.5 193 246.5s155.5 166.667 176.5 209s31.5 82.166 31.5 119.499c0 62.667 -20.333 114.667 -61 156s-91.334 62 -152.001 62
c-91.333 0 -181.666 -44.667 -270.999 -134zM42.998 0.00390625l25 182h120l-24 -182h-121z" />
    <glyph glyph-name="at" unicode="@" horiz-adv-x="1638" 
d="M1174 1034l124.001 -0.000976562l-170 -803c-7.33301 -34.667 -11 -59.667 -11 -75c0 -30 16 -45 48 -45c80 0 165.167 54.833 255.5 164.5s135.5 247.167 135.5 412.5c0 184 -57 337.5 -171 460.5s-279.333 184.5 -496 184.5c-226.667 0 -413 -75 -559 -225
s-219 -342 -219 -576c0 -230.667 72.667 -417.667 218 -561s335.333 -215 570 -215c292.667 0 516.667 104 672 312h102c-75.333 -127.333 -182 -224.833 -320 -292.5s-290 -101.5 -456 -101.5c-259.333 0 -469.166 79.333 -629.499 238s-240.5 366.334 -240.5 623.001
c0 248.667 77.833 457.5 233.5 626.5s369.167 253.5 640.5 253.5c232 0 413.167 -69.833 543.5 -209.5s195.5 -312.167 195.5 -517.5c0 -187.333 -55.833 -345.5 -167.5 -474.5s-227.834 -193.5 -348.501 -193.5c-80.667 0 -121 37.333 -121 112c0 20 3 43 9 69l-4 4
c-102.667 -123.333 -215.334 -185 -338.001 -185c-98.667 0 -181 40 -247 120s-99 180.667 -99 302c0 163.333 50.333 307 151 431s221.667 186 363 186c138 0 237.667 -64.333 299 -193h4zM707.001 116.999c104 0 194.167 63.167 270.5 189.5s114.5 253.5 114.5 381.5
c0 82 -24.167 149.667 -72.5 203s-109.5 80 -183.5 80c-113.333 0 -205.833 -57.333 -277.5 -172s-107.5 -235.667 -107.5 -363c0 -92 24.333 -168.167 73 -228.5s109.667 -90.5 183 -90.5z" />
    <glyph glyph-name="A" unicode="A" horiz-adv-x="1110" 
d="M688 1415l322 -1415h-99l-114 504h-518l-238 -504h-98l659 1415h86zM324 598h452l-149 645z" />
    <glyph glyph-name="B" unicode="B" horiz-adv-x="1087" 
d="M283 1397l135 -0.000976562c146.667 0 261.167 -33 343.5 -99s123.5 -149 123.5 -249c0 -119.333 -62.333 -211.666 -187 -276.999c97.333 -27.333 171.833 -73.333 223.5 -138s77.5 -140.667 77.5 -228c0 -120 -48 -217.667 -144 -293s-222 -113 -378 -113h-391z
M365 1307l-70 -506h143c109.333 0 193.333 21.667 252 65s88 105 88 185c0 79.333 -28.833 141.833 -86.5 187.5s-137.167 68.5 -238.5 68.5h-88zM283 710.999l-87.999 -621h270c138.667 0 244.667 28.833 318 86.5s110 132.5 110 224.5c0 90.667 -33.833 165 -101.5 223
s-154.834 87 -261.501 87h-247z" />
    <glyph glyph-name="C" unicode="C" horiz-adv-x="1130" 
d="M1159 1397l-12.001 -89.999c-62.667 9.33301 -118 14 -166 14c-222 0 -409.667 -76.5 -563 -229.5s-230 -327.833 -230 -524.5c0 -138.667 42.833 -255.167 128.5 -349.5s191.167 -141.5 316.5 -141.5c139.333 0 286.666 49.667 441.999 149l-16 -114
c-149.333 -86 -290.666 -129 -423.999 -129c-144.667 0 -273 54.167 -385 162.5s-168 247.833 -168 418.5c0 223.333 86.833 421.166 260.5 593.499s387.167 258.5 640.5 258.5c66.667 0 125.334 -6 176.001 -18z" />
    <glyph glyph-name="D" unicode="D" horiz-adv-x="1343" 
d="M90 0l197 1397h248c196 0 364.667 -65.667 506 -197s212 -302.666 212 -513.999c0 -200.667 -67.833 -365.167 -203.5 -493.5s-307.167 -192.5 -514.5 -192.5h-445zM375 1307l-174 -1217h297c208.667 0 369 57 481 171s168 255.667 168 425
c0 184.667 -62 334.334 -186 449.001s-279.667 172 -467 172h-119z" />
    <glyph glyph-name="E" unicode="E" horiz-adv-x="1087" 
d="M1001 1397l-12 -94h-616l-78 -541h584l-15 -94h-581l-82 -574h825l-12 -94h-922l197 1397h712z" />
    <glyph glyph-name="F" unicode="F" horiz-adv-x="854" 
d="M930 1397l-12 -94h-545l-78 -547h508l-12 -94h-508l-95 -662h-96l197 1397h641z" />
    <glyph glyph-name="G" unicode="G" horiz-adv-x="1260" 
d="M1305 1382l-13.001 -91.999c-93.333 20.667 -178.666 31 -255.999 31c-254 0 -459.167 -70.833 -615.5 -212.5s-234.5 -317.834 -234.5 -528.501c0 -147.333 46 -268.166 138 -362.499s210 -141.5 354 -141.5c99.333 0 212 31.333 338 94l45 311h-313l12 94h409l-63 -452
c-141.333 -94 -288 -141 -440 -141c-159.333 0 -296.833 55.667 -412.5 167s-173.5 257.666 -173.5 438.999c0 226 89 420.333 267 583s410.333 244 697 244c90 0 177 -11 261 -33z" />
    <glyph glyph-name="H" unicode="H" horiz-adv-x="1430" 
d="M1389 1397l-197 -1397h-96l92 666h-918l-92 -666h-96l194 1397h97l-90 -637h919l90 637h97z" />
    <glyph glyph-name="I" unicode="I" horiz-adv-x="406" 
d="M375 1397l-197 -1397h-96l197 1397h96z" />
    <glyph glyph-name="J" unicode="J" horiz-adv-x="406" 
d="M381 1397l-216.999 -1532c-31.333 -224 -143.333 -336 -336 -336c-38.667 0 -77.667 5.33301 -117 16l-18 101c39.333 -14 83.666 -21 132.999 -21c79.333 0 138 25.833 176 77.5s65.333 135.834 82 252.501l203 1442h94z" />
    <glyph glyph-name="K" unicode="K" horiz-adv-x="1110" 
d="M1182 1397l-768 -639l735 -758h-127l-737 758l-107 -758h-96l197 1397h96l-86 -615l751 615h142z" />
    <glyph glyph-name="L" unicode="L" horiz-adv-x="854" 
d="M369 1397l-185 -1303h627l-12 -94h-723l196 1397h97z" />
    <glyph glyph-name="M" unicode="M" horiz-adv-x="1642" 
d="M74 0h-101l463 1397h82l252 -1176l623 1176h88v-1397h-101v1176l-624 -1176h-35l-250 1186z" />
    <glyph glyph-name="N" unicode="N" horiz-adv-x="1409" 
d="M1364 1397l-199 -1409h-43l-766 1204l-168 -1192h-96l197 1397h55l756 -1196l168 1196h96z" />
    <glyph glyph-name="O" unicode="O" horiz-adv-x="1343" 
d="M782 1415c150 0 268.833 -50.5 356.5 -151.5s131.5 -238.833 131.5 -413.5c0 -242 -63 -447.167 -189 -615.5s-283 -252.5 -471 -252.5c-156.667 0 -278 50.5 -364 151.5s-129 243.5 -129 427.5c0 221.333 59.667 419 179 593s281.333 261 486 261zM612 76
c164 0 296.834 75.833 398.501 227.5s152.5 341.167 152.5 568.5c0 138 -34.333 247.333 -103 328s-161.334 121 -278.001 121c-176 0 -313.167 -80.333 -411.5 -241s-147.5 -344 -147.5 -550c0 -144 34.167 -255.667 102.5 -335s163.833 -119 286.5 -119z" />
    <glyph glyph-name="P" unicode="P" horiz-adv-x="961" 
d="M272 1397h279.001c117.333 0 212.166 -34.5 284.499 -103.5s108.5 -158.167 108.5 -267.5c0 -118 -39.833 -214 -119.5 -288s-194.167 -111 -343.5 -111h-221l-88 -627h-96zM356.001 1307l-84.001 -589.999h201c120 0 210.833 27.667 272.5 83s92.5 129.333 92.5 222
c0 85.333 -27.167 154.166 -81.5 206.499s-126.166 78.5 -215.499 78.5h-185z" />
    <glyph glyph-name="Q" unicode="Q" horiz-adv-x="1343" 
d="M1284 0h26.999c8.66699 -115.333 -17.166 -210.333 -77.499 -285s-144.5 -112 -252.5 -112c-96.667 0 -188.167 34.5 -274.5 103.5s-147.833 160.833 -184.5 275.5c-132.667 16.667 -233.334 77.667 -302.001 183s-103 235.333 -103 390
c0 228.667 61.833 429.167 185.5 601.5s285.5 258.5 485.5 258.5c151.333 0 269.5 -50 354.5 -150s127.5 -239.667 127.5 -419c0 -224.667 -56.167 -422 -168.5 -592s-267.166 -260.667 -464.499 -272c85.333 -184.667 206 -277 362 -277c81.333 0 148.333 26.5 201 79.5
s80.667 124.833 84 215.5zM620.999 76c160 0 290.334 79 391.001 237s151 343 151 555c0 142.667 -33.333 253.834 -100 333.501s-159.667 119.5 -279 119.5c-164.667 0 -299.334 -75.833 -404.001 -227.5s-157 -340.834 -157 -567.501c0 -142 35 -252.5 105 -331.5
s167.667 -118.5 293 -118.5z" />
    <glyph glyph-name="R" unicode="R" horiz-adv-x="1067" 
d="M276 1397h320c116 0 207.833 -33.5 275.5 -100.5s101.5 -154.5 101.5 -262.5c0 -94 -28.333 -175.167 -85 -243.5s-135.667 -113.5 -237 -135.5c30.667 -17.333 78.667 -84 144 -200l254 -455h-113l-234 418c-60.667 108 -99.5 174.5 -116.5 199.5
s-57.833 37.5 -122.5 37.5h-193l-92 -655h-96zM360 1307l-77 -562h254c102 0 182.333 25.667 241 77s88 121.333 88 210c0 78 -23.833 143.333 -71.5 196s-116.5 79 -206.5 79h-228z" />
    <glyph glyph-name="S" unicode="S" horiz-adv-x="854" 
d="M797 1337l-24.998 -87.999c-92 48 -169 72 -231 72c-70.667 0 -131.334 -26 -182.001 -78s-76 -114 -76 -186c0 -45.333 11.5 -90.166 34.5 -134.499s84.833 -103.833 185.5 -178.5s165.167 -141.834 193.5 -201.501s42.5 -121.167 42.5 -184.5
c0 -107.333 -36.5 -196.833 -109.5 -268.5s-164.167 -107.5 -273.5 -107.5c-44.667 0 -95.834 8.83301 -153.501 26.5s-104.834 40.167 -141.501 67.5l25 94c96.667 -62.667 183.334 -94 260.001 -94c82.667 0 151.167 25.667 205.5 77s81.5 120.333 81.5 207
c0 47.333 -12.5 94.666 -37.5 141.999s-87.667 110.333 -188 189s-164 144 -191 196s-40.5 104.333 -40.5 157c0 105.333 35 193.5 105 264.5s156.667 106.5 260 106.5c102 0 187.333 -26 256 -78z" />
    <glyph glyph-name="T" unicode="T" horiz-adv-x="938" 
d="M1059 1397l-12 -94h-414l-184 -1303h-97l185 1303h-414l12 94h924z" />
    <glyph glyph-name="U" unicode="U" horiz-adv-x="1300" 
d="M1290 1397l-129 -903c-23.333 -162.667 -88 -288.667 -194 -378s-231.667 -134 -377 -134c-128 0 -236.167 41.167 -324.5 123.5s-132.5 188.166 -132.5 317.499c0 26 2 52.333 6 79l127 895h96l-125 -881c-3.33301 -28 -5 -55.333 -5 -82
c0 -112 34.667 -199.667 104 -263s159.333 -95 270 -95c126 0 229.5 39.833 310.5 119.5s130.5 181.834 148.5 306.501l129 895h96z" />
    <glyph glyph-name="V" unicode="V" horiz-adv-x="981" 
d="M1106 1397l-633 -1415h-39l-295 1415h97l235 -1172l535 1172h100z" />
    <glyph glyph-name="W" unicode="W" horiz-adv-x="1835" 
d="M1960 1397l-680 -1415h-41l-217 1165l-537 -1165h-43l-303 1415h97l247 -1178l547 1178h39l223 -1178l563 1178h105z" />
    <glyph glyph-name="X" unicode="X" horiz-adv-x="1323" 
d="M1401 1397l-641 -668l489 -729h-114l-445 653l-622 -653h-129l700 729l-451 668h115l408 -592l563 592h127z" />
    <glyph glyph-name="Y" unicode="Y" horiz-adv-x="981" 
d="M1120 1397l-522 -674l-100 -723h-97l101 723l-350 674h104l305 -578l443 578h116z" />
    <glyph glyph-name="Z" unicode="Z" horiz-adv-x="1300" 
d="M168 94h989l-12 -94h-1159v33l1167 1270h-944l12 94h1114v-33z" />
    <glyph glyph-name="bracketleft" unicode="[" horiz-adv-x="618" 
d="M721 1397l-10 -80h-340l-248 -1690h350l-10 -80h-447l273 1850h432z" />
    <glyph glyph-name="backslash" unicode="\" horiz-adv-x="575" 
d="M485 -18l-450 1433h96l449 -1433h-95z" />
    <glyph glyph-name="bracketright" unicode="]" horiz-adv-x="618" 
d="M-115 -453l11 80h340l247 1690h-350l10 80h447l-273 -1850h-432z" />
    <glyph glyph-name="asciicircum" unicode="^" horiz-adv-x="1352" 
d="M735 1415l449 -536l-66 -54l-383 461l-385 -461l-63 54z" />
    <glyph glyph-name="underscore" unicode="_" horiz-adv-x="1024" 
d="M-12 -154h1048v-102h-1048v102z" />
    <glyph glyph-name="grave" unicode="`" horiz-adv-x="682" 
d="M94 1386h164l215 -315h-67z" />
    <glyph glyph-name="a" unicode="a" horiz-adv-x="981" 
d="M907 920l-129 -920h-90l14 109c-97.333 -84.667 -202.333 -127 -315 -127c-92.667 0 -169.334 34.667 -230.001 104s-91 157.333 -91 264c0 160 60 298 180 414s277.667 174 473 174c70.667 0 133.334 -6 188.001 -18zM717 213l92.002 645
c-32.667 8 -70.334 12 -113.001 12c-146 0 -271.5 -50.5 -376.5 -151.5s-157.5 -227.833 -157.5 -380.5c0 -85.333 21.833 -153.5 65.5 -204.5s101.5 -76.5 173.5 -76.5c103.333 0 208.666 52 315.999 156z" />
    <glyph glyph-name="b" unicode="b" horiz-adv-x="961" 
d="M346 1397l-84.001 -591.999l4 -4c92 91.333 189 137 291 137c94.667 0 173.334 -36.167 236.001 -108.5s94 -163.833 94 -274.5c0 -162.667 -54.5 -298.834 -163.5 -408.501s-259.5 -164.5 -451.5 -164.5c-88.667 0 -159.667 6 -213 18l197 1397h90zM235.999 621.001
l-76 -549c36 -4.66699 71 -7 105 -7c160 0 287.667 45.5 383 136.5s143 208.167 143 351.5c0 88 -24.5 160.167 -73.5 216.5s-111.5 84.5 -187.5 84.5c-64.667 0 -128 -24.667 -190 -74s-96.667 -102.333 -104 -159z" />
    <glyph glyph-name="c" unicode="c" horiz-adv-x="788" 
d="M778 920l-13.999 -98.999c-65.333 18 -123.333 27 -174 27c-134 0 -240.833 -45.833 -320.5 -137.5s-119.5 -201.5 -119.5 -329.5c0 -94.667 28.167 -170.834 84.5 -228.501s131.166 -86.5 224.499 -86.5c64.667 0 152 25 262 75l-14 -96c-86.667 -42 -177 -63 -271 -63
c-114 0 -206.333 37.667 -277 113s-106 174 -106 296c0 146.667 49.5 274.5 148.5 383.5s231.167 163.5 396.5 163.5c58.667 0 118.667 -6 180 -18z" />
    <glyph glyph-name="d" unicode="d" horiz-adv-x="961" 
d="M973 1397l-195 -1387c-105.333 -18.667 -188 -28 -248 -28c-156.667 0 -274.667 42.833 -354 128.5s-119 184.834 -119 297.501c0 132.667 52.667 254.167 158 364.5s261 165.5 467 165.5c20 0 65 -2.66699 135 -8l66 467h90zM696 71.999l108.999 781.999
c-41.333 10.667 -83.666 16 -126.999 16c-162 0 -289.833 -46 -383.5 -138s-140.5 -201.667 -140.5 -329c0 -109.333 36.667 -195.666 110 -258.999s164.333 -95 273 -95c49.333 0 102.333 7.66699 159 23z" />
    <glyph glyph-name="e" unicode="e" 
d="M774 180l-0.000976562 -96c-90 -68 -186.333 -102 -289 -102c-122 0 -220.333 40.333 -295 121s-112 187.667 -112 321c0 144.667 41.333 266.5 124 365.5s183.334 148.5 302.001 148.5c99.333 0 178.666 -34.833 237.999 -104.5s89 -164.5 89 -284.5
c0 -20.667 -1.33301 -44 -4 -70h-649c-2.66699 -24 -4 -43.667 -4 -59c0 -96 28.5 -179 85.5 -249s132.833 -105 227.5 -105c96.667 0 192.334 38 287.001 114zM192.999 559h547.999c4 92 -16 164.167 -60 216.5s-103.667 78.5 -179 78.5
c-69.333 0 -134.666 -28 -195.999 -84s-99 -126.333 -113 -211z" />
    <glyph glyph-name="f" unicode="f" horiz-adv-x="512" 
d="M559 920l-10 -68h-217l-176 -1260h-90l176 1260h-185l11 68h184l16 120c16 118 56.5 210 121.5 276s148.167 99 249.5 99c77.333 0 153 -19 227 -57l-10 -76c-74 38 -144.333 57 -211 57c-157.333 0 -249.333 -84 -276 -252l-27 -167h217z" />
    <glyph glyph-name="g" unicode="g" horiz-adv-x="874" 
d="M918 938l-10.999 -68.002h-258v-4c90 -54 135 -137.333 135 -250c0 -75.333 -20 -142.666 -60 -201.999s-84.833 -99.166 -134.5 -119.499s-116.334 -36.333 -200.001 -48s-137.334 -25.334 -161.001 -41.001s-35.5 -34.167 -35.5 -55.5
c0 -22.667 11.167 -39.167 33.5 -49.5s94 -30.166 215 -59.499s204.333 -63.833 250 -103.5s68.5 -87.834 68.5 -144.501c0 -73.333 -35.833 -135.666 -107.5 -186.999s-172.5 -77 -302.5 -77c-117.333 0 -208.333 21.667 -273 65s-97 98 -97 164c0 108 105 188 315 240v4
c-126 25.333 -189 71.666 -189 138.999c0 68.667 63 114.667 189 138v4c-131.333 48.667 -197 145.334 -197 290.001c0 99.333 37.333 185 112 257s164.334 108 269.001 108h439zM459.001 861.998c-73.333 0 -137.5 -28.999 -192.5 -86.999s-82.5 -126.667 -82.5 -206
c0 -66 20.667 -123 62 -171s96 -72 164 -72c90.667 0 160.667 32.667 210 98s74 133.666 74 204.999c0 67.333 -23.667 123 -71 167s-102 66 -164 66zM674.001 -213.001c0 59.333 -43.668 103.501 -131.001 132.501s-139.333 43.5 -156 43.5c-48 0 -113.5 -20 -196.5 -60
s-124.5 -93 -124.5 -159c0 -44.667 24.333 -80.334 73 -107.001s115 -40 199 -40c108.667 0 191.834 17.5 249.501 52.5s86.5 80.833 86.5 137.5z" />
    <glyph glyph-name="h" unicode="h" horiz-adv-x="938" 
d="M334 1397l-92 -664.002l4 -4c128 139.333 248.667 209 362 209c70.667 0 127.5 -22.167 170.5 -66.5s64.5 -102.166 64.5 -173.499c0 -15.333 -1 -31 -3 -47l-92 -651h-91l88 641c2.66699 16.667 4 32.334 4 47.001c0 53.333 -14.333 94.333 -43 123s-66 43 -112 43
c-112 0 -235.667 -82.333 -371 -247l-86 -607h-90l197 1397h90z" />
    <glyph glyph-name="i" unicode="i" horiz-adv-x="362" 
d="M283 920l-129 -920h-91l130 920h90zM336 1317l-23 -152h-90l23 152h90z" />
    <glyph glyph-name="j" unicode="j" horiz-adv-x="362" 
d="M336 1317l-23 -152h-90l23 152h90zM281 920l-149.999 -1041c-20 -135.333 -53.333 -227.5 -100 -276.5s-111.667 -73.5 -195 -73.5c-36 0 -73.333 5.33301 -112 16l12 82c34.667 -9.33301 64.667 -14 90 -14c58.667 0 106.167 20.833 142.5 62.5
s65.166 138.834 86.499 291.501l135 953h91z" />
    <glyph glyph-name="k" unicode="k" horiz-adv-x="874" 
d="M332 1397l-129 -909l549 432h135l-550 -433l574 -487h-129l-579 486l-68 -486h-90l197 1397h90z" />
    <glyph glyph-name="l" unicode="l" horiz-adv-x="362" 
d="M346 1397l-196 -1397h-91l197 1397h90z" />
    <glyph glyph-name="m" unicode="m" horiz-adv-x="1516" 
d="M276 920l-22.001 -160c130 118.667 247.333 178 352 178c56 0 104.333 -18.167 145 -54.5s64.667 -83.833 72 -142.5c118.667 131.333 236.334 197 353.001 197c69.333 0 126.166 -21.667 170.499 -65s66.5 -96 66.5 -158c0 -11.333 -0.666992 -22.333 -2 -33l-96 -682
h-90l94 666c1.33301 11.333 2 22.333 2 33c0 47.333 -14.833 85 -44.5 113s-65.5 42 -107.5 42c-50.667 0 -107.667 -17.833 -171 -53.5s-121.666 -84.834 -174.999 -147.501l-92 -653h-90l90 641c2.66699 18.667 4 36.334 4 53.001c0 106.667 -50.333 160 -151 160
c-111.333 0 -226 -67 -344 -201l-93 -653h-90l129 920h90z" />
    <glyph glyph-name="n" unicode="n" horiz-adv-x="938" 
d="M274 920l-19.999 -151.999l4 -4c116 116 232.667 174 350 174c67.333 0 122.666 -24.667 165.999 -74s65 -111.333 65 -186c0 -16 -1 -31.667 -3 -47l-88 -631h-91l86 618c2.66699 19.333 4 37.666 4 54.999c0 57.333 -14.5 101.833 -43.5 133.5
s-68.833 47.5 -119.5 47.5c-102.667 0 -218 -67 -346 -201l-93 -653h-90l129 920h90z" />
    <glyph glyph-name="o" unicode="o" 
d="M506 938c98.667 0 177.168 -34.667 235.501 -104s87.5 -163 87.5 -281c0 -170.667 -43.333 -308.5 -130 -413.5s-189.334 -157.5 -308.001 -157.5c-92 0 -167.833 34.5 -227.5 103.5s-89.5 163.5 -89.5 283.5c0 167.333 40.5 304 121.5 410s184.5 159 310.5 159z
M387.001 66c95.333 0 176.833 47.167 244.5 141.5s101.5 209.5 101.5 345.5c0 92 -21 165.167 -63 219.5s-98 81.5 -168 81.5c-100 0 -180.333 -46.833 -241 -140.5s-91 -209.167 -91 -346.5c0 -93.333 19.5 -166.833 58.5 -220.5s91.833 -80.5 158.5 -80.5z" />
    <glyph glyph-name="p" unicode="p" horiz-adv-x="1024" 
d="M362 1106l-31.999 -236.001c79.333 45.333 155 68 227 68c109.333 0 198.5 -38.667 267.5 -116s103.5 -177.333 103.5 -300c0 -153.333 -51.333 -281.666 -154 -384.999s-248.667 -155 -438 -155c-49.333 0 -92.333 2 -129 6l-64 -441h-90l168 1186
c-43.333 -37.333 -82 -80.5 -116 -129.5s-54 -73.5 -60 -73.5c-8 0 -12 6.33301 -12 19c0 26.667 19.667 67 59 121s85.666 101 138.999 141l41 295h90zM319.001 796.999l-104 -742c40.667 -4.66699 79.667 -7 117 -7c162 0 285.667 43.333 371 130s128 200.667 128 342
c0 102 -27 183.167 -81 243.5s-125.667 90.5 -215 90.5c-70 0 -142 -19 -216 -57z" />
    <glyph glyph-name="q" unicode="q" horiz-adv-x="938" 
d="M874 938l-194.001 -1391h-90l69 502c-99.333 -44.667 -184.666 -67 -255.999 -67c-100.667 0 -182 35.667 -244 107s-93 165.333 -93 282c0 160 54.833 294.5 164.5 403.5s260.167 163.5 451.5 163.5h192zM671.999 125l104 745h-80c-172 0 -304 -47.333 -396 -142
s-138 -213.667 -138 -357c0 -99.333 25 -177.833 75 -235.5s117.667 -86.5 203 -86.5c64.667 0 142 25.333 232 76z" />
    <glyph glyph-name="r" unicode="r" horiz-adv-x="555" 
d="M281 920l-34.999 -252l4 -4c71.333 103.333 129.5 174.833 174.5 214.5s94.5 59.5 148.5 59.5c32 0 62.333 -6 91 -18v-91c-34.667 16.667 -66.334 25 -95.001 25c-63.333 0 -135.333 -48.167 -216 -144.5s-122 -150.5 -124 -162.5l-77 -547h-91l129 920h91z" />
    <glyph glyph-name="s" unicode="s" horiz-adv-x="725" 
d="M678 852l-0.000976562 -100.003c-108.667 68 -208.334 102 -299.001 102c-52 0 -96.5 -12.833 -133.5 -38.5s-55.5 -56.5 -55.5 -92.5c0 -25.333 10.5 -51.166 31.5 -77.499s79.833 -69.5 176.5 -129.5s160.334 -112.333 191.001 -157s46 -90 46 -136
c0 -66.667 -29.167 -123.5 -87.5 -170.5s-129.5 -70.5 -213.5 -70.5c-111.333 0 -214.333 40 -309 120l28 97c83.333 -88.667 178.333 -133 285 -133c58 0 106 14 144 42s57 63 57 105c0 28.667 -11.333 58.334 -34 89.001s-81.5 76.834 -176.5 138.501
s-156.167 112.167 -183.5 151.5s-41 78.333 -41 117c0 64.667 28 119 84 163s125.667 66 209 66c96.667 0 190.334 -28.667 281.001 -86z" />
    <glyph glyph-name="t" unicode="t" horiz-adv-x="575" 
d="M590 920l-9.99902 -67.998h-244l-84 -442c-16.667 -106.667 -25 -172.334 -25 -197.001c0 -52 14 -92.333 42 -121s62.667 -43 104 -43c55.333 0 114 26.667 176 80v-84c-64.667 -42 -128.334 -63 -191.001 -63c-66.667 0 -121.167 22.667 -163.5 68
s-63.5 101.666 -63.5 168.999c0 50.667 9 119 27 205l88 428h-183l11 68h180l43 210h90l-43 -210h246z" />
    <glyph glyph-name="u" unicode="u" horiz-adv-x="938" 
d="M871 920l-129 -920h-90l25 162l-4 4c-114.667 -122.667 -233.667 -184 -357 -184c-62.667 0 -116 20.667 -160 62s-66 97 -66 167c0 16 1 32.333 3 49l92 660h90l-92 -656c-1.33301 -12.667 -2 -24.667 -2 -36c0 -50 14.667 -89.5 44 -118.5s69.333 -43.5 120 -43.5
c104.667 0 220.667 73 348 219l88 635h90z" />
    <glyph glyph-name="v" unicode="v" horiz-adv-x="748" 
d="M795 920l-502 -938h-29l-213 938h88l168 -748l400 748h88z" />
    <glyph glyph-name="w" unicode="w" horiz-adv-x="1260" 
d="M838 182l376 738h91l-486 -938h-33l-122 725l-365 -725h-33l-215 938h86l170 -738l369 738h37z" />
    <glyph glyph-name="x" unicode="x" horiz-adv-x="938" 
d="M922 920l-408 -449l279 -471h-107l-235 410l-379 -410h-111l449 483l-252 437h96l217 -369l344 369h107z" />
    <glyph glyph-name="y" unicode="y" horiz-adv-x="768" 
d="M811 920l-727 -1391h-100l256 483l-174 908h90l149 -785l410 785h96z" />
    <glyph glyph-name="z" unicode="z" horiz-adv-x="874" 
d="M893 920v-39l-760 -801h643l-12 -80h-801v37l770 803h-602l12 80h750z" />
    <glyph glyph-name="braceleft" unicode="{" horiz-adv-x="682" 
d="M121 397v131.001c68.667 1.33301 117.834 26.666 147.501 75.999s44.5 136 44.5 260v199c0 234 97.667 345.333 293 334v-111c-79.333 0 -129.166 -16.833 -149.499 -50.5s-30.5 -91.167 -30.5 -172.5v-199c0 -220 -66.333 -353.667 -199 -401
c132.667 -47.333 199 -181.333 199 -402v-198c0 -81.333 10.167 -138.833 30.5 -172.5s70.166 -50.5 149.499 -50.5v-111c-195.333 -11.333 -293 100 -293 334v198c0 124.667 -14.833 211.667 -44.5 261s-78.834 74.333 -147.501 75z" />
    <glyph glyph-name="bar" unicode="|" horiz-adv-x="455" 
d="M207 1397h96v-1868h-96v1868z" />
    <glyph glyph-name="braceright" unicode="}" horiz-adv-x="682" 
d="M602 528v-131.001c-68.667 -0.666992 -117.834 -25.667 -147.501 -75s-44.5 -136.333 -44.5 -261v-198c0 -234 -97.667 -345.333 -293 -334v111c79.333 0 129.166 16.833 149.499 50.5s30.5 91.167 30.5 172.5v198c0 220.667 66.333 354.667 199 402
c-132.667 47.333 -199 181 -199 401v199c0 81.333 -10.167 138.833 -30.5 172.5s-70.166 50.5 -149.499 50.5v111c195.333 11.333 293 -100 293 -334v-199c0 -124 14.833 -210.667 44.5 -260s78.834 -74.666 147.501 -75.999z" />
    <glyph glyph-name="asciitilde" unicode="~" horiz-adv-x="1352" 
d="M164 596v111.001c110.667 80 206.334 120 287.001 120c52.667 0 139.667 -26.833 261 -80.5s202 -80.5 242 -80.5c42 0 84.167 11 126.5 33s95.166 56 158.499 102v-111c-110 -80.667 -203.667 -121 -281 -121c-54.667 0 -141 27 -259 81s-200 81 -246 81
c-42.667 0 -83 -8.83301 -121 -26.5s-94 -53.834 -168 -108.501z" />
    <glyph glyph-name="nonbreakingspace" unicode="&#xa0;" horiz-adv-x="569" 
 />
    <glyph glyph-name="exclamdown" unicode="&#xa1;" horiz-adv-x="342" 
d="M255 1037l-120 -1037h-115l192 1037h43zM348 1397l-25 -182h-121l25 182h121z" />
    <glyph glyph-name="cent" unicode="&#xa2;" horiz-adv-x="788" 
d="M795 1303l-126.999 -369.003c54 -7.33301 89.333 -13.666 106 -18.999l-12 -94c-12.667 4.66699 -52.334 11 -119.001 19l-250 -772c19.333 -2.66699 38.666 -4 57.999 -4c88 0 176 24.333 264 73l-15 -94c-82 -43.333 -193 -63.666 -333 -60.999l-127 -375h-74l129 393
c-79.333 24.667 -140.166 72.334 -182.499 143.001s-63.5 152.667 -63.5 246c0 142.667 49.5 269.167 148.5 379.5s232.5 165.5 400.5 165.5l121 369h76zM322.001 91.9971l247 756c-126.667 -4 -228.167 -51.667 -304.5 -143s-114.5 -195.333 -114.5 -312
c0 -146 57.333 -246.333 172 -301z" />
    <glyph glyph-name="sterling" unicode="&#xa3;" horiz-adv-x="961" 
d="M672 719l-13.002 -85.999h-256l-192 -533c38.667 8.66699 84.334 13 137.001 13c62.667 0 134 -7.5 214 -22.5s126 -22.5 138 -22.5c62 0 125 14.333 189 43l-10 -99c-38.667 -20 -107.667 -30 -207 -30c-28.667 0 -77.5 6 -146.5 18s-132.833 18 -191.5 18
c-61.333 0 -118.666 -6 -171.999 -18l-62 -18h-34l237 651h-180l12 86h199l69 184c69.333 183.333 141.833 314.5 217.5 393.5s161.834 118.5 258.501 118.5c56 0 105.667 -11 149 -33l-14 -96c-46.667 23.333 -92.334 35 -137.001 35c-74.667 0 -143 -34.333 -205 -103
s-125.667 -193.334 -191 -374.001l-45 -125h236z" />
    <glyph glyph-name="currency" unicode="&#xa4;" horiz-adv-x="1139" 
d="M313 1042c85.333 66 177.667 99 277 99c100 0 192.667 -33 278 -99l129 129l66 -65l-129 -129c65.333 -82.667 98 -175 98 -277c0 -101.333 -32.667 -194 -98 -278l129 -129l-66 -66l-129 129c-82.667 -65.333 -175.334 -98 -278.001 -98
c-103.333 0 -195.666 32.667 -276.999 98l-129 -129l-65 66l129 129c-65.333 86 -98 178.667 -98 278c0 102.667 32.667 195 98 277l-129 129l65 65zM934.001 700c0 94.667 -33.667 175.332 -101 241.999s-148.333 100 -243 100s-175.334 -33.167 -242.001 -99.5
s-100 -147.166 -100 -242.499c0 -94.667 33.333 -175.667 100 -243s147.334 -101 242.001 -101s175.667 33.667 243 101s101 148.333 101 243z" />
    <glyph glyph-name="yen" unicode="&#xa5;" horiz-adv-x="1139" 
d="M229 1466h133l259 -706l524 706h151l-575 -739h364l-12 -86h-416l-45 -199h408l-10 -86h-416l-80 -356h-119l78 356h-399l12 86h406l43 199h-404l12 86h375z" />
    <glyph glyph-name="brokenbar" unicode="&#xa6;" horiz-adv-x="455" 
d="M207 1397h96v-684h-96v684zM207 346h96v-817h-96v817z" />
    <glyph glyph-name="section" unicode="&#xa7;" horiz-adv-x="1004" 
d="M946 1126l-86 -39c10 29.333 15 57.333 15 84c0 52.667 -18.5 95.334 -55.5 128.001s-82.167 49 -135.5 49c-80.667 0 -150.334 -24.167 -209.001 -72.5s-88 -105.5 -88 -171.5c0 -42 15 -85.667 45 -131s102 -110 216 -194s187 -151.5 219 -202.5s48 -101.167 48 -150.5
c0 -148.667 -97.667 -264.667 -293 -348c63.333 -67.333 95 -141 95 -221c0 -92 -36.667 -169.667 -110 -233s-163.666 -95 -270.999 -95c-86 0 -155.333 21.167 -208 63.5s-79 98.166 -79 167.499c0 15.333 1.33301 31 4 47l84 29c-5.33301 -20.667 -8 -40.667 -8 -60
c0 -53.333 18.5 -96.5 55.5 -129.5s86.167 -49.5 147.5 -49.5c80.667 0 150.667 25.333 210 76s89 109.667 89 177c0 44.667 -15.5 89.667 -46.5 135s-104.5 106.833 -220.5 184.5s-190.333 142.334 -223 194.001s-49 103.834 -49 156.501c0 148 104.333 262.667 313 344
c-72 65.333 -108 140.666 -108 225.999c0 88.667 37 165 111 229s163.333 96 268 96c84 0 151.333 -21.5 202 -64.5s76 -97.167 76 -162.5c0 -20.667 -2.66699 -41.334 -8 -62.001zM455 821c-102 -45.333 -173.667 -90.5 -215 -135.5s-62 -96.833 -62 -155.5
c0 -78.667 47.333 -152.334 142 -221.001l251 -184c172 80.667 258 176.334 258 287.001c0 42 -14 83.667 -42 125s-85.167 94.833 -171.5 160.5z" />
    <glyph glyph-name="dieresis" unicode="&#xa8;" horiz-adv-x="682" 
d="M176 1214c0 24.667 9 46 27 64s39 27 63 27c24.667 0 45.834 -9 63.501 -27s26.5 -39.333 26.5 -64c0 -24 -8.83301 -45 -26.5 -63s-38.834 -27 -63.501 -27c-24 0 -45 9 -63 27s-27 39 -27 63zM500 1214c0 24.667 8.83301 46 26.5 64s38.834 27 63.501 27
c24 0 45 -9 63 -27s27 -39.333 27 -64c0 -24 -9 -45 -27 -63s-39 -27 -63 -27c-24.667 0 -45.834 9 -63.501 27s-26.5 39 -26.5 63z" />
    <glyph glyph-name="copyright" unicode="&#xa9;" horiz-adv-x="1638" 
d="M55 727c0 210 74.833 389.833 224.5 539.5s329.5 224.5 539.5 224.5s389.833 -74.833 539.5 -224.5s224.5 -329.5 224.5 -539.5s-74.833 -389.833 -224.5 -539.5s-329.5 -224.5 -539.5 -224.5s-389.833 74.833 -539.5 224.5s-224.5 329.5 -224.5 539.5zM1487 727
c0 183.333 -65.5 340.5 -196.5 471.5s-288.167 196.5 -471.5 196.5s-340.333 -65.5 -471 -196.5s-196 -288.167 -196 -471.5s65.333 -340.5 196 -471.5s287.667 -196.5 471 -196.5s340.5 65.5 471.5 196.5s196.5 288.167 196.5 471.5zM1151 920l-96.001 -25
c-48 110.667 -124 166 -228 166c-81.333 0 -148.666 -29 -201.999 -87s-80 -134.333 -80 -229c0 -109.333 25 -197.333 75 -264s115.667 -100 197 -100c122 0 206 68.333 252 205l90 -33c-22 -80.667 -63.5 -144.5 -124.5 -191.5s-131.5 -70.5 -211.5 -70.5
c-110 0 -201.333 41.5 -274 124.5s-109 187.5 -109 313.5c0 118.667 36 217.667 108 297s165.667 119 281 119c140.667 0 248 -75 322 -225z" />
    <glyph glyph-name="ordfeminine" unicode="&#xaa;" horiz-adv-x="662" 
d="M684 1397l-90.002 -547h-74l6 47c-64 -39.333 -126.667 -59 -188 -59s-113.166 21.167 -155.499 63.5s-63.5 94.833 -63.5 157.5c0 97.333 39.833 181 119.5 251s182.5 105 308.5 105c48.667 0 94.334 -6 137.001 -18zM538.998 981l53.001 377h-51
c-98.667 0 -178.667 -29.667 -240 -89s-92 -131.333 -92 -216c0 -46 12.667 -83.5 38 -112.5s59.666 -43.5 102.999 -43.5c66.667 0 129.667 28 189 84z" />
    <glyph glyph-name="guillemotleft" unicode="&#xab;" 
d="M946 934l-336 -467l181 -453h-97l-180 457l336 463h96zM485 934l-335 -467l180 -453h-97l-180 457l336 463h96z" />
    <glyph glyph-name="logicalnot" unicode="&#xac;" horiz-adv-x="1352" 
d="M166 989h1073v-581h-90v491h-983v90z" />
    <glyph glyph-name="softhyphen" unicode="&#xad;" horiz-adv-x="555" 
d="M526 487l-12 -79h-485l10 79h487z" />
    <glyph glyph-name="registered" unicode="&#xae;" horiz-adv-x="1638" 
d="M55 727c0 210 74.833 389.833 224.5 539.5s329.5 224.5 539.5 224.5s389.833 -74.833 539.5 -224.5s224.5 -329.5 224.5 -539.5s-74.833 -389.833 -224.5 -539.5s-329.5 -224.5 -539.5 -224.5s-389.833 74.833 -539.5 224.5s-224.5 329.5 -224.5 539.5zM1487 727
c0 183.333 -65.5 340.5 -196.5 471.5s-288.167 196.5 -471.5 196.5s-340.333 -65.5 -471 -196.5s-196 -288.167 -196 -471.5s65.333 -340.5 196 -471.5s287.667 -196.5 471 -196.5s340.5 65.5 471.5 196.5s196.5 288.167 196.5 471.5zM514 1120h329.999
c84.667 0 151.167 -18.833 199.5 -56.5s72.5 -89.834 72.5 -156.501c0 -123.333 -73 -197.666 -219 -222.999c57.333 -34.667 98.833 -70 124.5 -106s67.5 -123 125.5 -261h-121c-71.333 156.667 -127.666 254.667 -168.999 294s-108 59 -200 59h-47v-353h-96v803z
M609.999 750h133c92.667 0 158.5 11 197.5 33s58.5 60.667 58.5 116c0 54 -17.833 91 -53.5 111s-98.167 30 -187.5 30h-148v-290z" />
    <glyph glyph-name="macron" unicode="&#xaf;" horiz-adv-x="1024" 
d="M214 1653h1048v-102h-1048v102z" />
    <glyph glyph-name="degree" unicode="&#xb0;" horiz-adv-x="819" 
d="M209 1130c0 78.667 27.833 145.834 83.5 201.501s122.834 83.5 201.501 83.5s146 -27.833 202 -83.5s84 -122.834 84 -201.501c0 -78 -28.167 -145.167 -84.5 -201.5s-123.5 -84.5 -201.5 -84.5c-78.667 0 -145.834 28.167 -201.501 84.5s-83.5 123.5 -83.5 201.5z
M698 1128c0 56.667 -20 105 -60 145s-88 60 -144 60s-103.833 -20 -143.5 -60s-59.5 -88.333 -59.5 -145c0 -56 19.667 -103.667 59 -143s87.333 -59 144 -59c56 0 104 19.833 144 59.5s60 87.167 60 142.5z" />
    <glyph glyph-name="plusminus" unicode="&#xb1;" horiz-adv-x="1352" 
d="M166 764h491v491h91v-491h491v-90h-491v-492h-91v492h-491v90zM166 90h1073v-90h-1073v90z" />
    <glyph glyph-name="twosuperior" unicode="&#xb2;" horiz-adv-x="662" 
d="M598 739l-8 -58.998h-506c308.667 276.667 463 465 463 565c0 34.667 -11 62.167 -33 82.5s-52 30.5 -90 30.5c-55.333 0 -128.333 -26.667 -219 -80l12 76c82 40.667 153 61 213 61c58.667 0 106.167 -15.5 142.5 -46.5s54.5 -71.5 54.5 -121.5
c0 -56.667 -30 -122.834 -90 -198.501s-155.667 -178.834 -287 -309.501h348z" />
    <glyph glyph-name="threesuperior" unicode="&#xb3;" horiz-adv-x="662" 
d="M229 1307l8.99902 64.998c60.667 28.667 118.667 43 174 43c68 0 125.167 -18.167 171.5 -54.5s69.5 -80.833 69.5 -133.5c0 -81.333 -53 -140 -159 -176c72 -34 108 -86.667 108 -158c0 -64.667 -26.167 -118 -78.5 -160s-118.833 -63 -199.5 -63
c-83.333 0 -156.666 21.667 -219.999 65l7 60c67.333 -40 135.333 -60 204 -60c66 0 117 14.333 153 43s54 68.334 54 119.001c0 91.333 -62 137 -186 137l6 47c75.333 -3.33301 132.666 9.33398 171.999 38.001s59 65.667 59 111c0 38 -15.667 68.833 -47 92.5
s-73 35.5 -125 35.5c-55.333 0 -112.666 -17 -171.999 -51z" />
    <glyph glyph-name="acute" unicode="&#xb4;" horiz-adv-x="682" 
d="M735 1386l-311 -315h-68l215 315h164z" />
    <glyph glyph-name="mu" unicode="&#xb5;" horiz-adv-x="1139" 
d="M160 80l-115.001 -429.999h-90l326 1270h90l-156 -609c-5.33301 -22 -8 -43.667 -8 -65c0 -54 17.667 -97.5 53 -130.5s83 -49.5 143 -49.5c112.667 0 209.834 40.667 291.501 122s141.5 194.666 179.5 339.999l103 392h90l-236 -920h-90l43 166l-4 4
c-116 -125.333 -248.333 -188 -397 -188c-88 0 -162.333 32.667 -223 98z" />
    <glyph glyph-name="paragraph" unicode="&#xb6;" horiz-adv-x="1331" 
d="M1313 1397v-139h-197v-1711h-127v1711h-266v-1711h-131v1009c-134 -6 -242.667 31.333 -326 112s-125 184 -125 310c0 126.667 43.5 228.167 130.5 304.5s203.5 114.5 349.5 114.5h692z" />
    <glyph glyph-name="periodcentered" unicode="&#xb7;" horiz-adv-x="683" 
d="M600 596c-24 0 -44.667 8.66699 -62 26s-26 38.333 -26 63s8.5 45.667 25.5 63s37.833 26 62.5 26s45.5 -8.5 62.5 -25.5s25.5 -38.167 25.5 -63.5c0 -24.667 -8.5 -45.667 -25.5 -63s-37.833 -26 -62.5 -26z" />
    <glyph glyph-name="cedilla" unicode="&#xb8;" horiz-adv-x="682" 
d="M350 14l-35.001 -84.001c49.333 -17.333 74 -52.666 74 -105.999c0 -56 -19.167 -99.5 -57.5 -130.5s-91.166 -46.5 -158.499 -46.5c-22 0 -45 1.66699 -69 5l21 65c14.667 -1.33301 29 -2 43 -2c98 0 147 36.333 147 109c0 37.333 -28 57 -84 59l56 131h63z" />
    <glyph glyph-name="onesuperior" unicode="&#xb9;" horiz-adv-x="662" 
d="M414 680h-80l106 600c-51.333 -40.667 -115.333 -81.667 -192 -123l22 98c109.333 68 181 121.333 215 160h60z" />
    <glyph glyph-name="ordmasculine" unicode="&#xba;" horiz-adv-x="618" 
d="M424 1415c67.333 0 120.667 -21.001 160 -63.001s59 -98.667 59 -170c0 -97.333 -28.167 -179 -84.5 -245s-125.833 -99 -208.5 -99c-65.333 0 -117.5 21.333 -156.5 64s-58.5 99.667 -58.5 171c0 100.667 27 182.834 81 246.501s123.333 95.5 208 95.5zM348.001 904.999
c58 0 107.333 26.333 148 79s61 118 61 196c0 52 -12.333 93 -37 123s-58 45 -100 45c-57.333 0 -104.833 -25.5 -142.5 -76.5s-56.5 -116.5 -56.5 -196.5c0 -52.667 11.5 -94.167 34.5 -124.5s53.833 -45.5 92.5 -45.5z" />
    <glyph glyph-name="guillemotright" unicode="&#xbb;" 
d="M408 14l335 467l-180 453h96l181 -457l-336 -463h-96zM-51 14l336 467l-181 453h97l180 -457l-336 -463h-96z" />
    <glyph glyph-name="onequarter" unicode="&#xbc;" horiz-adv-x="1665" 
d="M414 680h-80l106 600c-51.333 -40.667 -115.333 -81.667 -192 -123l22 98c109.333 68 181 121.333 215 160h60zM234 -55h-80l1100 1470h80zM1250 294h135l-8 -47h-137l-39 -244h-80l39 244h-330v26l453 465h41zM1219 587l-286 -293h237z" />
    <glyph glyph-name="onehalf" unicode="&#xbd;" horiz-adv-x="1665" 
d="M414 680h-80l106 600c-51.333 -40.667 -115.333 -81.667 -192 -123l22 98c109.333 68 181 121.333 215 160h60zM234 -55h-80l1100 1470h80zM1434 62l-8 -58.998h-506c308.667 276.667 463 465 463 565c0 34.667 -11 62.167 -33 82.5s-52 30.5 -90 30.5
c-55.333 0 -128.333 -26.667 -219 -80l12 76c82 40.667 153 61 213 61c58.667 0 106.167 -15.5 142.5 -46.5s54.5 -71.5 54.5 -121.5c0 -56.667 -30 -122.834 -90 -198.501s-155.667 -178.834 -287 -309.501h348z" />
    <glyph glyph-name="threequarters" unicode="&#xbe;" horiz-adv-x="1665" 
d="M250 1307l8.99902 64.998c60.667 28.667 118.667 43 174 43c68 0 125.167 -18.167 171.5 -54.5s69.5 -80.833 69.5 -133.5c0 -81.333 -53 -140 -159 -176c72 -34 108 -86.667 108 -158c0 -64.667 -26.167 -118 -78.5 -160s-118.833 -63 -199.5 -63
c-83.333 0 -156.666 21.667 -219.999 65l7 60c67.333 -40 135.333 -60 204 -60c66 0 117 14.333 153 43s54 68.334 54 119.001c0 91.333 -62 137 -186 137l6 47c75.333 -3.33301 132.666 9.33398 171.999 38.001s59 65.667 59 111c0 38 -15.667 68.833 -47 92.5
s-73 35.5 -125 35.5c-55.333 0 -112.666 -17 -171.999 -51zM358.999 -55.002h-80l1100 1470h80zM1375 293.998h135l-8 -47h-137l-39 -244h-80l39 244h-330v26l453 465h41zM1344 586.998l-286 -293h237z" />
    <glyph glyph-name="questiondown" unicode="&#xbf;" horiz-adv-x="598" 
d="M613 201l-14.998 -103.004c-82.667 -65.333 -169.334 -98 -260.001 -98c-81.333 0 -150.833 28.167 -208.5 84.5s-86.5 123.833 -86.5 202.5c0 59.333 14.333 112.333 43 159c28 44.667 87.667 110.334 179 197.001c99.333 94.667 166.666 171.334 201.999 230.001
c33.333 56 55.333 116 66 180h51c-4 -61.333 -22 -125.666 -54 -192.999s-96.333 -149.5 -193 -246.5s-155.5 -166.667 -176.5 -209s-31.5 -82.166 -31.5 -119.499c0 -62.667 20.333 -114.667 61 -156s91.334 -62 152.001 -62c91.333 0 181.666 44.667 270.999 134z
M668.002 1415l-25 -182h-120l24 182h121z" />
    <glyph glyph-name="Agrave" unicode="&#xc0;" horiz-adv-x="1110" 
d="M688 1415l322 -1415h-99l-114 504h-518l-238 -504h-98l659 1415h86zM324 598h452l-149 645zM346 1828h164l215 -315h-67z" />
    <glyph glyph-name="Aacute" unicode="&#xc1;" horiz-adv-x="1110" 
d="M688 1415l322 -1415h-99l-114 504h-518l-238 -504h-98l659 1415h86zM324 598h452l-149 645zM987 1828l-311 -315h-68l215 315h164z" />
    <glyph glyph-name="Acircumflex" unicode="&#xc2;" horiz-adv-x="1110" 
d="M688 1415l322 -1415h-99l-114 504h-518l-238 -504h-98l659 1415h86zM324 598h452l-149 645zM864 1828l19 -403h-74l-43 277l-305 -277h-80l369 403h114z" />
    <glyph glyph-name="Atilde" unicode="&#xc3;" horiz-adv-x="1110" 
d="M688 1415l322 -1415h-99l-114 504h-518l-238 -504h-98l659 1415h86zM324 598h452l-149 645zM952 1760l64.001 -0.000976562c-12.667 -130 -67.334 -195 -164.001 -195c-40 0 -102.833 16.833 -188.5 50.5s-142.834 50.5 -171.501 50.5c-52.667 0 -80 -33 -82 -99h-64
c-1.33301 10 -2 20 -2 30c0 50.667 16.833 91.834 50.5 123.501s74.167 47.5 121.5 47.5c35.333 0 93.833 -16.667 175.5 -50s139.834 -50 174.501 -50c52 0 80.667 30.667 86 92z" />
    <glyph glyph-name="Adieresis" unicode="&#xc4;" horiz-adv-x="1110" 
d="M688 1415l322 -1415h-99l-114 504h-518l-238 -504h-98l659 1415h86zM324 598h452l-149 645zM428 1657c0 24.667 9 46 27 64s39 27 63 27c24.667 0 45.834 -9 63.501 -27s26.5 -39.333 26.5 -64c0 -24 -8.83301 -45 -26.5 -63s-38.834 -27 -63.501 -27c-24 0 -45 9 -63 27
s-27 39 -27 63zM752 1657c0 24.667 8.83301 46 26.5 64s38.834 27 63.501 27c24 0 45 -9 63 -27s27 -39.333 27 -64c0 -24 -9 -45 -27 -63s-39 -27 -63 -27c-24.667 0 -45.834 9 -63.501 27s-26.5 39 -26.5 63z" />
    <glyph glyph-name="Aring" unicode="&#xc5;" horiz-adv-x="1110" 
d="M688 1415l322 -1415h-99l-114 504h-518l-238 -504h-98l659 1415h86zM324 598h452l-149 645zM684 1479c-48 0 -89.333 17.5 -124 52.5s-52 76.167 -52 123.5c0 48 17.333 89.5 52 124.5s76 52.5 124 52.5s89.333 -17.5 124 -52.5s52 -76.5 52 -124.5
c0 -47.333 -17.333 -88.5 -52 -123.5s-76 -52.5 -124 -52.5zM684 1774c-32.667 0 -60.667 -11.667 -84 -35s-35 -51.333 -35 -84c0 -32 11.667 -59.667 35 -83s51.333 -35 84 -35s60.667 11.667 84 35s35 51 35 83c0 32.667 -11.667 60.667 -35 84s-51.333 35 -84 35z" />
    <glyph glyph-name="AE" unicode="&#xc6;" horiz-adv-x="1599" 
d="M1561 1397l-13 -94h-598l-78 -547h558l-13 -94h-557l-82 -568h809l-12 -94h-905l94 662h-354l-418 -662h-109l881 1397h797zM854 1303h-39l-346 -547h307z" />
    <glyph glyph-name="Ccedilla" unicode="&#xc7;" horiz-adv-x="1130" 
d="M1075 225l-16 -114c-147.333 -86 -295.666 -129 -444.999 -129l-22 -52c49.333 -17.333 74 -52.666 74 -105.999c0 -56 -19.333 -99.5 -58 -130.5s-91.334 -46.5 -158.001 -46.5c-22 0 -45 1.66699 -69 5l20 65c15.333 -1.33301 29.666 -2 42.999 -2
c98.667 0 148 36.333 148 109c0 37.333 -28 57 -84 59l45 107c-139.333 24 -252.666 88.5 -339.999 193.5s-131 231.5 -131 379.5c0 223.333 86.833 421.166 260.5 593.499s387.167 258.5 640.5 258.5c66.667 0 125.334 -6 176.001 -18l-12 -90
c-62.667 9.33301 -118 14 -166 14c-222 0 -409.667 -76.5 -563 -229.5s-230 -327.833 -230 -524.5c0 -138.667 42.833 -255.167 128.5 -349.5s191.167 -141.5 316.5 -141.5c139.333 0 286.666 49.667 441.999 149z" />
    <glyph glyph-name="Egrave" unicode="&#xc8;" horiz-adv-x="1087" 
d="M1001 1397l-12 -94h-616l-78 -541h584l-15 -94h-581l-82 -574h825l-12 -94h-922l197 1397h712zM369 1828h164l215 -315h-67z" />
    <glyph glyph-name="Eacute" unicode="&#xc9;" horiz-adv-x="1087" 
d="M1001 1397l-12 -94h-616l-78 -541h584l-15 -94h-581l-82 -574h825l-12 -94h-922l197 1397h712zM1010 1828l-311 -315h-68l215 315h164z" />
    <glyph glyph-name="Ecircumflex" unicode="&#xca;" horiz-adv-x="1087" 
d="M1001 1397l-12 -94h-616l-78 -541h584l-15 -94h-581l-82 -574h825l-12 -94h-922l197 1397h712zM886 1828l19 -403h-74l-43 277l-305 -277h-80l369 403h114z" />
    <glyph glyph-name="Edieresis" unicode="&#xcb;" horiz-adv-x="1087" 
d="M1001 1397l-12 -94h-616l-78 -541h584l-15 -94h-581l-82 -574h825l-12 -94h-922l197 1397h712zM451 1657c0 24.667 9 46 27 64s39 27 63 27c24.667 0 45.834 -9 63.501 -27s26.5 -39.333 26.5 -64c0 -24 -8.83301 -45 -26.5 -63s-38.834 -27 -63.501 -27
c-24 0 -45 9 -63 27s-27 39 -27 63zM775 1657c0 24.667 8.83301 46 26.5 64s38.834 27 63.501 27c24 0 45 -9 63 -27s27 -39.333 27 -64c0 -24 -9 -45 -27 -63s-39 -27 -63 -27c-24.667 0 -45.834 9 -63.501 27s-26.5 39 -26.5 63z" />
    <glyph glyph-name="Igrave" unicode="&#xcc;" horiz-adv-x="406" 
d="M375 1397l-197 -1397h-96l197 1397h96zM32 1828h164l215 -315h-67z" />
    <glyph glyph-name="Iacute" unicode="&#xcd;" horiz-adv-x="406" 
d="M375 1397l-197 -1397h-96l197 1397h96zM673 1828l-311 -315h-68l215 315h164z" />
    <glyph glyph-name="Icircumflex" unicode="&#xce;" horiz-adv-x="406" 
d="M375 1397l-197 -1397h-96l197 1397h96zM549 1828l19 -403h-74l-43 277l-305 -277h-80l369 403h114z" />
    <glyph glyph-name="Idieresis" unicode="&#xcf;" horiz-adv-x="406" 
d="M375 1397l-197 -1397h-96l197 1397h96zM114 1657c0 24.667 9 46 27 64s39 27 63 27c24.667 0 45.834 -9 63.501 -27s26.5 -39.333 26.5 -64c0 -24 -8.83301 -45 -26.5 -63s-38.834 -27 -63.501 -27c-24 0 -45 9 -63 27s-27 39 -27 63zM438 1657
c0 24.667 8.83301 46 26.5 64s38.834 27 63.501 27c24 0 45 -9 63 -27s27 -39.333 27 -64c0 -24 -9 -45 -27 -63s-39 -27 -63 -27c-24.667 0 -45.834 9 -63.501 27s-26.5 39 -26.5 63z" />
    <glyph glyph-name="Eth" unicode="&#xd0;" horiz-adv-x="1343" 
d="M176 655h-165.999l13 90h167l91 652h256c108 0 218.667 -26 332 -78s205.333 -135 276 -249s106 -242 106 -384c0 -194.667 -64.333 -357.667 -193 -489s-324.334 -197 -587.001 -197h-385zM272.001 655l-77.002 -565h223c157.333 0 284.833 18.333 382.5 55
s179.834 103 246.501 199s100 208.667 100 338c0 186.667 -61.167 337.5 -183.5 452.5s-283.166 172.5 -482.499 172.5h-116l-78 -562h372l-14 -90h-373z" />
    <glyph glyph-name="Ntilde" unicode="&#xd1;" horiz-adv-x="1409" 
d="M1364 1397l-199 -1409h-43l-766 1204l-168 -1192h-96l197 1397h55l756 -1196l168 1196h96zM1137 1760l64.001 -0.000976562c-12.667 -130 -67.334 -195 -164.001 -195c-40 0 -102.833 16.833 -188.5 50.5s-142.834 50.5 -171.501 50.5c-52.667 0 -80 -33 -82 -99h-64
c-1.33301 10 -2 20 -2 30c0 50.667 16.833 91.834 50.5 123.501s74.167 47.5 121.5 47.5c35.333 0 93.833 -16.667 175.5 -50s139.834 -50 174.501 -50c52 0 80.667 30.667 86 92z" />
    <glyph glyph-name="Ograve" unicode="&#xd2;" horiz-adv-x="1343" 
d="M782 1415c150 0 268.833 -50.5 356.5 -151.5s131.5 -238.833 131.5 -413.5c0 -242 -63 -447.167 -189 -615.5s-283 -252.5 -471 -252.5c-156.667 0 -278 50.5 -364 151.5s-129 243.5 -129 427.5c0 221.333 59.667 419 179 593s281.333 261 486 261zM612 76
c164 0 296.834 75.833 398.501 227.5s152.5 341.167 152.5 568.5c0 138 -34.333 247.333 -103 328s-161.334 121 -278.001 121c-176 0 -313.167 -80.333 -411.5 -241s-147.5 -344 -147.5 -550c0 -144 34.167 -255.667 102.5 -335s163.833 -119 286.5 -119zM498.001 1828h164
l215 -315h-67z" />
    <glyph glyph-name="Oacute" unicode="&#xd3;" horiz-adv-x="1343" 
d="M782 1415c150 0 268.833 -50.5 356.5 -151.5s131.5 -238.833 131.5 -413.5c0 -242 -63 -447.167 -189 -615.5s-283 -252.5 -471 -252.5c-156.667 0 -278 50.5 -364 151.5s-129 243.5 -129 427.5c0 221.333 59.667 419 179 593s281.333 261 486 261zM612 76
c164 0 296.834 75.833 398.501 227.5s152.5 341.167 152.5 568.5c0 138 -34.333 247.333 -103 328s-161.334 121 -278.001 121c-176 0 -313.167 -80.333 -411.5 -241s-147.5 -344 -147.5 -550c0 -144 34.167 -255.667 102.5 -335s163.833 -119 286.5 -119zM1139 1828
l-311 -315h-68l215 315h164z" />
    <glyph glyph-name="Ocircumflex" unicode="&#xd4;" horiz-adv-x="1343" 
d="M782 1415c150 0 268.833 -50.5 356.5 -151.5s131.5 -238.833 131.5 -413.5c0 -242 -63 -447.167 -189 -615.5s-283 -252.5 -471 -252.5c-156.667 0 -278 50.5 -364 151.5s-129 243.5 -129 427.5c0 221.333 59.667 419 179 593s281.333 261 486 261zM612 76
c164 0 296.834 75.833 398.501 227.5s152.5 341.167 152.5 568.5c0 138 -34.333 247.333 -103 328s-161.334 121 -278.001 121c-176 0 -313.167 -80.333 -411.5 -241s-147.5 -344 -147.5 -550c0 -144 34.167 -255.667 102.5 -335s163.833 -119 286.5 -119zM1015 1828
l19 -403h-74l-43 277l-305 -277h-80l369 403h114z" />
    <glyph glyph-name="Otilde" unicode="&#xd5;" horiz-adv-x="1343" 
d="M782 1415c150 0 268.833 -50.5 356.5 -151.5s131.5 -238.833 131.5 -413.5c0 -242 -63 -447.167 -189 -615.5s-283 -252.5 -471 -252.5c-156.667 0 -278 50.5 -364 151.5s-129 243.5 -129 427.5c0 221.333 59.667 419 179 593s281.333 261 486 261zM612 76
c164 0 296.834 75.833 398.501 227.5s152.5 341.167 152.5 568.5c0 138 -34.333 247.333 -103 328s-161.334 121 -278.001 121c-176 0 -313.167 -80.333 -411.5 -241s-147.5 -344 -147.5 -550c0 -144 34.167 -255.667 102.5 -335s163.833 -119 286.5 -119zM1104 1760
l64.001 -0.000976562c-12.667 -130 -67.334 -195 -164.001 -195c-40 0 -102.833 16.833 -188.5 50.5s-142.834 50.5 -171.501 50.5c-52.667 0 -80 -33 -82 -99h-64c-1.33301 10 -2 20 -2 30c0 50.667 16.833 91.834 50.5 123.501s74.167 47.5 121.5 47.5
c35.333 0 93.833 -16.667 175.5 -50s139.834 -50 174.501 -50c52 0 80.667 30.667 86 92z" />
    <glyph glyph-name="Odieresis" unicode="&#xd6;" horiz-adv-x="1343" 
d="M782 1415c150 0 268.833 -50.5 356.5 -151.5s131.5 -238.833 131.5 -413.5c0 -242 -63 -447.167 -189 -615.5s-283 -252.5 -471 -252.5c-156.667 0 -278 50.5 -364 151.5s-129 243.5 -129 427.5c0 221.333 59.667 419 179 593s281.333 261 486 261zM612 76
c164 0 296.834 75.833 398.501 227.5s152.5 341.167 152.5 568.5c0 138 -34.333 247.333 -103 328s-161.334 121 -278.001 121c-176 0 -313.167 -80.333 -411.5 -241s-147.5 -344 -147.5 -550c0 -144 34.167 -255.667 102.5 -335s163.833 -119 286.5 -119zM580.001 1657
c0 24.667 9 46 27 64s39 27 63 27c24.667 0 45.834 -9 63.501 -27s26.5 -39.333 26.5 -64c0 -24 -8.83301 -45 -26.5 -63s-38.834 -27 -63.501 -27c-24 0 -45 9 -63 27s-27 39 -27 63zM904.001 1657c0 24.667 8.83301 46 26.5 64s38.834 27 63.501 27c24 0 45 -9 63 -27
s27 -39.333 27 -64c0 -24 -9 -45 -27 -63s-39 -27 -63 -27c-24.667 0 -45.834 9 -63.501 27s-26.5 39 -26.5 63z" />
    <glyph glyph-name="multiply" unicode="&#xd7;" horiz-adv-x="1352" 
d="M291 1067l65 66l346 -347l347 347l65 -66l-346 -346l346 -346l-65 -66l-347 346l-346 -346l-65 66l346 346z" />
    <glyph glyph-name="Oslash" unicode="&#xd8;" horiz-adv-x="1343" 
d="M328 57l-82 -127l-60 37l88 135c-104.667 97.333 -157 250.333 -157 459c0 221.333 59.667 419 179 593s281.333 261 486 261c122 0 217 -29.333 285 -88l68 105l53 -35l-70 -109c101.333 -108 152 -254 152 -438c0 -242 -63 -447.167 -189 -615.5
s-283 -252.5 -471 -252.5c-102.667 0 -196.667 25 -282 75zM330 190l684 1055c-64 50.667 -141.333 76 -232 76c-176 0 -313.167 -80.333 -411.5 -241s-147.5 -344 -147.5 -550c0 -142 35.667 -255.333 107 -340zM1061 1198l-676 -1053c58 -46 133.667 -69 227 -69
c164 0 296.833 75.833 398.5 227.5s152.5 341.167 152.5 568.5c0 138.667 -34 247.334 -102 326.001z" />
    <glyph glyph-name="Ugrave" unicode="&#xd9;" horiz-adv-x="1300" 
d="M1290 1397l-129 -903c-23.333 -162.667 -88 -288.667 -194 -378s-231.667 -134 -377 -134c-128 0 -236.167 41.167 -324.5 123.5s-132.5 188.166 -132.5 317.499c0 26 2 52.333 6 79l127 895h96l-125 -881c-3.33301 -28 -5 -55.333 -5 -82
c0 -112 34.667 -199.667 104 -263s159.333 -95 270 -95c126 0 229.5 39.833 310.5 119.5s130.5 181.834 148.5 306.501l129 895h96zM481 1828h164l215 -315h-67z" />
    <glyph glyph-name="Uacute" unicode="&#xda;" horiz-adv-x="1300" 
d="M1290 1397l-129 -903c-23.333 -162.667 -88 -288.667 -194 -378s-231.667 -134 -377 -134c-128 0 -236.167 41.167 -324.5 123.5s-132.5 188.166 -132.5 317.499c0 26 2 52.333 6 79l127 895h96l-125 -881c-3.33301 -28 -5 -55.333 -5 -82
c0 -112 34.667 -199.667 104 -263s159.333 -95 270 -95c126 0 229.5 39.833 310.5 119.5s130.5 181.834 148.5 306.501l129 895h96zM1122 1828l-311 -315h-68l215 315h164z" />
    <glyph glyph-name="Ucircumflex" unicode="&#xdb;" horiz-adv-x="1300" 
d="M1290 1397l-129 -903c-23.333 -162.667 -88 -288.667 -194 -378s-231.667 -134 -377 -134c-128 0 -236.167 41.167 -324.5 123.5s-132.5 188.166 -132.5 317.499c0 26 2 52.333 6 79l127 895h96l-125 -881c-3.33301 -28 -5 -55.333 -5 -82
c0 -112 34.667 -199.667 104 -263s159.333 -95 270 -95c126 0 229.5 39.833 310.5 119.5s130.5 181.834 148.5 306.501l129 895h96zM999 1828l19 -403h-74l-43 277l-305 -277h-80l369 403h114z" />
    <glyph glyph-name="Udieresis" unicode="&#xdc;" horiz-adv-x="1300" 
d="M1290 1397l-129 -903c-23.333 -162.667 -88 -288.667 -194 -378s-231.667 -134 -377 -134c-128 0 -236.167 41.167 -324.5 123.5s-132.5 188.166 -132.5 317.499c0 26 2 52.333 6 79l127 895h96l-125 -881c-3.33301 -28 -5 -55.333 -5 -82
c0 -112 34.667 -199.667 104 -263s159.333 -95 270 -95c126 0 229.5 39.833 310.5 119.5s130.5 181.834 148.5 306.501l129 895h96zM563 1657c0 24.667 9 46 27 64s39 27 63 27c24.667 0 45.834 -9 63.501 -27s26.5 -39.333 26.5 -64c0 -24 -8.83301 -45 -26.5 -63
s-38.834 -27 -63.501 -27c-24 0 -45 9 -63 27s-27 39 -27 63zM887 1657c0 24.667 8.83301 46 26.5 64s38.834 27 63.501 27c24 0 45 -9 63 -27s27 -39.333 27 -64c0 -24 -9 -45 -27 -63s-39 -27 -63 -27c-24.667 0 -45.834 9 -63.501 27s-26.5 39 -26.5 63z" />
    <glyph glyph-name="Yacute" unicode="&#xdd;" horiz-adv-x="981" 
d="M1120 1397l-522 -674l-100 -723h-97l101 723l-350 674h104l305 -578l443 578h116zM957 1828l-311 -315h-68l215 315h164z" />
    <glyph glyph-name="Thorn" unicode="&#xde;" horiz-adv-x="961" 
d="M270 1397h107l-43 -314h129c167.333 0 281.5 -39.333 342.5 -118s91.5 -162.667 91.5 -252c0 -108.667 -37 -202.5 -111 -281.5s-204.333 -118.5 -391 -118.5h-170l-45 -313h-106zM319 993l-81 -590.001h155c152.667 0 257.167 30 313.5 90s84.5 131.333 84.5 214
c0 64.667 -16.167 121.334 -48.5 170.001s-71 80.167 -116 94.5s-104.167 21.5 -177.5 21.5h-130z" />
    <glyph glyph-name="germandbls" unicode="&#xdf;" horiz-adv-x="961" 
d="M53 0l149.996 1057c14 104 54.667 189.667 122 257s152.333 101 255 101s182.834 -33 240.501 -99s86.5 -138.667 86.5 -218c0 -72 -22 -136.333 -66 -193s-103.667 -94.667 -179 -114v-5c136 -57.333 204 -165.666 204 -324.999
c0 -137.333 -39.167 -251.5 -117.5 -342.5s-175.5 -136.5 -291.5 -136.5c-40 0 -77.667 6 -113 18l10 82c20.667 -10.667 52.334 -16 95.001 -16c92 0 168.5 36 229.5 108s91.5 163.667 91.5 275c0 84 -25 154.5 -75 211.5s-120.667 88.833 -212 95.5l11 80
c92.667 -6.66699 168.667 16.833 228 70.5s89 118.167 89 193.5c0 63.333 -23.5 117.666 -70.5 162.999s-103.5 68 -169.5 68c-73.333 0 -135.666 -27.5 -186.999 -82.5s-83.666 -130.5 -96.999 -226.5l-144 -1022h-90z" />
    <glyph glyph-name="agrave" unicode="&#xe0;" horiz-adv-x="981" 
d="M907 920l-129 -920h-90l14 109c-97.333 -84.667 -202.333 -127 -315 -127c-92.667 0 -169.334 34.667 -230.001 104s-91 157.333 -91 264c0 160 60 298 180 414s277.667 174 473 174c70.667 0 133.334 -6 188.001 -18zM717 213l92.002 645
c-32.667 8 -70.334 12 -113.001 12c-146 0 -271.5 -50.5 -376.5 -151.5s-157.5 -227.833 -157.5 -380.5c0 -85.333 21.833 -153.5 65.5 -204.5s101.5 -76.5 173.5 -76.5c103.333 0 208.666 52 315.999 156zM244.002 1386h164l215 -315h-67z" />
    <glyph glyph-name="aacute" unicode="&#xe1;" horiz-adv-x="981" 
d="M907 920l-129 -920h-90l14 109c-97.333 -84.667 -202.333 -127 -315 -127c-92.667 0 -169.334 34.667 -230.001 104s-91 157.333 -91 264c0 160 60 298 180 414s277.667 174 473 174c70.667 0 133.334 -6 188.001 -18zM717 213l92.002 645
c-32.667 8 -70.334 12 -113.001 12c-146 0 -271.5 -50.5 -376.5 -151.5s-157.5 -227.833 -157.5 -380.5c0 -85.333 21.833 -153.5 65.5 -204.5s101.5 -76.5 173.5 -76.5c103.333 0 208.666 52 315.999 156zM885.002 1386l-311 -315h-68l215 315h164z" />
    <glyph glyph-name="acircumflex" unicode="&#xe2;" horiz-adv-x="981" 
d="M907 920l-129 -920h-90l14 109c-97.333 -84.667 -202.333 -127 -315 -127c-92.667 0 -169.334 34.667 -230.001 104s-91 157.333 -91 264c0 160 60 298 180 414s277.667 174 473 174c70.667 0 133.334 -6 188.001 -18zM717 213l92.002 645
c-32.667 8 -70.334 12 -113.001 12c-146 0 -271.5 -50.5 -376.5 -151.5s-157.5 -227.833 -157.5 -380.5c0 -85.333 21.833 -153.5 65.5 -204.5s101.5 -76.5 173.5 -76.5c103.333 0 208.666 52 315.999 156zM802.002 1386l19 -403h-74l-43 277l-305 -277h-80l369 403h114z
" />
    <glyph glyph-name="atilde" unicode="&#xe3;" horiz-adv-x="981" 
d="M907 920l-129 -920h-90l14 109c-97.333 -84.667 -202.333 -127 -315 -127c-92.667 0 -169.334 34.667 -230.001 104s-91 157.333 -91 264c0 160 60 298 180 414s277.667 174 473 174c70.667 0 133.334 -6 188.001 -18zM717 213l92.002 645
c-32.667 8 -70.334 12 -113.001 12c-146 0 -271.5 -50.5 -376.5 -151.5s-157.5 -227.833 -157.5 -380.5c0 -85.333 21.833 -153.5 65.5 -204.5s101.5 -76.5 173.5 -76.5c103.333 0 208.666 52 315.999 156zM850.002 1317l64.001 -0.000976562
c-12.667 -130 -67.334 -195 -164.001 -195c-40 0 -102.833 16.833 -188.5 50.5s-142.834 50.5 -171.501 50.5c-52.667 0 -80 -33 -82 -99h-64c-1.33301 10 -2 20 -2 30c0 50.667 16.833 91.834 50.5 123.501s74.167 47.5 121.5 47.5c35.333 0 93.833 -16.667 175.5 -50
s139.834 -50 174.501 -50c52 0 80.667 30.667 86 92z" />
    <glyph glyph-name="adieresis" unicode="&#xe4;" horiz-adv-x="981" 
d="M907 920l-129 -920h-90l14 109c-97.333 -84.667 -202.333 -127 -315 -127c-92.667 0 -169.334 34.667 -230.001 104s-91 157.333 -91 264c0 160 60 298 180 414s277.667 174 473 174c70.667 0 133.334 -6 188.001 -18zM717 213l92.002 645
c-32.667 8 -70.334 12 -113.001 12c-146 0 -271.5 -50.5 -376.5 -151.5s-157.5 -227.833 -157.5 -380.5c0 -85.333 21.833 -153.5 65.5 -204.5s101.5 -76.5 173.5 -76.5c103.333 0 208.666 52 315.999 156zM367.002 1214c0 24.667 9 46 27 64s39 27 63 27
c24.667 0 45.834 -9 63.501 -27s26.5 -39.333 26.5 -64c0 -24 -8.83301 -45 -26.5 -63s-38.834 -27 -63.501 -27c-24 0 -45 9 -63 27s-27 39 -27 63zM691.002 1214c0 24.667 8.83301 46 26.5 64s38.834 27 63.501 27c24 0 45 -9 63 -27s27 -39.333 27 -64
c0 -24 -9 -45 -27 -63s-39 -27 -63 -27c-24.667 0 -45.834 9 -63.501 27s-26.5 39 -26.5 63z" />
    <glyph glyph-name="aring" unicode="&#xe5;" horiz-adv-x="981" 
d="M907 920l-129 -920h-90l14 109c-97.333 -84.667 -202.333 -127 -315 -127c-92.667 0 -169.334 34.667 -230.001 104s-91 157.333 -91 264c0 160 60 298 180 414s277.667 174 473 174c70.667 0 133.334 -6 188.001 -18zM717 213l92.002 645
c-32.667 8 -70.334 12 -113.001 12c-146 0 -271.5 -50.5 -376.5 -151.5s-157.5 -227.833 -157.5 -380.5c0 -85.333 21.833 -153.5 65.5 -204.5s101.5 -76.5 173.5 -76.5c103.333 0 208.666 52 315.999 156zM622.002 1036c-48 0 -89.333 17.5 -124 52.5s-52 76.167 -52 123.5
c0 48 17.333 89.5 52 124.5s76 52.5 124 52.5s89.333 -17.5 124 -52.5s52 -76.5 52 -124.5c0 -47.333 -17.333 -88.5 -52 -123.5s-76 -52.5 -124 -52.5zM622.002 1331c-32.667 0 -60.667 -11.667 -84 -35s-35 -51.333 -35 -84c0 -32 11.667 -59.667 35 -83
s51.333 -35 84 -35s60.667 11.667 84 35s35 51 35 83c0 32.667 -11.667 60.667 -35 84s-51.333 35 -84 35z" />
    <glyph glyph-name="ae" unicode="&#xe6;" horiz-adv-x="1343" 
d="M1210 193l-13.999 -105.001c-42.667 -30.667 -94.334 -56 -155.001 -76s-113.334 -30 -158.001 -30c-62 0 -121 16.167 -177 48.5s-94 74.166 -114 125.499c-52.667 -53.333 -112 -95.666 -178 -126.999s-125.333 -47 -178 -47c-59.333 0 -108.333 18 -147 54
s-58 81.333 -58 136c0 90 50.833 168.333 152.5 235s239.834 106.334 414.501 119.001l14 125c1.33301 11.333 2 22.333 2 33c0 52.667 -14.667 94.167 -44 124.5s-71.333 45.5 -126 45.5c-103.333 0 -211 -53.333 -323 -160l-19 86c116.667 105.333 235 158 355 158
c98.667 0 173 -48.333 223 -145c76 96.667 166 145 270 145c96 0 173.167 -34.833 231.5 -104.5s87.5 -159.5 87.5 -269.5c0 -27.333 -1.66699 -55 -5 -83h-588c-19.333 -109.333 -29 -182.333 -29 -219c0 -57.333 21.167 -104.333 63.5 -141s96.833 -55 163.5 -55
c109.333 0 221.333 42.333 336 127zM684.001 560.999h497.999c1.33301 14 2 27.667 2 41c0 74 -21.167 134.5 -63.5 181.5s-97.166 70.5 -164.499 70.5c-149.333 0 -240 -97.667 -272 -293zM553 214.999l33 238c-144.667 -16 -259 -49 -343 -99s-126 -110 -126 -180
c0 -30 12.333 -55.5 37 -76.5s54.667 -31.5 90 -31.5c85.333 0 188.333 49.667 309 149z" />
    <glyph glyph-name="ccedilla" unicode="&#xe7;" horiz-adv-x="788" 
d="M721 141l-13.999 -95.999c-86 -42 -178.333 -63 -277 -63l-22 -52c48.667 -17.333 73 -52.666 73 -105.999c0 -56 -19.167 -99.5 -57.5 -130.5s-91.166 -46.5 -158.499 -46.5c-22 0 -44.667 1.66699 -68 5l20 65c15.333 -1.33301 29.666 -2 42.999 -2
c98.667 0 148 36.333 148 109c0 37.333 -28 57 -84 59l45 105c-98.667 15.333 -176 59.666 -232 132.999s-84 163.333 -84 270c0 146.667 49.5 274.5 148.5 383.5s231.167 163.5 396.5 163.5c58.667 0 118.667 -6 180 -18l-14 -99c-65.333 18 -123.333 27 -174 27
c-134 0 -240.833 -45.833 -320.5 -137.5s-119.5 -201.5 -119.5 -329.5c0 -94.667 28.167 -170.834 84.5 -228.501s131.166 -86.5 224.499 -86.5c64.667 0 152 25 262 75z" />
    <glyph glyph-name="egrave" unicode="&#xe8;" 
d="M774 180l-0.000976562 -96c-90 -68 -186.333 -102 -289 -102c-122 0 -220.333 40.333 -295 121s-112 187.667 -112 321c0 144.667 41.333 266.5 124 365.5s183.334 148.5 302.001 148.5c99.333 0 178.666 -34.833 237.999 -104.5s89 -164.5 89 -284.5
c0 -20.667 -1.33301 -44 -4 -70h-649c-2.66699 -24 -4 -43.667 -4 -59c0 -96 28.5 -179 85.5 -249s132.833 -105 227.5 -105c96.667 0 192.334 38 287.001 114zM192.999 559h547.999c4 92 -16 164.167 -60 216.5s-103.667 78.5 -179 78.5
c-69.333 0 -134.666 -28 -195.999 -84s-99 -126.333 -113 -211zM212.998 1386h164l215 -315h-67z" />
    <glyph glyph-name="eacute" unicode="&#xe9;" 
d="M774 180l-0.000976562 -96c-90 -68 -186.333 -102 -289 -102c-122 0 -220.333 40.333 -295 121s-112 187.667 -112 321c0 144.667 41.333 266.5 124 365.5s183.334 148.5 302.001 148.5c99.333 0 178.666 -34.833 237.999 -104.5s89 -164.5 89 -284.5
c0 -20.667 -1.33301 -44 -4 -70h-649c-2.66699 -24 -4 -43.667 -4 -59c0 -96 28.5 -179 85.5 -249s132.833 -105 227.5 -105c96.667 0 192.334 38 287.001 114zM192.999 559h547.999c4 92 -16 164.167 -60 216.5s-103.667 78.5 -179 78.5
c-69.333 0 -134.666 -28 -195.999 -84s-99 -126.333 -113 -211zM853.998 1386l-311 -315h-68l215 315h164z" />
    <glyph glyph-name="ecircumflex" unicode="&#xea;" 
d="M774 180l-0.000976562 -96c-90 -68 -186.333 -102 -289 -102c-122 0 -220.333 40.333 -295 121s-112 187.667 -112 321c0 144.667 41.333 266.5 124 365.5s183.334 148.5 302.001 148.5c99.333 0 178.666 -34.833 237.999 -104.5s89 -164.5 89 -284.5
c0 -20.667 -1.33301 -44 -4 -70h-649c-2.66699 -24 -4 -43.667 -4 -59c0 -96 28.5 -179 85.5 -249s132.833 -105 227.5 -105c96.667 0 192.334 38 287.001 114zM192.999 559h547.999c4 92 -16 164.167 -60 216.5s-103.667 78.5 -179 78.5
c-69.333 0 -134.666 -28 -195.999 -84s-99 -126.333 -113 -211zM730.998 1386l19 -403h-74l-43 277l-305 -277h-80l369 403h114z" />
    <glyph glyph-name="edieresis" unicode="&#xeb;" 
d="M774 180l-0.000976562 -96c-90 -68 -186.333 -102 -289 -102c-122 0 -220.333 40.333 -295 121s-112 187.667 -112 321c0 144.667 41.333 266.5 124 365.5s183.334 148.5 302.001 148.5c99.333 0 178.666 -34.833 237.999 -104.5s89 -164.5 89 -284.5
c0 -20.667 -1.33301 -44 -4 -70h-649c-2.66699 -24 -4 -43.667 -4 -59c0 -96 28.5 -179 85.5 -249s132.833 -105 227.5 -105c96.667 0 192.334 38 287.001 114zM192.999 559h547.999c4 92 -16 164.167 -60 216.5s-103.667 78.5 -179 78.5
c-69.333 0 -134.666 -28 -195.999 -84s-99 -126.333 -113 -211zM294.998 1214c0 24.667 9 46 27 64s39 27 63 27c24.667 0 45.834 -9 63.501 -27s26.5 -39.333 26.5 -64c0 -24 -8.83301 -45 -26.5 -63s-38.834 -27 -63.501 -27c-24 0 -45 9 -63 27s-27 39 -27 63z
M618.998 1214c0 24.667 8.83301 46 26.5 64s38.834 27 63.501 27c24 0 45 -9 63 -27s27 -39.333 27 -64c0 -24 -9 -45 -27 -63s-39 -27 -63 -27c-24.667 0 -45.834 9 -63.501 27s-26.5 39 -26.5 63z" />
    <glyph glyph-name="igrave" unicode="&#xec;" horiz-adv-x="362" 
d="M283 920l-129 -920h-91l130 920h90zM-64 1386h164l215 -315h-67z" />
    <glyph glyph-name="iacute" unicode="&#xed;" horiz-adv-x="362" 
d="M283 920l-129 -920h-91l130 920h90zM578 1386l-311 -315h-68l215 315h164z" />
    <glyph glyph-name="icircumflex" unicode="&#xee;" horiz-adv-x="362" 
d="M283 920l-129 -920h-91l130 920h90zM454 1386l19 -403h-74l-43 277l-305 -277h-80l369 403h114z" />
    <glyph glyph-name="idieresis" unicode="&#xef;" horiz-adv-x="362" 
d="M283 920l-129 -920h-91l130 920h90zM18 1214c0 24.667 9 46 27 64s39 27 63 27c24.667 0 45.834 -9 63.501 -27s26.5 -39.333 26.5 -64c0 -24 -8.83301 -45 -26.5 -63s-38.834 -27 -63.501 -27c-24 0 -45 9 -63 27s-27 39 -27 63zM342 1214c0 24.667 8.83301 46 26.5 64
s38.834 27 63.501 27c24 0 45 -9 63 -27s27 -39.333 27 -64c0 -24 -9 -45 -27 -63s-39 -27 -63 -27c-24.667 0 -45.834 9 -63.501 27s-26.5 39 -26.5 63z" />
    <glyph glyph-name="eth" unicode="&#xf0;" 
d="M903 1327l-185.999 -96c95.333 -132.667 143 -313 143 -541c0 -210 -42.167 -380.5 -126.5 -511.5s-196.5 -196.5 -336.5 -196.5c-92 0 -167.833 34.5 -227.5 103.5s-89.5 163.5 -89.5 283.5c0 167.333 40.5 304 121.5 410s184.5 159 310.5 159
c113.333 0 198.666 -52.667 255.999 -158l4 4c-11.333 166.667 -56.333 302 -135 406l-211 -109l-39 70l197 102c-28 30 -58 57.333 -90 82l59 62c46.667 -36 83.667 -70.333 111 -103l200 103zM508.001 854c-100 0 -180.332 -46.833 -240.999 -140.5
s-91 -209.167 -91 -346.5c0 -93.333 19.667 -166.833 59 -220.5s92 -80.5 158 -80.5c92 0 172.667 46.167 242 138.5s104 208.5 104 348.5c0 91.333 -20.833 164.333 -62.5 219s-97.834 82 -168.501 82z" />
    <glyph glyph-name="ntilde" unicode="&#xf1;" horiz-adv-x="938" 
d="M274 920l-19.999 -151.999l4 -4c116 116 232.667 174 350 174c67.333 0 122.666 -24.667 165.999 -74s65 -111.333 65 -186c0 -16 -1 -31.667 -3 -47l-88 -631h-91l86 618c2.66699 19.333 4 37.666 4 54.999c0 57.333 -14.5 101.833 -43.5 133.5
s-68.833 47.5 -119.5 47.5c-102.667 0 -218 -67 -346 -201l-93 -653h-90l129 920h90zM829.001 1317l64.001 -0.000976562c-12.667 -130 -67.334 -195 -164.001 -195c-40 0 -102.833 16.833 -188.5 50.5s-142.834 50.5 -171.501 50.5c-52.667 0 -80 -33 -82 -99h-64
c-1.33301 10 -2 20 -2 30c0 50.667 16.833 91.834 50.5 123.501s74.167 47.5 121.5 47.5c35.333 0 93.833 -16.667 175.5 -50s139.834 -50 174.501 -50c52 0 80.667 30.667 86 92z" />
    <glyph glyph-name="ograve" unicode="&#xf2;" 
d="M506 938c98.667 0 177.168 -34.667 235.501 -104s87.5 -163 87.5 -281c0 -170.667 -43.333 -308.5 -130 -413.5s-189.334 -157.5 -308.001 -157.5c-92 0 -167.833 34.5 -227.5 103.5s-89.5 163.5 -89.5 283.5c0 167.333 40.5 304 121.5 410s184.5 159 310.5 159z
M387.001 66c95.333 0 176.833 47.167 244.5 141.5s101.5 209.5 101.5 345.5c0 92 -21 165.167 -63 219.5s-98 81.5 -168 81.5c-100 0 -180.333 -46.833 -241 -140.5s-91 -209.167 -91 -346.5c0 -93.333 19.5 -166.833 58.5 -220.5s91.833 -80.5 158.5 -80.5zM213.001 1386
h164l215 -315h-67z" />
    <glyph glyph-name="oacute" unicode="&#xf3;" 
d="M506 938c98.667 0 177.168 -34.667 235.501 -104s87.5 -163 87.5 -281c0 -170.667 -43.333 -308.5 -130 -413.5s-189.334 -157.5 -308.001 -157.5c-92 0 -167.833 34.5 -227.5 103.5s-89.5 163.5 -89.5 283.5c0 167.333 40.5 304 121.5 410s184.5 159 310.5 159z
M387.001 66c95.333 0 176.833 47.167 244.5 141.5s101.5 209.5 101.5 345.5c0 92 -21 165.167 -63 219.5s-98 81.5 -168 81.5c-100 0 -180.333 -46.833 -241 -140.5s-91 -209.167 -91 -346.5c0 -93.333 19.5 -166.833 58.5 -220.5s91.833 -80.5 158.5 -80.5zM854.001 1386
l-311 -315h-68l215 315h164z" />
    <glyph glyph-name="ocircumflex" unicode="&#xf4;" 
d="M506 938c98.667 0 177.168 -34.667 235.501 -104s87.5 -163 87.5 -281c0 -170.667 -43.333 -308.5 -130 -413.5s-189.334 -157.5 -308.001 -157.5c-92 0 -167.833 34.5 -227.5 103.5s-89.5 163.5 -89.5 283.5c0 167.333 40.5 304 121.5 410s184.5 159 310.5 159z
M387.001 66c95.333 0 176.833 47.167 244.5 141.5s101.5 209.5 101.5 345.5c0 92 -21 165.167 -63 219.5s-98 81.5 -168 81.5c-100 0 -180.333 -46.833 -241 -140.5s-91 -209.167 -91 -346.5c0 -93.333 19.5 -166.833 58.5 -220.5s91.833 -80.5 158.5 -80.5zM731.001 1386
l19 -403h-74l-43 277l-305 -277h-80l369 403h114z" />
    <glyph glyph-name="otilde" unicode="&#xf5;" 
d="M506 938c98.667 0 177.168 -34.667 235.501 -104s87.5 -163 87.5 -281c0 -170.667 -43.333 -308.5 -130 -413.5s-189.334 -157.5 -308.001 -157.5c-92 0 -167.833 34.5 -227.5 103.5s-89.5 163.5 -89.5 283.5c0 167.333 40.5 304 121.5 410s184.5 159 310.5 159z
M387.001 66c95.333 0 176.833 47.167 244.5 141.5s101.5 209.5 101.5 345.5c0 92 -21 165.167 -63 219.5s-98 81.5 -168 81.5c-100 0 -180.333 -46.833 -241 -140.5s-91 -209.167 -91 -346.5c0 -93.333 19.5 -166.833 58.5 -220.5s91.833 -80.5 158.5 -80.5zM819.001 1317
l64.001 -0.000976562c-12.667 -130 -67.334 -195 -164.001 -195c-40 0 -102.833 16.833 -188.5 50.5s-142.834 50.5 -171.501 50.5c-52.667 0 -80 -33 -82 -99h-64c-1.33301 10 -2 20 -2 30c0 50.667 16.833 91.834 50.5 123.501s74.167 47.5 121.5 47.5
c35.333 0 93.833 -16.667 175.5 -50s139.834 -50 174.501 -50c52 0 80.667 30.667 86 92z" />
    <glyph glyph-name="odieresis" unicode="&#xf6;" 
d="M506 938c98.667 0 177.168 -34.667 235.501 -104s87.5 -163 87.5 -281c0 -170.667 -43.333 -308.5 -130 -413.5s-189.334 -157.5 -308.001 -157.5c-92 0 -167.833 34.5 -227.5 103.5s-89.5 163.5 -89.5 283.5c0 167.333 40.5 304 121.5 410s184.5 159 310.5 159z
M387.001 66c95.333 0 176.833 47.167 244.5 141.5s101.5 209.5 101.5 345.5c0 92 -21 165.167 -63 219.5s-98 81.5 -168 81.5c-100 0 -180.333 -46.833 -241 -140.5s-91 -209.167 -91 -346.5c0 -93.333 19.5 -166.833 58.5 -220.5s91.833 -80.5 158.5 -80.5zM295.001 1214
c0 24.667 9 46 27 64s39 27 63 27c24.667 0 45.834 -9 63.501 -27s26.5 -39.333 26.5 -64c0 -24 -8.83301 -45 -26.5 -63s-38.834 -27 -63.501 -27c-24 0 -45 9 -63 27s-27 39 -27 63zM619.001 1214c0 24.667 8.83301 46 26.5 64s38.834 27 63.501 27c24 0 45 -9 63 -27
s27 -39.333 27 -64c0 -24 -9 -45 -27 -63s-39 -27 -63 -27c-24.667 0 -45.834 9 -63.501 27s-26.5 39 -26.5 63z" />
    <glyph glyph-name="divide" unicode="&#xf7;" horiz-adv-x="1352" 
d="M782 1059c0 -22.667 -7.66699 -41.667 -23 -57s-34.333 -23 -57 -23c-22 0 -40.667 7.66699 -56 23s-23 34.333 -23 57c0 22 7.66699 40.833 23 56.5s34 23.5 56 23.5c22.667 0 41.667 -7.83301 57 -23.5s23 -34.5 23 -56.5zM166 764h1073v-90h-1073v90zM782 379
c0 -22.667 -7.66699 -41.667 -23 -57s-34.333 -23 -57 -23c-22 0 -40.667 7.66699 -56 23s-23 34.333 -23 57s7.66699 41.667 23 57s34 23 56 23c22.667 0 41.667 -7.66699 57 -23s23 -34.333 23 -57z" />
    <glyph glyph-name="oslash" unicode="&#xf8;" 
d="M682 889l84.001 130.999l63 -43l-90 -141c60 -70 90 -164.333 90 -283c0 -170.667 -43.333 -308.5 -130 -413.5s-189.334 -157.5 -308.001 -157.5c-54.667 0 -111.334 16.333 -170.001 49l-86 -133l-65 39l94 145c-60 74.667 -90 170.334 -90 287.001
c0 167.333 40.5 304 121.5 410s184.5 159 310.5 159c64.667 0 123.334 -16.333 176.001 -49zM217.001 165.999l416 647c-43.333 27.333 -87 41 -131 41c-100 0 -180.333 -46.833 -241 -140.5s-91 -209.167 -91 -346.5c0 -82.667 15.667 -149.667 47 -201zM684.001 751.999
l-416.001 -649.999c42.667 -24 82.334 -36 119.001 -36c95.333 0 176.833 47.167 244.5 141.5s101.5 209.5 101.5 345.5c0 81.333 -16.333 147.666 -49 198.999z" />
    <glyph glyph-name="ugrave" unicode="&#xf9;" horiz-adv-x="938" 
d="M871 920l-129 -920h-90l25 162l-4 4c-114.667 -122.667 -233.667 -184 -357 -184c-62.667 0 -116 20.667 -160 62s-66 97 -66 167c0 16 1 32.333 3 49l92 660h90l-92 -656c-1.33301 -12.667 -2 -24.667 -2 -36c0 -50 14.667 -89.5 44 -118.5s69.333 -43.5 120 -43.5
c104.667 0 220.667 73 348 219l88 635h90zM226 1386h164l215 -315h-67z" />
    <glyph glyph-name="uacute" unicode="&#xfa;" horiz-adv-x="938" 
d="M871 920l-129 -920h-90l25 162l-4 4c-114.667 -122.667 -233.667 -184 -357 -184c-62.667 0 -116 20.667 -160 62s-66 97 -66 167c0 16 1 32.333 3 49l92 660h90l-92 -656c-1.33301 -12.667 -2 -24.667 -2 -36c0 -50 14.667 -89.5 44 -118.5s69.333 -43.5 120 -43.5
c104.667 0 220.667 73 348 219l88 635h90zM867 1386l-311 -315h-68l215 315h164z" />
    <glyph glyph-name="ucircumflex" unicode="&#xfb;" horiz-adv-x="938" 
d="M871 920l-129 -920h-90l25 162l-4 4c-114.667 -122.667 -233.667 -184 -357 -184c-62.667 0 -116 20.667 -160 62s-66 97 -66 167c0 16 1 32.333 3 49l92 660h90l-92 -656c-1.33301 -12.667 -2 -24.667 -2 -36c0 -50 14.667 -89.5 44 -118.5s69.333 -43.5 120 -43.5
c104.667 0 220.667 73 348 219l88 635h90zM744 1386l19 -403h-74l-43 277l-305 -277h-80l369 403h114z" />
    <glyph glyph-name="udieresis" unicode="&#xfc;" horiz-adv-x="938" 
d="M871 920l-129 -920h-90l25 162l-4 4c-114.667 -122.667 -233.667 -184 -357 -184c-62.667 0 -116 20.667 -160 62s-66 97 -66 167c0 16 1 32.333 3 49l92 660h90l-92 -656c-1.33301 -12.667 -2 -24.667 -2 -36c0 -50 14.667 -89.5 44 -118.5s69.333 -43.5 120 -43.5
c104.667 0 220.667 73 348 219l88 635h90zM308 1214c0 24.667 9 46 27 64s39 27 63 27c24.667 0 45.834 -9 63.501 -27s26.5 -39.333 26.5 -64c0 -24 -8.83301 -45 -26.5 -63s-38.834 -27 -63.501 -27c-24 0 -45 9 -63 27s-27 39 -27 63zM632 1214
c0 24.667 8.83301 46 26.5 64s38.834 27 63.501 27c24 0 45 -9 63 -27s27 -39.333 27 -64c0 -24 -9 -45 -27 -63s-39 -27 -63 -27c-24.667 0 -45.834 9 -63.501 27s-26.5 39 -26.5 63z" />
    <glyph glyph-name="yacute" unicode="&#xfd;" horiz-adv-x="768" 
d="M811 920l-727 -1391h-100l256 483l-174 908h90l149 -785l410 785h96zM778 1386l-311 -315h-68l215 315h164z" />
    <glyph glyph-name="thorn" unicode="&#xfe;" horiz-adv-x="1024" 
d="M53 -453l260 1850h90l-73 -527c79.333 45.333 155 68 227 68c109.333 0 198.5 -38.667 267.5 -116s103.5 -177.333 103.5 -300c0 -153.333 -51.333 -281.666 -154 -384.999s-248.667 -155 -438 -155c-49.333 0 -92.333 2 -129 6l-64 -441h-90zM319 796.999l-104 -742
c40.667 -4.66699 79.667 -7 117 -7c162 0 285.667 43.333 371 130s128 200.667 128 342c0 102 -27 183.167 -81 243.5s-125.667 90.5 -215 90.5c-70 0 -142 -19 -216 -57z" />
    <glyph glyph-name="ydieresis" unicode="&#xff;" horiz-adv-x="768" 
d="M811 920l-727 -1391h-100l256 483l-174 908h90l149 -785l410 785h96zM219 1214c0 24.667 9 46 27 64s39 27 63 27c24.667 0 45.834 -9 63.501 -27s26.5 -39.333 26.5 -64c0 -24 -8.83301 -45 -26.5 -63s-38.834 -27 -63.501 -27c-24 0 -45 9 -63 27s-27 39 -27 63z
M543 1214c0 24.667 8.83301 46 26.5 64s38.834 27 63.501 27c24 0 45 -9 63 -27s27 -39.333 27 -64c0 -24 -9 -45 -27 -63s-39 -27 -63 -27c-24.667 0 -45.834 9 -63.501 27s-26.5 39 -26.5 63z" />
    <glyph glyph-name="Aogonek" unicode="&#x104;" horiz-adv-x="1110" 
d="M1110 -330c-20.667 -5.33301 -38.1631 -9 -52.4961 -11s-29.5 -3 -45.5 -3c-32 0 -60.333 4.33301 -85 13s-45.334 20.5 -62.001 35.5s-29.167 32.333 -37.5 52s-12.5 40.167 -12.5 61.5c0 30 8.16699 62 24.5 96s38.833 66 67.5 96l-110 494h-518l-238 -504h-98
l659 1415h86l322 -1415h-25c-24.667 -30.667 -42.834 -59.667 -54.501 -87s-17.5 -52.333 -17.5 -75c0 -30.667 10 -54.667 30 -72s51 -26 93 -26c11.333 0 23.166 1 35.499 3s29.166 5.66699 50.499 11zM324.004 598h452l-149 645h-9z" />
    <glyph glyph-name="aogonek" unicode="&#x105;" horiz-adv-x="981" 
d="M885 -330c-20.667 -5.33301 -38.1689 -9.00098 -52.502 -11.001s-29.833 -3 -46.5 -3c-32 0 -60.333 4.33301 -85 13s-45.167 20.5 -61.5 35.5s-28.666 32.333 -36.999 52s-12.5 40.167 -12.5 61.5c0 30.667 8.66699 63.667 26 99s42 69 74 101l12 91
c-20 -18 -42.333 -34.667 -67 -50s-50.5 -28.833 -77.5 -40.5s-55 -20.667 -84 -27s-57.833 -9.5 -86.5 -9.5c-46.667 0 -89.667 9.16699 -129 27.5s-73.166 43.833 -101.499 76.5s-50.5 71.5 -66.5 116.5s-24 94.167 -24 147.5c0 72 14 143 42 213
s69.333 132.833 124 188.5s122.834 100.667 204.501 135s175.834 51.5 282.501 51.5c17.333 0 34.833 -0.5 52.5 -1.5s34.834 -2.16699 51.501 -3.5s32.167 -3.16602 46.5 -5.49902s26.833 -4.83301 37.5 -7.5l-129 -920h-18c-24.667 -30.667 -42.834 -59.667 -54.501 -87
s-17.5 -52.333 -17.5 -75c0 -30.667 10 -54.667 30 -72s51 -26 93 -26c11.333 0 23.166 1 35.499 3s29.166 5.66699 50.499 11zM808.998 857.999c-32.667 8 -70.3379 11.999 -113.005 11.999c-70 0 -137.167 -12.833 -201.5 -38.5s-121.166 -61.667 -170.499 -108
s-88.666 -102.166 -117.999 -167.499s-44 -138 -44 -218c0 -42.667 5.66699 -81.334 17 -116.001s27.333 -64.167 48 -88.5s45.834 -43.166 75.501 -56.499s62.5 -20 98.5 -20c56.667 0 110.334 13.5 161.001 40.5s102.334 65.5 155.001 115.5z" />
    <glyph glyph-name="Cacute" unicode="&#x106;" horiz-adv-x="1130" 
d="M1159 1397l-12.001 -89.999c-62.667 9.33301 -118 14 -166 14c-222 0 -409.667 -76.5 -563 -229.5s-230 -327.833 -230 -524.5c0 -138.667 42.833 -255.167 128.5 -349.5s191.167 -141.5 316.5 -141.5c139.333 0 286.666 49.667 441.999 149l-16 -114
c-149.333 -86 -290.666 -129 -423.999 -129c-144.667 0 -273 54.167 -385 162.5s-168 247.833 -168 418.5c0 223.333 86.833 421.166 260.5 593.499s387.167 258.5 640.5 258.5c66.667 0 125.334 -6 176.001 -18zM1173 1837l-311 -315h-68l215 315h164z" />
    <glyph glyph-name="cacute" unicode="&#x107;" horiz-adv-x="788" 
d="M778 920l-13.999 -98.999c-65.333 18 -123.333 27 -174 27c-134 0 -240.833 -45.833 -320.5 -137.5s-119.5 -201.5 -119.5 -329.5c0 -94.667 28.167 -170.834 84.5 -228.501s131.166 -86.5 224.499 -86.5c64.667 0 152 25 262 75l-14 -96c-86.667 -42 -177 -63 -271 -63
c-114 0 -206.333 37.667 -277 113s-106 174 -106 296c0 146.667 49.5 274.5 148.5 383.5s231.167 163.5 396.5 163.5c58.667 0 118.667 -6 180 -18zM850.001 1386l-311 -315h-68l215 315h164z" />
    <glyph glyph-name="Eogonek" unicode="&#x118;" horiz-adv-x="1087" 
d="M901 -330c-20.667 -5.33301 -37.9971 -9 -51.9971 -11s-29.333 -3 -46 -3c-32 0 -60.333 4.33301 -85 13s-45.334 20.5 -62.001 35.5s-29.167 32.333 -37.5 52s-12.5 40.167 -12.5 61.5c0 28 7.33301 57.833 22 89.5s34.667 62.5 60 92.5h-596l197 1397h712l-12 -94h-616
l-78 -541h584l-15 -94h-581l-82 -574h825l-12 -94h-238c-24.667 -30.667 -42.667 -59.667 -54 -87s-17 -52.333 -17 -75c0 -30.667 9.83301 -54.667 29.5 -72s50.5 -26 92.5 -26c11.333 0 23.166 1 35.499 3s29.166 5.66699 50.499 11z" />
    <glyph glyph-name="eogonek" unicode="&#x119;" 
d="M748 -330c-20.667 -5.33301 -38.168 -8.99609 -52.501 -10.9961s-29.833 -3 -46.5 -3c-32 0 -60.333 4.33301 -85 13s-45.167 20.5 -61.5 35.5s-28.666 32.333 -36.999 52s-12.5 40.167 -12.5 61.5c0 25.333 5.83301 52.333 17.5 81s28.834 57 51.501 85
c-6 0 -12 -0.333008 -18 -1s-12.333 -1 -19 -1c-61.333 0 -117 10.5 -167 31.5s-92.833 50.833 -128.5 89.5s-63.167 85.167 -82.5 139.5s-29 114.833 -29 181.5c0 72 11 139.333 33 202s52 117.167 90 163.5s83 82.666 135 108.999s108 39.5 168 39.5
c49.333 0 94 -8.83301 134 -26.5s74.333 -43.167 103 -76.5s50.834 -74 66.501 -122s23.5 -102.667 23.5 -164c0 -14.667 -0.333008 -27.334 -1 -38.001s-1.66699 -21.334 -3 -32.001h-649c-1.33301 -9.33301 -2.33301 -19 -3 -29s-1 -20 -1 -30
c0 -41.333 6.33301 -83 19 -125s31.834 -80 57.501 -114s58.167 -61.667 97.5 -83s85.666 -32 138.999 -32c48 0 96.333 9.5 145 28.5s96 47.5 142 85.5v-96c-21.333 -16.667 -44.5 -31.834 -69.5 -45.501s-50.833 -25.167 -77.5 -34.5c-26 -32 -45.167 -62 -57.5 -90
s-18.5 -53.333 -18.5 -76c0 -30.667 10 -54.667 30 -72s51 -26 93 -26c11.333 0 23.166 1 35.499 3s29.166 5.66699 50.499 11zM740.999 559.004c0 48 -5.66797 90.3359 -17.001 127.003s-27.333 67.5 -48 92.5s-45.834 43.833 -75.501 56.5s-62.5 19 -98.5 19
s-71.167 -7.83301 -105.5 -23.5s-65.666 -36.834 -93.999 -63.501s-52.166 -57.834 -71.499 -93.501s-32 -73.834 -38 -114.501h548z" />
    <glyph glyph-name="dotlessi" unicode="&#x131;" horiz-adv-x="362" 
d="M283 920l-129 -920h-91l130 920h90z" />
    <glyph glyph-name="Lslash" unicode="&#x141;" horiz-adv-x="854" 
d="M184 94h627l-12 -94h-723l84 592l-170 -143l18 100l166 139l98 709h97l-88 -633l348 291l-15 -97l-348 -292z" />
    <glyph glyph-name="lslash" unicode="&#x142;" horiz-adv-x="362" 
d="M150 0h-91l86 612l-178 -141l13 80l178 141l98 705h90l-88 -635l191 153l-11 -79l-192 -154z" />
    <glyph glyph-name="Nacute" unicode="&#x143;" horiz-adv-x="1409" 
d="M1364 1397l-199 -1409h-43l-766 1204l-168 -1192h-96l197 1397h55l756 -1196l168 1196h96zM1097 1837l-311 -315h-68l215 315h164z" />
    <glyph glyph-name="nacute" unicode="&#x144;" horiz-adv-x="938" 
d="M274 920l-19.999 -151.999l4 -4c116 116 232.667 174 350 174c67.333 0 122.666 -24.667 165.999 -74s65 -111.333 65 -186c0 -16 -1 -31.667 -3 -47l-88 -631h-91l86 618c2.66699 19.333 4 37.666 4 54.999c0 57.333 -14.5 101.833 -43.5 133.5
s-68.833 47.5 -119.5 47.5c-102.667 0 -218 -67 -346 -201l-93 -653h-90l129 920h90zM844.001 1386l-311 -315h-68l215 315h164z" />
    <glyph glyph-name="OE" unicode="&#x152;" horiz-adv-x="1962" 
d="M1923 1397l-13.999 -94h-619l-78 -545h584l-12 -94h-586l-80 -570h834l-13 -94h-1167c-220.667 0 -389.5 57.667 -506.5 173s-175.5 261 -175.5 437c0 199.333 66.167 381.5 198.5 546.5s359.166 247.5 680.499 247.5l188 -7h766zM1022 94l172 1209l-247 6
c-268 0 -460 -70 -576 -210s-174 -303 -174 -489c0 -160.667 49.333 -286.834 148 -378.501s237 -137.5 415 -137.5h262z" />
    <glyph glyph-name="oe" unicode="&#x153;" horiz-adv-x="1450" 
d="M1323 195l-13.9971 -109c-100 -69.333 -205.333 -104 -316 -104c-154 0 -257 71 -309 213c-81.333 -142 -187 -213 -317 -213c-88.667 0 -162.5 36.333 -221.5 109s-88.5 164.667 -88.5 276c0 153.333 43.667 286.833 131 400.5s188.666 170.5 303.999 170.5
c129.333 0 218.666 -68.333 267.999 -205c76.667 136.667 179 205 307 205c92 0 167.5 -31.167 226.5 -93.5s88.5 -147.5 88.5 -255.5c0 -34 -3.33301 -70 -10 -108h-604c-6.66699 -54.667 -10 -99.667 -10 -135c0 -86 22 -154.167 66 -204.5s103 -75.5 177 -75.5
c95.333 0 202.666 43 321.999 129zM780.003 561h514c2 14.667 3 29.334 3 44.001c0 71.333 -20.667 130.666 -62 177.999s-94 71 -158 71c-70.667 0 -134 -26.667 -190 -80s-91.667 -124.333 -107 -213zM371.003 66c92 0 167.167 51.168 225.5 153.501
s87.5 227.166 87.5 374.499c0 79.333 -18 142.5 -54 189.5s-84.333 70.5 -145 70.5c-88 0 -165.167 -47 -231.5 -141s-99.5 -205.333 -99.5 -334c0 -93.333 20.167 -168.833 60.5 -226.5s92.5 -86.5 156.5 -86.5z" />
    <glyph glyph-name="Sacute" unicode="&#x15a;" horiz-adv-x="854" 
d="M797 1337l-24.998 -87.999c-92 48 -169 72 -231 72c-70.667 0 -131.334 -26 -182.001 -78s-76 -114 -76 -186c0 -45.333 11.5 -90.166 34.5 -134.499s84.833 -103.833 185.5 -178.5s165.167 -141.834 193.5 -201.501s42.5 -121.167 42.5 -184.5
c0 -107.333 -36.5 -196.833 -109.5 -268.5s-164.167 -107.5 -273.5 -107.5c-44.667 0 -95.834 8.83301 -153.501 26.5s-104.834 40.167 -141.501 67.5l25 94c96.667 -62.667 183.334 -94 260.001 -94c82.667 0 151.167 25.667 205.5 77s81.5 120.333 81.5 207
c0 47.333 -12.5 94.666 -37.5 141.999s-87.667 110.333 -188 189s-164 144 -191 196s-40.5 104.333 -40.5 157c0 105.333 35 193.5 105 264.5s156.667 106.5 260 106.5c102 0 187.333 -26 256 -78zM811.002 1837l-311 -315h-68l215 315h164z" />
    <glyph glyph-name="sacute" unicode="&#x15b;" horiz-adv-x="725" 
d="M678 852l-0.000976562 -100.003c-108.667 68 -208.334 102 -299.001 102c-52 0 -96.5 -12.833 -133.5 -38.5s-55.5 -56.5 -55.5 -92.5c0 -25.333 10.5 -51.166 31.5 -77.499s79.833 -69.5 176.5 -129.5s160.334 -112.333 191.001 -157s46 -90 46 -136
c0 -66.667 -29.167 -123.5 -87.5 -170.5s-129.5 -70.5 -213.5 -70.5c-111.333 0 -214.333 40 -309 120l28 97c83.333 -88.667 178.333 -133 285 -133c58 0 106 14 144 42s57 63 57 105c0 28.667 -11.333 58.334 -34 89.001s-81.5 76.834 -176.5 138.501
s-156.167 112.167 -183.5 151.5s-41 78.333 -41 117c0 64.667 28 119 84 163s125.667 66 209 66c96.667 0 190.334 -28.667 281.001 -86zM713.999 1386l-311 -315h-68l215 315h164z" />
    <glyph glyph-name="Scaron" unicode="&#x160;" horiz-adv-x="854" 
d="M797 1337l-24.998 -87.999c-92 48 -169 72 -231 72c-70.667 0 -131.334 -26 -182.001 -78s-76 -114 -76 -186c0 -45.333 11.5 -90.166 34.5 -134.499s84.833 -103.833 185.5 -178.5s165.167 -141.834 193.5 -201.501s42.5 -121.167 42.5 -184.5
c0 -107.333 -36.5 -196.833 -109.5 -268.5s-164.167 -107.5 -273.5 -107.5c-44.667 0 -95.834 8.83301 -153.501 26.5s-104.834 40.167 -141.501 67.5l25 94c96.667 -62.667 183.334 -94 260.001 -94c82.667 0 151.167 25.667 205.5 77s81.5 120.333 81.5 207
c0 47.333 -12.5 94.666 -37.5 141.999s-87.667 110.333 -188 189s-164 144 -191 196s-40.5 104.333 -40.5 157c0 105.333 35 193.5 105 264.5s156.667 106.5 260 106.5c102 0 187.333 -26 256 -78zM497.002 1425l-18 403h73l43 -276l305 276h80l-368 -403h-115z" />
    <glyph glyph-name="scaron" unicode="&#x161;" horiz-adv-x="725" 
d="M678 852l-0.000976562 -100.003c-108.667 68 -208.334 102 -299.001 102c-52 0 -96.5 -12.833 -133.5 -38.5s-55.5 -56.5 -55.5 -92.5c0 -25.333 10.5 -51.166 31.5 -77.499s79.833 -69.5 176.5 -129.5s160.334 -112.333 191.001 -157s46 -90 46 -136
c0 -66.667 -29.167 -123.5 -87.5 -170.5s-129.5 -70.5 -213.5 -70.5c-111.333 0 -214.333 40 -309 120l28 97c83.333 -88.667 178.333 -133 285 -133c58 0 106 14 144 42s57 63 57 105c0 28.667 -11.333 58.334 -34 89.001s-81.5 76.834 -176.5 138.501
s-156.167 112.167 -183.5 151.5s-41 78.333 -41 117c0 64.667 28 119 84 163s125.667 66 209 66c96.667 0 190.334 -28.667 281.001 -86zM361.999 982.997l-18 403h73l43 -276l305 276h80l-368 -403h-115z" />
    <glyph glyph-name="Ydieresis" unicode="&#x178;" horiz-adv-x="981" 
d="M1120 1397l-522 -674l-100 -723h-97l101 723l-350 674h104l305 -578l443 578h116zM397 1657c0 24.667 9 46 27 64s39 27 63 27c24.667 0 45.834 -9 63.501 -27s26.5 -39.333 26.5 -64c0 -24 -8.83301 -45 -26.5 -63s-38.834 -27 -63.501 -27c-24 0 -45 9 -63 27
s-27 39 -27 63zM721 1657c0 24.667 8.83301 46 26.5 64s38.834 27 63.501 27c24 0 45 -9 63 -27s27 -39.333 27 -64c0 -24 -9 -45 -27 -63s-39 -27 -63 -27c-24.667 0 -45.834 9 -63.501 27s-26.5 39 -26.5 63z" />
    <glyph glyph-name="Zacute" unicode="&#x179;" horiz-adv-x="1300" 
d="M168 94h989l-12 -94h-1159v33l1167 1270h-944l12 94h1114v-33zM1044 1837l-311 -315h-68l215 315h164z" />
    <glyph glyph-name="zacute" unicode="&#x17a;" horiz-adv-x="874" 
d="M893 920v-39l-760 -801h643l-12 -80h-801v37l770 803h-602l12 80h750zM780 1386l-311 -315h-68l215 315h164z" />
    <glyph glyph-name="Zdotaccent" unicode="&#x17b;" horiz-adv-x="1300" 
d="M168 94h989l-12 -94h-1159v33l1167 1270h-944l12 94h1114v-33zM867 1665c0 -28.667 -10.333 -53.167 -31 -73.5s-45.334 -30.5 -74.001 -30.5s-53.167 10.167 -73.5 30.5s-30.5 44.833 -30.5 73.5s10.167 53.334 30.5 74.001s44.833 31 73.5 31
s53.334 -10.333 74.001 -31s31 -45.334 31 -74.001z" />
    <glyph glyph-name="zdotaccent" unicode="&#x17c;" horiz-adv-x="874" 
d="M893 920v-39l-760 -801h643l-12 -80h-801v37l770 803h-602l12 80h750zM625 1214c0 -28.667 -10.333 -53.167 -31 -73.5s-45.334 -30.5 -74.001 -30.5s-53.167 10.167 -73.5 30.5s-30.5 44.833 -30.5 73.5s10.167 53.334 30.5 74.001s44.833 31 73.5 31
s53.334 -10.333 74.001 -31s31 -45.334 31 -74.001z" />
    <glyph glyph-name="Zcaron" unicode="&#x17d;" horiz-adv-x="1300" 
d="M168 94h989l-12 -94h-1159v33l1167 1270h-944l12 94h1114v-33zM720 1425l-18 403h73l43 -276l305 276h80l-368 -403h-115z" />
    <glyph glyph-name="zcaron" unicode="&#x17e;" horiz-adv-x="874" 
d="M893 920v-39l-760 -801h643l-12 -80h-801v37l770 803h-602l12 80h750zM436 983l-18 403h73l43 -276l305 276h80l-368 -403h-115z" />
    <glyph glyph-name="florin" unicode="&#x192;" horiz-adv-x="1139" 
d="M735 1067l223.001 0.000976562l-22 -96h-219l-248 -1141c-20 -94.667 -50.833 -161.667 -92.5 -201s-102.834 -59 -183.501 -59c-54 0 -113.667 10.333 -179 31l23 100c58.667 -15.333 107 -23 145 -23c49.333 0 85.833 11.667 109.5 35s41.167 61.666 52.5 114.999
l246 1143h-168l18 96h168l49 213c34 143.333 122.333 215 265 215c40.667 0 101.334 -11 182.001 -33l-21 -98c-54 13.333 -105 20 -153 20c-40 0 -72.333 -9.5 -97 -28.5s-46.334 -68.833 -65.001 -149.5z" />
    <glyph glyph-name="circumflex" unicode="&#x2c6;" horiz-adv-x="682" 
d="M612 1386l19 -403h-74l-43 277l-305 -277h-80l369 403h114z" />
    <glyph glyph-name="caron" unicode="&#x2c7;" horiz-adv-x="682" 
d="M340 983l-18 403h73l43 -276l305 276h80l-368 -403h-115z" />
    <glyph glyph-name="firsttonechinese" unicode="&#x2c9;" horiz-adv-x="682" 
d="M719 1276l-14 -105h-547l14 105h547z" />
    <glyph glyph-name="breve" unicode="&#x2d8;" horiz-adv-x="682" 
d="M637 1348l74 -0.000976562c-26 -82 -64.667 -146 -116 -192s-107 -69 -167 -69c-63.333 0 -115.5 23.333 -156.5 70s-62.5 110.334 -64.5 191.001h84c7.33301 -113.333 51.666 -170 132.999 -170c36 0 73.833 15.333 113.5 46s72.834 72 99.501 124z" />
    <glyph glyph-name="dotaccent" unicode="&#x2d9;" horiz-adv-x="682" 
d="M545 1214c0 -28.667 -10.333 -53.167 -31 -73.5s-45.334 -30.5 -74.001 -30.5s-53.167 10.167 -73.5 30.5s-30.5 44.833 -30.5 73.5s10.167 53.334 30.5 74.001s44.833 31 73.5 31s53.334 -10.333 74.001 -31s31 -45.334 31 -74.001z" />
    <glyph glyph-name="ring" unicode="&#x2da;" horiz-adv-x="682" 
d="M432 1036c-48 0 -89.333 17.5 -124 52.5s-52 76.167 -52 123.5c0 48 17.333 89.5 52 124.5s76 52.5 124 52.5s89.333 -17.5 124 -52.5s52 -76.5 52 -124.5c0 -47.333 -17.333 -88.5 -52 -123.5s-76 -52.5 -124 -52.5zM432 1331c-32.667 0 -60.667 -11.667 -84 -35
s-35 -51.333 -35 -84c0 -32 11.667 -59.667 35 -83s51.333 -35 84 -35s60.667 11.667 84 35s35 51 35 83c0 32.667 -11.667 60.667 -35 84s-51.333 35 -84 35z" />
    <glyph glyph-name="ogonek" unicode="&#x2db;" horiz-adv-x="682" 
d="M412 -246l-13 -84c-36.667 -9.33301 -69.334 -14 -98.001 -14c-56 0 -102.833 15.5 -140.5 46.5s-56.5 69.5 -56.5 115.5c0 62 30.333 129.333 91 202h98c-60 -75.333 -90 -136 -90 -182c0 -27.333 11.833 -50.5 35.5 -69.5s52.834 -28.5 87.501 -28.5
c17.333 0 46 4.66699 86 14z" />
    <glyph glyph-name="tilde" unicode="&#x2dc;" horiz-adv-x="682" 
d="M702 1317l64.001 -0.000976562c-12.667 -130 -67.334 -195 -164.001 -195c-40 0 -102.833 16.833 -188.5 50.5s-142.834 50.5 -171.501 50.5c-52.667 0 -80 -33 -82 -99h-64c-1.33301 10 -2 20 -2 30c0 50.667 16.833 91.834 50.5 123.501s74.167 47.5 121.5 47.5
c35.333 0 93.833 -16.667 175.5 -50s139.834 -50 174.501 -50c52 0 80.667 30.667 86 92z" />
    <glyph glyph-name="hungarumlaut" unicode="&#x2dd;" horiz-adv-x="682" 
d="M918 1386l-312 -315h-67l215 315h164zM643 1386l-311 -315h-68l215 315h164z" />
    <glyph glyph-name="gravecmb" unicode="&#x300;" horiz-adv-x="0" 
d="M-646 1386h164l215 -315h-67z" />
    <glyph glyph-name="acutecmb" unicode="&#x301;" horiz-adv-x="0" 
d="M-267 1386l-311 -315h-68l215 315h164z" />
    <glyph glyph-name="circumflexcmb" unicode="&#x302;" horiz-adv-x="0" 
d="M-225 1386l19 -403h-74l-43 277l-305 -277h-80l369 403h114z" />
    <glyph glyph-name="tildecmb" unicode="&#x303;" horiz-adv-x="0" 
d="M-185 1317l64.001 -0.000976562c-12.667 -130 -67.334 -195 -164.001 -195c-40 0 -102.833 16.833 -188.5 50.5s-142.834 50.5 -171.501 50.5c-52.667 0 -80 -33 -82 -99h-64c-1.33301 10 -2 20 -2 30c0 50.667 16.833 91.834 50.5 123.501s74.167 47.5 121.5 47.5
c35.333 0 93.833 -16.667 175.5 -50s139.834 -50 174.501 -50c52 0 80.667 30.667 86 92z" />
    <glyph glyph-name="macroncmb" unicode="&#x304;" horiz-adv-x="0" 
d="M-1019 655h-165.999l13 90h167l91 652h256c108 0 218.667 -26 332 -78s205.333 -135 276 -249s106 -242 106 -384c0 -194.667 -64.333 -357.667 -193 -489s-324.334 -197 -587.001 -197h-385zM-922.999 655l-77.002 -565h223c157.333 0 284.833 18.333 382.5 55
s179.834 103 246.501 199s100 208.667 100 338c0 186.667 -61.167 337.5 -183.5 452.5s-283.166 172.5 -482.499 172.5h-116l-78 -562h372l-14 -90h-373z" />
    <glyph glyph-name="brevecmb" unicode="&#x306;" horiz-adv-x="0" 
d="M-279 1348l74 -0.000976562c-26 -82 -64.667 -146 -116 -192s-107 -69 -167 -69c-63.333 0 -115.5 23.333 -156.5 70s-62.5 110.334 -64.5 191.001h84c7.33301 -113.333 51.666 -170 132.999 -170c36 0 73.833 15.333 113.5 46s72.834 72 99.501 124z" />
    <glyph glyph-name="dotaccentcmb" unicode="&#x307;" horiz-adv-x="0" 
d="M-352 1214c0 -28.667 -10.333 -53.167 -31 -73.5s-45.334 -30.5 -74.001 -30.5s-53.167 10.167 -73.5 30.5s-30.5 44.833 -30.5 73.5s10.167 53.334 30.5 74.001s44.833 31 73.5 31s53.334 -10.333 74.001 -31s31 -45.334 31 -74.001z" />
    <glyph glyph-name="dieresiscmb" unicode="&#x308;" horiz-adv-x="0" 
d="M-709 1214c0 24.667 9 46 27 64s39 27 63 27c24.667 0 45.834 -9 63.501 -27s26.5 -39.333 26.5 -64c0 -24 -8.83301 -45 -26.5 -63s-38.834 -27 -63.501 -27c-24 0 -45 9 -63 27s-27 39 -27 63zM-385 1214c0 24.667 8.83301 46 26.5 64s38.834 27 63.501 27
c24 0 45 -9 63 -27s27 -39.333 27 -64c0 -24 -9 -45 -27 -63s-39 -27 -63 -27c-24.667 0 -45.834 9 -63.501 27s-26.5 39 -26.5 63z" />
    <glyph glyph-name="ringcmb" unicode="&#x30a;" horiz-adv-x="0" 
d="M-457 1036c-48 0 -89.333 17.5 -124 52.5s-52 76.167 -52 123.5c0 48 17.333 89.5 52 124.5s76 52.5 124 52.5s89.333 -17.5 124 -52.5s52 -76.5 52 -124.5c0 -47.333 -17.333 -88.5 -52 -123.5s-76 -52.5 -124 -52.5zM-457 1331c-32.667 0 -60.667 -11.667 -84 -35
s-35 -51.333 -35 -84c0 -32 11.667 -59.667 35 -83s51.333 -35 84 -35s60.667 11.667 84 35s35 51 35 83c0 32.667 -11.667 60.667 -35 84s-51.333 35 -84 35z" />
    <glyph glyph-name="hungarumlautcmb" unicode="&#x30b;" horiz-adv-x="0" 
d="M-130 1386l-312 -315h-67l215 315h164zM-405 1386l-311 -315h-68l215 315h164z" />
    <glyph glyph-name="caroncmb" unicode="&#x30c;" horiz-adv-x="0" 
d="M-689 983l-18 403h73l43 -276l305 276h80l-368 -403h-115z" />
    <glyph glyph-name="cedillacmb" unicode="&#x327;" horiz-adv-x="0" 
d="M-353 14l-35.001 -84.001c49.333 -17.333 74 -52.666 74 -105.999c0 -56 -19.167 -99.5 -57.5 -130.5s-91.166 -46.5 -158.499 -46.5c-22 0 -45 1.66699 -69 5l21 65c14.667 -1.33301 29 -2 43 -2c98 0 147 36.333 147 109c0 37.333 -28 57 -84 59l56 131h63z" />
    <glyph glyph-name="ogonekcmb" unicode="&#x328;" horiz-adv-x="0" 
d="M-303 -246l-13 -84c-36.667 -9.33301 -69.334 -14 -98.001 -14c-56 0 -102.833 15.5 -140.5 46.5s-56.5 69.5 -56.5 115.5c0 62 30.333 129.333 91 202h98c-60 -75.333 -90 -136 -90 -182c0 -27.333 11.833 -50.5 35.5 -69.5s52.834 -28.5 87.501 -28.5
c17.333 0 46 4.66699 86 14z" />
    <glyph glyph-name="soliduslongoverlaycmb" unicode="&#x338;" horiz-adv-x="0" 
d="M-278 1415h94l-449 -1433h-96z" />
    <glyph glyph-name="afii10023" unicode="&#x401;" horiz-adv-x="1087" 
d="M1001 1397l-12 -94h-616l-78 -541h584l-15 -94h-581l-82 -574h825l-12 -94h-922l197 1397h712zM541 1747c24.667 0 45.834 -8.83301 63.501 -26.5s26.5 -38.834 26.5 -63.501s-8.83301 -45.834 -26.5 -63.501s-38.834 -26.5 -63.501 -26.5s-45.834 8.83301 -63.501 26.5
s-26.5 38.834 -26.5 63.501s8.83301 45.834 26.5 63.501s38.834 26.5 63.501 26.5zM864 1747c24.667 0 45.834 -8.83301 63.501 -26.5s26.5 -38.834 26.5 -63.501s-8.83301 -45.834 -26.5 -63.501s-38.834 -26.5 -63.501 -26.5s-45.834 8.83301 -63.501 26.5
s-26.5 38.834 -26.5 63.501s8.83301 45.834 26.5 63.501s38.834 26.5 63.501 26.5z" />
    <glyph glyph-name="afii10051" unicode="&#x402;" horiz-adv-x="1184" 
d="M965 1307l-414 -0.00195312l-59 -430c26.667 17.333 61.167 31.833 103.5 43.5s89.5 17.5 141.5 17.5c55.333 0 105.333 -10.167 150 -30.5s83 -48.5 115 -84.5s56.667 -78.5 74 -127.5s26 -102.5 26 -160.5c0 -40.667 -4.5 -82.334 -13.5 -125.001s-23 -84 -42 -124
s-43 -77.667 -72 -113s-63.667 -66.5 -104 -93.5s-86.5 -48.833 -138.5 -65.5s-110.333 -26 -175 -28l8 90c61.333 0 118.333 11.167 171 33.5s98.5 53.833 137.5 94.5s69.667 89.5 92 146.5s33.5 119.833 33.5 188.5c0 44 -6.33301 84.833 -19 122.5
s-31.167 70.334 -55.5 98.001s-54.333 49.334 -90 65.001s-76.167 23.5 -121.5 23.5c-21.333 0 -43.333 -1.5 -66 -4.5s-44.5 -7.66699 -65.5 -14s-40.667 -14.166 -59 -23.499s-33.5 -20 -45.5 -32l-110 -774h-97l185 1307h-373l12 90h883z" />
    <glyph glyph-name="afii10052" unicode="&#x403;" horiz-adv-x="854" 
d="M930 1397l-12 -90h-545l-185 -1307h-96l197 1397h641zM868 1825l-311 -316h-68l216 316h163z" />
    <glyph glyph-name="afii10053" unicode="&#x404;" horiz-adv-x="1130" 
d="M1147 1307c-17.333 2.66699 -33.167 4.99805 -47.5 6.99805s-28 3.5 -41 4.5s-25.667 1.66699 -38 2s-25.5 0.5 -39.5 0.5c-98 0 -188.333 -14.667 -271 -44s-156.5 -69 -221.5 -119s-120.167 -107.833 -165.5 -173.5s-79.333 -135.167 -102 -208.5h760l-18 -94h-764
c-7.33301 -40.667 -11 -79 -11 -115c0 -69.333 9.66699 -134 29 -194s47.833 -112 85.5 -156s84.167 -78.5 139.5 -103.5s119 -37.5 191 -37.5c68.667 0 141.334 12.833 218.001 38.5s151.334 62.5 224.001 110.5l-16 -114c-32.667 -19.333 -67.334 -37 -104.001 -53
s-73.667 -29.667 -111 -41s-73.833 -20 -109.5 -26s-68.834 -9 -99.501 -9c-78 0 -150.667 12.667 -218 38s-125.833 62.5 -175.5 111.5s-88.667 109.667 -117 182s-42.5 155.5 -42.5 249.5c0 70.667 9.83301 140.834 29.5 210.501s48.167 136 85.5 199
s82.5 121.5 135.5 175.5s112.833 100.833 179.5 140.5s139.667 70.667 219 93s163.333 33.5 252 33.5c34 0 64.167 -1.16699 90.5 -3.5s54.833 -7.16602 85.5 -14.499z" />
    <glyph glyph-name="afii10054" unicode="&#x405;" horiz-adv-x="854" 
d="M86 170c28 -18 53.498 -32.998 76.498 -44.998s44.667 -21.667 65 -29s40 -12.5 59 -15.5s38.833 -4.5 59.5 -4.5c38 0 74.333 6 109 18s65.167 29.833 91.5 53.5s47.333 53.334 63 89.001s23.5 76.834 23.5 123.501c0 39.333 -6.5 74.666 -19.5 105.999
s-30.333 60.166 -52 86.499s-46.167 50.833 -73.5 73.5l-83.5 67.5l-83.5 69c-27.333 23.667 -51.833 49.334 -73.5 77.001s-39 58.167 -52 91.5s-19.5 71 -19.5 113c0 52.667 9.33301 101.667 28 147s44.334 84.5 77.001 117.5s71.167 59 115.5 78s92.5 28.5 144.5 28.5
c22.667 0 46.167 -2 70.5 -6s48 -9.5 71 -16.5s44.333 -15.167 64 -24.5s36.5 -19.666 50.5 -30.999l-25 -88c-27.333 14 -51.5 25.667 -72.5 35s-40.333 16.666 -58 21.999s-34.5 9.16602 -50.5 11.499s-32.667 3.5 -50 3.5c-35.333 0 -68.666 -7 -99.999 -21
s-58.666 -33 -81.999 -57s-41.833 -52 -55.5 -84s-20.5 -66 -20.5 -102c0 -39.333 6.5 -74.166 19.5 -104.499s30.167 -57.833 51.5 -82.5s45.666 -47.5 72.999 -68.5l84 -63.5c28.667 -21.333 56.667 -43.833 84 -67.5s51.666 -50.334 72.999 -80.001
s38.5 -63.334 51.5 -101.001s19.5 -81.5 19.5 -131.5c0 -54 -9.66699 -104 -29 -150s-46.166 -85.833 -80.499 -119.5s-74.833 -59.834 -121.5 -78.501s-97.334 -28 -152.001 -28c-23.333 0 -48.666 2.5 -75.999 7.5s-54.5 11.833 -81.5 20.5s-52.5 18.667 -76.5 30
s-44.333 23.333 -61 36z" />
    <glyph glyph-name="afii10055" unicode="&#x406;" horiz-adv-x="406" 
d="M375 1397l-197 -1397h-96l197 1397h96z" />
    <glyph glyph-name="afii10056" unicode="&#x407;" horiz-adv-x="406" 
d="M375 1397l-197 -1397h-96l197 1397h96zM201 1747c24.667 0 45.834 -8.83301 63.501 -26.5s26.5 -38.834 26.5 -63.501s-8.83301 -45.834 -26.5 -63.501s-38.834 -26.5 -63.501 -26.5s-45.834 8.83301 -63.501 26.5s-26.5 38.834 -26.5 63.501s8.83301 45.834 26.5 63.501
s38.834 26.5 63.501 26.5zM524 1747c24.667 0 45.834 -8.83301 63.501 -26.5s26.5 -38.834 26.5 -63.501s-8.83301 -45.834 -26.5 -63.501s-38.834 -26.5 -63.501 -26.5s-45.834 8.83301 -63.501 26.5s-26.5 38.834 -26.5 63.501s8.83301 45.834 26.5 63.501
s38.834 26.5 63.501 26.5z" />
    <glyph glyph-name="afii10057" unicode="&#x408;" horiz-adv-x="406" 
d="M381 1397l-217.001 -1532c-9.33301 -66 -25.166 -120.667 -47.499 -164s-48.833 -77.666 -79.5 -102.999s-64 -43.166 -100 -53.499s-72.333 -15.5 -109 -15.5c-42 0 -81 5.33301 -117 16l-18 101c17.333 -6.66699 37.5 -11.834 60.5 -15.501s47.167 -5.5 72.5 -5.5
c38.667 0 72.167 5.83301 100.5 17.5s52.666 30.5 72.999 56.5s37.333 60 51 102s24.834 93.333 33.501 154l203 1442h94z" />
    <glyph glyph-name="afii10058" unicode="&#x409;" horiz-adv-x="1681" 
d="M813 784c15.333 6.66699 35.166 12.998 59.499 18.998s50.333 11.333 78 16s55.834 8.33398 84.501 11.001s55 4 79 4c80 0 150.333 -9.83301 211 -29.5s111.167 -47.167 151.5 -82.5s70.833 -77.5 91.5 -126.5s31 -102.833 31 -161.5
c0 -65.333 -12.667 -124.666 -38 -177.999s-61 -99 -107 -137s-101 -67.333 -165 -88s-134.667 -31 -212 -31h-209l-239 1233h-13l-553 -1233h-98l635 1405h86zM1075 742.998c-19.333 0 -41.002 -1.33398 -65.002 -4.00098s-47.5 -6 -70.5 -10s-44.333 -8.5 -64 -13.5
s-35.167 -10.167 -46.5 -15.5l121 -610h127c65.333 0 123.833 8.66699 175.5 26s95.334 41.333 131.001 72s62.834 66.834 81.501 108.501s28 86.834 28 135.501c0 55.333 -9.83301 102.666 -29.5 141.999s-47.667 71.5 -84 96.5s-80.333 43.333 -132 55
s-109.167 17.5 -172.5 17.5z" />
    <glyph glyph-name="afii10059" unicode="&#x40a;" horiz-adv-x="1989" 
d="M1085 668l-814.998 -0.000976562l-92 -668h-96l194 1397h97l-90 -639h815l92 639h100l-90 -606c17.333 6.66699 36 12.667 56 18s40.667 9.83301 62 13.5s42.666 6.5 63.999 8.5s41.333 3 60 3c80 0 149.167 -9.83301 207.5 -29.5s106.5 -47.167 144.5 -82.5
s66.333 -77.5 85 -126.5s28 -102.833 28 -161.5c0 -65.333 -13.333 -124.666 -40 -177.999s-63.334 -99 -110.001 -137s-102 -67.333 -166 -88s-133 -31 -207 -31h-391zM1403 742.999c-19.333 0 -39.168 -1.33398 -59.501 -4.00098s-40 -6 -59 -10s-36.667 -8.5 -53 -13.5
s-30.166 -10.167 -41.499 -15.5l-88 -610h282c62.667 0 119.5 8.66699 170.5 26s94.667 41.333 131 72s64.5 66.834 84.5 108.501s30 86.834 30 135.501c0 55.333 -9 102.666 -27 141.999s-44.167 71.5 -78.5 96.5s-76 43.333 -125 55s-104.5 17.5 -166.5 17.5z" />
    <glyph glyph-name="afii10060" unicode="&#x40b;" horiz-adv-x="1305" 
d="M367 0h-97l185 1307h-373l12 90h883l-12 -90h-414l-62 -437c24.667 10 50.5 19.167 77.5 27.5s54.167 15.5 81.5 21.5s54.166 10.667 80.499 14s51.166 5 74.499 5c76 0 141.333 -9.5 196 -28.5s99.834 -45.333 135.501 -79s62 -73.5 79 -119.5s25.5 -96 25.5 -150
c0 -9.33301 -0.5 -22.833 -1.5 -40.5s-2.5 -37 -4.5 -58s-4.16699 -42.333 -6.5 -64s-4.83301 -41.167 -7.5 -58.5l-50 -340h-96l49 332c8.66699 58.667 14.334 105.5 17.001 140.5s4 61.833 4 80.5c0 43.333 -5.83301 83 -17.5 119s-31.167 67 -58.5 93
s-63.5 46.333 -108.5 61s-100.833 22 -167.5 22c-56 0 -109.167 -5.66699 -159.5 -17s-102.5 -28.333 -156.5 -51z" />
    <glyph glyph-name="afii10061" unicode="&#x40c;" horiz-adv-x="1130" 
d="M377 1397l-92.001 -636.999h116c34 0 64 3 90 9s49.833 16.333 71.5 31s42 34.334 61 59.001s38.5 55.667 58.5 93l152 285c18.667 35.333 38 63.5 58 84.5s40.833 37.167 62.5 48.5s44.667 18.666 69 21.999s50.5 5 78.5 5h49l-12 -90h-52
c-23.333 0 -43 -1.83301 -59 -5.5s-30.167 -10 -42.5 -19s-24 -21 -35 -36s-22.833 -33.833 -35.5 -56.5l-163 -299c-17.333 -30.667 -34.166 -56.834 -50.499 -78.501s-32.5 -39.834 -48.5 -54.501s-32.167 -26.5 -48.5 -35.5s-33.5 -15.833 -51.5 -20.5
c24.667 -8.66699 47.5 -20 68.5 -34s41.167 -31.5 60.5 -52.5s38 -46 56 -75s36.333 -62.5 55 -100.5l213 -440h-123l-185 408c-23.333 50.667 -47 92.834 -71 126.501s-49.833 60.5 -77.5 80.5s-58 34.167 -91 42.5s-70.5 12.5 -112.5 12.5h-74l-92 -670h-98l197 1397h98z
M986.999 1810l-311 -315h-68l215 315h164z" />
    <glyph glyph-name="afii10062" unicode="&#x40e;" horiz-adv-x="1135" 
d="M229 1397l295.001 -1276l611 1276h108l-637 -1299c-30.667 -62.667 -59.5 -114.667 -86.5 -156s-53.833 -74 -80.5 -98s-54 -40.833 -82 -50.5s-58.333 -14.5 -91 -14.5c-38 0 -71.833 5.5 -101.5 16.5s-53.834 25.167 -72.501 42.5l23 123c16 -28 39.5 -49.333 70.5 -64
s65.5 -22 103.5 -22c32.667 0 63.5 12 92.5 36s52.167 55 69.5 93l-330 1393h108zM553.001 1790c3.33301 -54.667 16.3369 -96.333 39.0039 -125s54 -43 94 -43c18.667 0 38 4.16699 58 12.5s39.5 20 58.5 35s36.833 32.667 53.5 53s31 42.833 43 67.5h74
c-12 -40 -27.833 -76.167 -47.5 -108.5s-41.834 -59.833 -66.501 -82.5s-51.334 -40.167 -80.001 -52.5s-58.334 -18.5 -89.001 -18.5c-32.667 0 -62.5 6.33301 -89.5 19s-50.167 30.5 -69.5 53.5s-34.333 50.667 -45 83s-16.334 67.833 -17.001 106.5h84z" />
    <glyph glyph-name="afii10145" unicode="&#x40f;" horiz-adv-x="1430" 
d="M1389 1397l-197 -1397h-465l-49 -229h-96l43 229h-543l194 1397h97l-180 -1303h919l180 1303h97z" />
    <glyph glyph-name="afii10017" unicode="&#x410;" horiz-adv-x="1110" 
d="M1030 0h-98l-115 504h-518l-238 -504h-98l660 1415h86zM344 598h453l-150 645h-4z" />
    <glyph glyph-name="afii10018" unicode="&#x411;" horiz-adv-x="1077" 
d="M934 1397l-13.9961 -89.999h-555l-76 -516c17.333 7.33301 36 13.666 56 18.999s40.5 9.66602 61.5 12.999s42.167 6 63.5 8s41.333 3 60 3c80 0 149.167 -9.83301 207.5 -29.5s106.666 -47.167 144.999 -82.5s66.666 -77.5 84.999 -126.5s27.5 -102.833 27.5 -161.5
c0 -65.333 -13.333 -124.666 -40 -177.999s-63.334 -99 -110.001 -137s-101.834 -67.333 -165.501 -88s-132.5 -31 -206.5 -31h-391l197 1397h655zM492.004 743.001c-19.333 0 -39.168 -1.33398 -59.501 -4.00098s-40 -6 -59 -10s-36.667 -8.5 -53 -13.5
s-30.166 -10.167 -41.499 -15.5l-89 -610h283c62.667 0 119.5 8.66699 170.5 26s94.667 41.333 131 72s64.5 66.834 84.5 108.501s30 86.834 30 135.501c0 55.333 -9.16699 102.666 -27.5 141.999s-44.5 71.5 -78.5 96.5s-75.5 43.333 -124.5 55s-104.5 17.5 -166.5 17.5z
" />
    <glyph glyph-name="afii10019" unicode="&#x412;" horiz-adv-x="1087" 
d="M283 1397h134.999c82.667 0 153.5 -10 212.5 -30s107.333 -46.5 145 -79.5s65.334 -70.167 83.001 -111.5s26.5 -83.666 26.5 -126.999c0 -58.667 -16 -111.5 -48 -158.5s-78.333 -86.5 -139 -118.5c96.667 -26.667 171 -71.834 223 -135.501s78 -140.5 78 -230.5
c0 -60 -12.5 -114.833 -37.5 -164.5s-60.333 -92.5 -106 -128.5s-100.5 -63.833 -164.5 -83.5s-135.333 -29.5 -214 -29.5h-391zM364.999 1307l-70 -506h143c110.667 0 195 21.5 253 64.5s87 104.833 87 185.5c0 40 -7.5 75.833 -22.5 107.5s-36.5 58.5 -64.5 80.5
s-62 38.833 -102 50.5s-85.333 17.5 -136 17.5h-88zM282.999 711l-88.001 -621h270c82 0 150.333 9.5 205 28.5s98.5 43.5 131.5 73.5s56.5 63.333 70.5 100s21 73 21 109c0 46 -9 88 -27 126s-43 70.667 -75 98s-70.167 48.5 -114.5 63.5s-93.166 22.5 -146.499 22.5h-247z
" />
    <glyph glyph-name="afii10020" unicode="&#x413;" horiz-adv-x="854" 
d="M930 1397l-12 -90h-545l-185 -1307h-96l197 1397h641z" />
    <glyph glyph-name="afii10021" unicode="&#x414;" horiz-adv-x="1206" 
d="M750 1415l280 -1325h115l-45 -332h-109l33 242h-975l-33 -242h-108l45 332h115l596 1325h86zM686 1249l-520 -1159h766z" />
    <glyph glyph-name="afii10022" unicode="&#x415;" horiz-adv-x="1087" 
d="M1001 1397l-12 -94h-616l-78 -541h584l-15 -94h-581l-82 -574h825l-12 -94h-922l197 1397h712z" />
    <glyph glyph-name="afii10024" unicode="&#x416;" horiz-adv-x="1706" 
d="M922 760l74.9941 0.000976562c34 0 64.167 3 90.5 9s50.333 16.167 72 30.5s42 33.833 61 58.5s38.167 56 57.5 94l141 285c18 36 36.333 64.5 55 85.5s38.5 37 59.5 48s43.333 18.167 67 21.5s49.167 5 76.5 5h49l-12 -90h-51c-23.333 0 -42.666 -1.83301 -57.999 -5.5
s-28.666 -10 -39.999 -19s-21.833 -21 -31.5 -36s-20.5 -33.833 -32.5 -56.5l-153 -299c-16 -31.333 -32.167 -57.833 -48.5 -79.5s-32.666 -39.834 -48.999 -54.501s-33 -26.334 -50 -35.001s-34.167 -15.334 -51.5 -20.001c24.667 -8.66699 46.834 -19.334 66.501 -32.001
s38.5 -29.167 56.5 -49.5s35.5 -45.166 52.5 -74.499s34.833 -64.666 53.5 -105.999l203 -440h-123l-174 408c-21.333 50.667 -43.333 92.834 -66 126.501s-47.5 60.5 -74.5 80.5s-56.833 34.167 -89.5 42.5s-70 12.5 -112 12.5h-33l-94 -670h-96l94 670h-41
c-39.333 0 -75.833 -4.33301 -109.5 -13s-66.167 -23 -97.5 -43s-62.5 -46.667 -93.5 -80s-63.833 -74.666 -98.5 -123.999l-289 -410h-125l322 440c32 44 61.333 81.333 88 112s52.5 56.5 77.5 77.5s49.833 37.833 74.5 50.5s51 23 79 31c-32 16 -61.833 43.833 -89.5 83.5
s-51.167 90.834 -70.5 153.501l-73 238c-8 24 -15.333 43.833 -22 59.5s-14.5 28 -23.5 37s-19.667 15.333 -32 19s-28.166 5.5 -47.499 5.5h-52l15 90h49c28 0 52 -2.16699 72 -6.5s37.667 -12.5 53 -24.5s28.833 -28.333 40.5 -49s22.834 -47.334 33.501 -80.001l88 -276
c12 -37.333 24.167 -68.833 36.5 -94.5s26.833 -46.334 43.5 -62.001s37 -27 61 -34s53.333 -10.5 88 -10.5h55l90 637h97z" />
    <glyph glyph-name="afii10025" unicode="&#x417;" horiz-adv-x="1024" 
d="M258 686l14.001 98.0068h201c65.333 0 122.666 9.33301 171.999 28s90.666 43 123.999 73s58.5 63.667 75.5 101s25.5 74.666 25.5 111.999c0 32.667 -7 62.5 -21 89.5s-34.5 50 -61.5 69s-60.667 33.833 -101 44.5s-86.833 16 -139.5 16
c-30 0 -61.833 -1.83301 -95.5 -5.5s-67.5 -9.33398 -101.5 -17.001s-67.667 -17.167 -101 -28.5s-65 -25 -95 -41l14 100c26.667 15.333 56.334 28.666 89.001 39.999s66.667 20.666 102 27.999s71.166 12.833 107.499 16.5s71.833 5.5 106.5 5.5
c65.333 0 123.833 -7.66699 175.5 -23s95.5 -36.333 131.5 -63s63.5 -58.167 82.5 -94.5s28.5 -75.833 28.5 -118.5c0 -36 -7 -72.5 -21 -109.5s-35.5 -72.333 -64.5 -106s-65.5 -64.667 -109.5 -93s-95.667 -51.833 -155 -70.5c42.667 -11.333 80.667 -27.5 114 -48.5
s61.5 -45 84.5 -72s40.667 -56.5 53 -88.5s18.5 -64.667 18.5 -98c0 -58 -9.16699 -109.333 -27.5 -154s-42.5 -83.667 -72.5 -117s-64.167 -61.333 -102.5 -84s-77.833 -40.834 -118.5 -54.501s-80.5 -23.5 -119.5 -29.5s-74.167 -9 -105.5 -9
c-33.333 0 -67.666 1.83301 -102.999 5.5s-69.833 9 -103.5 16s-66 15.333 -97 25s-59.167 20.5 -84.5 32.5l15 109c58.667 -30 119.834 -52.5 183.501 -67.5s128.834 -22.5 195.501 -22.5c50.667 0 101.167 6.66699 151.5 20s95.666 34.166 135.999 62.499
s73.166 64.666 98.499 108.999s38 97.833 38 160.5c0 38 -7.83301 72.667 -23.5 104s-38 58 -67 80s-64.167 39.167 -105.5 51.5s-88 18.5 -140 18.5h-201z" />
    <glyph glyph-name="afii10026" unicode="&#x418;" horiz-adv-x="1430" 
d="M1264 1202l-1129 -1227h-57l198 1422h97l-183 -1250l1143 1250h56l-197 -1397h-96z" />
    <glyph glyph-name="afii10027" unicode="&#x419;" horiz-adv-x="1430" 
d="M1264 1202l-1129 -1227h-57l198 1422h97l-183 -1250l1143 1250h56l-197 -1397h-96zM717 1790c3.33301 -54.667 16.333 -96.333 39 -125s54 -43 94 -43c18.667 0 38 4.16699 58 12.5s39.5 20 58.5 35s36.833 32.667 53.5 53s31 42.833 43 67.5h74
c-12.667 -40 -28.667 -76.167 -48 -108.5s-41.333 -59.833 -66 -82.5s-51.167 -40.167 -79.5 -52.5s-58.166 -18.5 -89.499 -18.5c-32.667 0 -62.5 6.33301 -89.5 19s-50.167 30.5 -69.5 53.5s-34.333 50.667 -45 83s-16.334 67.833 -17.001 106.5h84z" />
    <glyph glyph-name="afii10028" unicode="&#x41a;" horiz-adv-x="1130" 
d="M377 1397l-92.001 -636.999h116c34 0 64 3 90 9s49.833 16.333 71.5 31s42 34.334 61 59.001s38.5 55.667 58.5 93l152 285c18.667 35.333 38 63.5 58 84.5s40.833 37.167 62.5 48.5s44.667 18.666 69 21.999s50.5 5 78.5 5h49l-12 -90h-52
c-23.333 0 -43 -1.83301 -59 -5.5s-30.167 -10 -42.5 -19s-24 -21 -35 -36s-22.833 -33.833 -35.5 -56.5l-163 -299c-17.333 -30.667 -34.166 -56.834 -50.499 -78.501s-32.5 -39.834 -48.5 -54.501s-32.167 -26.5 -48.5 -35.5s-33.5 -15.833 -51.5 -20.5
c24.667 -8.66699 47.5 -20 68.5 -34s41.167 -31.5 60.5 -52.5s38 -46 56 -75s36.333 -62.5 55 -100.5l213 -440h-123l-185 408c-23.333 50.667 -47 92.834 -71 126.501s-49.833 60.5 -77.5 80.5s-58 34.167 -91 42.5s-70.5 12.5 -112.5 12.5h-74l-92 -670h-98l197 1397h98z
" />
    <glyph glyph-name="afii10029" unicode="&#x41b;" horiz-adv-x="1069" 
d="M688 1415l301 -1415h-98l-262 1243h-8l-558 -1243h-98l637 1415h86z" />
    <glyph glyph-name="afii10030" unicode="&#x41c;" horiz-adv-x="1642" 
d="M463 1186l-389 -1186h-101l463 1397h82l246 -1176h8l621 1176h88v-1397h-97v1186h-8l-620 -1186h-35l-250 1186h-8z" />
    <glyph glyph-name="afii10031" unicode="&#x41d;" horiz-adv-x="1430" 
d="M1389 1397l-197 -1397h-96l92 666h-918l-92 -666h-96l194 1397h97l-90 -641h919l90 641h97z" />
    <glyph glyph-name="afii10032" unicode="&#x41e;" horiz-adv-x="1343" 
d="M1270 850c0 -78 -7.16504 -153.505 -21.498 -226.505s-35.166 -141.667 -62.499 -206s-60.5 -123.166 -99.5 -176.499s-82.833 -99.166 -131.5 -137.499s-102 -68.166 -160 -89.499s-119.667 -32 -185 -32c-80 0 -150.667 13.167 -212 39.5s-112.833 64.333 -154.5 114
s-73.167 110.334 -94.5 182.001s-32 152.834 -32 243.501c0 55.333 5.16699 115 15.5 179s26.666 127.667 48.999 191s51 124.166 86 182.499s77.167 109.833 126.5 154.5s106.166 80.334 170.499 107.001s136.833 40 217.5 40c75.333 0 143.166 -13 203.499 -39
s111.5 -63.333 153.5 -112s74.333 -108 97 -178s34 -148.667 34 -236zM1163 871.995c0 69.333 -8.83398 131.665 -26.501 186.998s-43 102.5 -76 141.5s-73 68.833 -120 89.5s-99.833 31 -158.5 31c-72 0 -135.833 -13 -191.5 -39s-104.167 -60.667 -145.5 -104
s-76.166 -92.666 -104.499 -147.999s-51.166 -112.333 -68.499 -171s-29.833 -116.5 -37.5 -173.5s-11.5 -108.833 -11.5 -155.5c0 -72.667 8.83301 -137.167 26.5 -193.5s43.167 -103.833 76.5 -142.5s74.166 -68 122.499 -88s102.833 -30 163.5 -30
c58.667 0 113.167 9.83301 163.5 29.5s95.833 47.334 136.5 83.001s76.667 78.167 108 127.5s57.5 103.5 78.5 162.5s37 121.833 48 188.5s16.5 135 16.5 205z" />
    <glyph glyph-name="afii10033" unicode="&#x41f;" horiz-adv-x="1430" 
d="M1389 1397l-197 -1397h-96l184 1303h-924l-178 -1303h-96l194 1397h1113z" />
    <glyph glyph-name="afii10034" unicode="&#x420;" horiz-adv-x="961" 
d="M272 1397l279.002 0.000976562c59.333 0 113.166 -9.16699 161.499 -27.5s89.666 -43.833 123.999 -76.5s60.833 -71.834 79.5 -117.501s28 -95.5 28 -149.5c0 -47.333 -7.83301 -94.833 -23.5 -142.5s-41.667 -90.5 -78 -128.5s-84 -68.833 -143 -92.5
s-131.833 -35.5 -218.5 -35.5h-221l-88 -627h-96zM356.002 1307l-84 -590h201c74 0 134.5 9.66699 181.5 29s84.167 44 111.5 74s46.166 63 56.499 99s15.5 70.333 15.5 103c0 42.667 -7 81.5 -21 116.5s-34 65 -60 90s-57.167 44.333 -93.5 58s-77.166 20.5 -122.499 20.5
h-185z" />
    <glyph glyph-name="afii10035" unicode="&#x421;" horiz-adv-x="1130" 
d="M1147 1307c-17.333 2.66699 -33.167 4.99609 -47.5 6.99609s-28 3.5 -41 4.5s-25.667 1.66699 -38 2s-25.5 0.5 -39.5 0.5c-80.667 0 -156.167 -10.167 -226.5 -30.5s-134.833 -48.166 -193.5 -83.499s-111.167 -77.166 -157.5 -125.499s-85.5 -100.333 -117.5 -156
s-56.333 -114 -73 -175s-25 -122.167 -25 -183.5c0 -69.333 9.66699 -134 29 -194s47.833 -112 85.5 -156s84.167 -78.5 139.5 -103.5s119 -37.5 191 -37.5c68.667 0 141.334 12.833 218.001 38.5s151.334 62.5 224.001 110.5l-16 -114
c-32.667 -19.333 -67.334 -37 -104.001 -53s-73.667 -29.667 -111 -41s-73.833 -20 -109.5 -26s-68.834 -9 -99.501 -9c-78 0 -150.667 12.667 -218 38s-125.833 62.5 -175.5 111.5s-88.667 109.667 -117 182s-42.5 155.5 -42.5 249.5
c0 70.667 9.83301 140.834 29.5 210.501s48.167 136 85.5 199s82.5 121.5 135.5 175.5s112.833 100.833 179.5 140.5s139.667 70.667 219 93s163.333 33.5 252 33.5c34 0 64.167 -1.16699 90.5 -3.5s54.833 -7.16602 85.5 -14.499z" />
    <glyph glyph-name="afii10036" unicode="&#x422;" horiz-adv-x="897" 
d="M1018 1397l-12 -90h-414l-184 -1307h-97l185 1307h-414l12 90h924z" />
    <glyph glyph-name="afii10037" unicode="&#x423;" horiz-adv-x="1135" 
d="M229 1397l295.001 -1276l611 1276h108l-637 -1299c-30.667 -62.667 -59.5 -114.667 -86.5 -156s-53.833 -74 -80.5 -98s-54 -40.833 -82 -50.5s-58.333 -14.5 -91 -14.5c-38 0 -71.833 5.5 -101.5 16.5s-53.834 25.167 -72.501 42.5l23 123c16 -28 39.5 -49.333 70.5 -64
s65.5 -22 103.5 -22c32.667 0 63.5 12 92.5 36s52.167 55 69.5 93l-330 1393h108z" />
    <glyph glyph-name="afii10038" unicode="&#x424;" horiz-adv-x="1513" 
d="M653 135c-38 0 -77.999 2.33398 -119.999 7.00098s-83.333 13.5 -124 26.5s-79.5 30.667 -116.5 53s-69.667 51.166 -98 86.499s-50.833 77.666 -67.5 126.999s-25 107.666 -25 174.999c0 86.667 15.167 169.5 45.5 248.5s75.333 148.667 135 209
s133.834 108.5 222.501 144.5s191.334 54 308.001 54l21 149h96l-21 -149c38 0 78 -2.33301 120 -7s83.5 -13.334 124.5 -26.001s80.167 -30.167 117.5 -52.5s70.166 -51.166 98.499 -86.499s50.833 -77.833 67.5 -127.5s25 -108.167 25 -175.5
c0 -58 -6.66699 -114.5 -20 -169.5s-33.333 -106.833 -60 -155.5s-59.834 -93.167 -99.501 -133.5s-85.834 -75.166 -138.501 -104.499s-111.667 -52.166 -177 -68.499s-137 -24.5 -215 -24.5l-23 -153h-96zM764.001 225.001c89.333 0 170.332 13.834 242.999 41.501
s134.834 66.834 186.501 117.501s91.667 111.667 120 183s42.5 150.666 42.5 237.999c0 52.667 -6.5 98.5 -19.5 137.5s-30.667 72.167 -53 99.5s-48.5 49.666 -78.5 66.999s-62 31 -96 41s-69.333 16.833 -106 20.5s-72.667 5.5 -108 5.5zM801 1176
c-88.667 0 -169.5 -13.834 -242.5 -41.501s-135.333 -66.834 -187 -117.501s-91.667 -111.667 -120 -183s-42.5 -150.666 -42.5 -237.999c0 -52.667 6.5 -98.5 19.5 -137.5s30.667 -72.167 53 -99.5s48.5 -49.666 78.5 -66.999s62 -31 96 -41s69.333 -16.833 106 -20.5
s72.667 -5.5 108 -5.5z" />
    <glyph glyph-name="afii10039" unicode="&#x425;" horiz-adv-x="1323" 
d="M1401 1397l-641 -668l489 -729h-114l-445 653l-622 -653h-129l700 729l-451 668h115l408 -592l563 592h127z" />
    <glyph glyph-name="afii10040" unicode="&#x426;" horiz-adv-x="1391" 
d="M82 0l194 1397h97l-185 -1303h875l186 1303h97l-185 -1303h144l-45 -336h-109l33 242h-1102z" />
    <glyph glyph-name="afii10041" unicode="&#x427;" horiz-adv-x="1116" 
d="M870 614c-24 -10 -49.5 -19 -76.5 -27s-54.167 -15 -81.5 -21s-54.166 -10.667 -80.499 -14s-51.166 -5 -74.499 -5c-76 0 -141.333 9.5 -196 28.5s-99.834 45.333 -135.501 79s-62 73.5 -79 119.5s-25.5 96 -25.5 150c0 9.33301 0.5 22.833 1.5 40.5s2.5 37 4.5 58
s4.16699 42.333 6.5 64s4.83301 41.167 7.5 58.5l35 252h96l-34 -244c-8.66699 -58.667 -14.334 -105.5 -17.001 -140.5s-4 -61.833 -4 -80.5c0 -42.667 5.83301 -82.167 17.5 -118.5s31.167 -67.5 58.5 -93.5s63.5 -46.333 108.5 -61s100.833 -22 167.5 -22
c56 0 109.167 5.5 159.5 16.5s102.5 28.167 156.5 51.5l94 692h96l-196 -1397h-97z" />
    <glyph glyph-name="afii10042" unicode="&#x428;" horiz-adv-x="1741" 
d="M1503 0h-1421l194 1397h97l-185 -1303h568l182 1303h96l-184 -1303h567l187 1303h96z" />
    <glyph glyph-name="afii10043" unicode="&#x429;" horiz-adv-x="1745" 
d="M1614 -242h-109l33 242h-1456l194 1397h97l-185 -1303h568l182 1303h96l-184 -1303h567l187 1303h96l-184 -1303h143z" />
    <glyph glyph-name="afii10044" unicode="&#x42a;" horiz-adv-x="1233" 
d="M444 791c17.333 6.66699 36.0049 12.666 56.0049 17.999s40.667 9.83301 62 13.5s42.666 6.5 63.999 8.5s41.333 3 60 3c80 0 149.167 -9.83301 207.5 -29.5s106.666 -47.167 144.999 -82.5s66.666 -77.5 84.999 -126.5s27.5 -102.833 27.5 -161.5
c0 -65.333 -13.333 -124.666 -40 -177.999s-63.334 -99 -110.001 -137s-101.834 -67.333 -165.501 -88s-132.5 -31 -206.5 -31h-393l184 1305h-338l12 92h438zM647.005 742.999c-19.333 0 -39.335 -1.33398 -60.002 -4.00098s-40.667 -6 -60 -10s-37.166 -8.5 -53.499 -13.5
s-30.166 -10.167 -41.499 -15.5l-86 -610h283c62.667 0 119.5 8.66699 170.5 26s94.667 41.333 131 72s64.333 66.834 84 108.501s29.5 86.834 29.5 135.501c0 55.333 -9 102.666 -27 141.999s-44.167 71.5 -78.5 96.5s-76 43.333 -125 55s-104.5 17.5 -166.5 17.5z" />
    <glyph glyph-name="afii10045" unicode="&#x42b;" horiz-adv-x="1493" 
d="M1452 1397l-197 -1397h-96l197 1397h96zM279 1397l100.004 0.000976562l-90 -606c17.333 7.33301 36 13.666 56 18.999s40.5 9.66602 61.5 12.999s42.167 6 63.5 8s41.333 3 60 3c80 0 149.167 -9.83301 207.5 -29.5s106.666 -47.167 144.999 -82.5
s66.666 -77.5 84.999 -126.5s27.5 -102.833 27.5 -161.5c0 -65.333 -13.333 -124.666 -40 -177.999s-63.334 -99 -110.001 -137s-101.834 -67.333 -165.501 -88s-132.5 -31 -206.5 -31h-391zM492.004 743.001c-19.333 0 -39.168 -1.33398 -59.501 -4.00098s-40 -6 -59 -10
s-36.667 -8.5 -53 -13.5s-30.166 -10.167 -41.499 -15.5l-89 -610h283c62.667 0 119.5 8.66699 170.5 26s94.667 41.333 131 72s64.5 66.834 84.5 108.501s30 86.834 30 135.501c0 55.333 -9.16699 102.666 -27.5 141.999s-44.5 71.5 -78.5 96.5s-75.5 43.333 -124.5 55
s-104.5 17.5 -166.5 17.5z" />
    <glyph glyph-name="afii10046" unicode="&#x42c;" horiz-adv-x="1077" 
d="M279 1397l100.004 0.000976562l-90 -606c17.333 7.33301 36 13.666 56 18.999s40.5 9.66602 61.5 12.999s42.167 6 63.5 8s41.333 3 60 3c80 0 149.167 -9.83301 207.5 -29.5s106.666 -47.167 144.999 -82.5s66.666 -77.5 84.999 -126.5s27.5 -102.833 27.5 -161.5
c0 -65.333 -13.333 -124.666 -40 -177.999s-63.334 -99 -110.001 -137s-101.834 -67.333 -165.501 -88s-132.5 -31 -206.5 -31h-391zM492.004 743.001c-19.333 0 -39.168 -1.33398 -59.501 -4.00098s-40 -6 -59 -10s-36.667 -8.5 -53 -13.5s-30.166 -10.167 -41.499 -15.5
l-89 -610h283c62.667 0 119.5 8.66699 170.5 26s94.667 41.333 131 72s64.5 66.834 84.5 108.501s30 86.834 30 135.501c0 55.333 -9.16699 102.666 -27.5 141.999s-44.5 71.5 -78.5 96.5s-75.5 43.333 -124.5 55s-104.5 17.5 -166.5 17.5z" />
    <glyph glyph-name="afii10047" unicode="&#x42d;" horiz-adv-x="1130" 
d="M80 1286c74.667 46 148.331 79.002 220.998 99.002s140.334 30 203.001 30c74.667 0 145.5 -11.167 212.5 -33.5s125.667 -57 176 -104s90.333 -107.167 120 -180.5s44.5 -161 44.5 -263c0 -70.667 -9.83301 -140.834 -29.5 -210.501s-48.167 -136 -85.5 -199
s-82.5 -121.5 -135.5 -175.5s-112.833 -100.833 -179.5 -140.5s-139.5 -70.667 -218.5 -93s-163.167 -33.5 -252.5 -33.5c-34 0 -64.167 1.16699 -90.5 3.5s-54.833 7.16602 -85.5 14.499l12 90l47 -7c14 -2 27.333 -3.5 40 -4.5s25.334 -1.66699 38.001 -2
s26.334 -0.5 41.001 -0.5c68 0 132.833 7.66699 194.5 23s119.334 36.833 173.001 64.5s103 60.5 148 98.5s85 79.667 120 125s64.667 93.5 89 144.5s42.166 103.167 53.499 156.5h-664l21 94h657c0 179.333 -38.333 314 -115 404s-186.334 135 -329.001 135
c-68.667 0 -140 -12 -214 -36s-150.333 -62 -229 -114z" />
    <glyph glyph-name="afii10048" unicode="&#x42e;" horiz-adv-x="1712" 
d="M285 754l218.999 -0.00488281c9.33301 52 22.5 104.333 39.5 157s38.333 103.5 64 152.5s56 94.833 91 137.5s74.833 79.834 119.5 111.501s94.667 56.667 150 75s116.333 27.5 183 27.5c75.333 0 143 -13 203 -39s111 -63.333 153 -112s74.333 -108 97 -178
s34 -148.667 34 -236c0 -78 -7.16699 -153.5 -21.5 -226.5s-35.166 -141.667 -62.499 -206s-60.333 -123.166 -99 -176.499s-82.5 -99.166 -131.5 -137.499s-102.333 -68.166 -160 -89.499s-119.167 -32 -184.5 -32c-80 0 -150.667 13.167 -212 39.5s-113 64.333 -155 114
s-73.667 110.334 -95 182.001s-32 152.834 -32 243.501c0 16.667 0.5 33.667 1.5 51s2.83301 34.666 5.5 51.999h-220l-94 -664h-96l197 1397h96zM1532 871.995c0 69.333 -8.99902 131.667 -26.999 187s-43.5 102.5 -76.5 141.5s-73 68.833 -120 89.5s-99.5 31 -157.5 31
c-72 0 -135.833 -13 -191.5 -39s-104.167 -60.667 -145.5 -104s-76.166 -92.666 -104.499 -147.999s-51.166 -112.333 -68.499 -171s-29.833 -116.5 -37.5 -173.5s-11.5 -108.833 -11.5 -155.5c0 -72.667 8.66699 -137.167 26 -193.5s42.666 -103.833 75.999 -142.5
s74.166 -68 122.499 -88s103.166 -30 164.499 -30c88 0 166.167 21.667 234.5 65s126 101.666 173 174.999s82.667 158 107 254s36.5 196.667 36.5 302z" />
    <glyph glyph-name="afii10049" unicode="&#x42f;" horiz-adv-x="1167" 
d="M930 0l-95.998 0.00195312l86 616h-185c-46.667 0 -89.834 -4.33301 -129.501 -13s-77.834 -23.334 -114.501 -44.001s-73.167 -48.334 -109.5 -83.001s-74.166 -78 -113.499 -130l-262 -346h-121l267 342l86 107c27.333 32.667 54 61.5 80 86.5s51.833 46.167 77.5 63.5
s52.167 30 79.5 38c-34.667 12 -67 28.333 -97 49s-56 45 -78 73s-39.333 59 -52 93s-19 70.333 -19 109c0 62 12 119.5 36 172.5s60.167 99 108.5 138s108.666 69.667 180.999 92s156.5 33.5 252.5 33.5h319zM934.002 707.002l84 600.001h-266
c-61.333 0 -117.5 -8.83301 -168.5 -26.5s-94.833 -41.834 -131.5 -72.501s-65.167 -66.5 -85.5 -107.5s-30.5 -84.833 -30.5 -131.5c0 -35.333 6.5 -68.833 19.5 -100.5s31.667 -59.5 56 -83.5s54 -43 89 -57s74.167 -21 117.5 -21h316z" />
    <glyph glyph-name="afii10065" unicode="&#x430;" horiz-adv-x="981" 
d="M702 109c-20 -18 -42.3369 -34.668 -67.0039 -50.001s-50.5 -28.833 -77.5 -40.5s-55 -20.667 -84 -27s-57.833 -9.5 -86.5 -9.5c-46.667 0 -89.667 9.16699 -129 27.5s-73.166 43.833 -101.499 76.5s-50.5 71.5 -66.5 116.5s-24 94.167 -24 147.5c0 72 14 143 42 213
s69.333 132.833 124 188.5s122.834 100.667 204.501 135s175.834 51.5 282.501 51.5c17.333 0 34.833 -0.5 52.5 -1.5s34.834 -2.16699 51.501 -3.5s32.167 -3.16602 46.5 -5.49902s26.833 -4.83301 37.5 -7.5l-129 -920h-90zM808.996 857.999
c-32.667 8 -70.3379 11.999 -113.005 11.999c-70 0 -137.167 -12.833 -201.5 -38.5s-121.166 -61.667 -170.499 -108s-88.666 -102.166 -117.999 -167.499s-44 -138 -44 -218c0 -42.667 5.66699 -81.334 17 -116.001s27.333 -64.167 48 -88.5s45.834 -43.166 75.501 -56.499
s62.5 -20 98.5 -20c56.667 0 110.334 13.5 161.001 40.5s102.334 65.5 155.001 115.5z" />
    <glyph glyph-name="afii10066" unicode="&#x431;" 
d="M733 553c0 46 -5.49902 87.501 -16.499 124.501s-26.5 68.667 -46.5 95s-44.167 46.5 -72.5 60.5s-60.166 21 -95.499 21c-54.667 0 -102.834 -14 -144.501 -42s-76.334 -64.833 -104.001 -110.5s-48.5 -97.667 -62.5 -156s-21 -117.833 -21 -178.5
c0 -46.667 5 -88.667 15 -126s24.5 -69 43.5 -95s41.833 -45.833 68.5 -59.5s56.667 -20.5 90 -20.5c48 0 93.167 12.667 135.5 38s79 60 110 104s55.5 95.667 73.5 155s27 122.666 27 189.999zM193.001 733.001c36 68.667 81.4951 120.001 136.495 154.001
s113.833 51 176.5 51c50 0 94.833 -9 134.5 -27s73.5 -43.833 101.5 -77.5s49.5 -74.167 64.5 -121.5s22.5 -100.333 22.5 -159c0 -92.667 -12.667 -174.5 -38 -245.5s-58.666 -130.667 -99.999 -179s-88.166 -84.833 -140.499 -109.5s-105.5 -37 -159.5 -37
c-41.333 0 -81.166 7.83301 -119.499 23.5s-72.166 39.5 -101.499 71.5s-52.666 72.167 -69.999 120.5s-26 105.5 -26 171.5c0 140 13.667 270.5 41 391.5s69.666 227.167 126.999 318.5s130.333 165.166 219 221.499s194.334 89.833 317.001 100.5l162 14l-20 -90l-164 -16
c-60.667 -6 -119.5 -20 -176.5 -42s-110 -55.167 -159 -99.5s-93 -101.833 -132 -172.5s-70.833 -158 -95.5 -262z" />
    <glyph glyph-name="afii10067" unicode="&#x432;" horiz-adv-x="915" 
d="M55 0l118.998 850.004c54.667 30 108.334 50.833 161.001 62.5s106.334 17.5 161.001 17.5c55.333 0 102.5 -6.66699 141.5 -20s71 -30.5 96 -51.5s43.167 -44.333 54.5 -70s17 -50.834 17 -75.501c0 -34.667 -5.5 -65.834 -16.5 -93.501s-25.833 -51.334 -44.5 -71.001
s-39.834 -35.5 -63.501 -47.5s-48.5 -20 -74.5 -24c32 -4 60.833 -11.833 86.5 -23.5s47.834 -26.5 66.501 -44.5s33 -39 43 -63s15 -50.667 15 -80c0 -54 -12.167 -98.167 -36.5 -132.5s-55.333 -61.333 -93 -81s-79.667 -33.334 -126 -41.001s-91.5 -11.5 -135.5 -11.5
h-371zM445.998 510.004c46 1.33301 85.334 7.33105 118.001 17.998s59.167 24.334 79.5 41.001s35.166 35.834 44.499 57.501s14 44.167 14 67.5c0 48 -19 86 -57 114s-93.333 42 -166 42c-30.667 0 -65.167 -3 -103.5 -9s-77.5 -19.333 -117.5 -40l-41 -297z
M155.999 80.002h246.999c108.667 0 187.834 16.833 237.501 50.5s74.5 80.167 74.5 139.5c0 50.667 -22.667 90.667 -68 120s-114.333 44 -207 44c-77.333 0 -155 -2 -233 -6z" />
    <glyph glyph-name="afii10068" unicode="&#x433;" horiz-adv-x="678" 
d="M727 920l-18 -80h-437l-118 -840h-91l130 920h534z" />
    <glyph glyph-name="afii10069" unicode="&#x434;" horiz-adv-x="938" 
d="M-2 -266c10.667 -16.667 26.665 -31.335 47.998 -44.002s45.166 -23.167 71.499 -31.5s54 -14.666 83 -18.999s56.5 -6.5 82.5 -6.5c52 0 98.833 10.333 140.5 31s78.167 49 109.5 85s57.333 78.833 78 128.5s36 103.5 46 161.5
c-47.333 -24 -91.166 -39.5 -131.499 -46.5s-81.166 -10.5 -122.499 -10.5c-50.667 0 -96.667 9.33301 -138 28s-76.833 45 -106.5 79s-52.5 74.833 -68.5 122.5s-24 100.834 -24 159.501c0 45.333 5.33301 91 16 137s26.834 90 48.501 132s49.167 81.167 82.5 117.5
s72.833 67.833 118.5 94.5s97.667 47.667 156 63s123.166 23 194.499 23h192l-118 -842c-24.667 -176 -79.667 -311.5 -165 -406.5s-202.333 -142.5 -351 -142.5c-19.333 0 -40.5 1.5 -63.5 4.5s-45.5 7.33301 -67.5 13s-42.667 12.667 -62 21s-35.666 17.5 -48.999 27.5
v121zM695.998 869.999c-68.667 0 -129.667 -7.33301 -183 -22s-99.666 -34.667 -138.999 -60s-72.5 -54.666 -99.5 -87.999s-48.833 -68.333 -65.5 -105s-28.667 -74.334 -36 -113.001s-11 -75.667 -11 -111c0 -50 6.33301 -94.833 19 -134.5s31 -73.334 55 -101.001
s53.167 -49 87.5 -64s73.166 -22.5 116.499 -22.5c18.667 0 38.5 2.33301 59.5 7s42 11.334 63 20.001s41.333 19 61 31s37.167 25.333 52.5 40l100 723h-80z" />
    <glyph glyph-name="afii10070" unicode="&#x435;" 
d="M766 78c-40 -32 -84.834 -55.9971 -134.501 -71.9971s-98.5 -24 -146.5 -24c-61.333 0 -117 10.5 -167 31.5s-92.833 50.833 -128.5 89.5s-63.167 85.167 -82.5 139.5s-29 114.833 -29 181.5c0 72 11 139.333 33 202s52 117.167 90 163.5s83 82.666 135 108.999
s108 39.5 168 39.5c49.333 0 94 -8.83301 134 -26.5s74.333 -43.167 103 -76.5s50.834 -74 66.501 -122s23.5 -102.667 23.5 -164c0 -14.667 -0.333008 -27.334 -1 -38.001s-1.66699 -21.334 -3 -32.001h-649c-1.33301 -9.33301 -2.33301 -19 -3 -29s-1 -20 -1 -30
c0 -41.333 6.33301 -83 19 -125s31.834 -80 57.501 -114s58.167 -61.667 97.5 -83s85.666 -32 138.999 -32c48 0 97 9.5 147 28.5s98 47.5 144 85.5zM740.999 559.003c0 48 -5.66797 90.3359 -17.001 127.003s-27.333 67.5 -48 92.5s-45.834 43.833 -75.501 56.5
s-62.5 19 -98.5 19s-71.167 -7.83301 -105.5 -23.5s-65.666 -36.834 -93.999 -63.501s-52.166 -57.834 -71.499 -93.501s-32 -73.834 -38 -114.501h548z" />
    <glyph glyph-name="afii10072" unicode="&#x436;" horiz-adv-x="1147" 
d="M621 520l12.0029 -0.00488281c26 0 48.667 2.33301 68 7s36.833 12 52.5 22s30 23.167 43 39.5s26.167 35.833 39.5 58.5l73 131c30 52.667 62.5 89.5 97.5 110.5s75.5 31.5 121.5 31.5h9l-13 -91h-8c-16 0 -30.167 -1.66699 -42.5 -5s-23.5 -8.5 -33.5 -15.5
s-19.333 -16.167 -28 -27.5s-17.667 -24.666 -27 -39.999l-74 -127c-19.333 -34 -42.333 -62.833 -69 -86.5s-52.667 -41.834 -78 -54.501c17.333 -6 33 -13.5 47 -22.5s27.833 -21.667 41.5 -38s27.667 -37 42 -62s30.166 -56.5 47.499 -94.5l115 -256h-105l-100 236
c-17.333 41.333 -33.833 75.166 -49.5 101.499s-32.167 47.166 -49.5 62.499s-36.333 25.833 -57 31.5s-45 8.5 -73 8.5h-13l-61 -440h-90l61 440h-10c-24.667 0 -49 -2.16699 -73 -6.5s-48.333 -13.833 -73 -28.5s-50 -35.667 -76 -63s-53 -63.666 -81 -108.999l-148 -233
h-110l168 252c24.667 37.333 48 69 70 95s43.167 47.833 63.5 65.5s40.666 31.334 60.999 41.001s41.5 16.834 63.5 21.501c-30 10.667 -53.5 27 -70.5 49s-31.167 51.333 -42.5 88l-29 133c-4.66699 16.667 -10 30.334 -16 41.001s-13.167 19.167 -21.5 25.5
s-18.5 10.833 -30.5 13.5s-26 4 -42 4h-19l15 91h18c46 0 83.833 -10.5 113.5 -31.5s51.167 -57.833 64.5 -110.5l25 -133c6.66699 -25.333 15.667 -46.166 27 -62.499s24.666 -29.166 39.999 -38.499s32.333 -15.666 51 -18.999s38.667 -5 60 -5h12l58 400h90z" />
    <glyph glyph-name="afii10073" unicode="&#x437;" horiz-adv-x="811" 
d="M215 442l10.0068 79.9971h127c52 0 97.5 5.83301 136.5 17.5s71.5 27.334 97.5 47.001s45.5 41.834 58.5 66.501s19.5 50 19.5 76c0 23.333 -5.66699 43 -17 59s-27.333 29.333 -48 40s-45.334 18.334 -74.001 23.001s-60.334 7 -95.001 7c-50 0 -101 -7.33301 -153 -22
s-102 -33.334 -150 -56.001l12 84c22 10 46 19.5 72 28.5s53.167 16.833 81.5 23.5s57.166 12 86.499 16s58 6 86 6c39.333 0 77.5 -3.83301 114.5 -11.5s69.667 -19.334 98 -35.001s51.166 -35.5 68.499 -59.5s26 -52 26 -84c0 -25.333 -5 -51.166 -15 -77.499
s-25 -51.333 -45 -75s-45.5 -45 -76.5 -64s-67.5 -33.833 -109.5 -44.5c28 -9.33301 54 -20.666 78 -33.999s44.667 -28.5 62 -45.5s30.833 -36.167 40.5 -57.5s14.5 -45 14.5 -71c0 -38 -6.66699 -71.667 -20 -101s-31 -55 -53 -77s-47.167 -40.667 -75.5 -56
s-57.833 -27.666 -88.5 -36.999s-60.834 -16 -90.501 -20s-57.167 -6 -82.5 -6c-54.667 0 -108.834 4.16699 -162.501 12.5s-101.167 23.166 -142.5 44.499l12 84c44 -22.667 90.333 -38.667 139 -48s100 -14 154 -14c35.333 0 70.833 3.5 106.5 10.5s68.167 18.5 97.5 34.5
s53.166 37.333 71.499 64s27.5 60 27.5 100c0 24.667 -6.16699 47.5 -18.5 68.5s-30.166 39.167 -53.499 54.5s-51.833 27.333 -85.5 36s-71.834 13 -114.501 13h-127z" />
    <glyph glyph-name="afii10074" unicode="&#x438;" horiz-adv-x="954" 
d="M756 729l-662 -747h-41l131 938h90l-110 -764l667 764h43l-129 -920h-90z" />
    <glyph glyph-name="afii10075" unicode="&#x439;" horiz-adv-x="954" 
d="M756 729l-662 -747h-41l131 938h90l-110 -764l667 764h43l-129 -920h-90zM430 1348c3.33301 -54.667 16.3369 -96.334 39.0039 -125.001s54 -43 94 -43c18.667 0 38 4.16699 58 12.5s39.5 19.833 58.5 34.5s36.833 32.334 53.5 53.001s31 43.334 43 68.001h74
c-12 -40 -27.833 -76.167 -47.5 -108.5s-41.834 -60 -66.501 -83s-51.334 -40.667 -80.001 -53s-58.334 -18.5 -89.001 -18.5c-32.667 0 -62.5 6.33301 -89.5 19s-50.167 30.667 -69.5 54s-34.333 51.166 -45 83.499s-16.334 67.833 -17.001 106.5h84z" />
    <glyph glyph-name="afii10076" unicode="&#x43a;" horiz-adv-x="791" 
d="M283 920l-55.9932 -399.999h29c25.333 0 47.166 1.83301 65.499 5.5s34.666 10.167 48.999 19.5s28.166 22.166 41.499 38.499s27.666 37.5 42.999 63.5l77 131c56.667 94.667 130 142 220 142h28l-12 -91h-29c-16 0 -30.167 -1.66699 -42.5 -5s-23.5 -8.5 -33.5 -15.5
s-19.333 -16.167 -28 -27.5s-17.667 -24.666 -27 -39.999l-73 -127c-19.333 -34 -42.5 -62.833 -69.5 -86.5s-53.167 -41.834 -78.5 -54.501c35.333 -16.667 66.833 -44 94.5 -82s55.5 -83 83.5 -135l135 -256h-104l-121 236c-20.667 40 -38.834 73 -54.501 99
s-31.834 46.833 -48.501 62.5s-34.834 26.667 -54.501 33s-43.5 9.5 -71.5 9.5h-31l-61 -440h-91l130 920h90z" />
    <glyph glyph-name="afii10077" unicode="&#x43b;" horiz-adv-x="874" 
d="M545 938l264 -938h-96l-224 774l-454 -774h-101l549 938h62z" />
    <glyph glyph-name="afii10078" unicode="&#x43c;" horiz-adv-x="1237" 
d="M575 174l494 746h57l-67 -920h-94l49 688l-461 -688l-277 688l-135 -688h-94l191 920h57z" />
    <glyph glyph-name="afii10079" unicode="&#x43d;" horiz-adv-x="954" 
d="M874 920l-129 -920h-90l60 428h-510l-60 -428h-90l129 920h90l-57 -412h510l57 412h90z" />
    <glyph glyph-name="afii10080" unicode="&#x43e;" 
d="M829 553c0 -92.667 -12.6719 -174.5 -38.0049 -245.5s-58.666 -130.667 -99.999 -179s-88.166 -84.833 -140.499 -109.5s-105.5 -37 -159.5 -37c-41.333 0 -81.166 7.83301 -119.499 23.5s-72.166 39.5 -101.499 71.5s-52.666 72.167 -69.999 120.5s-26 105.5 -26 171.5
c0 83.333 10.667 159.833 32 229.5s51 129.667 89 180s83.5 89.5 136.5 117.5s111.167 42 174.5 42c50 0 94.833 -9 134.5 -27s73.5 -43.833 101.5 -77.5s49.5 -74.167 64.5 -121.5s22.5 -100.333 22.5 -159zM732.995 553c0 46 -5.49902 87.501 -16.499 124.501
s-26.5 68.667 -46.5 95s-44.167 46.5 -72.5 60.5s-60.166 21 -95.499 21c-54.667 0 -102.834 -14 -144.501 -42s-76.334 -64.833 -104.001 -110.5s-48.5 -97.667 -62.5 -156s-21 -117.833 -21 -178.5c0 -46.667 5 -88.667 15 -126s24.5 -69 43.5 -95
s41.833 -45.833 68.5 -59.5s56.667 -20.5 90 -20.5c48 0 93.167 12.667 135.5 38s79 60 110 104s55.5 95.667 73.5 155s27 122.666 27 189.999z" />
    <glyph glyph-name="afii10081" unicode="&#x43f;" horiz-adv-x="938" 
d="M184 920l90.0039 0.00195312l-20 -152l4 -4c23.333 23.333 48.166 45.5 74.499 66.5s54.166 39.5 83.499 55.5s60 28.667 92 38s65.333 14 100 14s66.167 -6.66699 94.5 -20s52.5 -31.833 72.5 -55.5s35.5 -51.334 46.5 -83.001s16.5 -65.5 16.5 -101.5v-23
c0 -8 -0.666992 -16 -2 -24l-88 -631h-91l86 618c1.33301 9.33301 2.5 18.5 3.5 27.5s1.5 17.833 1.5 26.5c0 31.333 -4.16699 58.333 -12.5 81s-19.833 41.5 -34.5 56.5s-32 26.167 -52 33.5s-41.667 11 -65 11c-56.667 0 -112.334 -16.833 -167.001 -50.5
s-114.334 -83.834 -179.001 -150.501l-93 -653h-90z" />
    <glyph glyph-name="afii10082" unicode="&#x440;" horiz-adv-x="1024" 
d="M362 1106l-32.002 -236c42 24 80.833 41.333 116.5 52s72.5 16 110.5 16c55.333 0 105.833 -10.167 151.5 -30.5s84.667 -49 117 -86s57.5 -80.833 75.5 -131.5s27 -106.667 27 -168c0 -38.667 -4.16699 -79 -12.5 -121s-22 -83 -41 -123s-43.667 -77.833 -74 -113.5
s-67.333 -67 -111 -94s-94.667 -48.5 -153 -64.5s-125.166 -24 -200.499 -24h-42.5c-11.667 0 -22.167 0.333008 -31.5 1l-27 2c-8.66699 0.666992 -18 1.66699 -28 3l-64 -441h-90l168 1186c-28 -24.667 -51.833 -49 -71.5 -73s-36.334 -45.667 -50.001 -65l-33.5 -47
c-8.66699 -12 -15.667 -18 -21 -18c-8 0 -12 6.33301 -12 19c0 14 5.66699 32.167 17 54.5s26.333 45.833 45 70.5s39.834 49.167 63.501 73.5s47.834 45.5 72.501 63.5l41 295h90zM214.998 55c17.333 -3.33301 35.6689 -5.16602 55.002 -5.49902s40.666 -0.5 63.999 -0.5
c60 0 119.5 7.83301 178.5 23.5s112.167 41.667 159.5 78s85.666 84.666 114.999 144.999s44 135.166 44 224.499c0 52 -7 98.5 -21 139.5s-34 76 -60 105s-57.167 51.167 -93.5 66.5s-76.833 23 -121.5 23c-36 0 -71.5 -4.66699 -106.5 -14s-71.5 -23.666 -109.5 -42.999z
" />
    <glyph glyph-name="afii10083" unicode="&#x441;" horiz-adv-x="788" 
d="M707 45c-44.667 -21.333 -89.0039 -37.168 -133.004 -47.501s-90 -15.5 -138 -15.5c-57.333 0 -109.5 9.83301 -156.5 29.5s-87.333 47.5 -121 83.5s-59.667 79.167 -78 129.5s-27.5 105.833 -27.5 166.5c0 41.333 4.83301 83.5 14.5 126.5s24.334 84.833 44.001 125.5
s44.334 78.834 74.001 114.501s64.667 66.834 105 93.501s86.166 47.834 137.499 63.501s108 23.5 170 23.5c59.333 0 119.333 -6 180 -18l-14 -99c-19.333 5.33301 -36.666 9.66602 -51.999 12.999s-29.666 6 -42.999 8s-26.333 3.5 -39 4.5s-26 1.5 -40 1.5
c-75.333 0 -140.666 -14 -195.999 -42s-101 -64.333 -137 -109s-62.833 -94.667 -80.5 -150s-26.5 -110.666 -26.5 -165.999c0 -48 7.33301 -91.333 22 -130s35.5 -71.667 62.5 -99s59.5 -48.5 97.5 -63.5s80.333 -22.5 127 -22.5c22 0 43 1.66699 63 5
s40.333 8.16602 61 14.499s42.167 14.166 64.5 23.499l73.5 32z" />
    <glyph glyph-name="afii10084" unicode="&#x442;" horiz-adv-x="1516" 
d="M186 920h89.999l-22 -160c32.667 29.333 63.334 55 92.001 77s57 40.5 85 55.5s56.167 26.333 84.5 34s58.5 11.5 90.5 11.5c30.667 0 58.5 -5.16699 83.5 -15.5s46.833 -24.5 65.5 -42.5s33.834 -38.833 45.501 -62.5s19.167 -49.167 22.5 -76.5
c60.667 66.667 120 116.167 178 148.5s116.333 48.5 175 48.5c36.667 0 69.667 -6.16699 99 -18.5s54.166 -28.833 74.499 -49.5s36 -44.334 47 -71.001s16.5 -54.667 16.5 -84v-16.5c0 -5.66699 -0.666992 -11.167 -2 -16.5l-96 -682h-90l94 666c1.33301 6 2 11.5 2 16.5
v15.5c0 26.667 -4.5 49.834 -13.5 69.501s-20.833 35.834 -35.5 48.501s-31 22.167 -49 28.5s-36 9.5 -54 9.5c-26 0 -53.833 -4.83301 -83.5 -14.5s-59.5 -23.167 -89.5 -40.5s-59.833 -38.5 -89.5 -63.5s-57.5 -52.5 -83.5 -82.5l-92 -653h-90l90 641
c1.33301 9.33301 2.33301 18.5 3 27.5s1 17.5 1 25.5c0 28.667 -3.83301 53.167 -11.5 73.5s-18.334 36.833 -32.001 49.5s-29.667 22 -48 28s-38.166 9 -59.499 9c-54 0 -110.333 -16.833 -169 -50.5s-117 -83.834 -175 -150.501l-93 -653h-90z" />
    <glyph glyph-name="afii10085" unicode="&#x443;" horiz-adv-x="768" 
d="M811 920l-727 -1391h-100l256 483l-174 908h90l145 -785h4l410 785h96z" />
    <glyph glyph-name="afii10086" unicode="&#x444;" horiz-adv-x="1391" 
d="M690 147c21.333 -24.667 47.999 -44.335 79.999 -59.002s65.333 -22 100 -22c31.333 0 61.833 7.83301 91.5 23.5s57.5 36.667 83.5 63s49.833 57 71.5 92s40.167 71.833 55.5 110.5s27.333 77.834 36 117.501s13 77.5 13 113.5c0 54.667 -5.66699 99.334 -17 134.001
s-27.166 62 -47.499 82s-44.333 33.667 -72 41s-57.5 11 -89.5 11c-42 0 -82 -7 -120 -21s-70.333 -34.333 -97 -61zM683.999 771.999c-21.333 24.667 -48.001 44.501 -80.001 59.501s-65.333 22.5 -100 22.5c-31.333 0 -61.833 -7.83301 -91.5 -23.5
s-57.5 -36.667 -83.5 -63s-49.667 -57 -71 -92s-39.666 -71.833 -54.999 -110.5s-27.333 -77.834 -36 -117.501s-13 -77.5 -13 -113.5c0 -54.667 5.66699 -99.334 17 -134.001s27 -62 47 -82s43.833 -33.667 71.5 -41s57.5 -11 89.5 -11c42 0 82 6.83301 120 20.5
s70.333 33.834 97 60.501zM773.998 1397l90.0029 -0.000976562l-73 -533c30 25.333 65.333 44 106 56s81 18 121 18c94 0 167.333 -30.333 220 -91s79 -149.667 79 -267c0 -38.667 -4.66699 -80.5 -14 -125.5s-23 -89.5 -41 -133.5s-40.167 -86.5 -66.5 -127.5
s-56.5 -77.167 -90.5 -108.5s-71.833 -56.333 -113.5 -75s-86.834 -28 -135.501 -28c-32.667 0 -65.334 6.5 -98.001 19.5s-59.334 30.833 -80.001 53.5l-74 -508h-90l70 508c-30.667 -25.333 -66.334 -43.833 -107.001 -55.5s-81 -17.5 -121 -17.5
c-94 0 -167.333 30.167 -220 90.5s-79 149.5 -79 267.5c0 38.667 4.66699 80.334 14 125.001s23 89.167 41 133.5s40.167 87 66.5 128s56.5 77.167 90.5 108.5s71.833 56.333 113.5 75s86.834 28 135.501 28c34 0 67 -6.66699 99 -20s58.333 -31.333 79 -54z" />
    <glyph glyph-name="afii10087" unicode="&#x445;" horiz-adv-x="938" 
d="M922 920l-408 -449l279 -471h-107l-235 410l-379 -410h-111l449 483l-252 437h96l217 -369l344 369h107z" />
    <glyph glyph-name="afii10088" unicode="&#x446;" horiz-adv-x="954" 
d="M874 920l-116 -840h108l-28 -244h-95l23 164h-711l129 920h90l-118 -840h510l118 840h90z" />
    <glyph glyph-name="afii10089" unicode="&#x447;" horiz-adv-x="874" 
d="M795 920l-129.001 -919.998h-91l58 406c-19.333 -13.333 -40.5 -25.5 -63.5 -36.5s-46.667 -20.333 -71 -28s-48.833 -13.667 -73.5 -18s-48.334 -6.5 -71.001 -6.5c-28.667 0 -59.5 3.83301 -92.5 11.5s-63.5 20.5 -91.5 38.5s-51.333 41.333 -70 70s-28 64 -28 106
c0 11.333 0.333008 23.666 1 36.999s1.66699 24.666 3 33.999l43 306h90l-39 -275c-4 -28.667 -6 -54.667 -6 -78c0 -43.333 8.16699 -77 24.5 -101s36.333 -41.5 60 -52.5s48.334 -17.5 74.001 -19.5s47.834 -3 66.501 -3c20 0 41.333 2.16699 64 6.5s45.5 10.5 68.5 18.5
s45.167 18.167 66.5 30.5s40.333 26.5 57 42.5l60 431h90z" />
    <glyph glyph-name="afii10090" unicode="&#x448;" horiz-adv-x="1270" 
d="M1190 920l-131 -920h-1004l129 920h90l-118 -840h366l119 840h90l-119 -840h369l119 840h90z" />
    <glyph glyph-name="afii10091" unicode="&#x449;" horiz-adv-x="1270" 
d="M1190 920l-117 -840h109l-29 -244h-94l22 164h-1026l129 920h90l-118 -840h366l119 840h90l-119 -840h369l119 840h90z" />
    <glyph glyph-name="afii10092" unicode="&#x44a;" horiz-adv-x="987" 
d="M276 840l-244.999 0.000976562l16 80h332l-51 -359c44 17.333 88.5 30.166 133.5 38.499s90.5 12.5 136.5 12.5s87.667 -5.83301 125 -17.5s69.166 -28.667 95.499 -51s46.666 -49.833 60.999 -82.5s21.5 -69.667 21.5 -111c0 -46 -7.5 -90.167 -22.5 -132.5
s-40.5 -79.5 -76.5 -111.5s-83.667 -57.667 -143 -77s-133.666 -29 -222.999 -29h-276zM260.001 80.001l185.999 0.000976562c61.333 0 114.5 6.16699 159.5 18.5s82.333 30 112 53s51.667 50.833 66 83.5s21.5 69 21.5 109c0 64.667 -19 112.167 -57 142.5
s-93.333 45.5 -166 45.5c-15.333 0 -34 -0.833008 -56 -2.5s-45.167 -4.33398 -69.5 -8.00098s-48.666 -8.5 -72.999 -14.5s-46.5 -13.333 -66.5 -22z" />
    <glyph glyph-name="afii10093" unicode="&#x44b;" horiz-adv-x="1208" 
d="M1139 920l-129 -920h-90l129 920h90zM223 561c44 17.333 88.502 30.167 133.502 38.5s90.833 12.5 137.5 12.5c46 0 87.667 -5.83301 125 -17.5s69.166 -28.667 95.499 -51s46.666 -49.833 60.999 -82.5s21.5 -69.667 21.5 -111c0 -46 -7.66699 -90.167 -23 -132.5
s-41 -79.5 -77 -111.5s-83.667 -57.667 -143 -77s-133.333 -29 -222 -29h-277l127 920h90zM156.002 80.001l186.001 0.000976562c61.333 0 114.5 6.16699 159.5 18.5s82.167 30 111.5 53s51.166 50.833 65.499 83.5s21.5 69 21.5 109c0 64.667 -19 112.167 -57 142.5
s-93.333 45.5 -166 45.5c-15.333 0 -34 -0.833008 -56 -2.5s-45 -4.33398 -69 -8.00098s-48.167 -8.5 -72.5 -14.5s-46.5 -13.333 -66.5 -22z" />
    <glyph glyph-name="afii10094" unicode="&#x44c;" horiz-adv-x="883" 
d="M223 561c44 17.333 88.502 30.167 133.502 38.5s90.833 12.5 137.5 12.5c46 0 87.667 -5.83301 125 -17.5s69.166 -28.667 95.499 -51s46.666 -49.833 60.999 -82.5s21.5 -69.667 21.5 -111c0 -46 -7.66699 -90.167 -23 -132.5s-41 -79.5 -77 -111.5
s-83.667 -57.667 -143 -77s-133.333 -29 -222 -29h-277l127 920h90zM156.002 80.001l186.001 0.000976562c61.333 0 114.5 6.16699 159.5 18.5s82.167 30 111.5 53s51.166 50.833 65.499 83.5s21.5 69 21.5 109c0 64.667 -19 112.167 -57 142.5s-93.333 45.5 -166 45.5
c-15.333 0 -34 -0.833008 -56 -2.5s-45 -4.33398 -69 -8.00098s-48.167 -8.5 -72.5 -14.5s-46.5 -13.333 -66.5 -22z" />
    <glyph glyph-name="afii10095" unicode="&#x44d;" horiz-adv-x="788" 
d="M61 874c44.667 22 89.0029 38.168 133.003 48.501s90 15.5 138 15.5c57.333 0 109.5 -10 156.5 -30s87.333 -48 121 -84s59.667 -79.167 78 -129.5s27.5 -105.833 27.5 -166.5c0 -41.333 -4.83301 -83.5 -14.5 -126.5s-24.334 -84.667 -44.001 -125
s-44.334 -78.333 -74.001 -114s-64.667 -66.834 -105 -93.501s-86.166 -47.834 -137.499 -63.501s-108 -23.5 -170 -23.5c-58.667 0 -118.667 6 -180 18l14 98c19.333 -5.33301 36.666 -9.66602 51.999 -12.999s29.666 -6 42.999 -8s26.333 -3.33301 39 -4s26 -1 40 -1
c64 0 120.833 10.333 170.5 31s92.5 48.167 128.5 82.5s65 73.666 87 117.999s37.333 89.833 46 136.5h-460l45 80h423v19c0 47.333 -7.33301 90.333 -22 129s-35.5 71.834 -62.5 99.501s-59.5 49 -97.5 64s-80.333 22.5 -127 22.5c-22 0 -43 -1.66699 -63 -5
s-40.333 -8.33301 -61 -15s-42.167 -14.667 -64.5 -24l-73.5 -32z" />
    <glyph glyph-name="afii10096" unicode="&#x44e;" horiz-adv-x="1217" 
d="M223 500l159.994 -0.000976562c10 65.333 27.333 125 52 179s55.334 100.167 92.001 138.5s78.5 68 125.5 89s97.833 31.5 152.5 31.5c50 0 94.833 -9 134.5 -27s73.5 -43.833 101.5 -77.5s49.5 -74.167 64.5 -121.5s22.5 -100.333 22.5 -159
c0 -92.667 -12.667 -174.5 -38 -245.5s-58.666 -130.667 -99.999 -179s-88.166 -84.833 -140.499 -109.5s-105.5 -37 -159.5 -37c-41.333 0 -81.166 7.83301 -119.499 23.5s-72.166 39.5 -101.499 71.5s-52.666 72.167 -69.999 120.5s-26 105.5 -26 171.5
c0 8 0.333008 16.333 1 25s1 17.334 1 26.001h-162l-59 -420h-91l130 920h90zM1031.99 552.999c0 46 -5.49902 87.501 -16.499 124.501s-26.5 68.667 -46.5 95s-44.167 46.5 -72.5 60.5s-60.166 21 -95.499 21c-54.667 0 -102.834 -14 -144.501 -42
s-76.334 -64.833 -104.001 -110.5s-48.5 -97.667 -62.5 -156s-21 -117.833 -21 -178.5c0 -46.667 5 -88.667 15 -126s24.5 -69 43.5 -95s41.833 -45.833 68.5 -59.5s56.667 -20.5 90 -20.5c48 0 93.167 12.667 135.5 38s79 60 110 104s55.5 95.667 73.5 155
s27 122.666 27 189.999z" />
    <glyph glyph-name="afii10097" unicode="&#x44f;" horiz-adv-x="879" 
d="M688 0h-98.001l53 389h-147c-30 0 -56.667 -2.16699 -80 -6.5s-45.833 -12.5 -67.5 -24.5s-43.5 -28.667 -65.5 -50s-46.667 -49 -74 -83l-186 -225h-125l217 258c28.667 36 58 67.167 88 93.5s56.667 45.833 80 58.5c-26 8.66699 -49.333 20.667 -70 36
s-38.167 33 -52.5 53s-25.5 41.833 -33.5 65.5s-12 48.5 -12 74.5c0 44 10 83.333 30 118s48 64.167 84 88.5s78.833 42.833 128.5 55.5s103.834 19 162.501 19h297zM654.999 469l51.998 370.999h-166c-42.667 0 -83.5 -3.33301 -122.5 -10s-73.5 -18 -103.5 -34
s-53.833 -37.333 -71.5 -64s-26.5 -60.334 -26.5 -101.001c0 -19.333 3.83301 -38.666 11.5 -57.999s19.334 -36.666 35.001 -51.999s35.834 -27.833 60.501 -37.5s54 -14.5 88 -14.5h243z" />
    <glyph glyph-name="afii10071" unicode="&#x451;" 
d="M385 1305c12 0 23.502 -2.33301 34.502 -7s20.667 -11.167 29 -19.5s14.833 -18 19.5 -29s7 -22.833 7 -35.5c0 -24.667 -8.83301 -45.834 -26.5 -63.501s-38.834 -26.5 -63.501 -26.5s-45.834 8.83301 -63.501 26.5s-26.5 38.834 -26.5 63.501
c0 12.667 2.33301 24.5 7 35.5s11.167 20.667 19.5 29s18 14.833 29 19.5s22.5 7 34.5 7zM709.002 1305c12 0 23.501 -2.33203 34.501 -6.99902s20.667 -11.167 29 -19.5s14.833 -18 19.5 -29s7 -22.833 7 -35.5c0 -24.667 -8.83301 -45.834 -26.5 -63.501
s-38.834 -26.5 -63.501 -26.5c-12.667 0 -24.5 2.33301 -35.5 7s-20.667 11.167 -29 19.5s-14.833 18 -19.5 29s-7 22.5 -7 34.5c0 25.333 8.83301 46.833 26.5 64.5s39.167 26.5 64.5 26.5zM766.003 78.001c-40 -32 -84.834 -55.9971 -134.501 -71.9971
s-98.5 -24 -146.5 -24c-61.333 0 -117 10.5 -167 31.5s-92.833 50.833 -128.5 89.5s-63.167 85.167 -82.5 139.5s-29 114.833 -29 181.5c0 72 11 139.333 33 202s52 117.167 90 163.5s83 82.666 135 108.999s108 39.5 168 39.5c49.333 0 94 -8.83301 134 -26.5
s74.333 -43.167 103 -76.5s50.834 -74 66.501 -122s23.5 -102.667 23.5 -164c0 -14.667 -0.333008 -27.334 -1 -38.001s-1.66699 -21.334 -3 -32.001h-649c-1.33301 -9.33301 -2.33301 -19 -3 -29s-1 -20 -1 -30c0 -41.333 6.33301 -83 19 -125s31.834 -80 57.501 -114
s58.167 -61.667 97.5 -83s85.666 -32 138.999 -32c48 0 97 9.5 147 28.5s98 47.5 144 85.5zM741.002 559.004c0 48 -5.66797 90.3359 -17.001 127.003s-27.333 67.5 -48 92.5s-45.834 43.833 -75.501 56.5s-62.5 19 -98.5 19s-71.167 -7.83301 -105.5 -23.5
s-65.666 -36.834 -93.999 -63.501s-52.166 -57.834 -71.499 -93.501s-32 -73.834 -38 -114.501h548z" />
    <glyph glyph-name="afii10099" unicode="&#x452;" horiz-adv-x="938" 
d="M72 1204l14.0029 80.0049h141l17 113h90l-17 -113h439l-11 -80h-438l-65 -471l4 -4c26.667 28.667 53.834 55.667 81.501 81s56.167 47.5 85.5 66.5s60.166 34 92.499 45s66.5 16.5 102.5 16.5c35.333 0 67.5 -5 96.5 -15s53.833 -24 74.5 -42s36.667 -39.667 48 -65
s17 -53 17 -83v-17c0 -7.33301 -0.166992 -15 -0.5 -23s-0.833008 -15.833 -1.5 -23.5s-1.33398 -13.834 -2.00098 -18.501l-117 -819c-8 -58.667 -22.333 -106.5 -43 -143.5s-45 -66 -73 -87s-58 -35.333 -90 -43s-63.667 -11.5 -95 -11.5
c-18.667 0 -35.334 0.5 -50.001 1.5s-28.167 2.66699 -40.5 5s-24.166 5.16602 -35.499 8.49902s-23.333 7.33301 -36 12v84c10.667 -6.66699 21.667 -12.334 33 -17.001s24.666 -8.5 39.999 -11.5s33.666 -5.16699 54.999 -6.5s47 -2 77 -2c16.667 0 34.167 5 52.5 15
s35.5 24.167 51.5 42.5s30 40.333 42 66s20 54.167 24 85.5l110 811c1.33301 9.33301 2.5 18.5 3.5 27.5s1.5 17.5 1.5 25.5c0 30 -4.83301 55.333 -14.5 76s-22 37.167 -37 49.5s-31.833 21.166 -50.5 26.499s-36.667 8 -54 8c-29.333 0 -57.333 -4.33301 -84 -13
s-54.334 -22.5 -83.001 -41.5s-59.167 -43.333 -91.5 -73s-69.166 -65.834 -110.499 -108.501l-88 -618h-90l170 1204h-145z" />
    <glyph glyph-name="afii10100" unicode="&#x453;" horiz-adv-x="678" 
d="M723 920l-14 -80h-437l-118 -840h-91l130 920h530zM731 1360l-311 -316h-68l215 316h164z" />
    <glyph glyph-name="afii10101" unicode="&#x454;" horiz-adv-x="788" 
d="M684 504l-41.002 -80.002h-491c-1.33301 -7.33301 -2 -14.5 -2 -21.5v-21.5c0 -48 7.33301 -91.333 22 -130s35.5 -71.667 62.5 -99s59.5 -48.5 97.5 -63.5s80.333 -22.5 127 -22.5c22 0 43 1.66699 63 5s40.333 8.16602 61 14.499s42.167 14.166 64.5 23.499l73.5 32
l-14 -96c-44.667 -21.333 -89 -37.166 -133 -47.499s-90 -15.5 -138 -15.5c-57.333 0 -109.5 9.83301 -156.5 29.5s-87.333 47.5 -121 83.5s-59.667 79.167 -78 129.5s-27.5 105.833 -27.5 166.5c0 41.333 4.83301 83.5 14.5 126.5s24.334 84.833 44.001 125.5
s44.334 78.834 74.001 114.501s64.667 66.834 105 93.501s86.166 47.834 137.499 63.501s108 23.5 170 23.5c59.333 0 119.333 -6 180 -18l-14 -99c-19.333 5.33301 -36.666 9.66602 -51.999 12.999s-29.666 6 -42.999 8s-26.333 3.5 -39 4.5s-26 1.5 -40 1.5
c-61.333 0 -116 -9.5 -164 -28.5s-89.667 -44.333 -125 -76s-64.333 -68.167 -87 -109.5s-39.334 -84.666 -50.001 -129.999h520z" />
    <glyph glyph-name="afii10102" unicode="&#x455;" horiz-adv-x="725" 
d="M672 756c-28.667 18 -55.167 33.168 -79.5 45.501s-47.666 22.5 -69.999 30.5s-44.166 13.667 -65.499 17s-43.333 5 -66 5c-34.667 0 -64.167 -3.66699 -88.5 -11s-44 -17 -59 -29s-25.833 -25.833 -32.5 -41.5s-10 -32.167 -10 -49.5
c0 -30.667 10.667 -58.167 32 -82.5s48.166 -47.666 80.499 -69.999s67.166 -44.833 104.499 -67.5s72.166 -47.334 104.499 -74.001s59.166 -56.667 80.499 -90s32 -72 32 -116c0 -42.667 -8.66699 -79.334 -26 -110.001s-40.166 -55.667 -68.499 -75
s-60.5 -33.5 -96.5 -42.5s-72.667 -13.5 -110 -13.5c-54.667 0 -108.334 10.5 -161.001 31.5s-102 51.833 -148 92.5l28 89c40 -40 84.5 -71.5 133.5 -94.5s99.5 -34.5 151.5 -34.5c60 0 108.5 12.167 145.5 36.5s55.5 61.166 55.5 110.499
c0 35.333 -10.667 66.833 -32 94.5s-48.166 53.334 -80.499 77.001s-67.333 46.5 -105 68.5s-72.667 45.5 -105 70.5s-59.166 52.333 -80.499 82s-32 64.167 -32 103.5c0 31.333 5.83301 60.833 17.5 88.5s29.667 52 54 73s54.833 37.5 91.5 49.5s80 18 130 18
c48 0 96.667 -7.16699 146 -21.5s97 -35.833 143 -64.5z" />
    <glyph glyph-name="afii10103" unicode="&#x456;" horiz-adv-x="362" 
d="M283 920l-129 -920h-91l130 920h90zM336 1317l-23 -152h-90l23 152h90z" />
    <glyph glyph-name="afii10104" unicode="&#x457;" horiz-adv-x="362" 
d="M283 920l-129 -920h-91l130 920h90zM106 1305c25.333 0 46.834 -8.83398 64.501 -26.501s26.5 -39.167 26.5 -64.5c0 -12 -2.33301 -23.5 -7 -34.5s-11.167 -20.667 -19.5 -29s-18 -14.833 -29 -19.5s-22.833 -7 -35.5 -7c-24.667 0 -45.834 8.83301 -63.501 26.5
s-26.5 38.834 -26.5 63.501c0 12.667 2.33301 24.5 7 35.5s11.167 20.667 19.5 29s18 14.833 29 19.5s22.5 7 34.5 7zM430.001 1305c12 0 23.502 -2.33301 34.502 -7s20.667 -11.167 29 -19.5s14.833 -18 19.5 -29s7 -22.833 7 -35.5
c0 -24.667 -8.83301 -45.834 -26.5 -63.501s-38.834 -26.5 -63.501 -26.5s-45.834 8.83301 -63.501 26.5s-26.5 38.834 -26.5 63.501c0 12.667 2.33301 24.5 7 35.5s11.167 20.667 19.5 29s18 14.833 29 19.5s22.5 7 34.5 7z" />
    <glyph glyph-name="afii10105" unicode="&#x458;" horiz-adv-x="362" 
d="M281 920l-150.002 -1041c-8 -52 -18.167 -99.333 -30.5 -142s-29.5 -79.5 -51.5 -110.5s-50 -55 -84 -72s-77 -25.5 -129 -25.5c-19.333 0 -37.166 1.16699 -53.499 3.5s-35.833 6.5 -58.5 12.5l12 82c22.667 -6 40.167 -9.83301 52.5 -11.5s24.833 -2.5 37.5 -2.5
c42.667 0 77.334 9.16699 104.001 27.5s48 43.5 64 75.5s28.333 69.5 37 112.5s16.667 89.167 24 138.5l135 953h91zM335.998 1317l-23 -152h-90l23 152h90z" />
    <glyph glyph-name="afii10106" unicode="&#x459;" horiz-adv-x="1341" 
d="M545 938l99.999 -406c58.667 26 115.334 45.833 170.001 59.5s111.334 20.5 170.001 20.5c49.333 0 93.833 -5.83301 133.5 -17.5s73.667 -28.667 102 -51s50.166 -49.833 65.499 -82.5s23 -69.667 23 -111c0 -46 -7.66699 -90.167 -23 -132.5s-41 -79.5 -77 -111.5
s-83.667 -57.667 -143 -77s-133.333 -29 -222 -29h-162l-193 774l-454 -774h-101l549 938h62zM757.999 80h96.0049c61.333 0 114.5 6.16699 159.5 18.5s82.167 30 111.5 53s51.166 50.833 65.499 83.5s21.5 69 21.5 109c0 64.667 -21.333 112.167 -64 142.5
s-102.334 45.5 -179.001 45.5c-20.667 0 -43.334 -1.33301 -68.001 -4s-50.334 -6.66699 -77.001 -12s-53.834 -12 -81.501 -20s-54.5 -17.667 -80.5 -29z" />
    <glyph glyph-name="afii10107" unicode="&#x45a;" horiz-adv-x="1485" 
d="M825 561c44 17.333 88.6689 30.167 134.002 38.5s91 12.5 137 12.5s87.667 -5.83301 125 -17.5s69.166 -28.667 95.499 -51s46.666 -49.833 60.999 -82.5s21.5 -69.667 21.5 -111c0 -46 -7.66699 -90.167 -23 -132.5s-41 -79.5 -77 -111.5s-83.667 -57.667 -143 -77
s-133.333 -29 -222 -29h-279l62 428h-512l-60 -428h-90l129 920h90l-57 -412h512l55 412h90zM758.002 80.001l186 0.000976562c61.333 0 114.5 6.16699 159.5 18.5s82.333 30 112 53s51.667 50.833 66 83.5s21.5 69 21.5 109c0 64.667 -19.167 112.167 -57.5 142.5
s-93.833 45.5 -166.5 45.5c-15.333 0 -34 -0.833008 -56 -2.5s-45 -4.33398 -69 -8.00098s-48.167 -8.5 -72.5 -14.5s-46.5 -13.333 -66.5 -22z" />
    <glyph glyph-name="afii10108" unicode="&#x45b;" horiz-adv-x="938" 
d="M61 1262l164.001 0.00195312l19 135h90l-19 -135h402l-17 -80h-397l-61 -449l4 -4c26.667 28.667 53.834 55.667 81.501 81s56.167 47.5 85.5 66.5s60.166 34 92.499 45s66.5 16.5 102.5 16.5c40 0 75.667 -7.33301 107 -22s57.166 -34.667 77.499 -60
s34.666 -55.5 42.999 -90.5s9.83301 -73.167 4.5 -114.5l-92 -651h-91l88 641c6 40.667 5.16699 74.667 -2.5 102s-19.167 49.166 -34.5 65.499s-33.166 28 -53.499 35s-40.5 10.5 -60.5 10.5c-29.333 0 -57.333 -4.33301 -84 -13s-54.334 -22.5 -83.001 -41.5
s-59.167 -43.333 -91.5 -73s-69.166 -65.834 -110.499 -108.501l-88 -618h-90l166 1182h-166z" />
    <glyph glyph-name="afii10109" unicode="&#x45c;" horiz-adv-x="791" 
d="M283 920l-55.9932 -399.999h29c25.333 0 47.166 1.83301 65.499 5.5s34.666 10.167 48.999 19.5s28.166 22.166 41.499 38.499s27.666 37.5 42.999 63.5l77 131c56.667 94.667 130 142 220 142h28l-12 -91h-29c-16 0 -30.167 -1.66699 -42.5 -5s-23.5 -8.5 -33.5 -15.5
s-19.333 -16.167 -28 -27.5s-17.667 -24.666 -27 -39.999l-73 -127c-19.333 -34 -42.5 -62.833 -69.5 -86.5s-53.167 -41.834 -78.5 -54.501c35.333 -16.667 66.833 -44 94.5 -82s55.5 -83 83.5 -135l135 -256h-104l-121 236c-20.667 40 -38.834 73 -54.501 99
s-31.834 46.833 -48.501 62.5s-34.834 26.667 -54.501 33s-43.5 9.5 -71.5 9.5h-31l-61 -440h-91l130 920h90zM774.007 1319l-311 -315h-68l215 315h164z" />
    <glyph glyph-name="afii10110" unicode="&#x45e;" horiz-adv-x="768" 
d="M811 920l-727 -1391h-100l256 483l-174 908h90l145 -785h8l406 785h96zM317 1348c3.33301 -54.667 16.499 -96.334 39.499 -125.001s54.5 -43 94.5 -43c19.333 0 38.833 4.16699 58.5 12.5s38.834 19.833 57.501 34.5s36.334 32.334 53.001 53.001
s31.334 43.334 44.001 68.001h73c-12 -40 -27.667 -76.167 -47 -108.5s-41.333 -60 -66 -83s-51.334 -40.667 -80.001 -53s-58.334 -18.5 -89.001 -18.5c-32.667 0 -62.5 6.33301 -89.5 19s-50.167 30.667 -69.5 54s-34.5 51.166 -45.5 83.499s-16.833 67.833 -17.5 106.5
h84z" />
    <glyph glyph-name="afii10193" unicode="&#x45f;" horiz-adv-x="954" 
d="M874 920l-129 -920h-282l-35 -193h-82l33 193h-324l129 920h90l-118 -840h512l116 840h90z" />
    <glyph glyph-name="afii10146" unicode="&#x462;" horiz-adv-x="1139" 
d="M293 1069l-302.997 -0.000976562l20 90h295l35 238h100l-37 -238h326l-12 -90h-326l-41 -278c17.333 6.66699 36 12.667 56 18s40.667 9.83301 62 13.5s42.666 6.5 63.999 8.5s41.333 3 60 3c80 0 149.167 -9.83301 207.5 -29.5s106.5 -47.167 144.5 -82.5
s66.333 -77.5 85 -126.5s28 -102.833 28 -161.5c0 -65.333 -13.333 -124.666 -40 -177.999s-63.334 -99 -110.001 -137s-101.834 -67.333 -165.501 -88s-132.5 -31 -206.5 -31h-392zM553.003 742.999c-19.333 0 -39.168 -1.33398 -59.501 -4.00098s-40 -6 -59 -10
s-36.667 -8.5 -53 -13.5s-30.166 -10.167 -41.499 -15.5l-88 -610h283c62 0 118.5 8.66699 169.5 26s94.667 41.333 131 72s64.5 66.834 84.5 108.501s30 86.834 30 135.501c0 55.333 -9 102.666 -27 141.999s-44.167 71.5 -78.5 96.5s-76 43.333 -125 55
s-104.5 17.5 -166.5 17.5z" />
    <glyph glyph-name="afii10194" unicode="&#x463;" horiz-adv-x="1346" 
d="M864 61c49.333 0 92.667 7.1709 130 21.5039s68.5 33.833 93.5 58.5s43.833 53.667 56.5 87s19 68.666 19 105.999c0 64.667 -19 113.834 -57 147.501s-93.333 50.5 -166 50.5c-15.333 0 -34 -0.833008 -56 -2.5s-45 -4.33398 -69 -8.00098s-48.167 -8.5 -72.5 -14.5
s-46.5 -13.333 -66.5 -22l-19 -135c-0.666992 -2.66699 -1.33398 -7.33398 -2.00098 -14.001s-1.33398 -13.834 -2.00098 -21.501s-1.16699 -14.834 -1.5 -21.501s-0.5 -11.334 -0.5 -14.001c0 -28 2.83301 -55.167 8.5 -81.5s16.334 -49.666 32.001 -69.999
s37.334 -36.5 65.001 -48.5s63.5 -18 107.5 -18zM846.001 -17.9961c-52 0 -96.0029 7.83594 -132.003 23.5029s-65.333 37 -88 64s-39.167 58.167 -49.5 93.5s-15.5 73 -15.5 113c0 4 0.333008 10.167 1 18.5l2 26c0.666992 9 1.5 17.833 2.5 26.5
s1.83301 15.334 2.5 20.001l64 471h-78c-28 0 -55.667 -8 -83 -24s-54.666 -37.333 -81.999 -64s-54.5 -57.667 -81.5 -93s-53.5 -72 -79.5 -110l-77 -547h-91l129 920h91l-35 -242l6 -4c34 48 64.5 87.833 91.5 119.5s52.833 56.834 77.5 75.501
s49.334 31.834 74.001 39.501s51.334 11.5 80.001 11.5h160l-49 -359c44 17.333 88.5 30.166 133.5 38.499s90.5 12.5 136.5 12.5s87.833 -6.33301 125.5 -19s69.667 -30.834 96 -54.501s46.666 -52.334 60.999 -86.001s21.5 -71.167 21.5 -112.5
c0 -44.667 -7.5 -88.334 -22.5 -131.001s-39 -80.834 -72 -114.501s-75.667 -60.834 -128 -81.501s-116.166 -31 -191.499 -31z" />
    <glyph glyph-name="afii10147" unicode="&#x472;" horiz-adv-x="1343" 
d="M1270 850c0 -78 -7.16504 -153.505 -21.498 -226.505s-35.166 -141.667 -62.499 -206s-60.5 -123.166 -99.5 -176.499s-82.833 -99.166 -131.5 -137.499s-102 -68.166 -160 -89.499s-119.667 -32 -185 -32c-80 0 -150.667 13.167 -212 39.5s-112.833 64.333 -154.5 114
s-73.167 110.334 -94.5 182.001s-32 152.834 -32 243.501c0 55.333 5.16699 115 15.5 179s26.666 127.667 48.999 191s51 124.166 86 182.499s77.167 109.833 126.5 154.5s106.166 80.334 170.499 107.001s136.833 40 217.5 40c75.333 0 143.166 -13 203.499 -39
s111.5 -63.333 153.5 -112s74.333 -108 97 -178s34 -148.667 34 -236zM1161 775.995c1.33301 15.333 2 31.168 2 47.501v48.5c0 69.333 -8.83301 131.666 -26.5 186.999s-43 102.5 -76 141.5s-73 68.833 -120 89.5s-99.833 31 -158.5 31c-80 0 -150 -16.167 -210 -48.5
s-111.5 -74.5 -154.5 -126.5s-78.167 -110.333 -105.5 -175s-48 -129.667 -62 -195h911zM233.002 679.997c-3.33301 -26.667 -5.83301 -52.665 -7.5 -77.998s-2.5 -49.333 -2.5 -72c0 -72.667 8.83301 -137.167 26.5 -193.5s43.167 -103.833 76.5 -142.5
s74.166 -68 122.499 -88s102.833 -30 163.5 -30c74 0 141.333 15.667 202 47s113.667 74.166 159 128.499s82.833 118.166 112.5 191.499s50.834 152.333 63.501 237h-916z" />
    <glyph glyph-name="afii10195" unicode="&#x473;" 
d="M829 553c0 -92.667 -12.6719 -174.5 -38.0049 -245.5s-58.666 -130.667 -99.999 -179s-88.166 -84.833 -140.499 -109.5s-105.5 -37 -159.5 -37c-41.333 0 -81.166 7.83301 -119.499 23.5s-72.166 39.5 -101.499 71.5s-52.666 72.167 -69.999 120.5s-26 105.5 -26 171.5
c0 83.333 10.667 159.833 32 229.5s51 129.667 89 180s83.5 89.5 136.5 117.5s111.167 42 174.5 42c50 0 94.833 -9 134.5 -27s73.5 -43.833 101.5 -77.5s49.5 -74.167 64.5 -121.5s22.5 -100.333 22.5 -159zM171.995 424c-1.33301 -9.33301 -2 -18.834 -2 -28.501v-28.5
c0 -46.667 5 -88.667 15 -126s24.5 -69 43.5 -95s41.833 -45.833 68.5 -59.5s56.667 -20.5 90 -20.5c40 0 78 9 114 27s68.667 42.833 98 74.5s54.5 69.334 75.5 113.001s36.5 91.5 46.5 143.5h-549zM730.995 503.999c-0.666992 0 -0.831055 1.83203 -0.498047 5.49902
s0.666016 8 0.999023 13s0.666016 10.333 0.999023 16s0.5 10.5 0.5 14.5c0 46 -5.5 87.5 -16.5 124.5s-26.5 68.667 -46.5 95s-44.167 46.5 -72.5 60.5s-60.166 21 -95.499 21c-44.667 0 -84.834 -9.33301 -120.501 -28s-67 -44 -94 -76s-49.333 -69.167 -67 -111.5
s-30.5 -87.166 -38.5 -134.499h549z" />
    <glyph glyph-name="afii10148" unicode="&#x474;" horiz-adv-x="991" 
d="M834 1200c15.333 39.333 30.6689 72.998 46.002 100.998s31.5 50.833 48.5 68.5s35.167 30.667 54.5 39s40.666 12.5 63.999 12.5c17.333 0 36.166 -2.33301 56.499 -7s36.833 -11.667 49.5 -21v-105c-8 8.66699 -20.833 16.334 -38.5 23.001s-34.167 10 -49.5 10
s-29 -2.5 -41 -7.5s-23.5 -13.333 -34.5 -25s-21.667 -27.167 -32 -46.5s-21.5 -43.666 -33.5 -72.999l-471 -1187h-50l-282 1415h104l226 -1172h8z" />
    <glyph glyph-name="afii10196" unicode="&#x475;" horiz-adv-x="719" 
d="M506 698c22.667 50.667 43.3311 91.999 61.998 123.999s36.5 57 53.5 75s33.833 30.333 50.5 37s34.334 10 53.001 10s34.834 -1.66699 48.501 -5s26.834 -7 39.501 -11v-80c-14.667 6 -27 10.167 -37 12.5s-22.333 3.5 -37 3.5s-28 -3.16699 -40 -9.5
s-23.833 -16.666 -35.5 -30.999s-23.834 -33.5 -36.501 -57.5s-27 -54 -43 -90l-316 -694h-28l-183 938h86l138 -736z" />
    <glyph glyph-name="afii10050" unicode="&#x490;" horiz-adv-x="854" 
d="M971 1522l-53 -219h-545l-185 -1303h-96l197 1397h559l31 125h92z" />
    <glyph glyph-name="afii10098" unicode="&#x491;" horiz-adv-x="678" 
d="M743 999l-34 -159h-437l-118 -840h-91l130 920h450l23 79h77z" />
    <glyph glyph-name="uni0492" unicode="&#x492;" horiz-adv-x="854" 
d="M657 666h-374l-95 -666h-96l92 666h-135l12 94h138l90 637h641l-12 -94h-545l-78 -543h377z" />
    <glyph glyph-name="uni0493" unicode="&#x493;" horiz-adv-x="678" 
d="M12 508h123l58 412h534l-18 -80h-437l-47 -332h297l-12 -80h-297l-59 -428h-91l60 428h-123z" />
    <glyph glyph-name="uni0496" unicode="&#x496;" horiz-adv-x="1706" 
d="M1632 94l-45.0059 -335.999h-108l32 242h-53l-174 408c-21.333 50.667 -43.333 92.834 -66 126.501s-47.5 60.5 -74.5 80.5s-56.833 34.167 -89.5 42.5s-70 12.5 -112 12.5h-33l-94 -670h-96l94 670h-41c-39.333 0 -75.833 -4.33301 -109.5 -13s-66.167 -23 -97.5 -43
s-62.5 -46.667 -93.5 -80s-63.833 -74.666 -98.5 -123.999l-289 -410h-125l322 440c32 44 61.333 81.333 88 112s52.5 56.5 77.5 77.5s49.833 37.833 74.5 50.5s51 23 79 31c-32 16 -61.833 43.833 -89.5 83.5s-51.167 90.834 -70.5 153.501l-73 238
c-8 24 -15.333 43.833 -22 59.5s-14.5 28 -23.5 37s-19.667 15.333 -32 19s-28.166 5.5 -47.499 5.5h-52l15 90h49c28 0 52 -2.16699 72 -6.5s37.667 -12.5 53 -24.5s28.833 -28.333 40.5 -49s22.834 -47.334 33.501 -80.001l88 -276c12 -37.333 24.167 -68.833 36.5 -94.5
s26.833 -46.334 43.5 -62.001s37 -27 61 -34s53.333 -10.5 88 -10.5h55l90 637h97l-90 -637h75c34 0 64.167 3 90.5 9s50.333 16.167 72 30.5s42 33.833 61 58.5s38.167 56 57.5 94l141 285c18 36 36.333 64.5 55 85.5s38.5 37 59.5 48s43.333 18.167 67 21.5
s49.167 5 76.5 5h49l-12 -90h-51c-23.333 0 -42.666 -1.83301 -57.999 -5.5s-28.666 -10 -39.999 -19s-21.833 -21 -31.5 -36s-20.5 -33.833 -32.5 -56.5l-153 -299c-16 -31.333 -32.167 -57.833 -48.5 -79.5s-32.666 -39.834 -48.999 -54.501s-33 -26.334 -50 -35.001
s-34.167 -15.334 -51.5 -20.001c24.667 -8.66699 46.834 -19.334 66.501 -32.001s38.5 -29.167 56.5 -49.5s35.5 -45.166 52.5 -74.499s34.833 -64.666 53.5 -105.999l160 -346h94z" />
    <glyph glyph-name="uni0497" unicode="&#x497;" horiz-adv-x="1147" 
d="M852 236c-17.333 41.333 -33.8301 75.1611 -49.4971 101.494s-32.167 47.166 -49.5 62.499s-36.333 25.833 -57 31.5s-45 8.5 -73 8.5h-13l-61 -440h-90l61 440h-10c-24.667 0 -49 -2.16699 -73 -6.5s-48.333 -13.833 -73 -28.5s-50 -35.667 -76 -63
s-53 -63.666 -81 -108.999l-148 -233h-110l168 252c24.667 37.333 48 69 70 95s43.167 47.833 63.5 65.5s40.666 31.334 60.999 41.001s41.5 16.834 63.5 21.501c-30 10.667 -53.5 27 -70.5 49s-31.167 51.333 -42.5 88l-29 133c-4.66699 16.667 -10 30.334 -16 41.001
s-13.167 19.167 -21.5 25.5s-18.5 10.833 -30.5 13.5s-26 4 -42 4h-19l15 91h18c46 0 83.833 -10.5 113.5 -31.5s51.167 -57.833 64.5 -110.5l25 -133c6.66699 -25.333 15.667 -46.166 27 -62.499s24.666 -29.166 39.999 -38.499s32.333 -15.666 51 -18.999s38.667 -5 60 -5
h12l58 400h90l-57 -400h12c26 0 48.667 2.33301 68 7s36.833 12 52.5 22s30 23.167 43 39.5s26.167 35.833 39.5 58.5l73 131c30 52.667 62.5 89.5 97.5 110.5s75.5 31.5 121.5 31.5h9l-13 -91h-8c-16 0 -30.167 -1.66699 -42.5 -5s-23.5 -8.5 -33.5 -15.5
s-19.333 -16.167 -28 -27.5s-17.667 -24.666 -27 -39.999l-74 -127c-19.333 -34 -42.333 -62.833 -69 -86.5s-52.667 -41.834 -78 -54.501c17.333 -6 33 -13.5 47 -22.5s27.833 -21.667 41.5 -38s27.667 -37 42 -62s30.166 -56.5 47.499 -94.5l80 -176h80l-29 -244h-94
l22 164h-49z" />
    <glyph glyph-name="uni049A" unicode="&#x49a;" horiz-adv-x="1141" 
d="M698 408c-23.333 50.667 -47.001 92.835 -71.001 126.502s-49.833 60.5 -77.5 80.5s-58 34.167 -91 42.5s-70.5 12.5 -112.5 12.5h-74l-92 -670h-98l197 1397h98l-92 -637h116c34 0 64 3 90 9s49.833 16.333 71.5 31s42 34.334 61 59.001s38.5 55.667 58.5 93l152 285
c18.667 35.333 38 63.5 58 84.5s40.833 37.167 62.5 48.5s44.667 18.666 69 21.999s50.5 5 78.5 5h49l-12 -90h-52c-23.333 0 -43 -1.83301 -59 -5.5s-30.167 -10 -42.5 -19s-24 -21 -35 -36s-22.833 -33.833 -35.5 -56.5l-163 -299
c-17.333 -30.667 -34.166 -56.834 -50.499 -78.501s-32.5 -39.834 -48.5 -54.501s-32.167 -26.5 -48.5 -35.5s-33.5 -15.833 -51.5 -20.5c24.667 -8.66699 47.5 -20 68.5 -34s41.167 -31.5 60.5 -52.5s38 -46 56 -75s36.333 -62.5 55 -100.5l168 -346h98l-45 -336h-109
l33 242h-55z" />
    <glyph glyph-name="uni049B" unicode="&#x49b;" horiz-adv-x="791" 
d="M745 80l-27.9932 -243.999h-94l22 164h-49l-121 236c-20.667 40 -38.834 73 -54.501 99s-31.834 46.833 -48.501 62.5s-34.834 26.667 -54.501 33s-43.5 9.5 -71.5 9.5h-31l-61 -440h-91l130 920h90l-56 -400h29c25.333 0 47.166 1.83301 65.499 5.5
s34.666 10.167 48.999 19.5s28.166 22.166 41.499 38.499s27.666 37.5 42.999 63.5l77 131c56.667 94.667 130 142 220 142h28l-12 -91h-29c-16 0 -30.167 -1.66699 -42.5 -5s-23.5 -8.5 -33.5 -15.5s-19.333 -16.167 -28 -27.5s-17.667 -24.666 -27 -39.999l-73 -127
c-19.333 -34 -42.5 -62.833 -69.5 -86.5s-53.167 -41.834 -78.5 -54.501c35.333 -16.667 66.833 -44 94.5 -82s55.5 -83 83.5 -135l92 -176h88z" />
    <glyph glyph-name="uni04A2" unicode="&#x4a2;" horiz-adv-x="1434" 
d="M1188 670h-918l-92 -670h-96l194 1397h97l-90 -637h919l90 637h97l-185 -1303h144l-45 -336h-109l33 242h-131z" />
    <glyph glyph-name="uni04A3" unicode="&#x4a3;" horiz-adv-x="954" 
d="M655 0l60 428h-510l-60 -428h-90l129 920h90l-57 -412h510l57 412h90l-118 -840h108l-28 -244h-95l23 164h-109z" />
    <glyph glyph-name="uni04AE" unicode="&#x4ae;" horiz-adv-x="981" 
d="M598 723l-100 -723h-97l101 723l-350 674h104l305 -578l443 578h116z" />
    <glyph glyph-name="uni04AF" unicode="&#x4af;" horiz-adv-x="748" 
d="M336 61l-76 -514h-90l74 521l-193 852h88l168 -748l400 748h88z" />
    <glyph glyph-name="uni04B0" unicode="&#x4b0;" horiz-adv-x="981" 
d="M598 723l-10 -70h446l-12 -96h-447l-77 -557h-97l78 557h-446l12 96h447l10 70l-350 674h104l305 -578l443 578h116z" />
    <glyph glyph-name="uni04B1" unicode="&#x4b1;" horiz-adv-x="748" 
d="M346 125l-6 -35h266l-12 -90h-266l-68 -453h-90l66 453h-267l13 90h266l6 41l-203 789h88l176 -693l392 693h88z" />
    <glyph glyph-name="uni04B2" unicode="&#x4b2;" horiz-adv-x="1323" 
d="M690 653l-622 -653h-129l700 729l-451 668h115l408 -592l563 592h127l-641 -668l426 -635h98l-45 -336h-109l33 242h-28z" />
    <glyph glyph-name="uni04B3" unicode="&#x4b3;" horiz-adv-x="938" 
d="M451 410l-379 -410h-111l449 483l-252 437h96l217 -369l344 369h107l-408 -449l231 -391h89l-29 -244h-94l22 164h-47z" />
    <glyph glyph-name="uni04B6" unicode="&#x4b6;" horiz-adv-x="1120" 
d="M870 614c-24 -10 -49.5 -19 -76.5 -27s-54.167 -15 -81.5 -21s-54.166 -10.667 -80.499 -14s-51.166 -5 -74.499 -5c-76 0 -141.333 9.5 -196 28.5s-99.834 45.333 -135.501 79s-62 73.5 -79 119.5s-25.5 96 -25.5 150c0 9.33301 0.5 22.833 1.5 40.5s2.5 37 4.5 58
s4.16699 42.333 6.5 64s4.83301 41.167 7.5 58.5l35 252h96l-34 -244c-8.66699 -58.667 -14.334 -105.5 -17.001 -140.5s-4 -61.833 -4 -80.5c0 -42.667 5.83301 -82.167 17.5 -118.5s31.167 -67.5 58.5 -93.5s63.5 -46.333 108.5 -61s100.833 -22 167.5 -22
c56 0 109.167 5.5 159.5 16.5s102.5 28.167 156.5 51.5l94 692h96l-182 -1303h143l-45 -336h-108l32 242h-133z" />
    <glyph glyph-name="uni04B7" unicode="&#x4b7;" horiz-adv-x="864" 
d="M623 406c-19.333 -13.333 -40.5029 -25.498 -63.5029 -36.498s-46.667 -20.333 -71 -28s-48.833 -13.667 -73.5 -18s-48.334 -6.5 -71.001 -6.5c-28.667 0 -59.5 3.83301 -92.5 11.5s-63.667 20.5 -92 38.5s-51.833 41.333 -70.5 70s-28 64 -28 106
c0 11.333 0.5 23.666 1.5 36.999s2.16699 24.666 3.5 33.999l43 306h90l-39 -275c-4 -28.667 -6 -54.667 -6 -78c0 -43.333 8.16699 -77 24.5 -101s36.333 -41.5 60 -52.5s48.334 -17.5 74.001 -19.5s47.834 -3 66.501 -3c19.333 0 40.333 2.16699 63 6.5
s45.334 10.5 68.001 18.5s44.834 18.167 66.501 30.5s41.167 26.5 58.5 42.5l59 431h90l-116 -840h108l-28 -244h-95l23 164h-111z" />
    <glyph glyph-name="uni04BA" unicode="&#x4ba;" horiz-adv-x="1116" 
d="M301 870c49.333 20 102.001 36.333 158.001 49s107.667 19 155 19c76 0 141.5 -9.5 196.5 -28.5s100.333 -45.333 136 -79s62 -73.5 79 -119.5s25.5 -96 25.5 -150c0 -9.33301 -0.5 -22.833 -1.5 -40.5s-2.5 -37 -4.5 -58s-4.33301 -42.333 -7 -64
s-5.33398 -41.167 -8.00098 -58.5l-49 -340h-96l49 332c8 58.667 13.333 105.5 16 140.5s4 61.833 4 80.5c0 43.333 -5.83301 83 -17.5 119s-31.167 67 -58.5 93s-63.5 46.333 -108.5 61s-100.833 22 -167.5 22c-56 0 -109 -5.66699 -159 -17s-102 -28.333 -156 -51
l-109 -780h-96l197 1397h96z" />
    <glyph glyph-name="uni04BB" unicode="&#x4bb;" horiz-adv-x="938" 
d="M242 733l4.00098 -3.99805c26.667 28.667 53.834 55.667 81.501 81s56.167 47.5 85.5 66.5s60.166 34 92.499 45s66.5 16.5 102.5 16.5c40 0 75.667 -7.33301 107 -22s57.166 -34.667 77.499 -60s34.666 -55.5 42.999 -90.5s9.83301 -73.167 4.5 -114.5l-92 -651h-91
l88 641c6 40.667 5.16699 74.667 -2.5 102s-19.167 49.166 -34.5 65.499s-33.166 28 -53.499 35s-40.5 10.5 -60.5 10.5c-29.333 0 -57.333 -4.33301 -84 -13s-54.334 -22.5 -83.001 -41.5s-59.167 -43.333 -91.5 -73s-69.166 -65.834 -110.499 -108.501l-88 -618h-90
l197 1397h90z" />
    <glyph glyph-name="uni04C0" unicode="&#x4c0;" horiz-adv-x="406" 
d="M178 0h-96l197 1397h96z" />
    <glyph glyph-name="uni04CF" unicode="&#x4cf;" horiz-adv-x="362" 
d="M283 920l-129 -920h-91l130 920h90z" />
    <glyph glyph-name="uni04D8" unicode="&#x4d8;" horiz-adv-x="1303" 
d="M106 561c0 13.333 0.168945 27.165 0.501953 41.498s1.83301 29.166 4.5 44.499h991c6 36 10.833 72.833 14.5 110.5s5.5 75.834 5.5 114.501c0 69.333 -8.83301 131.666 -26.5 186.999s-43 102.5 -76 141.5s-73 68.833 -120 89.5s-99.833 31 -158.5 31
c-39.333 0 -78.333 -3.16699 -117 -9.5s-78.5 -16.833 -119.5 -31.5s-83.5 -33.834 -127.5 -57.501s-91 -52.834 -141 -87.501v108c39.333 30 80.166 55.833 122.499 77.5s85.166 39.5 128.499 53.5s86.5 24.333 129.5 31s84.5 10 124.5 10
c75.333 0 143.166 -13 203.499 -39s111.5 -63.333 153.5 -112s74.333 -108 97 -178s34 -148.667 34 -236c0 -78 -7.16699 -153.5 -21.5 -226.5s-35.166 -141.667 -62.499 -206s-60.333 -123.166 -99 -176.499s-82.5 -99.166 -131.5 -137.499s-102.5 -68.166 -160.5 -89.499
s-119.667 -32 -185 -32c-80 0 -149 13.167 -207 39.5s-106 64.333 -144 114s-66.167 110.334 -84.5 182.001s-27.5 152.834 -27.5 243.501zM213.002 529.999c0 -145.333 29.001 -257.333 87.001 -336s148.333 -118 271 -118c65.333 0 125.166 12.167 179.499 36.5
s103 57.833 146 100.5s80 93.5 111 152.5s55.5 122.833 73.5 191.5h-868v-27z" />
    <glyph glyph-name="uni04D9" unicode="&#x4d9;" 
d="M731 440c1.33301 9.33301 2.33301 18.999 3 28.999s1 20.333 1 31c0 40.667 -6.33301 82 -19 124s-31.834 80 -57.501 114s-58.167 61.833 -97.5 83.5s-85.666 32.5 -138.999 32.5c-48 0 -96.333 -9.66699 -145 -29s-96 -48 -142 -86v97
c40 30.667 84.667 55.334 134 74.001s101 28 155 28c61.333 0 117 -10.5 167 -31.5s92.833 -50.833 128.5 -89.5s63.167 -85.167 82.5 -139.5s29 -114.833 29 -181.5c0 -72 -11 -139.333 -33 -202s-52 -117.167 -90 -163.5s-82.833 -82.666 -134.5 -108.999
s-107.5 -39.5 -167.5 -39.5c-49.333 0 -94.166 8.83301 -134.499 26.5s-74.833 43.167 -103.5 76.5s-50.834 74.166 -66.501 122.499s-23.5 102.833 -23.5 163.5c0 14 0.333008 26.5 1 37.5s1.66699 21.5 3 31.5h649zM168 359.999c0 -47.333 5.66699 -89.335 17 -126.002
s27.5 -67.5 48.5 -92.5s46.167 -43.833 75.5 -56.5s62.333 -19 99 -19c36 0 71.167 7.83301 105.5 23.5s65.5 36.834 93.5 63.501s51.833 57.834 71.5 93.501s32.5 73.5 38.5 113.5h-549z" />
    <glyph glyph-name="uni04E2" unicode="&#x4e2;" horiz-adv-x="1430" 
d="M1264 1202l-1129 -1227h-57l198 1422h97l-183 -1250l1143 1250h56l-197 -1397h-96zM1127 1601h-547l14 105h547z" />
    <glyph glyph-name="uni04E3" unicode="&#x4e3;" horiz-adv-x="954" 
d="M756 729l-662 -747h-41l131 938h90l-110 -764l667 764h43l-129 -920h-90zM305 1171l14 105h547l-14 -105h-547z" />
    <glyph glyph-name="uni04E8" unicode="&#x4e8;" horiz-adv-x="1343" 
d="M1270 850c0 -78 -7.16504 -153.505 -21.498 -226.505s-35.166 -141.667 -62.499 -206s-60.5 -123.166 -99.5 -176.499s-82.833 -99.166 -131.5 -137.499s-102 -68.166 -160 -89.499s-119.667 -32 -185 -32c-80 0 -150.667 13.167 -212 39.5s-112.833 64.333 -154.5 114
s-73.167 110.334 -94.5 182.001s-32 152.834 -32 243.501c0 55.333 5.16699 115 15.5 179s26.666 127.667 48.999 191s51 124.166 86 182.499s77.167 109.833 126.5 154.5s106.166 80.334 170.499 107.001s136.833 40 217.5 40c75.333 0 143.166 -13 203.499 -39
s111.5 -63.333 153.5 -112s74.333 -108 97 -178s34 -148.667 34 -236zM1161 775.995c1.33301 15.333 2 31.168 2 47.501v48.5c0 69.333 -8.83301 131.666 -26.5 186.999s-43 102.5 -76 141.5s-73 68.833 -120 89.5s-99.833 31 -158.5 31c-80 0 -150 -16.167 -210 -48.5
s-111.5 -74.5 -154.5 -126.5s-78.167 -110.333 -105.5 -175s-48 -129.667 -62 -195h911zM233.002 679.997c-3.33301 -26.667 -5.83301 -52.665 -7.5 -77.998s-2.5 -49.333 -2.5 -72c0 -72.667 8.83301 -137.167 26.5 -193.5s43.167 -103.833 76.5 -142.5
s74.166 -68 122.499 -88s102.833 -30 163.5 -30c74 0 141.333 15.667 202 47s113.667 74.166 159 128.499s82.833 118.166 112.5 191.499s50.834 152.333 63.501 237h-916z" />
    <glyph glyph-name="uni04E9" unicode="&#x4e9;" 
d="M829 553c0 -92.667 -12.6719 -174.5 -38.0049 -245.5s-58.666 -130.667 -99.999 -179s-88.166 -84.833 -140.499 -109.5s-105.5 -37 -159.5 -37c-41.333 0 -81.166 7.83301 -119.499 23.5s-72.166 39.5 -101.499 71.5s-52.666 72.167 -69.999 120.5s-26 105.5 -26 171.5
c0 83.333 10.667 159.833 32 229.5s51 129.667 89 180s83.5 89.5 136.5 117.5s111.167 42 174.5 42c50 0 94.833 -9 134.5 -27s73.5 -43.833 101.5 -77.5s49.5 -74.167 64.5 -121.5s22.5 -100.333 22.5 -159zM171.995 424c-1.33301 -9.33301 -2 -18.834 -2 -28.501v-28.5
c0 -46.667 5 -88.667 15 -126s24.5 -69 43.5 -95s41.833 -45.833 68.5 -59.5s56.667 -20.5 90 -20.5c40 0 78 9 114 27s68.667 42.833 98 74.5s54.5 69.334 75.5 113.001s36.5 91.5 46.5 143.5h-549zM730.995 503.999c-0.666992 0 -0.831055 1.83203 -0.498047 5.49902
s0.666016 8 0.999023 13s0.666016 10.333 0.999023 16s0.5 10.5 0.5 14.5c0 46 -5.5 87.5 -16.5 124.5s-26.5 68.667 -46.5 95s-44.167 46.5 -72.5 60.5s-60.166 21 -95.499 21c-44.667 0 -84.834 -9.33301 -120.501 -28s-67 -44 -94 -76s-49.333 -69.167 -67 -111.5
s-30.5 -87.166 -38.5 -134.499h549z" />
    <glyph glyph-name="uni04EE" unicode="&#x4ee;" horiz-adv-x="1135" 
d="M229 1397l295.001 -1276l611 1276h108l-637 -1299c-30.667 -62.667 -59.5 -114.667 -86.5 -156s-53.833 -74 -80.5 -98s-54 -40.833 -82 -50.5s-58.333 -14.5 -91 -14.5c-38 0 -71.833 5.5 -101.5 16.5s-53.834 25.167 -72.501 42.5l23 123c16 -28 39.5 -49.333 70.5 -64
s65.5 -22 103.5 -22c32.667 0 63.5 12 92.5 36s52.167 55 69.5 93l-330 1393h108zM975.001 1601h-547l14 105h547z" />
    <glyph glyph-name="uni04EF" unicode="&#x4ef;" horiz-adv-x="768" 
d="M811 920l-727 -1391h-100l256 483l-174 908h90l145 -785h4l410 785h96zM740 1171h-547l14 105h547z" />
    <glyph glyph-name="endash" unicode="&#x2013;" horiz-adv-x="1024" 
d="M1036 551v-68h-1048v68h1048z" />
    <glyph glyph-name="emdash" unicode="&#x2014;" horiz-adv-x="2048" 
d="M2060 551v-68h-2072v68h2072z" />
    <glyph glyph-name="quoteleft" unicode="&#x2018;" horiz-adv-x="342" 
d="M328 1165l-25 -182.001h-121l23 162c7.33301 54.667 27.833 107.334 61.5 158.001s72.5 82 116.5 94l-8 -60c-50.667 -40.667 -80 -98 -88 -172h41z" />
    <glyph glyph-name="quoteright" unicode="&#x2019;" horiz-adv-x="342" 
d="M219 1214l25 183.002h121l-23 -162c-7.33301 -54.667 -27.833 -107.334 -61.5 -158.001s-72.5 -82 -116.5 -94l8 59c50.667 41.333 80 98.666 88 171.999h-41z" />
    <glyph glyph-name="quotesinglbase" unicode="&#x201a;" horiz-adv-x="342" 
d="M49 0l25 182.001h121l-23 -162c-7.33301 -54.667 -27.833 -107.334 -61.5 -158.001s-72.5 -81.667 -116.5 -93l8 59c50.667 40.667 80 98 88 172h-41z" />
    <glyph glyph-name="quotedblleft" unicode="&#x201c;" horiz-adv-x="768" 
d="M766 1165l-25 -182.001h-120l22 162c8 54.667 28.667 107.334 62 158.001s72 82 116 94l-8 -60c-50.667 -40.667 -80 -98 -88 -172h41zM403 1165l-23.999 -182.001h-121l23 162c7.33301 54.667 27.666 107.334 60.999 158.001s72.333 82 117 94l-8 -60
c-51.333 -40.667 -81 -98 -89 -172h41z" />
    <glyph glyph-name="quotedblright" unicode="&#x201d;" horiz-adv-x="768" 
d="M594 1214l24 183.002h121l-22 -162c-8 -54.667 -28.667 -107.334 -62 -158.001s-72 -82 -116 -94l8 59c50.667 41.333 80 98.666 88 171.999h-41zM229 1214l25 183.002h121l-23 -162c-7.33301 -54.667 -27.833 -107.334 -61.5 -158.001s-72.5 -82 -116.5 -94l8 59
c50.667 41.333 80 98.666 88 171.999h-41z" />
    <glyph glyph-name="quotedblbase" unicode="&#x201e;" horiz-adv-x="768" 
d="M438 0l25 182.001h121l-23 -162c-7.33301 -54.667 -27.833 -107.334 -61.5 -158.001s-72.5 -81.667 -116.5 -93l8 59c50.667 40.667 80 98 88 172h-41zM74 0.000976562l24 182.001h121l-22 -162c-8 -54.667 -28.667 -107.334 -62 -158.001s-72.333 -81.667 -117 -93l9 59
c50.667 40.667 80 98 88 172h-41z" />
    <glyph glyph-name="dagger" unicode="&#x2020;" horiz-adv-x="981" 
d="M975 854l-14 -102l-396 16l-153 -1239h-131l219 1239l-412 -16l14 102l406 -20l61 581h125l-121 -581z" />
    <glyph glyph-name="daggerdbl" unicode="&#x2021;" 
d="M909 920l-14 -113l-373 16l-24 -381l-76 -329l377 16l-15 -104l-372 22l-43 -518h-123l100 518l-373 -22l17 104l366 -16l25 376l76 334l-373 -16l16 113l365 -29l45 524h135l-115 -524z" />
    <glyph glyph-name="bullet" unicode="&#x2022;" horiz-adv-x="1024" 
d="M293 698c0 68.667 24.5 127.5 73.5 176.5s107.833 73.5 176.5 73.5c68 0 126.667 -24.5 176 -73.5s74 -107.833 74 -176.5c0 -68 -24.667 -126.5 -74 -175.5s-108 -73.5 -176 -73.5c-68.667 0 -127.5 24.5 -176.5 73.5s-73.5 107.5 -73.5 175.5z" />
    <glyph glyph-name="ellipsis" unicode="&#x2026;" horiz-adv-x="2048" 
d="M1698 199v-199h-133v199h133zM1016 199v-199h-133v199h133zM334 199v-199h-133v199h133z" />
    <glyph glyph-name="perthousand" unicode="&#x2030;" horiz-adv-x="2154" 
d="M393 1415c90 0 167.5 -32.333 232.5 -97s97.5 -142.334 97.5 -233.001c0 -90 -32.5 -167.333 -97.5 -232s-142.5 -97 -232.5 -97c-90.667 0 -168.334 32.167 -233.001 96.5s-97 141.833 -97 232.5s32.333 168.334 97 233.001s142.334 97 233.001 97zM393 844
c66.667 0 123.667 23.667 171 71s71 104 71 170c0 66.667 -23.667 123.667 -71 171s-104.333 71 -171 71c-66 0 -122.667 -23.833 -170 -71.5s-71 -104.5 -71 -170.5c0 -66.667 23.5 -123.5 70.5 -170.5s103.833 -70.5 170.5 -70.5zM1323 1409l-1124 -1432h-103l1127 1432
h100zM1823 635c90 0 167.333 -32.334 232 -97.001s97 -142.334 97 -233.001c0 -90 -32.333 -167.5 -97 -232.5s-142 -97.5 -232 -97.5c-90.667 0 -168.334 32.333 -233.001 97s-97 142.334 -97 233.001s32.333 168.334 97 233.001s142.334 97 233.001 97zM1823 62.999
c66 0 122.667 23.833 170 71.5s71 104.5 71 170.5s-23.667 122.833 -71 170.5s-104 71.5 -170 71.5s-122.833 -24 -170.5 -72s-71.5 -104.667 -71.5 -170c0 -66.667 23.667 -123.667 71 -171s104.333 -71 171 -71zM1063 634.999c90 0 167.5 -32.334 232.5 -97.001
s97.5 -142.334 97.5 -233.001c0 -90 -32.5 -167.5 -97.5 -232.5s-142.5 -97.5 -232.5 -97.5c-90.667 0 -168.334 32.333 -233.001 97s-97 142.334 -97 233.001s32.333 168.334 97 233.001s142.334 97 233.001 97zM1063 62.998c66 0 122.833 23.833 170.5 71.5
s71.5 104.5 71.5 170.5s-23.833 122.833 -71.5 170.5s-104.5 71.5 -170.5 71.5s-122.833 -24 -170.5 -72s-71.5 -104.667 -71.5 -170c0 -66.667 23.667 -123.667 71 -171s104.333 -71 171 -71z" />
    <glyph glyph-name="guilsinglleft" unicode="&#x2039;" horiz-adv-x="469" 
d="M444 934l-335 -467l180 -453h-96l-181 457l336 463h96z" />
    <glyph glyph-name="guilsinglright" unicode="&#x203a;" horiz-adv-x="469" 
d="M-23 14l336 467l-180 453h96l181 -457l-336 -463h-97z" />
    <glyph glyph-name="fraction" unicode="&#x2044;" horiz-adv-x="341" 
d="M760 1416l-1099 -1471h-80l1099 1471h80z" />
    <glyph glyph-name="Euro" unicode="&#x20ac;" horiz-adv-x="1030" 
d="M309 860l627 -0.000976562l-18 -92h-637c-9.33301 -36 -16.333 -81 -21 -135h627l-19 -92h-612c6.66699 -149.333 41.334 -264.5 104.001 -345.5s138.667 -121.5 228 -121.5c121.333 0 240 42.333 356 127l-14 -115c-118.667 -69.333 -234.667 -104 -348 -104
c-116 0 -215 48.833 -297 146.5s-125.667 235.167 -131 412.5h-117l18 92h103c3.33301 44 10 89 20 135h-141l18 92h150c60.667 178.667 151.5 315.834 272.5 411.501s251.833 143.5 392.5 143.5c50 0 113 -9.66699 189 -29l-23 -90c-54.667 18 -110 27 -166 27
c-118 0 -227.333 -41.333 -328 -124s-178.334 -195.667 -233.001 -339z" />
    <glyph glyph-name="uni20B4" unicode="&#x20b4;" horiz-adv-x="1067" 
d="M694 860c23.333 18 44.501 36.998 63.501 56.998s35.333 41.5 49 64.5s24.334 47.833 32.001 74.5s11.5 55.667 11.5 87c0 27.333 -4.66699 51.833 -14 73.5s-22.5 40.334 -39.5 56.001s-37.5 27.667 -61.5 36s-50.667 12.5 -80 12.5
c-17.333 0 -36.333 -2.16699 -57 -6.5s-42 -10.166 -64 -17.499s-44.167 -16.166 -66.5 -26.499s-43.833 -21.5 -64.5 -33.5v100c16.667 11.333 35.667 21.666 57 30.999s43.666 17.5 66.999 24.5s47.333 12.5 72 16.5s48.334 6 71.001 6
c42.667 0 81.5 -6.83301 116.5 -20.5s65 -32.5 90 -56.5s44.5 -52.5 58.5 -85.5s21 -68.833 21 -107.5c0 -61.333 -11.167 -115.166 -33.5 -161.499s-51.166 -87.5 -86.499 -123.5h141l-19 -92h-235l-102.5 -68l-102.5 -67h422l-18 -92h-523
c-18.667 -18.667 -35.834 -38.167 -51.501 -58.5s-29.167 -42.333 -40.5 -66s-20.333 -48.834 -27 -75.501s-10 -55.667 -10 -87c0 -32 5.66699 -59.167 17 -81.5s27 -40.666 47 -54.999s43.5 -24.833 70.5 -31.5s56.167 -10 87.5 -10c20 0 40 1.5 60 4.5
s41.167 8.16699 63.5 15.5s46.666 17 72.999 29s56.166 27 89.499 45v-94c-20.667 -12.667 -44 -24.667 -70 -36s-53 -21.333 -81 -30s-55.833 -15.5 -83.5 -20.5s-53.167 -7.5 -76.5 -7.5c-44.667 0 -85.667 6.83301 -123 20.5s-69.333 32.5 -96 56.5
s-47.334 52.667 -62.001 86s-22 69.666 -22 108.999c0 60.667 9.33301 114.167 28 160.5s43.334 88.5 74.001 126.5h-133l19 92h208c32 24.667 64.667 48 98 70l99 65h-387l18 92h506z" />
    <glyph glyph-name="afii61352" unicode="&#x2116;" horiz-adv-x="2277" 
d="M1274 1225c4 28.667 11.167 55 21.5 79s24.833 44.667 43.5 62s41.5 30.833 68.5 40.5s59.5 14.5 97.5 14.5h119l-14 -94h-113c-18 0 -33.5 -1.5 -46.5 -4.5s-24 -8.5 -33 -16.5s-16.333 -19.167 -22 -33.5s-10.167 -32.833 -13.5 -55.5l-180 -1235h-49l-817 1202
l-166 -1184h-109l197 1397h51l817 -1219zM1921 1036c43.333 0 83.335 -7.66797 120.002 -23.001s68.334 -36.166 95 -62.499c26.667 -26.333 47.667 -57.5 63 -93.5s23 -74.667 23 -116c0 -58.667 -10.833 -112.167 -32.5 -160.5s-50.834 -89.5 -87.501 -123.5
s-79 -60.333 -127 -79s-98 -28 -150 -28c-42.667 0 -82.167 7.5 -118.5 22.5s-67.833 35.667 -94.5 62s-47.334 57.5 -62.001 93.5s-22 75 -22 117c0 51.333 10 100.5 30 147.5s47.667 88.5 83 124.5s76.833 64.833 124.5 86.5s99.5 32.5 155.5 32.5zM1909 939.999
c-46.667 0 -87.333 -8.66602 -122 -25.999s-63.334 -39.5 -86.001 -66.5s-39.5 -57.333 -50.5 -91s-16.5 -66.834 -16.5 -99.501c0 -29.333 4.83301 -56.833 14.5 -82.5s23.5 -48 41.5 -67s39.667 -34 65 -45s53.333 -16.5 84 -16.5c36.667 0 71.667 6.33301 105 19
s62.833 31.167 88.5 55.5s46 53.833 61 88.5s22.5 74 22.5 118c0 30 -5 57.833 -15 83.5s-24.167 48.167 -42.5 67.5s-40.166 34.5 -65.499 45.5s-53.333 16.5 -84 16.5zM2183 231l-16 -108h-750l17 108h749z" />
    <glyph glyph-name="trademark" unicode="&#x2122;" horiz-adv-x="1925" 
d="M205 1462h635v-84h-265v-729h-104v729h-266v84zM934 1462h153l207 -649l213 649h154v-813h-92v729l-244 -729h-70l-229 729v-729h-92v813z" />
    <glyph glyph-name="minus" unicode="&#x2212;" horiz-adv-x="1352" 
d="M1239 764v-90h-1073v90h1073z" />
    <glyph glyph-name="apple" unicode="&#xf8ff;" horiz-adv-x="1618" 
d="M1123 1617c0 -42.667 -10.001 -89.3311 -30.001 -139.998s-51.667 -97.667 -95 -141c-30 -30 -60.667 -52 -92 -66s-73 -22.333 -125 -25c1.33301 101.333 27.833 189 79.5 263s137.167 124.667 256.5 152c2.66699 -8.66699 4.33398 -16.334 5.00098 -23.001
s1 -13.334 1 -20.001zM1509 414.003c-12.667 -41.333 -29.5 -83.334 -50.5 -126.001s-46.167 -86.334 -75.5 -131.001c-44 -67.333 -88 -117.666 -132 -150.999s-88 -50 -132 -50c-34.667 0 -82.5 11 -143.5 33s-112.5 33 -154.5 33s-90.833 -11.5 -146.5 -34.5
s-100.834 -34.5 -135.501 -34.5c-52 0 -103.667 22.167 -155 66.5s-102.333 110.833 -153 199.5c-50 87.333 -87.667 174 -113 260s-38 171.333 -38 256c0 156.667 38.5 284.334 115.5 383.001s174.167 148 291.5 148c50 0 110.5 -10.333 181.5 -31s118.167 -31 141.5 -31
c30 0 79 11.667 147 35s127 35 177 35c64.667 0 123.334 -13.5 176.001 -40.5s102.667 -69.833 150 -128.5c-74 -62.667 -123.167 -120.167 -147.5 -172.5s-36.5 -105.833 -36.5 -160.5c0 -84.667 23.667 -161 71 -229s101.333 -111 162 -129z" />
    <glyph glyph-name="glyph4" horiz-adv-x="0" 
 />
    <glyph glyph-name="notequal" horiz-adv-x="1352" 
d="M592 338l-139 -291h-99l142 291h-265v94h312l159 332h-471v94h517l139 291h98l-141 -291h278v-94h-323l-160 -332h483v-94h-530z" />
    <glyph glyph-name="infinity" horiz-adv-x="1481" 
d="M1370 602c0 -42 -6.82812 -81.5 -20.4951 -118.5s-33.167 -69.333 -58.5 -97s-55.833 -49.5 -91.5 -65.5s-75.167 -24 -118.5 -24c-40 0 -77.333 6.33301 -112 19s-66.167 29.167 -94.5 49.5s-53.833 43.666 -76.5 69.999s-42.334 53.166 -59.001 80.499h-4
c-18 -29.333 -38.833 -57.166 -62.5 -83.499s-49.334 -49.5 -77.001 -69.5s-57 -36 -88 -48s-63.5 -18 -97.5 -18c-48 0 -90.667 7.66699 -128 23s-68.833 36.333 -94.5 63s-45.167 58 -58.5 94s-20 74.333 -20 115c0 43.333 6.66699 83.666 20 120.999
s32.5 69.666 57.5 96.999s55.5 48.666 91.5 63.999s77 23 123 23c43.333 0 82.666 -7 117.999 -21s66.833 -31.667 94.5 -53s51.667 -44.666 72 -69.999s37.5 -49.666 51.5 -72.999h4c15.333 23.333 33.666 47.833 54.999 73.5s45.666 49.167 72.999 70.5
s57.833 38.833 91.5 52.5s70.5 20.5 110.5 20.5c42.667 0 82.167 -7 118.5 -21s67.833 -33.667 94.5 -59s47.667 -56.166 63 -92.499s23 -77.166 23 -122.499zM1270 600c0 28.667 -4.16797 55.6689 -12.501 81.002s-20.666 47.5 -36.999 66.5s-37 34 -62 45
s-54.167 16.5 -87.5 16.5c-30 0 -58.167 -5 -84.5 -15s-51.166 -24.333 -74.499 -43s-45.5 -40.834 -66.5 -66.501s-41.5 -54.5 -61.5 -86.5c39.333 -68.667 83.666 -121.334 132.999 -158.001s100 -55 152 -55c34 0 63.667 5.66699 89 17s46.333 26.833 63 46.5
s29 42.5 37 68.5s12 53.667 12 83zM694.004 598.002c-16.667 30 -36.168 57.998 -58.501 83.998s-46 48.333 -71 67s-50.833 33.334 -77.5 44.001s-53 16 -79 16c-35.333 0 -65.666 -5.66699 -90.999 -17s-46 -26.833 -62 -46.5s-27.667 -42.667 -35 -69
s-11 -54.5 -11 -84.5c0 -31.333 5 -59.666 15 -84.999s23.833 -47 41.5 -65s38.667 -32 63 -42s50.833 -15 79.5 -15c30 0 58.5 5.83301 85.5 17.5s52.5 27.167 76.5 46.5s46.333 42 67 68s39.667 53 57 81z" />
    <glyph glyph-name="lessequal" horiz-adv-x="1352" 
d="M231 0v94h891v-94h-891zM231 688v45l891 422v-106l-723 -336v-4l723 -338v-107z" />
    <glyph glyph-name="greaterequal" horiz-adv-x="1352" 
d="M231 0v94h891v-94h-891zM231 264v107l723 336v4l-723 338v106l891 -422v-45z" />
    <glyph glyph-name="partialdiff" horiz-adv-x="1100" 
d="M997 1034c0 -54 -4.16797 -116.333 -12.501 -187s-21.833 -144 -40.5 -220c-11.333 -48 -25.666 -97.167 -42.999 -147.5s-37.666 -99.5 -60.999 -147.5s-49.666 -93.333 -78.999 -136s-62 -80 -98 -112s-75.667 -57.333 -119 -76s-90.333 -28 -141 -28
c-46.667 0 -89 8.5 -127 25.5s-70.667 41.167 -98 72.5s-48.5 69.166 -63.5 113.499s-22.5 93.833 -22.5 148.5c0 63.333 6.5 124.166 19.5 182.499s31.333 113 55 164s51.667 97.333 84 139s68 77.334 107 107.001s80.333 52.667 124 69s88.5 24.5 134.5 24.5
c35.333 0 67 -4.33301 95 -13s52.833 -20 74.5 -34s40.167 -30.333 55.5 -49s28 -38 38 -58h4c3.33301 23.333 6.16602 48 8.49902 74s3.5 55.333 3.5 88c0 63.333 -6.33301 118 -19 164s-30.834 83.667 -54.501 113s-52.667 51 -87 65s-73.166 21 -116.499 21
c-28 0 -57.667 -4.5 -89 -13.5s-61 -21.5 -89 -37.5l-15.5 40.5c-5 13.667 -10.5 26.5 -16.5 38.5c11.333 7.33301 25.5 14.5 42.5 21.5s35.5 13.333 55.5 19s40.667 10.334 62 14.001s41.666 5.5 60.999 5.5c56.667 0 107.667 -9.33301 153 -28s84 -46.834 116 -84.501
s56.5 -84.667 73.5 -141s25.5 -122.166 25.5 -197.499zM863.999 748c-6.66699 27.333 -17 52.666 -31 75.999s-31.5 43.5 -52.5 60.5s-45.5 30.167 -73.5 39.5s-59.667 14 -95 14c-56 0 -109.333 -16.333 -160 -49s-95 -76.667 -133 -132s-68.167 -119.166 -90.5 -191.499
s-33.5 -148.166 -33.5 -227.499c0 -42.667 5.33301 -80.834 16 -114.501s25.5 -62 44.5 -85s41.667 -40.5 68 -52.5s55.166 -18 86.499 -18c50.667 0 98.834 15.167 144.501 45.5s88 74.5 127 132.5s74 129.167 105 213.5s56.833 180.5 77.5 288.5z" />
    <glyph glyph-name="summation" horiz-adv-x="1206" 
d="M47 -471v39l672 921l-310.5 446.5l-310.5 446.5v52h998v-88h-856l295.5 -428.5l295.5 -425.5l-316.5 -437l-317.5 -438h952v-88h-1102z" />
    <glyph glyph-name="product" horiz-adv-x="1366" 
d="M1090 -471v1814h-811v-1814h-103v1905h1016v-1905h-102z" />
    <glyph glyph-name="pi" horiz-adv-x="1204" 
d="M1128 10c-12 -7.33301 -27.8301 -12.8301 -47.4971 -16.4971s-39.167 -5.5 -58.5 -5.5c-38 0 -70.5 6.5 -97.5 19.5s-49 30.5 -66 52.5s-29.5 47.667 -37.5 77s-12 60.666 -12 93.999v705h-420v-676c0 -51.333 -2.16699 -99.833 -6.5 -145.5
s-10.166 -83.834 -17.499 -114.501h-105c9.33301 37.333 16.166 79.166 20.499 125.499s6.5 91.166 6.5 134.499v676c-14.667 -0.666992 -30.834 -2.16699 -48.501 -4.5s-35.667 -5.5 -54 -9.5s-36 -8.5 -53 -13.5s-32.167 -10.167 -45.5 -15.5l-15.5 42
c-5 13.333 -10.833 27.333 -17.5 42c23.333 10 57 20.333 101 31s96.333 16 157 16h815v-88h-213v-696c0 -24.667 2.33301 -47.167 7 -67.5s12.167 -37.666 22.5 -51.999s23.666 -25.333 39.999 -33s36.166 -11.5 59.499 -11.5c10.667 0 21 1.33301 31 4s20.333 6 31 10
l12 -40.5z" />
    <glyph glyph-name="integral" horiz-adv-x="946" 
d="M782 1425c-8 4.66699 -20.3301 9 -36.9971 13s-33.667 6 -51 6c-56.667 0 -99.167 -18.333 -127.5 -55s-42.5 -88 -42.5 -154v-1387c0 -47.333 -6.33301 -89.333 -19 -126s-30.834 -67.667 -54.501 -93s-52 -44.666 -85 -57.999s-70.167 -20 -111.5 -20
c-10 0 -20.5 0.5 -31.5 1.5s-21.833 2.5 -32.5 4.5s-20.667 4.16699 -30 6.5s-17 5.16602 -23 8.49902l12.5 41c4.33301 14 8.5 28.333 12.5 43c12 -4 24.833 -7.66699 38.5 -11s30.167 -5 49.5 -5c58 0 101.167 17.667 129.5 53s42.5 86.333 42.5 153v1391
c0 45.333 6.16699 86.333 18.5 123s30.166 67.667 53.499 93s51.833 44.833 85.5 58.5s71.834 20.5 114.501 20.5c21.333 0 43.166 -2.16699 65.499 -6.5s38.166 -9.83301 47.499 -16.5l-12 -42c-4 -14.667 -8.33301 -28.667 -13 -42z" />
    <glyph glyph-name="radical" horiz-adv-x="944" 
d="M969 1491l-191.501 -757.5l-191.5 -758.5h-86l-139.5 369l-139.5 367l-52 -28l-54 -30c-6.66699 12.667 -12.667 25.5 -18 38.5s-11.666 25.5 -18.999 37.5l101 52.5l100 52.5l130 -344.5l130 -344.5l167.5 673l167.5 673h95v0z" />
    <glyph glyph-name="approxequal" horiz-adv-x="1352" 
d="M1147 860c-14.667 -21.333 -30.9971 -42 -48.9971 -62s-38 -37.667 -60 -53s-46 -27.666 -72 -36.999s-55 -14 -87 -14c-40 0 -78.5 6.83301 -115.5 20.5s-70.833 30.167 -101.5 49.5c-29.333 17.333 -60 33.333 -92 48s-65 22 -99 22c-38 0 -74.167 -12.667 -108.5 -38
s-64.5 -58 -90.5 -98l-65 66c15.333 22 31.666 43 48.999 63s36.833 37.5 58.5 52.5s45.5 26.833 71.5 35.5s55 13 87 13c42 0 81.5 -6.66699 118.5 -20s69.833 -29.333 98.5 -48c33.333 -20.667 65.166 -37.834 95.499 -51.501s62.166 -20.5 95.499 -20.5
c38 0 74.167 12.667 108.5 38s64.833 58 91.5 98l66 -64v0zM1147 434c-14.667 -20.667 -30.9971 -40.999 -48.9971 -60.999s-38 -37.5 -60 -52.5s-46 -27.167 -72 -36.5s-55 -14 -87 -14c-40 0 -78.5 6.83301 -115.5 20.5s-70.833 30.167 -101.5 49.5
c-29.333 17.333 -60 33.333 -92 48s-65 22 -99 22c-38 0 -74.167 -12.667 -108.5 -38s-64.5 -58.666 -90.5 -99.999l-65 68c15.333 22 31.666 43 48.999 63s36.833 37.5 58.5 52.5s45.5 26.833 71.5 35.5s55 13 87 13c42 0 81.5 -7 118.5 -21s69.833 -30.333 98.5 -49
c33.333 -20.667 65.166 -37.334 95.499 -50.001s62.166 -19 95.499 -19c38 0 74.167 12.167 108.5 36.5s64.833 57.166 91.5 98.499l66 -66v0z" />
    <glyph glyph-name="lozenge" horiz-adv-x="1057" 
d="M940 717l-191.5 -358.5l-191.5 -358.5h-61l-191.5 357.5l-191.5 357.5l191.5 359l191.5 360h61l191.5 -359zM840 717l-157.5 291.5l-156.5 291.5l-156.5 -291.5l-156.5 -291.5l155.5 -292l155.5 -292l157 292z" />
    <glyph glyph-name="Omega" horiz-adv-x="1372" 
d="M846 0l-0.00195312 88.0059c32 28.667 66.333 63 103 103s70.334 87.667 101.001 143s56.167 119.166 76.5 191.499s30.5 155.166 30.5 248.499c0 84.667 -10.167 163.167 -30.5 235.5s-50.166 135 -89.499 188s-88.333 94.667 -147 125s-126 45.5 -202 45.5
c-73.333 0 -139.666 -14.833 -198.999 -44.5s-109.833 -71 -151.5 -124s-73.834 -115.5 -96.501 -187.5s-34 -150.667 -34 -236c0 -90 9.66699 -170.5 29 -241.5s44.333 -134.333 75 -190s64.5 -104.334 101.5 -146.001s73.5 -78.5 109.5 -110.5v-88h-418v88h304
c-30.667 26.667 -63.834 60.667 -99.501 102s-68.834 90.666 -99.501 147.999s-56.167 122.833 -76.5 196.5s-30.5 156.167 -30.5 247.5c0 96 14.167 185.167 42.5 267.5s68.333 153.666 120 213.999s113.5 107.833 185.5 142.5s151.333 52 238 52
c90 0 170.5 -16.333 241.5 -49s131.167 -78.5 180.5 -137.5s87 -129.833 113 -212.5s39 -174.334 39 -275.001c0 -82.667 -9.33301 -159.667 -28 -231s-42.667 -136.333 -72 -195s-62.166 -110.667 -98.499 -156s-72.166 -83.333 -107.499 -114h306v-88h-416z" />
    <glyph glyph-name="Delta" horiz-adv-x="1145" 
d="M43 0v61l240.5 686.5l240.5 686.5h103l238 -686.5l237 -686.5v-61h-1059zM983 90l-189.5 552.998l-189.5 553c-8 22.667 -13.667 42.334 -17 59.001s-7.33301 33.334 -12 50.001h-4l-13.5 -53c-5 -20 -10.5 -38.667 -16.5 -56l-189.5 -553l-189.5 -553h821v0z" />
    <glyph glyph-name="divisionslash" horiz-adv-x="342" 
d="M-340 -55h-80l1100 1470h80z" />
    <glyph glyph-name="bulletoperator" horiz-adv-x="575" 
d="M319 819c15.333 0 29.833 -2.83301 43.5 -8.5s25.5 -13.5 35.5 -23.5s17.833 -21.667 23.5 -35s8.5 -27.666 8.5 -42.999s-2.83301 -29.833 -8.5 -43.5s-13.5 -25.5 -23.5 -35.5s-21.833 -17.833 -35.5 -23.5s-28.167 -8.5 -43.5 -8.5s-29.666 2.83301 -42.999 8.5
s-25 13.5 -35 23.5s-17.833 21.833 -23.5 35.5s-8.5 28.167 -8.5 43.5s2.83301 29.666 8.5 42.999s13.5 25 23.5 35s21.667 17.833 35 23.5s27.666 8.5 42.999 8.5z" />
    <glyph glyph-name="uni2074" horiz-adv-x="662" 
d="M510 971h135l-8 -47h-137l-39 -244h-80l39 244h-330v26l453 465h41zM479 1264l-286 -293h237z" />
    <glyph glyph-name="glyph250" horiz-adv-x="569" 
 />
    <glyph glyph-name="glyph251" horiz-adv-x="569" 
 />
    <glyph glyph-name="glyph252" horiz-adv-x="0" 
 />
    <glyph glyph-name="glyph253" horiz-adv-x="0" 
 />
    <glyph glyph-name="Omegagreek" horiz-adv-x="1372" 
d="M846 0l-0.00195312 88.0059c32 28.667 66.333 63 103 103s70.334 87.667 101.001 143s56.167 119.166 76.5 191.499s30.5 155.166 30.5 248.499c0 84.667 -10.167 163.167 -30.5 235.5s-50.166 135 -89.499 188s-88.333 94.667 -147 125s-126 45.5 -202 45.5
c-73.333 0 -139.666 -14.833 -198.999 -44.5s-109.833 -71 -151.5 -124s-73.834 -115.5 -96.501 -187.5s-34 -150.667 -34 -236c0 -90 9.66699 -170.5 29 -241.5s44.333 -134.333 75 -190s64.5 -104.334 101.5 -146.001s73.5 -78.5 109.5 -110.5v-88h-418v88h304
c-30.667 26.667 -63.834 60.667 -99.501 102s-68.834 90.666 -99.501 147.999s-56.167 122.833 -76.5 196.5s-30.5 156.167 -30.5 247.5c0 96 14.167 185.167 42.5 267.5s68.333 153.666 120 213.999s113.5 107.833 185.5 142.5s151.333 52 238 52
c90 0 170.5 -16.333 241.5 -49s131.167 -78.5 180.5 -137.5s87 -129.833 113 -212.5s39 -174.334 39 -275.001c0 -82.667 -9.33301 -159.667 -28 -231s-42.667 -136.333 -72 -195s-62.166 -110.667 -98.499 -156s-72.166 -83.333 -107.499 -114h306v-88h-416z" />
    <glyph glyph-name="glyph270" horiz-adv-x="0" 
 />
    </font>
</defs>
</svg>
